<?xml version="1.0" encoding="utf-8"?>
<!-- Generator: Adobe Illustrator 23.0.5, SVG Export Plug-In . SVG Version: 6.00 Build 0)  -->
<svg version="1.1" id="Capa_1" xmlns="http://www.w3.org/2000/svg" xmlns:xlink="http://www.w3.org/1999/xlink" x="0px" y="0px"
	 viewBox="0 0 141.73 141.73" style="enable-background:new 0 0 141.73 141.73;" xml:space="preserve">
<style type="text/css">
	.st0{fill:#FFFFFF;stroke:#000000;stroke-width:2.1898;stroke-miterlimit:10;}
</style>
<circle class="st0" cx="70.87" cy="70.87" r="62.07"/>
<g>
	<path d="M38.21,70.89c0-0.31,0-0.56,0-0.8c0-10.05,0-20.1,0-30.15c0-3.7,2.06-6.26,5.68-7.06c0.28-0.06,0.58-0.07,0.87-0.07
		c4.21,0,8.42-0.03,12.63,0c2.95,0.02,5.45,1.91,6.31,4.74c0.16,0.53,0.38,0.71,0.94,0.7c1.55-0.05,3.1-0.01,4.65-0.02
		c0.7-0.01,1.18,0.27,1.5,0.91c0.81,1.67,1.64,3.34,2.5,4.99c0.62,1.18-0.01,2.27-1.41,2.26c-6.16-0.05-12.31-0.02-18.47-0.02
		c-1.28,0-1.88-0.82-1.34-1.99c0.84-1.84,1.76-3.64,2.66-5.45c0.26-0.52,0.73-0.7,1.3-0.7c1.44,0.01,2.89,0,4.33,0
		c0.22,0,0.45,0,0.68,0c-0.34-1.52-1.94-2.74-3.69-2.75c-4.15-0.03-8.29-0.04-12.44,0c-2.32,0.03-4.03,1.89-4.04,4.26
		c0,4.25,0,8.5,0,12.75c0,5.84,0,11.67-0.01,17.51c0,0.27,0,0.54,0,0.85c0.52,0,0.97,0,1.44,0c1.06-5.17,4.05-8.59,9.37-9.34
		c5.24-0.73,9.02,1.7,11.5,6.35c1.31-1.19,2.84-1.83,4.62-1.72c1.76,0.1,3.2,0.88,4.35,2.18c0.49-0.45,0.94-0.93,1.45-1.32
		c1.33-1.02,2.87-1.46,4.53-1.55c0.29-0.02,0.66-0.16,0.84-0.37c5.16-5.83,14.53-4.6,17.97,2.37c0.09,0.19,0.19,0.37,0.33,0.64
		c1.56-1.21,3.31-1.61,5.18-1.02c1.87,0.59,3.04,1.91,3.63,3.82c0.42,0,0.84,0,1.25,0c1.18,0.01,1.75,0.64,1.57,1.8
		c-0.33,2.17-0.68,4.34-1.01,6.5c-0.5,3.24-0.98,6.48-1.48,9.72c-0.6,3.88-1.2,7.77-1.81,11.65c-0.36,2.31-0.72,4.62-1.07,6.94
		c-0.16,1.09-0.55,1.46-1.64,1.46c-7.31-0.01-14.62-0.03-21.92-0.03c-13.32,0-26.63,0.02-39.95,0.03c-1.33,0-1.65-0.28-1.85-1.58
		c-0.86-5.56-1.73-11.11-2.59-16.67c-0.9-5.82-1.78-11.65-2.67-17.48c-0.04-0.27-0.11-0.53-0.13-0.8c-0.06-0.92,0.49-1.52,1.41-1.53
		C35.5,70.88,36.8,70.89,38.21,70.89z M106.05,73.6c-23.48,0-46.9,0-70.38,0c0.18,1.1,0.35,2.1,0.51,3.11
		c0.77,5.06,1.52,10.12,2.29,15.18c0.7,4.56,1.42,9.12,2.11,13.69c0.08,0.51,0.23,0.72,0.81,0.72c6.4-0.03,12.81-0.02,19.21-0.02
		c7.72,0,15.44,0,23.16,0c5.49,0,10.97,0,16.46,0c0.25,0,0.49,0,0.8,0C102.7,95.38,104.37,84.53,106.05,73.6z M61.17,70.85
		c-0.27-3.22-3.67-7.07-8.53-6.79c-4.11,0.23-7.27,3.76-7.45,6.79C50.51,70.85,55.84,70.85,61.17,70.85z M81.75,66.13
		c0.17,0.1,0.26,0.16,0.35,0.21c1.69,0.97,2.94,2.31,3.5,4.23c0.04,0.15,0.37,0.3,0.56,0.3c2.86,0.02,5.73,0.01,8.59,0.01
		c0.16,0,0.31-0.03,0.46-0.05c-0.19-2.49-2.42-5.28-5.08-6.24C87.11,63.5,84.33,64.03,81.75,66.13z M70.05,43.65
		c-0.45-0.9-0.84-1.71-1.27-2.49c-0.08-0.14-0.33-0.26-0.5-0.26c-3.7-0.02-7.4-0.02-11.1,0c-0.18,0-0.46,0.08-0.53,0.21
		c-0.45,0.81-0.85,1.65-1.31,2.55C60.28,43.65,65.1,43.65,70.05,43.65z M82.78,70.85c-0.6-1.67-2.54-2.8-4.62-2.72
		c-1.97,0.08-3.82,1.26-4.21,2.72C76.89,70.85,79.83,70.85,82.78,70.85z M64.33,70.83c2.13,0,4.16,0,6.25,0
		c-0.71-1.46-1.85-2.06-3.35-1.99C65.91,68.91,64.98,69.59,64.33,70.83z M98.51,70.89c0.82,0,1.57,0,2.32,0c0.75,0,1.5,0,2.33,0
		C101.96,68.89,99.3,69.22,98.51,70.89z"/>
	<path d="M99.57,48.98c-3.36,0.25-5.65-2.94-5.56-5.38c0.11-3.12,2.51-5.36,5.43-5.38c2.94-0.02,5.43,2.43,5.45,5.35
		C104.92,46.62,102.29,49.2,99.57,48.98z M96.73,43.57c-0.02,1.58,1.14,2.76,2.66,2.82c1.67,0.07,2.8-1.45,2.78-2.7
		c-0.02-1.56-1.16-2.76-2.7-2.8C98.15,40.86,96.61,42.1,96.73,43.57z"/>
	<path d="M92.61,53.18c-0.04,2.3-1.79,4.03-4,4.04c-2.3,0.01-4.08-1.73-4.09-4.02c-0.01-2.25,1.76-4.07,3.97-4.08
		C90.81,49.11,92.61,50.88,92.61,53.18z M88.56,54.55c0.74,0,1.36-0.59,1.38-1.32c0.02-0.75-0.61-1.43-1.35-1.44
		c-0.8-0.01-1.41,0.62-1.4,1.43C87.2,53.96,87.8,54.55,88.56,54.55z"/>
	<path d="M70.99,56.25c0,0.78-0.35,1.26-0.92,1.43c-0.63,0.19-1.23-0.02-1.55-0.61c-0.51-0.96-0.97-1.94-1.44-2.91
		c-0.49-1.01-0.98-2.03-1.46-3.05c-0.36-0.76-0.13-1.47,0.59-1.86c0.62-0.33,1.39-0.1,1.75,0.61c0.73,1.41,1.4,2.84,2.1,4.27
		c0.23,0.47,0.47,0.93,0.68,1.41C70.87,55.8,70.94,56.11,70.99,56.25z"/>
	<path d="M59.94,50.69c-0.23,0.5-0.53,1.21-0.86,1.9C58.4,54,57.7,55.4,57.02,56.81c-0.41,0.84-1.12,1.15-1.88,0.81
		c-0.68-0.3-0.95-1.08-0.57-1.87c0.93-1.96,1.88-3.91,2.85-5.85c0.33-0.66,0.95-0.91,1.57-0.74C59.53,49.31,59.95,49.87,59.94,50.69
		z"/>
	<path d="M61.33,56.13c0-0.88-0.01-1.75,0-2.63c0.01-0.88,0.56-1.47,1.36-1.47c0.81,0,1.35,0.57,1.36,1.46
		c0.01,1.75,0.01,3.51,0,5.26c0,0.92-0.58,1.56-1.36,1.55c-0.8,0-1.36-0.63-1.37-1.54C61.32,57.88,61.33,57,61.33,56.13
		C61.33,56.13,61.33,56.13,61.33,56.13z"/>
	<path d="M54.18,49.35c-0.04,0.13-0.07,0.34-0.17,0.51c-0.79,1.33-1.58,2.66-2.41,3.97c-0.45,0.71-1.21,0.89-1.84,0.5
		c-0.67-0.41-0.84-1.14-0.39-1.91c0.75-1.28,1.51-2.56,2.3-3.82c0.39-0.62,0.99-0.82,1.63-0.58C53.87,48.22,54.13,48.67,54.18,49.35
		z"/>
	<path d="M76.3,53.08c-0.06,0.72-0.34,1.14-0.91,1.35c-0.58,0.21-1.12,0.09-1.45-0.41c-0.9-1.4-1.77-2.83-2.61-4.27
		c-0.3-0.52-0.03-1.26,0.48-1.59c0.57-0.37,1.32-0.31,1.75,0.23c0.34,0.42,0.59,0.91,0.87,1.37c0.52,0.85,1.05,1.7,1.55,2.57
		C76.14,52.59,76.22,52.89,76.3,53.08z"/>
	<path d="M91.32,32.78c0.74,0.02,1.32,0.65,1.29,1.4c-0.03,0.74-0.65,1.3-1.41,1.27c-0.73-0.02-1.29-0.66-1.26-1.42
		C89.98,33.34,90.62,32.76,91.32,32.78z"/>
	<path d="M60.19,97.46c-0.02-1.68,0.55-3.14,1.63-4.43c1.31-1.57,2.61-3.15,3.89-4.75c2.54-3.17,7.62-3.23,10.23-0.09
		c1.35,1.62,2.69,3.26,4.02,4.89c2.39,2.93,2.1,6.88-0.68,9.26c-1.58,1.35-3.37,1.48-5.23,0.77c-0.77-0.29-1.48-0.77-2.16-1.24
		c-0.86-0.6-1.25-0.64-2.06,0.02c-1.44,1.17-3.07,1.83-4.93,1.58c-2.51-0.34-4.62-2.84-4.72-5.45
		C60.18,97.83,60.19,97.65,60.19,97.46z M78.9,97.47c0-0.9-0.38-1.94-0.98-2.66c-1.3-1.58-2.61-3.16-3.9-4.75
		c-1.67-2.05-4.75-2-6.37,0.06c-1.2,1.53-2.43,3.04-3.69,4.52c-0.94,1.11-1.36,2.34-1.01,3.77c0.34,1.39,1.7,2.84,3.3,2.32
		c0.68-0.22,1.3-0.64,1.93-0.98c0.51-0.28,0.98-0.68,1.52-0.84c1.47-0.44,2.75-0.05,3.96,0.93c1.64,1.33,3.23,1.37,4.38-0.01
		C78.62,99.16,78.89,98.35,78.9,97.47z"/>
	<path d="M55.83,88.67c0.13-0.63,0.19-1.16,0.34-1.65c0.45-1.43,1.57-2.39,2.85-2.47c1.44-0.1,2.6,0.6,3.24,2.09
		c0.69,1.61,0.58,3.2-0.46,4.65c-1.48,2.04-4.4,1.69-5.44-0.67C56.09,89.98,55.99,89.26,55.83,88.67z M60.06,88.52
		c-0.1-0.3-0.18-0.63-0.32-0.92c-0.08-0.16-0.31-0.39-0.43-0.37c-0.18,0.03-0.4,0.22-0.49,0.4c-0.27,0.56-0.33,1.17-0.04,1.74
		c0.1,0.21,0.35,0.51,0.48,0.49c0.21-0.03,0.44-0.28,0.56-0.49C59.94,89.14,59.97,88.84,60.06,88.52z"/>
	<path d="M85.83,88.3c-0.08,1.73-0.51,3-1.78,3.84c-1.12,0.74-2.52,0.64-3.55-0.23c-1.76-1.48-1.96-4.62-0.41-6.3
		c1.7-1.83,4.44-1.26,5.36,1.14C85.67,87.32,85.75,87.95,85.83,88.3z M83.15,88.55c0.05-0.04,0.1-0.07,0.15-0.11
		c-0.29-0.41-0.51-0.9-0.89-1.2c-0.22-0.18-0.72,0.71-0.7,1.36c0.02,0.68,0.39,1.33,0.74,1.3C82.82,89.87,83.16,89.21,83.15,88.55z"
		/>
	<path d="M69.47,80.65c-0.05,1.15-0.45,2.41-1.69,3.25c-1.23,0.84-2.7,0.71-3.79-0.31c-1.19-1.12-1.66-3.17-0.99-4.68
		c0.27-0.61,0.58-1.27,1.05-1.72c1.37-1.31,3.39-1.07,4.55,0.44C69.15,78.37,69.47,79.36,69.47,80.65z M66.81,80.29
		c-0.05-0.19-0.1-0.55-0.25-0.86c-0.25-0.53-0.64-0.53-0.9-0.01c-0.16,0.33-0.27,0.71-0.28,1.07c-0.02,0.64,0.39,1.27,0.72,1.25
		C66.45,81.72,66.8,81.08,66.81,80.29z"/>
	<path d="M79.01,80.38c0,1.01-0.27,1.94-0.87,2.76c-1.25,1.72-3.61,1.76-4.94,0.1c-1.54-1.93-1.18-5.03,0.75-6.37
		c1.18-0.82,2.57-0.6,3.62,0.39C78.51,78.13,79.03,79.11,79.01,80.38z M74.9,80.47c0.06,0.22,0.11,0.58,0.27,0.89
		c0.25,0.51,0.67,0.51,0.91,0c0.15-0.33,0.32-0.74,0.24-1.07c-0.1-0.44-0.4-1.17-0.66-1.19c-0.6-0.05-0.62,0.63-0.73,1.11
		C74.92,80.26,74.92,80.3,74.9,80.47z"/>
</g>
</svg>
