<?xml version="1.0" encoding="utf-8"?>
<!-- Generator: Adobe Illustrator 23.0.5, SVG Export Plug-In . SVG Version: 6.00 Build 0)  -->
<svg version="1.1" id="Capa_1" xmlns="http://www.w3.org/2000/svg" xmlns:xlink="http://www.w3.org/1999/xlink" x="0px" y="0px"
	 viewBox="0 0 141.7 141.7" style="enable-background:new 0 0 141.7 141.7;" xml:space="preserve">
<style type="text/css">
	.st0{fill:#09B1B8;}
</style>
<g>
	<path class="st0" d="M16.9,70.9c0-0.5,0-0.9,0-1.3c0-16.6,0-33.3,0-49.9c0-6.1,3.4-10.4,9.4-11.7c0.5-0.1,1-0.1,1.4-0.1
		c7,0,13.9,0,20.9,0c4.9,0,9,3.2,10.4,7.8c0.3,0.9,0.6,1.2,1.6,1.2c2.6-0.1,5.1,0,7.7,0c1.2,0,2,0.4,2.5,1.5
		c1.3,2.8,2.7,5.5,4.1,8.3c1,2,0,3.8-2.3,3.7c-10.2-0.1-20.4,0-30.6,0c-2.1,0-3.1-1.4-2.2-3.3c1.4-3,2.9-6,4.4-9
		c0.4-0.9,1.2-1.2,2.2-1.2c2.4,0,4.8,0,7.2,0c0.4,0,0.7,0,1.1,0c-0.6-2.5-3.2-4.5-6.1-4.5c-6.9,0-13.7-0.1-20.6,0
		c-3.8,0-6.7,3.1-6.7,7c0,7,0,14.1,0,21.1c0,9.7,0,19.3,0,29c0,0.4,0,0.9,0,1.4c0.9,0,1.6,0,2.4,0c1.8-8.6,6.7-14.2,15.5-15.5
		c8.7-1.2,14.9,2.8,19,10.5c2.2-2,4.7-3,7.6-2.8c2.9,0.2,5.3,1.5,7.2,3.6c0.8-0.7,1.6-1.5,2.4-2.2c2.2-1.7,4.7-2.4,7.5-2.6
		c0.5,0,1.1-0.3,1.4-0.6c8.5-9.6,24-7.6,29.7,3.9c0.1,0.3,0.3,0.6,0.5,1.1c2.6-2,5.5-2.7,8.6-1.7c3.1,1,5,3.2,6,6.3
		c0.7,0,1.4,0,2.1,0c2,0,2.9,1.1,2.6,3c-0.5,3.6-1.1,7.2-1.7,10.8c-0.8,5.4-1.6,10.7-2.4,16.1c-1,6.4-2,12.9-3,19.3
		c-0.6,3.8-1.2,7.6-1.8,11.5c-0.3,1.8-0.9,2.4-2.7,2.4c-12.1,0-24.2,0-36.3,0c-22,0-44.1,0-66.1,0c-2.2,0-2.7-0.5-3.1-2.6
		c-1.4-9.2-2.9-18.4-4.3-27.6C11,94.1,9.6,84.4,8.1,74.8c-0.1-0.4-0.2-0.9-0.2-1.3c-0.1-1.5,0.8-2.5,2.3-2.5
		C12.4,70.9,14.5,70.9,16.9,70.9z M129.1,75.4c-38.8,0-77.6,0-116.4,0c0.3,1.8,0.6,3.5,0.8,5.1c1.3,8.4,2.5,16.7,3.8,25.1
		c1.2,7.5,2.3,15.1,3.5,22.6c0.1,0.8,0.4,1.2,1.3,1.2c10.6,0,21.2,0,31.8,0c12.8,0,25.5,0,38.3,0c9.1,0,18.1,0,27.2,0
		c0.4,0,0.8,0,1.3,0C123.6,111.4,126.3,93.5,129.1,75.4z M54.9,70.8c-0.4-5.3-6.1-11.7-14.1-11.2c-6.8,0.4-12,6.2-12.3,11.2
		C37.2,70.8,46,70.8,54.9,70.8z M88.9,63c0.3,0.2,0.4,0.3,0.6,0.3c2.8,1.6,4.9,3.8,5.8,7c0.1,0.2,0.6,0.5,0.9,0.5
		c4.7,0,9.5,0,14.2,0c0.3,0,0.5,0,0.8-0.1c-0.3-4.1-4-8.7-8.4-10.3C97.8,58.7,93.2,59.5,88.9,63z M69.6,25.8
		c-0.7-1.5-1.4-2.8-2.1-4.1c-0.1-0.2-0.5-0.4-0.8-0.4c-6.1,0-12.2,0-18.4,0c-0.3,0-0.8,0.1-0.9,0.3c-0.7,1.3-1.4,2.7-2.2,4.2
		C53.4,25.8,61.4,25.8,69.6,25.8z M90.6,70.8c-1-2.8-4.2-4.6-7.6-4.5c-3.3,0.1-6.3,2.1-7,4.5C80.9,70.8,85.7,70.8,90.6,70.8z
		 M60.1,70.8c3.5,0,6.9,0,10.3,0c-1.2-2.4-3.1-3.4-5.5-3.3C62.7,67.6,61.2,68.7,60.1,70.8z M116.6,70.9c1.4,0,2.6,0,3.8,0
		c1.2,0,2.5,0,3.9,0C122.3,67.6,117.9,68.1,116.6,70.9z"/>
	<path class="st0" d="M118.4,34.6c-5.6,0.4-9.3-4.9-9.2-8.9c0.2-5.2,4.2-8.9,9-8.9c4.9,0,9,4,9,8.9C127.2,30.7,122.9,35,118.4,34.6z
		 M113.7,25.7c0,2.6,1.9,4.6,4.4,4.7c2.8,0.1,4.6-2.4,4.6-4.5c0-2.6-1.9-4.6-4.5-4.6C116,21.2,113.5,23.3,113.7,25.7z"/>
	<path class="st0" d="M106.9,41.6c-0.1,3.8-3,6.7-6.6,6.7c-3.8,0-6.8-2.9-6.8-6.7c0-3.7,2.9-6.7,6.6-6.8
		C103.9,34.9,106.9,37.8,106.9,41.6z M100.2,43.9c1.2,0,2.3-1,2.3-2.2c0-1.2-1-2.4-2.2-2.4c-1.3,0-2.3,1-2.3,2.4
		C97.9,42.9,98.9,43.9,100.2,43.9z"/>
	<path class="st0" d="M71.1,46.7c0,1.3-0.6,2.1-1.5,2.4c-1,0.3-2,0-2.6-1c-0.8-1.6-1.6-3.2-2.4-4.8c-0.8-1.7-1.6-3.4-2.4-5
		c-0.6-1.3-0.2-2.4,1-3.1c1-0.5,2.3-0.2,2.9,1c1.2,2.3,2.3,4.7,3.5,7.1c0.4,0.8,0.8,1.5,1.1,2.3C70.9,45.9,71,46.4,71.1,46.7z"/>
	<path class="st0" d="M52.8,37.5c-0.4,0.8-0.9,2-1.4,3.1c-1.1,2.3-2.3,4.6-3.4,7c-0.7,1.4-1.9,1.9-3.1,1.3c-1.1-0.5-1.6-1.8-0.9-3.1
		c1.5-3.2,3.1-6.5,4.7-9.7c0.5-1.1,1.6-1.5,2.6-1.2C52.1,35.2,52.8,36.1,52.8,37.5z"/>
	<path class="st0" d="M55.1,46.5c0-1.5,0-2.9,0-4.4c0-1.5,0.9-2.4,2.3-2.4c1.3,0,2.2,0.9,2.3,2.4c0,2.9,0,5.8,0,8.7
		c0,1.5-1,2.6-2.3,2.6c-1.3,0-2.3-1-2.3-2.5C55.1,49.4,55.1,47.9,55.1,46.5L55.1,46.5z"/>
	<path class="st0" d="M43.3,35.3c-0.1,0.2-0.1,0.6-0.3,0.8c-1.3,2.2-2.6,4.4-4,6.6c-0.7,1.2-2,1.5-3,0.8c-1.1-0.7-1.4-1.9-0.6-3.2
		c1.2-2.1,2.5-4.2,3.8-6.3c0.6-1,1.6-1.4,2.7-1C42.8,33.4,43.2,34.1,43.3,35.3z"/>
	<path class="st0" d="M79.9,41.4c-0.1,1.2-0.6,1.9-1.5,2.2c-1,0.3-1.9,0.1-2.4-0.7c-1.5-2.3-2.9-4.7-4.3-7.1c-0.5-0.9,0-2.1,0.8-2.6
		c0.9-0.6,2.2-0.5,2.9,0.4c0.6,0.7,1,1.5,1.4,2.3c0.9,1.4,1.7,2.8,2.6,4.3C79.6,40.6,79.8,41.1,79.9,41.4z"/>
	<path class="st0" d="M104.7,7.8c1.2,0,2.2,1.1,2.1,2.3c0,1.2-1.1,2.2-2.3,2.1c-1.2,0-2.1-1.1-2.1-2.3
		C102.5,8.8,103.6,7.8,104.7,7.8z"/>
	<path class="st0" d="M53.2,114.9c0-2.8,0.9-5.2,2.7-7.3c2.2-2.6,4.3-5.2,6.4-7.9c4.2-5.2,12.6-5.3,16.9-0.1
		c2.2,2.7,4.5,5.4,6.7,8.1c4,4.8,3.5,11.4-1.1,15.3c-2.6,2.2-5.6,2.4-8.7,1.3c-1.3-0.5-2.4-1.3-3.6-2.1c-1.4-1-2.1-1.1-3.4,0
		c-2.4,1.9-5.1,3-8.2,2.6c-4.2-0.6-7.6-4.7-7.8-9C53.2,115.5,53.2,115.2,53.2,114.9z M84.2,114.9c0-1.5-0.6-3.2-1.6-4.4
		c-2.2-2.6-4.3-5.2-6.5-7.9c-2.8-3.4-7.9-3.3-10.5,0.1c-2,2.5-4,5-6.1,7.5c-1.6,1.8-2.3,3.9-1.7,6.2c0.6,2.3,2.8,4.7,5.5,3.8
		c1.1-0.4,2.2-1.1,3.2-1.6c0.8-0.5,1.6-1.1,2.5-1.4c2.4-0.7,4.5-0.1,6.6,1.5c2.7,2.2,5.3,2.3,7.2,0
		C83.7,117.7,84.2,116.3,84.2,114.9z"/>
	<path class="st0" d="M46,100.3c0.2-1,0.3-1.9,0.6-2.7c0.7-2.4,2.6-4,4.7-4.1c2.4-0.2,4.3,1,5.4,3.5c1.1,2.7,1,5.3-0.8,7.7
		c-2.4,3.4-7.3,2.8-9-1.1C46.5,102.5,46.3,101.3,46,100.3z M53,100.1c-0.2-0.5-0.3-1-0.5-1.5c-0.1-0.3-0.5-0.6-0.7-0.6
		c-0.3,0-0.7,0.4-0.8,0.7c-0.4,0.9-0.5,1.9-0.1,2.9c0.2,0.3,0.6,0.8,0.8,0.8c0.3,0,0.7-0.5,0.9-0.8C52.8,101.1,52.9,100.6,53,100.1z
		"/>
	<path class="st0" d="M95.7,99.7c-0.1,2.9-0.8,5-2.9,6.4c-1.9,1.2-4.2,1.1-5.9-0.4c-2.9-2.4-3.2-7.6-0.7-10.4c2.8-3,7.3-2.1,8.9,1.9
		C95.4,98.1,95.5,99.1,95.7,99.7z M91.2,100.1c0.1-0.1,0.2-0.1,0.2-0.2c-0.5-0.7-0.8-1.5-1.5-2c-0.4-0.3-1.2,1.2-1.2,2.3
		c0,1.1,0.6,2.2,1.2,2.2C90.7,102.3,91.2,101.2,91.2,100.1z"/>
	<path class="st0" d="M68.6,87c-0.1,1.9-0.7,4-2.8,5.4c-2,1.4-4.5,1.2-6.3-0.5c-2-1.9-2.7-5.2-1.6-7.7c0.4-1,1-2.1,1.7-2.8
		c2.3-2.2,5.6-1.8,7.5,0.7C68.1,83.3,68.6,84.9,68.6,87z M64.2,86.5c-0.1-0.3-0.2-0.9-0.4-1.4c-0.4-0.9-1.1-0.9-1.5,0
		c-0.3,0.5-0.4,1.2-0.5,1.8c0,1.1,0.6,2.1,1.2,2.1C63.6,88.8,64.2,87.8,64.2,86.5z"/>
	<path class="st0" d="M84.4,86.6c0,1.7-0.4,3.2-1.4,4.6c-2.1,2.8-6,2.9-8.2,0.2c-2.5-3.2-2-8.3,1.2-10.5c2-1.4,4.3-1,6,0.6
		C83.5,82.9,84.4,84.5,84.4,86.6z M77.6,86.7c0.1,0.4,0.2,1,0.4,1.5c0.4,0.8,1.1,0.8,1.5,0c0.2-0.5,0.5-1.2,0.4-1.8
		c-0.2-0.7-0.7-1.9-1.1-2c-1-0.1-1,1-1.2,1.8C77.6,86.4,77.6,86.5,77.6,86.7z"/>
</g>
</svg>
