<?xml version="1.0" encoding="utf-8"?>
<!-- Generator: Adobe Illustrator 23.0.5, SVG Export Plug-In . SVG Version: 6.00 Build 0)  -->
<svg version="1.1" id="Capa_1" xmlns="http://www.w3.org/2000/svg" xmlns:xlink="http://www.w3.org/1999/xlink" x="0px" y="0px"
	 viewBox="0 0 141.73 141.73" style="enable-background:new 0 0 141.73 141.73;" xml:space="preserve">
<style type="text/css">
	.st0{fill:#FFFFFF;stroke:#000000;stroke-width:2.1898;stroke-miterlimit:10;}
</style>
<circle class="st0" cx="70.87" cy="70.87" r="62.07"/>
<g>
	<path d="M107.15,96.97L89.53,79.35c-2.62,4.08-6.1,7.55-10.18,10.18l17.61,17.61c2.81,2.81,7.37,2.81,10.18,0
		C109.96,104.34,109.96,99.78,107.15,96.97z"/>
	<path d="M90.06,61.27c0-15.9-12.89-28.79-28.79-28.79c-15.9,0-28.79,12.89-28.79,28.79c0,15.9,12.89,28.79,28.79,28.79
		C77.17,90.06,90.06,77.17,90.06,61.27z M61.27,82.86c-11.91,0-21.59-9.69-21.59-21.59c0-11.91,9.69-21.6,21.59-21.6
		c11.91,0,21.59,9.69,21.59,21.6C82.86,73.17,73.18,82.86,61.27,82.86z"/>
	<path d="M44.47,61.27h4.8c0-6.61,5.38-12,12-12v-4.8C52.01,44.48,44.47,52.01,44.47,61.27z"/>
</g>
</svg>
