<?xml version="1.0" encoding="utf-8"?>
<!-- Generator: Adobe Illustrator 23.0.5, SVG Export Plug-In . SVG Version: 6.00 Build 0)  -->
<svg version="1.1" id="Capa_1" xmlns="http://www.w3.org/2000/svg" xmlns:xlink="http://www.w3.org/1999/xlink" x="0px" y="0px"
	 viewBox="0 0 141.73 141.73" style="enable-background:new 0 0 141.73 141.73;" xml:space="preserve">
<style type="text/css">
	.st0{fill:#FFFFFF;stroke:#000000;stroke-width:2.1898;stroke-miterlimit:10;}
</style>
<circle class="st0" cx="70.87" cy="70.87" r="62.07"/>
<g>
	<path d="M41.97,53.92c0.77,0,1.45,0,2.2,0c0,0.68,0,1.32,0,2.04c-0.7,0-1.41,0-2.2,0C41.97,55.33,41.97,54.67,41.97,53.92z"/>
	<g>
		<path d="M105.04,52.46c0,15.19,0,30.39,0,45.58c-0.07,0.22-0.16,0.43-0.21,0.65c-1.05,4.83-4.88,8.08-9.78,8.09
			c-14.59,0.04-29.19,0.05-43.78,0c-6.01-0.02-10.19-4.35-10.19-10.34c0-6.5,0-12.99,0-19.49c0-1.29,0-2.57,0-4.02
			c0.71,0.53,1.28,0.97,1.87,1.38c0.6,0.42,1.17,0.95,1.84,1.18c1.87,0.65,2.66,1.86,2.27,3.81c-0.02,0.08,0.07,0.18,0.13,0.31
			c2.52,0,5.03,0,7.58,0c0.09-0.33,0.18-0.63,0.25-0.87c1.04,0,2,0,2.95,0c0.09,0.33,0.16,0.6,0.23,0.86c2.58,0,5.1,0,7.72,0
			c0-0.75-0.04-1.45,0.02-2.14c0.02-0.28,0.18-0.66,0.4-0.79c0.85-0.49,1.75-0.9,2.81-1.43c0,1.54,0,2.94,0,4.37
			c2.67,0,5.19,0,7.76,0c0-2.63,0-5.21,0-7.95c-1.11,0-2.13,0-3.16,0c-0.02-0.08-0.04-0.17-0.06-0.25c1.26-0.81,1.54-2.61,3.04-3.01
			c0.34-0.91,0.59-1.8,1-2.61c1.75-3.48,2.66-7.15,2.58-11.05c-0.02-0.72,0-1.44,0-2.25c2.09,0,4.08,0,6.07,0
			C92.58,52.49,98.81,52.47,105.04,52.46z M76.89,90.7c0-2.64,0-5.22,0-7.81c-2.6,0-5.12,0-7.68,0c0,2.63,0,5.21,0,7.81
			C71.81,90.7,74.33,90.7,76.89,90.7z M76.91,101.83c0-2.61,0-5.19,0-7.79c-2.6,0-5.13,0-7.69,0c0,2.62,0,5.19,0,7.79
			C71.81,101.83,74.33,101.83,76.91,101.83z M80.27,71.73c0,2.7,0,5.28,0,7.94c2.33,0,4.58-0.03,6.84,0.02
			c0.78,0.02,0.95-0.29,0.94-1c-0.04-1.63-0.01-3.26-0.01-4.88c0-2.07,0-2.07-2.03-2.07C84.09,71.73,82.17,71.73,80.27,71.73z
			 M99,79.61c0-2.64,0-5.19,0-7.79c-2.6,0-5.17,0-7.73,0c0,2.64,0,5.19,0,7.79C93.85,79.61,96.36,79.61,99,79.61z M54.83,82.83
			c-1.95,0-3.78,0-5.6,0c-2.19,0-2.19,0-2.19,2.19c0,1.88,0,3.76,0,5.67c2.68,0,5.22,0,7.79,0C54.83,88.07,54.83,85.53,54.83,82.83z
			 M80.23,90.76c2.43,0,4.81,0.02,7.2-0.03c0.21,0,0.57-0.49,0.58-0.76c0.05-2.09,0.01-4.19,0.04-6.28
			c0.01-0.65-0.21-0.88-0.87-0.86c-1.66,0.04-3.32,0.01-4.98,0.01c-0.65,0-1.29,0-1.96,0C80.23,85.56,80.23,88.11,80.23,90.76z
			 M99.05,90.7c0-2.49,0.01-4.92-0.02-7.34c0-0.18-0.35-0.5-0.54-0.5c-2.23-0.04-4.46-0.04-6.68,0c-0.2,0-0.56,0.3-0.57,0.46
			c-0.04,2.45-0.03,4.9-0.03,7.38C93.88,90.7,96.43,90.7,99.05,90.7z M65.85,82.83c-2.45,0-4.78,0.01-7.1-0.01
			c-0.54,0-0.69,0.25-0.68,0.74c0.01,2.16,0.02,4.33-0.01,6.49c-0.01,0.61,0.3,0.72,0.81,0.72c1.43-0.01,2.86,0,4.29,0
			c0.89,0,1.77,0,2.69,0C65.85,88.07,65.85,85.52,65.85,82.83z M54.85,94.02c-2.62,0-5.17,0-7.74,0c0,2.62,0,5.2,0,7.77
			c2.62,0,5.16,0,7.74,0C54.85,99.19,54.85,96.66,54.85,94.02z M91.24,101.81c2.63,0,5.17,0,7.74,0c0-2.63,0-5.2,0-7.77
			c-2.62,0-5.16,0-7.74,0C91.24,96.64,91.24,99.16,91.24,101.81z M87.99,94.05c-2.64,0-5.21,0-7.73,0c0,2.62,0,5.17,0,7.74
			c2.6,0,5.14,0,7.73,0C87.99,99.2,87.99,96.68,87.99,94.05z M65.85,94.05c-2.62,0-5.16,0-7.72,0c0,2.61,0,5.16,0,7.76
			c2.6,0,5.13,0,7.72,0C65.85,99.2,65.85,96.66,65.85,94.05z M87.95,68.46c0-2.67,0-5.21,0-7.74c-2.62,0-5.16,0-7.68,0
			c0,2.63,0,5.17,0,7.74C82.86,68.46,85.37,68.46,87.95,68.46z M91.26,68.41c2.66,0,5.2,0,7.79,0c0-2.45-0.01-4.81,0.01-7.17
			c0-0.68-0.44-0.62-0.88-0.62c-2.06,0-4.13,0-6.19,0c-0.25,0-0.5,0.06-0.74,0.09C91.26,63.33,91.26,65.85,91.26,68.41z"/>
		<path d="M105.04,50.66c-8.33,0-16.65,0-25.08,0c-0.69-3.51-2.06-6.71-4.21-9.78c0.5-0.04,0.83-0.09,1.17-0.09
			c5.96,0,11.92-0.02,17.89,0c5.19,0.02,8.98,3.14,10.04,8.22c0.05,0.22,0.13,0.43,0.19,0.65C105.04,50,105.04,50.33,105.04,50.66z"
			/>
		<path d="M36.69,54.95c0-11.09,8.96-20.04,20.06-20.04c10.91,0,19.86,9.04,19.86,20.04c0,11-8.97,20.05-19.87,20.05
			C45.66,75.01,36.69,66.04,36.69,54.95z M39.64,54.91c-0.01,9.41,7.61,17.12,16.93,17.14c9.41,0.02,17.09-7.66,17.1-17.08
			c0-9.32-7.67-17.09-16.89-17.1C47.35,37.85,39.65,45.51,39.64,54.91z"/>
		<path d="M55.47,43.24c0.82,0,1.51,0,2.32,0c0.02,0.38,0.04,0.73,0.05,1.08c0,2.5-0.02,4.99,0.03,7.49
			c0.01,0.35,0.31,0.7,0.51,1.04c0.91,1.58,2.45,1.22,3.86,1.23c0.69,0.01,1.38,0,2.12,0c0,0.74,0,1.39,0,2.15
			c-1.35,0-2.67,0.02-3.99-0.01c-0.57-0.01-0.96,0.12-1.33,0.62c-0.96,1.3-2.92,1.44-4.06,0.36c-1.19-1.13-1.18-2.91-0.03-4.1
			c0.28-0.29,0.51-0.77,0.51-1.16C55.49,49.1,55.47,46.24,55.47,43.24z"/>
		<path d="M57.77,41.82c-0.76,0-1.48,0-2.24,0c0-0.7,0-1.35,0-2.05c0.76,0,1.48,0,2.24,0C57.77,40.44,57.77,41.06,57.77,41.82z"/>
		<path d="M50.78,44.18c-0.76,0-1.44,0-2.21,0c0-0.65,0-1.29,0-2.03c0.69,0,1.41,0,2.21,0C50.78,42.79,50.78,43.44,50.78,44.18z"/>
		<path d="M62.54,44.16c0-0.68,0-1.31,0-2c0.73,0,1.45,0,2.24,0c0,0.64,0,1.28,0,2C64.08,44.16,63.36,44.16,62.54,44.16z"/>
		<path d="M43.94,46.72c0.75,0,1.46,0,2.22,0c0,0.68,0,1.3,0,2.01c-0.7,0-1.42,0-2.22,0C43.94,48.13,43.94,47.49,43.94,46.72z"/>
		<path d="M67.73,46.72c0.81,0,1.5,0,2.24,0c0,0.7,0,1.34,0,2.04c-0.76,0-1.47,0-2.24,0C67.73,48.08,67.73,47.43,67.73,46.72z"/>
		<path d="M71.8,53.94c0,0.71,0,1.33,0,2.03c-0.74,0-1.45,0-2.24,0c0-0.64,0-1.3,0-2.03C70.28,53.94,70.99,53.94,71.8,53.94z"/>
		<path d="M50.77,67.59c-0.75,0-1.44,0-2.21,0c0-0.67,0-1.33,0-2.06c0.72,0,1.43,0,2.21,0C50.77,66.2,50.77,66.84,50.77,67.59z"/>
		<path d="M64.78,67.58c-0.76,0-1.47,0-2.23,0c0-0.69,0-1.33,0-2.04c0.73,0,1.44,0,2.23,0C64.78,66.18,64.78,66.83,64.78,67.58z"/>
		<path d="M57.75,69.81c-0.72,0-1.41,0-2.19,0c0-0.65,0-1.29,0-2.02c0.68,0,1.39,0,2.19,0C57.75,68.39,57.75,69.04,57.75,69.81z"/>
		<path d="M46.16,60.73c0,0.82,0,1.44,0,2.25c-0.78-0.08-1.58-0.01-2.19-0.32c-0.24-0.12-0.24-1.48-0.01-1.61
			C44.57,60.75,45.37,60.82,46.16,60.73z"/>
		<path d="M69.97,60.88c0,0.66,0,1.28,0,1.97c-0.75,0-1.45,0-2.23,0c0-0.64,0-1.26,0-1.97C68.46,60.88,69.19,60.88,69.97,60.88z"/>
	</g>
</g>
</svg>
