<?xml version="1.0" encoding="utf-8"?>
<!-- Generator: Adobe Illustrator 23.0.5, SVG Export Plug-In . SVG Version: 6.00 Build 0)  -->
<svg version="1.1" id="Capa_1" xmlns="http://www.w3.org/2000/svg" xmlns:xlink="http://www.w3.org/1999/xlink" x="0px" y="0px"
	 viewBox="0 0 141.7 141.7" style="enable-background:new 0 0 141.7 141.7;" xml:space="preserve">
<style type="text/css">
	.st0{fill:#FFFFFF;stroke:#09B1B8;stroke-width:3;stroke-miterlimit:10;}
	.st1{fill:#09B1B8;}
</style>
<g>
	<circle class="st0" cx="70.9" cy="70.9" r="66.8"/>
	<g>
		<path class="st1" d="M39.8,52.6c0.8,0,1.6,0,2.4,0c0,0.7,0,1.4,0,2.2c-0.8,0-1.5,0-2.4,0C39.8,54.1,39.8,53.4,39.8,52.6z"/>
		<g>
			<path class="st1" d="M107.6,51.1c0,16.3,0,32.7,0,49c-0.1,0.2-0.2,0.5-0.2,0.7c-1.1,5.2-5.3,8.7-10.5,8.7
				c-15.7,0-31.4,0.1-47.1,0c-6.5,0-11-4.7-11-11.1c0-7,0-14,0-21c0-1.4,0-2.8,0-4.3c0.8,0.6,1.4,1,2,1.5c0.6,0.5,1.3,1,2,1.3
				c2,0.7,2.9,2,2.4,4.1c0,0.1,0.1,0.2,0.1,0.3c2.7,0,5.4,0,8.2,0c0.1-0.4,0.2-0.7,0.3-0.9c1.1,0,2.2,0,3.2,0
				c0.1,0.4,0.2,0.6,0.2,0.9c2.8,0,5.5,0,8.3,0c0-0.8,0-1.6,0-2.3c0-0.3,0.2-0.7,0.4-0.9c0.9-0.5,1.9-1,3-1.5c0,1.7,0,3.2,0,4.7
				c2.9,0,5.6,0,8.4,0c0-2.8,0-5.6,0-8.6c-1.2,0-2.3,0-3.4,0c0-0.1,0-0.2-0.1-0.3c1.4-0.9,1.7-2.8,3.3-3.2c0.4-1,0.6-1.9,1.1-2.8
				c1.9-3.7,2.9-7.7,2.8-11.9c0-0.8,0-1.5,0-2.4c2.2,0,4.4,0,6.5,0C94.2,51.1,100.9,51.1,107.6,51.1z M77.3,92.2c0-2.8,0-5.6,0-8.4
				c-2.8,0-5.5,0-8.3,0c0,2.8,0,5.6,0,8.4C71.9,92.2,74.6,92.2,77.3,92.2z M77.4,104.2c0-2.8,0-5.6,0-8.4c-2.8,0-5.5,0-8.3,0
				c0,2.8,0,5.6,0,8.4C71.9,104.2,74.6,104.2,77.4,104.2z M81,71.8c0,2.9,0,5.7,0,8.5c2.5,0,4.9,0,7.4,0c0.8,0,1-0.3,1-1.1
				c0-1.8,0-3.5,0-5.3c0-2.2,0-2.2-2.2-2.2C85.1,71.8,83,71.8,81,71.8z M101.1,80.3c0-2.8,0-5.6,0-8.4c-2.8,0-5.6,0-8.3,0
				c0,2.8,0,5.6,0,8.4C95.6,80.3,98.3,80.3,101.1,80.3z M53.6,83.7c-2.1,0-4.1,0-6,0c-2.4,0-2.4,0-2.4,2.4c0,2,0,4,0,6.1
				c2.9,0,5.6,0,8.4,0C53.6,89.4,53.6,86.6,53.6,83.7z M80.9,92.3c2.6,0,5.2,0,7.7,0c0.2,0,0.6-0.5,0.6-0.8c0.1-2.2,0-4.5,0-6.8
				c0-0.7-0.2-0.9-0.9-0.9c-1.8,0-3.6,0-5.4,0c-0.7,0-1.4,0-2.1,0C80.9,86.7,80.9,89.4,80.9,92.3z M101.2,92.2c0-2.7,0-5.3,0-7.9
				c0-0.2-0.4-0.5-0.6-0.5c-2.4,0-4.8,0-7.2,0c-0.2,0-0.6,0.3-0.6,0.5c0,2.6,0,5.3,0,7.9C95.6,92.2,98.4,92.2,101.2,92.2z
				 M65.5,83.7c-2.6,0-5.1,0-7.6,0c-0.6,0-0.7,0.3-0.7,0.8c0,2.3,0,4.7,0,7c0,0.7,0.3,0.8,0.9,0.8c1.5,0,3.1,0,4.6,0
				c1,0,1.9,0,2.9,0C65.5,89.4,65.5,86.6,65.5,83.7z M53.6,95.8c-2.8,0-5.6,0-8.3,0c0,2.8,0,5.6,0,8.4c2.8,0,5.6,0,8.3,0
				C53.6,101.3,53.6,98.6,53.6,95.8z M92.8,104.2c2.8,0,5.6,0,8.3,0c0-2.8,0-5.6,0-8.4c-2.8,0-5.6,0-8.3,0
				C92.8,98.6,92.8,101.3,92.8,104.2z M89.3,95.8c-2.8,0-5.6,0-8.3,0c0,2.8,0,5.6,0,8.3c2.8,0,5.5,0,8.3,0
				C89.3,101.4,89.3,98.6,89.3,95.8z M65.5,95.8c-2.8,0-5.6,0-8.3,0c0,2.8,0,5.6,0,8.4c2.8,0,5.5,0,8.3,0
				C65.5,101.4,65.5,98.6,65.5,95.8z M89.2,68.3c0-2.9,0-5.6,0-8.3c-2.8,0-5.6,0-8.3,0c0,2.8,0,5.6,0,8.3
				C83.8,68.3,86.5,68.3,89.2,68.3z M92.8,68.2c2.9,0,5.6,0,8.4,0c0-2.6,0-5.2,0-7.7c0-0.7-0.5-0.7-0.9-0.7c-2.2,0-4.4,0-6.7,0
				c-0.3,0-0.5,0.1-0.8,0.1C92.8,62.8,92.8,65.5,92.8,68.2z"/>
			<path class="st1" d="M107.6,49.1c-9,0-17.9,0-27,0c-0.7-3.8-2.2-7.2-4.5-10.5c0.5,0,0.9-0.1,1.3-0.1c6.4,0,12.8,0,19.3,0
				c5.6,0,9.7,3.4,10.8,8.8c0.1,0.2,0.1,0.5,0.2,0.7C107.6,48.4,107.6,48.8,107.6,49.1z"/>
			<path class="st1" d="M34.1,53.7c0-11.9,9.6-21.6,21.6-21.6c11.7,0,21.4,9.7,21.4,21.6s-9.7,21.6-21.4,21.6
				C43.7,75.3,34.1,65.7,34.1,53.7z M37.3,53.7c0,10.1,8.2,18.4,18.2,18.4c10.1,0,18.4-8.2,18.4-18.4c0-10-8.3-18.4-18.2-18.4
				C45.6,35.3,37.3,43.6,37.3,53.7z"/>
			<path class="st1" d="M54.3,41.1c0.9,0,1.6,0,2.5,0c0,0.4,0,0.8,0.1,1.2c0,2.7,0,5.4,0,8.1c0,0.4,0.3,0.8,0.5,1.1
				c1,1.7,2.6,1.3,4.2,1.3c0.7,0,1.5,0,2.3,0c0,0.8,0,1.5,0,2.3c-1.5,0-2.9,0-4.3,0c-0.6,0-1,0.1-1.4,0.7c-1,1.4-3.1,1.5-4.4,0.4
				c-1.3-1.2-1.3-3.1,0-4.4c0.3-0.3,0.5-0.8,0.5-1.2C54.3,47.4,54.3,44.4,54.3,41.1z"/>
			<path class="st1" d="M56.8,39.6c-0.8,0-1.6,0-2.4,0c0-0.8,0-1.5,0-2.2c0.8,0,1.6,0,2.4,0C56.8,38.1,56.8,38.8,56.8,39.6z"/>
			<path class="st1" d="M49.2,42.1c-0.8,0-1.5,0-2.4,0c0-0.7,0-1.4,0-2.2c0.7,0,1.5,0,2.4,0C49.2,40.6,49.2,41.3,49.2,42.1z"/>
			<path class="st1" d="M61.9,42.1c0-0.7,0-1.4,0-2.2c0.8,0,1.6,0,2.4,0c0,0.7,0,1.4,0,2.2C63.6,42.1,62.8,42.1,61.9,42.1z"/>
			<path class="st1" d="M41.9,44.9c0.8,0,1.6,0,2.4,0c0,0.7,0,1.4,0,2.2c-0.8,0-1.5,0-2.4,0C41.9,46.4,41.9,45.7,41.9,44.9z"/>
			<path class="st1" d="M67.5,44.9c0.9,0,1.6,0,2.4,0c0,0.8,0,1.4,0,2.2c-0.8,0-1.6,0-2.4,0C67.5,46.3,67.5,45.6,67.5,44.9z"/>
			<path class="st1" d="M71.9,52.6c0,0.8,0,1.4,0,2.2c-0.8,0-1.6,0-2.4,0c0-0.7,0-1.4,0-2.2C70.2,52.6,71,52.6,71.9,52.6z"/>
			<path class="st1" d="M49.2,67.3c-0.8,0-1.5,0-2.4,0c0-0.7,0-1.4,0-2.2c0.8,0,1.5,0,2.4,0C49.2,65.8,49.2,66.5,49.2,67.3z"/>
			<path class="st1" d="M64.3,67.3c-0.8,0-1.6,0-2.4,0c0-0.7,0-1.4,0-2.2c0.8,0,1.5,0,2.4,0C64.3,65.8,64.3,66.5,64.3,67.3z"/>
			<path class="st1" d="M56.7,69.7c-0.8,0-1.5,0-2.4,0c0-0.7,0-1.4,0-2.2c0.7,0,1.5,0,2.4,0C56.7,68.2,56.7,68.9,56.7,69.7z"/>
			<path class="st1" d="M44.3,60c0,0.9,0,1.5,0,2.4c-0.8-0.1-1.7,0-2.4-0.3c-0.3-0.1-0.3-1.6,0-1.7C42.6,60,43.4,60.1,44.3,60z"/>
			<path class="st1" d="M69.9,60.1c0,0.7,0,1.4,0,2.1c-0.8,0-1.6,0-2.4,0c0-0.7,0-1.4,0-2.1C68.3,60.1,69.1,60.1,69.9,60.1z"/>
		</g>
	</g>
</g>
</svg>
