<?xml version="1.0" encoding="utf-8"?>
<!-- Generator: Adobe Illustrator 23.0.5, SVG Export Plug-In . SVG Version: 6.00 Build 0)  -->
<svg version="1.1" id="Capa_1" xmlns="http://www.w3.org/2000/svg" xmlns:xlink="http://www.w3.org/1999/xlink" x="0px" y="0px"
	 viewBox="0 0 141.7 141.7" style="enable-background:new 0 0 141.7 141.7;" xml:space="preserve">
<style type="text/css">
	.st0{fill:#09B1B8;}
</style>
<g>
	<path class="st0" d="M89.9,59c0,4.4,0.1,8.7-0.1,13.1c-0.1,2.3-0.7,4.6-1.1,7c-0.2,1.2-0.2,2.4-0.2,3.5c0,1.1,0,2.1,0,3.3
		C88,85.9,87.6,86,87.1,86c-4.3,0-8.6,0-12.9,0c-1.1,0-1.6-0.2-1.6-1.5c0.1-5.5,0-11,0-16.5c0-1.8,0.3-2.1,2.2-1.6
		c3,0.8,5.9,0.6,8.4-1.4c3.5-2.7,3.4-7.1-0.2-9.7c-0.4-0.3-0.8-0.7-1.3-0.8c-3.2-0.9-4.8-3.6-6.8-5.8c-0.3-0.4-0.4-1-0.5-1.5
		c-0.1-0.8-0.1-1.7-0.4-2.5c-0.7-2.3-2.5-3.8-4.6-3.9c-2-0.1-3.8,1-4.6,3.4c-1.5,4.5-4.2,8.1-7.1,11.7c-2.1,2.6-4.4,5.1-6.9,7.3
		c-2.7,2.3-6.8,0.7-7.6-2.8c-0.4-1.7,0.1-3.2,1.2-4.6c6-7,12.8-13.1,21-17.6c2.1-1.1,4.3-2.1,6.4-3.2c1.1-0.6,2-0.6,2.8,0.5
		c0.5,0.8,1.2,1.4,2.4,2.7c0.8-1.1,1.4-1.9,2-2.8c0.7-1.1,1.5-0.9,2.4-0.4c11.6,6,18.2,15.6,19.8,28.5c0.4,3.4,0.3,6.9,0,10.3
		c-0.2,2.8-2.6,4.6-5.3,4.4c-2.7-0.2-4.5-2.4-4.5-5.3c0-3.7,0.1-7.5,0-11.2c0-1-0.6-1.9-0.9-2.9C90.3,58.9,90.1,59,89.9,59z"/>
	<path class="st0" d="M103,133c-2.1,0-3.9,0-6,0c0-12.2,0-24.4,0-36.7c-0.8,0-1.4-0.1-2-0.1c-15.6,0-31.2,0-46.8-0.1
		c-1.8,0-2.1,0.6-2.1,2.2c0.1,10.8,0,21.6,0,32.3c0,0.7,0,1.4,0,2.2c-2,0-3.9,0-6,0c0-0.7-0.1-1.4-0.1-2.1c0-10.8,0-21.7,0-32.5
		c0-1.6-0.4-2.2-2.1-2.1c-3.6,0.1-3.6,0-3.6-3.5c0-3.7,0-3.7,3.8-3.7c22.8,0,45.5,0,68.3,0c0.7,0,1.3,0,2.3,0c0,2.3,0,4.4,0,6.5
		c0,0.3-0.7,0.7-1,0.7c-1,0.1-1.9,0.1-2.9,0c-1.3-0.1-1.8,0.4-1.7,1.7c0.1,6.5,0,12.9,0,19.4C103,122.5,103,127.7,103,133z"/>
	<path class="st0" d="M58.1,60.5c3.7,2.1,7.4,4.2,11,6.4c0.4,0.2,0.8,1,0.8,1.5c0.1,5.5,0,11,0,16.5c0,1.8-1.2,3-2.7,2.9
		c-1.5-0.1-2.3-1.1-2.3-3c0-2.4,0-4.8,0-7.1c0-0.9-0.3-1.4-1.3-1.4c-4.7,0-9.4,0-14.1,0c-0.2,0-0.4,0.1-0.9,0.3c1.4,2.4,2.7,4.7,4,7
		c0.7,1.2,0.9,2.5-0.3,3.5c-1.3,1.2-3,0.8-4-0.9c-1.4-2.3-2.7-4.6-4-6.9c-0.2-0.4-0.5-0.8-0.9-1.4c-1.2,2.3-2.4,4.4-3.5,6.6
		c-0.3,0.6-0.6,1.2-0.9,1.8c-0.9,1.5-2.1,1.9-3.4,1.2c-1.3-0.6-1.7-1.9-1-3.5c0.9-2,1.8-3.9,2.9-5.8c1.1-1.8,1.6-3.7,1.4-5.8
		c-0.1-1.9-0.2-3.8,0-5.6c0.2-1.8-0.5-3-1.9-4c-1.1-0.7-2.1-1.6-3.1-2.4c-1.1-0.9-1.3-2.5-0.5-3.5c0.8-1.1,2.3-1.3,3.5-0.5
		c1.7,1.3,3.2,2.4,3.7,4.9c1.1,5.1,6.8,7.2,11.3,4.2C54.2,64.1,56,62.3,58.1,60.5z"/>
	<path class="st0" d="M64.4,98.9c3.6,0,7.2,0,10.8,0.1c0.3,0,0.7,1,0.7,1.5c0.1,5.4,0,10.8,0,16.2c0,3.5,0.1,7,0,10.5
		c-0.1,3-2.2,5.6-4.9,5.9c-3.2,0.4-5.7-1.2-6.6-4.1c-0.1-0.4-0.2-0.9-0.2-1.3c0-9.3,0-18.6,0-27.9C64.2,99.5,64.3,99.3,64.4,98.9z"
		/>
	<path class="st0" d="M88.6,98.9c0,2.8,0,5.4,0,7.9c0,6.9,0,13.7,0,20.6c0,2.7-1.7,4.9-4.1,5.6c-2.5,0.7-5.3-0.3-6.6-2.6
		c-0.5-0.9-0.8-2.1-0.8-3.2c-0.1-8.8,0-17.7-0.1-26.5c0-1.3,0.4-1.8,1.7-1.8C81.9,98.9,85.2,98.9,88.6,98.9z"/>
	<path class="st0" d="M76.7,33.4c-8.8,0-15.1-8.7-12.3-16.8c0.4-1.2,0.9-1.9,2.3-1.7c0.6,0.1,1.1,0.1,1.7,0c1.6-0.1,2.8,0.1,4,1.7
		c2.4,3.1,6.9,2.8,9.2-0.4c0.7-1,1.4-1.4,2.5-1.2c0.3,0,0.6,0,0.8,0c3.8,0,4.3,0.5,4.7,4.4C90.3,27,84.4,33.4,76.7,33.4z"/>
	<path class="st0" d="M70.6,65.1c-3.9-2.2-7.5-4.3-11.2-6.4c1.6-2.4,3.2-4.6,4.6-6.9c1.2-2,2.2-4.2,3.2-6.3c0.5-1,0.8-1.9,2.1-1.8
		c1.4,0.1,2.4,1.1,2.2,2.2c-0.9,4.4,3.1,6,4.8,8.9c0.3,0.5,1,0.7,1.5,1c1.2,0.7,2.5,1.3,3.7,2.1c2,1.4,2,3.7,0,5.2
		c-1.8,1.3-3.9,1.5-5.8,0.8C73.5,62.9,71.9,62.8,70.6,65.1z"/>
	<path class="st0" d="M80,12.6c0,1.8-1.5,3.2-3.3,3.2c-1.8,0-3.2-1.5-3.2-3.3c0-1.7,1.6-3.3,3.3-3.2C78.5,9.4,80.1,10.9,80,12.6z"/>
	<path class="st0" d="M71.7,8.5c-1,2.9-1,2.9-3.8,2.4C69.4,10,70.5,9.3,71.7,8.5z"/>
	<path class="st0" d="M81.8,8.6c1.2,0.7,2.3,1.5,3.7,2.3C83,11.5,83,11.5,81.8,8.6z"/>
</g>
</svg>
