<?xml version="1.0" encoding="utf-8"?>
<!-- Generator: Adobe Illustrator 23.0.5, SVG Export Plug-In . SVG Version: 6.00 Build 0)  -->
<svg version="1.1" id="Capa_1" xmlns="http://www.w3.org/2000/svg" xmlns:xlink="http://www.w3.org/1999/xlink" x="0px" y="0px"
	 viewBox="0 0 141.73 141.73" style="enable-background:new 0 0 141.73 141.73;" xml:space="preserve">
<style type="text/css">
	.st0{fill:#FFFFFF;stroke:#000000;stroke-width:2.1898;stroke-miterlimit:10;}
</style>
<circle class="st0" cx="70.87" cy="70.87" r="62.07"/>
<g>
	<path d="M69.25,77.44c-3.17-0.44-5.37,1.22-7.73,2.37c-6.88,3.34-14.1,5.67-21.5,7.5c-6.23,1.54-12.42-3.32-12.5-9.72
		c-0.05-4.53,2.48-8.36,6.53-9.9c4.14-1.57,8.6-0.43,11.59,2.99c1.55,1.76,3.64,2.34,5.83,2.55c5.54,0.52,10.76-0.66,15.84-2.91
		c1.81-0.8,2.75-1.68,3.02-3.75c0.43-3.29,1.4-6.51,3.46-9.24c2.24-2.97,5.37-3.53,8.34-1.54c0.61,0.41,0.91,0.82,0.57,1.56
		c-0.23,0.51-0.35,1.07-0.53,1.65c-0.33-0.09-0.57-0.16-0.81-0.23c-1.34-0.41-2.51-0.1-3.35,1c-1.22,1.59-1.72,3.45-1.38,5.42
		c0.4,2.36,2.43,3.55,4.93,2.99c0.65-0.14,1.29-0.39,1.9-0.66c2.68-1.19,3.31-2.79,2.14-5.53c0.68-0.31,1.36-0.66,2.07-0.91
		c0.22-0.08,0.62,0.07,0.81,0.24c2.4,2.23,2.58,5.6,0.44,8.1c-2.14,2.5-5.05,3.76-8.02,4.89c-0.96,0.36-1.93,0.69-2.92,0.94
		c-0.66,0.17-1.03,0.45-1.19,1.15c-0.6,2.51-1.52,4.98-1.83,7.52c-0.48,3.85-0.44,7.74,0.96,11.46c0.62,1.65,1.58,3.01,3.09,4.03
		c3.47,2.37,5.05,6.57,4.13,10.61c-0.95,4.16-4.17,7.24-8.29,7.94c-6.96,1.18-12.95-4.68-11.87-11.8c0.79-5.21,1.73-10.4,2.88-15.54
		c0.7-3.17,1.97-6.2,2.86-9.34C69.08,80.02,69.09,78.67,69.25,77.44z M80.88,107.8c0-4.36-3.5-7.88-7.84-7.89
		c-4.35-0.01-8.02,3.62-7.98,7.91c0.04,4.31,3.62,7.89,7.91,7.89C77.38,115.72,80.88,112.21,80.88,107.8z M37.82,69.49
		c-4.29-0.04-7.91,3.49-7.98,7.81c-0.07,4.26,3.51,7.96,7.78,8.02c4.25,0.06,7.87-3.43,8.05-7.53
		C45.86,73.41,42.38,69.53,37.82,69.49z M81.53,57.72c0.46-0.62,0.33-1.05-0.35-1.45c-2.06-1.19-4.09-0.97-5.79,0.69
		c-2.06,2.01-2.93,4.61-3.63,7.29c-1.16,4.38-1.49,8.88-1.7,13.39c-0.03,0.63,0,1.26,0,1.66c1.63,0.39,3.11,0.75,4.67,1.13
		c0.59-2.12,1.23-4.39,1.91-6.82c-1.96,1.33-3.8,1.2-4.9-0.19c-1.06-1.36-0.86-3.32,0.47-4.39c0.89-0.72,1.98-1.01,2.96-0.51
		c0.9,0.45,1.59,1.29,2.35,1.94c0.09-0.29,0.27-0.74,0.34-1.21c0.04-0.24-0.02-0.62-0.18-0.74c-2.07-1.58-2.31-3.7-1.85-6.04
		C76.49,59.03,78.26,57.54,81.53,57.72z M77.36,74.47c3.39-1.01,6.5-2.08,9.17-4.09c0.71-0.53,1.36-1.18,1.91-1.88
		c1.49-1.9,1.39-4.34-0.21-6.04c-0.18-0.19-0.61-0.29-0.87-0.22c-0.18,0.05-0.41,0.47-0.38,0.69c0.38,2.52-0.3,3.93-2.51,5.13
		c-1.73,0.94-3.56,1.38-5.59,1C78.38,70.84,77.9,72.55,77.36,74.47z M65.31,72.12c0.56,1.55,1.08,2.98,1.63,4.49
		c0.11-0.01,0.38-0.05,0.66-0.09c1.63-0.21,1.62-0.21,1.69-1.79c0.02-0.41,0.07-0.83,0.11-1.24c0.09-1.03,0.17-2.06,0.27-3.24
		C68.04,70.95,66.56,71.58,65.31,72.12z M73.55,69.42c-1.13,0.43-1.73,1.37-1.57,2.32c0.18,1.09,0.94,1.77,2.04,1.77
		C73.87,72.17,73.72,70.85,73.55,69.42z M74.96,73.5c1.25-0.73,1.67-1.61,1.38-2.63c-0.26-0.93-0.94-1.46-1.86-1.41
		C74.63,70.77,74.79,72.08,74.96,73.5z"/>
	<path d="M99.71,46.48c-2.88,0-4.67-2.25-4.12-4.85c0.03-0.16,0.04-0.32,0.1-0.47c0.78-1.95,0.62-3.83-0.18-5.77
		c-0.65-1.58-0.45-3.15,0.79-4.46c1.77-1.86,4.62-1.74,6.24,0.25c0.06,0.07,0.13,0.14,0.17,0.23c1.39,2.7,3.67,4.2,6.49,5.15
		c2.33,0.79,3.33,2.82,2.91,5.28c-0.33,1.93-2.35,3.63-4.5,3.64c-2.44,0.01-4.85,0.18-7.19,0.93
		C100.12,46.51,99.78,46.48,99.71,46.48z"/>
	<path d="M86.54,41.26c0.04-3.15,2.48-5.97,5.31-6.33c1.37-0.18,2.73,0.51,3.38,1.69c0.67,1.23,0.29,2.3-0.55,3.25
		c-1.7,1.93-3.9,3.05-6.36,3.68c-0.77,0.2-1.54-0.51-1.73-1.52C86.54,41.71,86.55,41.39,86.54,41.26z"/>
	<path d="M91.1,43.97c2.3,0.29,4.21,1.33,2.93,3.99c-1.09,2.28-2.8,4.05-5.06,5.22c-1.27,0.66-2.07,0.28-2.24-1.17
		c-0.34-2.85,0.5-5.33,2.68-7.24C89.94,44.32,90.71,44.15,91.1,43.97z"/>
	<path d="M93.32,57.05c-0.06,0-0.13,0.01-0.19,0c-2.94-0.33-2.77-0.94-1.93-2.95c0.74-1.77,1.85-3.29,3.34-4.51
		c0.93-0.76,1.95-1.28,3.17-0.65c1.06,0.55,1.57,1.78,1.36,3.22C98.67,55.02,96.27,57.06,93.32,57.05z"/>
	<path d="M100.2,52.09c0.12-1.75,0.91-3.59,2.49-5.04c1.23-1.12,2.93-1.07,4.27,0.06c1.2,1.02,1.39,2.41,0.42,3.86
		c-1.16,1.74-2.8,2.88-4.82,3.41C100.84,54.83,100.18,54.26,100.2,52.09z"/>
	<path d="M84.68,56.86c0.48-1.04,0.96-2.07,1.43-3.08c0.19,0.04,0.26,0.03,0.3,0.06c1.14,0.95,1.15,1.02,0.06,2.02
		c-0.46,0.42-0.97,0.8-1.45,1.19C84.91,56.99,84.79,56.93,84.68,56.86z"/>
	<path d="M87.68,58.75c0.74-0.83,1.49-1.65,2.27-2.52c0.44,0.51,0.71,0.82,1.12,1.29c-1.08,0.56-2.11,1.09-3.14,1.62
		C87.85,59.01,87.77,58.88,87.68,58.75z"/>
	<path d="M85.1,46.3c0.26-0.66,0.43-1.39,0.81-1.98c0.53-0.81,1.02-0.03,1.66,0.2c-0.77,0.71-1.46,1.34-2.15,1.96
		C85.31,46.42,85.21,46.36,85.1,46.3z"/>
	<path d="M99.16,56.14c0.27-0.56,0.54-1.12,0.88-1.84c0.46,0.3,0.85,0.55,1.49,0.96c-0.89,0.47-1.52,0.8-2.16,1.13
		C99.3,56.31,99.23,56.23,99.16,56.14z"/>
</g>
</svg>
