<?xml version="1.0" encoding="utf-8"?>
<!-- Generator: Adobe Illustrator 23.0.5, SVG Export Plug-In . SVG Version: 6.00 Build 0)  -->
<svg version="1.1" id="Capa_1" xmlns="http://www.w3.org/2000/svg" xmlns:xlink="http://www.w3.org/1999/xlink" x="0px" y="0px"
	 viewBox="0 0 141.73 141.73" style="enable-background:new 0 0 141.73 141.73;" xml:space="preserve">
<style type="text/css">
	.st0{fill:#FFFFFF;stroke:#000000;stroke-width:2.1898;stroke-miterlimit:10;}
</style>
<circle class="st0" cx="70.87" cy="70.87" r="62.07"/>
<g>
	<path d="M88.63,34.27c0-1.66,0-3.24,0-4.88c0.23-0.01,0.45-0.03,0.66-0.03c4.06,0,8.12,0,12.17,0c6.31,0,11.31,4.98,11.31,11.3
		c0.01,14.51,0.01,29.01,0.01,43.52c0,5.92,0.01,11.84-0.01,17.76c-0.02,5.22-3.49,9.66-8.55,10.92c-0.86,0.21-1.77,0.32-2.65,0.33
		c-4.15,0.03-8.29,0.01-12.44,0.01c-0.15,0-0.3-0.02-0.49-0.03c0-1.62,0-3.21,0-4.87c5.7,0,11.4,0,17.13,0c0-0.76,0-1.46,0-2.22
		c-5.71,0-11.4,0-17.12,0c0-0.87,0-1.69,0-2.56c5.69,0,11.38,0,17.11,0c0-0.76,0-1.47,0-2.25c-0.57,0-1.13-0.02-1.69,0.01
		c-0.13,0.01-0.26,0.14-0.37,0.24c-0.56,0.53-0.83,0.51-1.37-0.05c-0.14-0.14-0.42-0.2-0.63-0.2c-4.13-0.01-8.26-0.01-12.39-0.01
		c-0.2,0-0.41,0-0.66,0c0-0.85,0-1.66,0-2.56c4.95,0,9.9,0,14.96,0c-0.33-0.5-0.6-0.89-0.86-1.28c0.07-0.05,0.14-0.09,0.2-0.14
		c0.3,0.36,0.59,0.72,0.89,1.08c0.41,0.51,1.19,0.47,1.59-0.04c0.29-0.36,0.49-0.69,0.26-1.31c-0.37,0.31-0.69,0.59-1.02,0.87
		c0.06-0.69,0.66-0.92,1.19-1.22c-0.03-0.05-0.06-0.09-0.08-0.14c-5.69,0-11.39,0-17.12,0c0-0.89,0-1.7,0-2.59
		c5.69,0,11.39,0,17.12,0c0-0.77,0-1.46,0-2.21c-5.7,0-11.39,0-17.12,0c0-0.88,0-1.71,0-2.59c5.69,0,11.38,0,17.11,0
		c0-0.76,0-1.46,0-2.23c-5.71,0-11.4,0-17.12,0c0-0.87,0-1.68,0-2.57c5.71,0,11.41,0,17.13,0c0-0.75,0-1.44,0-2.19
		c-5.7,0-11.4,0-17.13,0c0-0.89,0-1.7,0-2.57c5.7,0,11.39,0,17.12,0c0-0.76,0-1.47,0-2.23c-5.7,0-11.39,0-17.11,0
		c0-0.87,0-1.68,0-2.55c5.69,0,11.38,0,17.11,0c0-0.76,0-1.47,0-2.23c-5.7,0-11.39,0-17.11,0c0-0.87,0-1.68,0-2.55
		c5.68,0,11.37,0,17.11,0c0-0.75,0-1.44,0-2.21c-5.68,0-11.38,0-17.11,0c0-0.89,0-1.71,0-2.57c5.69,0,11.37,0,17.11,0
		c0-0.76,0-1.47,0-2.23c-5.68,0-11.37,0-17.1,0c0-0.86,0-1.68,0-2.57c5.69,0,11.39,0,17.12,0c0-0.77,0-1.47,0-2.22
		c-5.71,0-11.39,0-17.12,0c0-0.87,0-1.69,0-2.57c5.7,0,11.39,0,17.12,0c0-0.77,0-1.46,0-2.21c-5.7,0-11.39,0-17.12,0
		c0-0.86,0-1.68,0-2.57c5.69,0,11.39,0,17.12,0c0-0.77,0-1.47,0-2.22c-5.69,0-11.38,0-17.12,0c0-0.88,0-1.7,0-2.59
		c5.71,0,11.39,0,17.12,0c0-0.75,0-1.45,0-2.2c-5.69,0-11.39,0-17.13,0c0-0.87,0-1.69,0-2.56c5.69,0,11.38,0,17.11,0
		c0-0.76,0-1.47,0-2.24c-5.69,0-11.38,0-17.11,0c0-0.87,0-1.68,0-2.55c5.7,0,11.38,0,17.11,0c0-0.77,0-1.47,0-2.23
		C100.06,34.27,94.38,34.27,88.63,34.27z"/>
	<path d="M48.75,86.01C60.12,68.85,71.48,51.72,82.84,34.6c0.03,0.02,0.07,0.03,0.1,0.05c-0.3,1.19-0.61,2.38-0.91,3.56
		c-0.95,3.75-1.89,7.5-2.86,11.24c-0.14,0.53-0.43,1.04-0.73,1.51c-4.54,7.16-9.09,14.31-13.64,21.46
		c-2.32,3.64-4.63,7.28-6.96,10.91c-0.22,0.34-0.19,0.55,0.06,0.85c0.6,0.71,1.16,1.45,1.72,2.19c0.09,0.12,0.1,0.31,0.14,0.46
		c-0.13-0.08-0.3-0.13-0.39-0.24c-0.56-0.68-1.09-1.37-1.64-2.06c-0.1-0.13-0.21-0.26-0.36-0.44c-0.6,0.94-1.18,1.83-1.75,2.72
		c-3.34,5.25-6.69,10.5-10.01,15.76c-0.57,0.9-1.32,1.58-2.23,2.09c-2.42,1.35-5.02,2.14-7.66,1.06c-3.64-1.49-6.01-4.22-6.65-8.23
		c-0.33-2.1,0.08-4.11,0.92-6.04c1.2-2.73,2.95-5.04,5.39-6.78c3.77-2.68,7.89-2.67,11.66,0C47.61,85.09,48.15,85.54,48.75,86.01z
		 M46.74,92.28c0.09-3.65-2.94-5.39-5.34-5.44c-1.69-0.03-3.15,0.62-4.45,1.66c-2.67,2.15-4.23,4.86-3.97,8.39
		c0.3,4.04,4.03,6.2,7.5,4.72C43.84,100.18,46.7,95.97,46.74,92.28z"/>
	<path d="M54.12,28.52c1.04,4.66,2.07,9.32,3.11,13.98c1.12,5.06,2.24,10.13,3.36,15.19c0.23,1.06,0.48,2.11,0.7,3.17
		c0.04,0.18,0.03,0.43-0.07,0.57c-1.35,1.95-2.72,3.89-4.08,5.83c-0.03,0.04-0.08,0.06-0.17,0.13c-0.22-1.07-0.43-2.11-0.63-3.14
		c-1.16-5.87-2.34-11.73-3.43-17.61c-0.18-0.99-0.01-2.05,0.06-3.08c0.28-4.22,0.59-8.44,0.89-12.66c0.06-0.8,0.12-1.6,0.18-2.41
		C54.05,28.52,54.08,28.52,54.12,28.52z"/>
	<path d="M81.54,95.15c-0.98-2.02-2.34-3.73-4.32-4.86c-2.48-1.43-5.1-1.47-7.79-0.75c-0.56,0.15-1.1,0.34-1.69,0.52
		c-0.54-2.44-1.07-4.84-1.61-7.27l-1.04-4.36l-4.55,7.13l0.14,0.84c0.01,0.05,0.03,0.1,0.04,0.15c1.22,6.19,2.47,12.37,3.63,18.57
		c0.37,1.97,0.93,3.78,2.44,5.21c2.51,2.38,5.3,3.54,8.79,2.44c4.15-1.31,6.79-3.97,7.52-8.3C83.66,101.21,82.97,98.1,81.54,95.15z
		 M78.33,106.25c-1.5,2.77-4.82,3.77-7.36,2.23c-1.61-0.98-2.62-2.46-3.29-4.18c-0.91-2.31-1.2-4.7-0.52-7.12
		c0.6-2.13,1.93-3.55,4.18-3.92c2.3-0.39,4.14,0.46,5.63,2.18c0.09,0.1,1.39,2.14,1.54,2.52C79.67,100.74,79.8,103.52,78.33,106.25z
		"/>
</g>
</svg>
