<?xml version="1.0" encoding="utf-8"?>
<!-- Generator: Adobe Illustrator 23.0.5, SVG Export Plug-In . SVG Version: 6.00 Build 0)  -->
<svg version="1.1" id="Capa_1" xmlns="http://www.w3.org/2000/svg" xmlns:xlink="http://www.w3.org/1999/xlink" x="0px" y="0px"
	 viewBox="0 0 141.7 141.7" style="enable-background:new 0 0 141.7 141.7;" xml:space="preserve">
<style type="text/css">
	.st0{fill:#09B1B8;}
</style>
<g>
	<path class="st0" d="M64.6,100.6c-0.3,0.6-0.8,1.2-0.9,1.8c-2.2,8.8-4.8,17.4-8.7,25.7c-1.2,2.6-2.7,5.2-4.2,7.7
		c-0.3,0.6-1.2,1.1-1.8,1.2c-6.2,0.5-12-0.3-17.2-4c-6.5-4.7-10-10.9-10.4-19c-0.4-7.7,2.9-13.7,7.8-19.1
		c9.9-11.2,19.2-22.9,27.6-35.3c6.2-9.2,19.4-10.2,26.8-2c2.8,3.1,4.9,6.7,7.4,10.1c7.2,9.8,14.7,19.3,22.9,28.3
		c9.5,10.5,9,24.3,0.8,33.4c-5.5,6.1-12.5,8.6-20.7,7.8c-0.6-0.1-1.3-0.7-1.5-1.2c-2.1-4.2-4.2-8.5-6.3-12.8
		c-0.3-0.7-0.9-1.2-1.3-1.8c0.2,0.1,0.5,0.3,0.6,0.3c-1.7-6.3-3.3-12.5-5-18.7c-0.5-1.9-0.4-2.1,1.6-2.1c2.2,0,4.3,0,6.9,0
		c-5.9-10.7-11.6-21-17.5-31.5c-0.5,0.6-0.9,1-1.1,1.5c-3.8,7.4-7.5,14.8-11.2,22.3c-0.3,0.6-0.1,1.5-0.1,2.3
		c-0.3,0.1-0.8,0-0.9,0.2c-0.9,1.5-1.8,3.1-2.8,4.8C58.8,100.3,61.7,100.5,64.6,100.6z"/>
	<path class="st0" d="M135.2,49.4c-0.5,10.7-5.3,19.1-14.5,24.7c-3.2,1.9-6.7,2.7-10.5,1.9c-4.8-1-8.3-5-8.9-10.4
		c-1.3-11.2,3.3-19.9,11.9-26.7c2.7-2.2,5.9-3.4,9.3-3.7c6.7-0.6,12.1,4.4,12.6,11.5C135.3,47.6,135.2,48.5,135.2,49.4z"/>
	<path class="st0" d="M62.5,14.7c0.1,0.5,0.3,1.3,0.5,2c2.8,6.4,3.8,13,1.6,19.8c-2.7,8.1-10.7,10.7-17.8,5.9
		c-4.2-2.8-6.8-6.8-8.5-11.4C36,25,35.5,19,37.6,12.8C40.3,5,48.4,2.1,55.1,7c2.4,1.7,4.2,4.3,6.3,6.5
		C61.7,13.9,62.1,14.3,62.5,14.7z"/>
	<path class="st0" d="M106.1,19.9c-0.3,9.4-3.3,16.6-10,22.1c-3,2.4-6.5,3.4-10.2,2.5c-4.6-1.1-7-4.6-8.3-8.8
		c-3-9.6,1.2-22.2,9.2-28.2c7.4-5.5,16-2.5,18.4,6.5C105.7,16.1,105.9,18.4,106.1,19.9z"/>
	<path class="st0" d="M30.8,40.5c7,7.2,10.5,15,9.7,24.3c-0.4,4.1-2.2,7.5-5.7,9.8c-4.3,2.8-8.7,2-13-0.1C12,69.6,5.3,56.9,6.6,46.2
		c1.2-9.8,10-14.3,18.8-9.5C27.5,37.9,29.4,39.6,30.8,40.5z"/>
</g>
</svg>
