<?xml version="1.0" encoding="utf-8"?>
<!-- Generator: Adobe Illustrator 23.0.5, SVG Export Plug-In . SVG Version: 6.00 Build 0)  -->
<svg version="1.1" id="Capa_1" xmlns="http://www.w3.org/2000/svg" xmlns:xlink="http://www.w3.org/1999/xlink" x="0px" y="0px"
	 viewBox="0 0 141.7 141.7" style="enable-background:new 0 0 141.7 141.7;" xml:space="preserve">
<style type="text/css">
	.st0{fill:#09B1B8;}
</style>
<g>
	<path class="st0" d="M65.1,98.4c-0.3,0.6-0.7,1.1-0.9,1.7c-2,8.1-4.4,16.1-8,23.7c-1.2,2.4-2.5,4.8-3.9,7.1c-0.3,0.5-1.1,1-1.7,1.1
		c-5.7,0.5-11.1-0.3-15.9-3.7c-6-4.3-9.2-10.1-9.6-17.6C24.9,103.6,28,98,32.5,93C41.6,82.6,50.2,71.8,58,60.4
		c5.7-8.5,17.9-9.4,24.8-1.9c2.6,2.8,4.5,6.2,6.8,9.3c6.7,9,13.6,17.8,21.2,26.1c8.8,9.7,8.3,22.4,0.7,30.8
		c-5.1,5.6-11.6,7.9-19.1,7.2c-0.5-0.1-1.2-0.6-1.4-1.1c-2-3.9-3.9-7.9-5.8-11.8c-0.3-0.6-0.8-1.1-1.2-1.7c0.2,0.1,0.4,0.2,0.6,0.3
		c-1.5-5.8-3.1-11.5-4.6-17.3c-0.5-1.8-0.4-1.9,1.5-1.9c2,0,4,0,6.4,0C82.2,88.5,76.9,79,71.5,69.3c-0.5,0.6-0.8,0.9-1,1.3
		c-3.5,6.9-7,13.7-10.4,20.6c-0.3,0.6-0.1,1.4-0.1,2.1c-0.3,0.1-0.7,0-0.9,0.2c-0.9,1.4-1.6,2.8-2.6,4.5
		C59.7,98.1,62.4,98.2,65.1,98.4z"/>
	<path class="st0" d="M130.4,51c-0.5,9.9-4.9,17.6-13.4,22.8c-2.9,1.8-6.2,2.5-9.7,1.8c-4.4-0.9-7.6-4.6-8.2-9.6
		c-1.2-10.3,3.1-18.4,11-24.7c2.5-2,5.4-3.2,8.6-3.5c6.2-0.6,11.2,4.1,11.6,10.7C130.4,49.4,130.4,50.2,130.4,51z"/>
	<path class="st0" d="M63.2,19c0.1,0.5,0.2,1.2,0.5,1.8c2.5,5.9,3.5,12,1.4,18.3c-2.5,7.5-9.9,9.9-16.4,5.5
		c-3.8-2.6-6.3-6.3-7.9-10.5c-2.1-5.5-2.6-11-0.7-16.8c2.5-7.2,10-9.9,16.2-5.3c2.2,1.6,3.9,4,5.8,6C62.4,18.3,62.8,18.6,63.2,19z"
		/>
	<path class="st0" d="M103.4,23.8c-0.3,8.7-3,15.4-9.3,20.4c-2.8,2.2-6,3.1-9.5,2.3c-4.3-1-6.4-4.2-7.6-8.1
		c-2.8-8.9,1.1-20.5,8.5-26.1c6.8-5.1,14.8-2.3,17,6C103.1,20.3,103.2,22.4,103.4,23.8z"/>
	<path class="st0" d="M33.8,42.8c6.5,6.7,9.7,13.8,8.9,22.4c-0.3,3.8-2,7-5.3,9c-4,2.5-8.1,1.9-12-0.1c-9-4.5-15.2-16.1-13.9-26.1
		c1.1-9.1,9.2-13.2,17.3-8.8C30.9,40.4,32.6,42,33.8,42.8z"/>
</g>
</svg>
