<?xml version="1.0" encoding="utf-8"?>
<!-- Generator: Adobe Illustrator 23.0.5, SVG Export Plug-In . SVG Version: 6.00 Build 0)  -->
<svg version="1.1" id="Capa_1" xmlns="http://www.w3.org/2000/svg" xmlns:xlink="http://www.w3.org/1999/xlink" x="0px" y="0px"
	 viewBox="0 0 141.7 141.7" style="enable-background:new 0 0 141.7 141.7;" xml:space="preserve">
<style type="text/css">
	.st0{fill:#09B1B8;}
</style>
<g>
	<path class="st0" d="M6.8,113.5c0-24.7,0-49.4,0-74c0-0.1,0.1-0.1,0.1-0.2c0.5-3.4,3.8-5.8,7.1-5.8c21.6,0,43.2,0,64.8,0
		c3.1,0,6.2,0,9.3,0c3.7,0,7.5-0.1,11.2,0c2.6,0.1,4.8,1.2,6.3,3.4c1.9,2.8,3.8,5.7,5.7,8.5c7.5,11.2,15,22.4,22.5,33.7
		c0.8,1.2,1.3,2.6,1.3,4.1c0,9.7,0,19.3,0,29c0,3-2.3,5.9-5.2,6.5c-1.5,0.3-3,0.2-4.6,0.3c-0.3,0-0.6,0-0.9,0.1
		c-0.1,0.8-0.1,1.5-0.2,2.2c-1,6.6-4.7,10.9-11.1,13c-1.1,0.3-2.2,0.5-3.3,0.7c-1,0-2,0-2.9,0c-0.5-0.1-0.9-0.2-1.4-0.3
		c-6.1-1.2-10.2-4.6-12.2-10.4c-0.6-1.6-0.8-3.4-1.1-5.2c-14,0-28.2,0-42.4,0c-0.1,0.9-0.1,1.7-0.3,2.5c-1.2,6.2-4.6,10.5-10.7,12.6
		c-1.2,0.4-2.4,0.6-3.6,0.8c-1,0-2,0-2.9,0c-1.1-0.2-2.2-0.4-3.2-0.7c-5.2-1.5-8.7-4.9-10.4-10c-0.6-1.7-0.7-3.5-1.1-5.3
		c-0.9,0-2,0-3.1,0c-2.7,0-4.9-1.1-6.4-3.4C7.3,115,7.1,114.2,6.8,113.5z M44.1,89.5c13.1,0,23.3-10,24-22.4
		c0.9-15-10.8-25.4-23.4-25.6c-13.4-0.3-24.4,10.3-24.6,23.7C20,78.5,30.4,89.4,44.1,89.5z M86.9,45.2c0,0.4,0,0.6,0,0.9
		c0,4.4,0,8.8,0,13.2c0,3.3,0,6.7,0.1,10c0.1,2.4,1.3,4.3,3.3,5.6c1.4,0.9,3,1.2,4.6,1.2c7.3,0,14.6,0,21.9,0c0.2,0,0.3,0,0.7,0
		c-0.9-1.3-1.7-2.6-2.6-3.8c-3.5-5.1-6.9-10.3-10.4-15.4c-2.5-3.7-5.1-7.5-7.6-11.2c-0.2-0.2-0.5-0.5-0.7-0.5
		C93.1,45.2,90,45.2,86.9,45.2z M33.5,110.9c-3.8-0.1-7.8,3.2-8,7.6c-0.3,4.6,3.6,8.4,7.9,8.5c4.2,0.1,8-3.6,8.1-7.9
		C41.6,114.6,37.5,110.8,33.5,110.9z M116.2,118.9c0-4.3-3.7-8-8-8c-4.3,0-8,3.7-8,8c0,4.2,3.8,8,8,8.1
		C112.5,127,116.2,123.2,116.2,118.9z"/>
	<path class="st0" d="M81.5,28.1c-7.2,0-14.2,0-21.3,0c0-0.2,0-0.4-0.1-0.6c0-3.3,0-6.7,0-10c0-6.2,5.1-11,11.3-10.7
		c5.5,0.3,10,5,10,10.5c0,3.4,0,6.8,0,10.2C81.5,27.7,81.5,27.9,81.5,28.1z"/>
	<path class="st0" d="M49.5,49.6c0,3.5,0,7,0,10.6c3.5,0,7.1,0,10.6,0c0,3.6,0,7.1,0,10.7c-3.5,0-7.1,0-10.6,0c0,3.6,0,7.1,0,10.7
		c-3.6,0-7.1,0-10.6,0c0-3.5,0-7,0-10.6c-3.6,0-7.1,0-10.7,0c0-3.6,0-7.1,0-10.7c3.5,0,7.1,0,10.7,0c0-3.6,0-7.1,0-10.6
		C42.4,49.6,45.9,49.6,49.5,49.6z"/>
</g>
</svg>
