<?xml version="1.0" encoding="utf-8"?>
<!-- Generator: Adobe Illustrator 23.0.5, SVG Export Plug-In . SVG Version: 6.00 Build 0)  -->
<svg version="1.1" id="Capa_1" xmlns="http://www.w3.org/2000/svg" xmlns:xlink="http://www.w3.org/1999/xlink" x="0px" y="0px"
	 viewBox="0 0 141.73 141.73" style="enable-background:new 0 0 141.73 141.73;" xml:space="preserve">
<g>
	<path d="M15.73,30c3.7,2.35,7.37,4.69,11.04,7.02c14.46,9.2,28.93,18.39,43.38,27.6c0.56,0.35,0.92,0.33,1.46-0.01
		c17.95-11.44,35.91-22.86,53.87-34.28c0.17-0.11,0.34-0.2,0.56-0.34c2.5,2.07,4.16,4.67,4.84,7.85c0.21,1,0.3,2.04,0.31,3.07
		c0.02,19.98,0.01,39.95,0.01,59.93c0,7.05-4.9,12.82-11.86,13.94c-0.79,0.13-1.6,0.16-2.41,0.16c-30.72,0.01-61.44,0.01-92.16,0.01
		c-7.34,0-13.12-5-14.16-12.25c-0.1-0.67-0.08-1.36-0.08-2.03c0-19.88,0.01-39.75-0.01-59.63c0-4.16,1.5-7.63,4.5-10.48
		c0.15-0.14,0.3-0.27,0.45-0.4C15.53,30.11,15.6,30.08,15.73,30z M24.49,105.58c30.96,0,61.84,0,92.76,0c0-17.86,0-35.68,0-53.62
		c-0.33,0.19-0.58,0.33-0.83,0.49c-14.91,9.48-29.81,18.96-44.71,28.46c-0.64,0.41-1.06,0.42-1.71,0
		c-14.93-9.53-29.88-19.04-44.83-28.54c-0.2-0.13-0.41-0.23-0.68-0.38C24.49,69.9,24.49,87.7,24.49,105.58z"/>
	<path d="M121.19,27.56c-1.75,1.12-3.51,2.23-5.26,3.35c-2.52,1.61-5.04,3.22-7.58,4.81c-0.32,0.2-0.74,0.33-1.12,0.33
		c-24.25,0.02-48.5,0.01-72.76,0c-0.33,0-0.71-0.08-0.99-0.26c-4.19-2.64-8.36-5.3-12.54-7.96c-0.14-0.09-0.26-0.21-0.59-0.47
		c1.27-0.21,2.35-0.4,3.43-0.55c0.42-0.06,0.85-0.02,1.28-0.02c30.52,0,61.03-0.01,91.55,0.02c1.51,0,3.03,0.27,4.54,0.42
		C121.18,27.34,121.18,27.45,121.19,27.56z"/>
</g>
</svg>
