<?xml version="1.0" encoding="utf-8"?>
<!-- Generator: Adobe Illustrator 24.0.2, SVG Export Plug-In . SVG Version: 6.00 Build 0)  -->
<svg version="1.1" id="Capa_1" xmlns="http://www.w3.org/2000/svg" xmlns:xlink="http://www.w3.org/1999/xlink" x="0px" y="0px"
	 viewBox="0 0 67.2 82" style="enable-background:new 0 0 67.2 82;" xml:space="preserve">
<style type="text/css">
	.st0{fill:#FFFFFF;stroke:#3C3C3B;stroke-width:0.8649;stroke-miterlimit:10;}
	.st1{fill:#3C3C3B;}
	.st2{fill:#00A6AA;}
	.st3{fill:#FFFFFF;stroke:#00A6AA;stroke-width:0.8649;stroke-miterlimit:10;}
</style>
<g>
	<path class="st2" d="M24.09,78.72v-4.13h-6.44v4.13h-0.78v-9.09h0.78v4.32h6.44v-4.32h0.78v9.09H24.09z"/>
	<path class="st2" d="M26.63,75.53c0-2.04,1.62-3.34,3.62-3.34c2.01,0,3.62,1.3,3.62,3.34s-1.62,3.29-3.62,3.29
		C28.25,78.81,26.63,77.57,26.63,75.53z M33.18,75.53c0-1.66-1.31-2.74-2.93-2.74c-1.62,0-2.93,1.08-2.93,2.74s1.31,2.66,2.93,2.66
		C31.87,78.19,33.18,77.19,33.18,75.53z"/>
	<path class="st2" d="M36.99,70.37v1.93h2.43v0.53h-2.43v3.91c0,0.87,0.2,1.48,1.31,1.48c0.35,0,0.74-0.1,1.1-0.26l0.25,0.52
		c-0.45,0.19-0.89,0.32-1.34,0.32c-1.52,0-2.01-0.8-2.01-2.06v-3.91h-1.52v-0.53h1.52v-1.87L36.99,70.37z"/>
	<path class="st2" d="M40.64,75.51c0-1.92,1.62-3.31,3.62-3.31c2.01,0,3.8,1.1,3.52,3.61h-6.42c0.14,1.51,1.43,2.38,2.9,2.38
		c0.94,0,2.04-0.34,2.57-0.97l0.51,0.36c-0.69,0.82-1.93,1.23-3.08,1.23C42.26,78.81,40.64,77.55,40.64,75.51z M47.15,75.25
		c-0.01-1.58-1.17-2.47-2.89-2.47c-1.47,0-2.74,0.9-2.9,2.47H47.15z"/>
	<path class="st2" d="M50.33,69.63v9.09h-0.71v-9.09H50.33z"/>
</g>
<g>
	<circle class="st3" cx="33.6" cy="36.64" r="27.92"/>
</g>
<g>
	<path class="st2" d="M45.48,50.95c-7.92,0-15.83,0-23.75,0c-0.58-0.3-0.71-0.76-0.71-1.34c0.02-4.16,0.01-8.33,0.01-12.49
		c0-0.25,0-0.51,0-0.67c-0.95,0-1.86,0.18-2.61-0.04c-2.17-0.63-2.69-2.95-1.06-4.46c4.44-4.09,8.89-8.16,13.37-12.21
		c0.66-0.6,1.53-1,2.31-1.5c0.38,0,0.75,0,1.13,0c0.77,0.49,1.62,0.92,2.31,1.5c1.43,1.21,2.76,2.51,4.14,3.77
		c3.09,2.83,6.2,5.65,9.28,8.48c0.93,0.86,1.14,1.88,0.61,3c-0.5,1.06-1.52,1.64-2.88,1.59c-0.46-0.02-0.92-0.13-1.45-0.22
		c0,0.29,0,0.56,0,0.82c0,4.14-0.01,8.27,0.01,12.41C46.19,50.19,46.05,50.65,45.48,50.95z M23.18,49.01c1.67,0,3.29,0,4.99,0
		c0-1.59-0.01-3.13,0-4.68c0.01-1.37,0.68-2.44,1.86-3.29c1.31-0.95,2.85-0.86,4.38-0.85c2.53,0.03,4.56,1.81,4.61,4.08
		c0.03,1.33,0.01,2.66,0.02,3.99c0,0.25,0.02,0.51,0.04,0.75c1.71,0,3.32,0,5.01,0c0-0.3,0-0.56,0-0.82c0-4.33-0.01-8.66,0.01-12.99
		c0-0.56-0.2-0.94-0.63-1.33c-3.15-2.85-6.28-5.71-9.42-8.57c-0.14-0.13-0.3-0.24-0.46-0.37c0.07,0.09,0.14,0.17,0.21,0.26
		c-3.45,2.98-6.91,5.96-10.34,8.96c-0.21,0.19-0.33,0.55-0.33,0.84c-0.02,4.48-0.01,8.95-0.01,13.43
		C23.13,48.61,23.16,48.8,23.18,49.01z M48.82,33.9c-0.27-0.32-0.46-0.61-0.72-0.84c-4.45-4.07-8.91-8.14-13.37-12.21
		c-1.02-0.93-1.22-0.93-2.21-0.03c-4.48,4.08-8.96,8.17-13.43,12.26c-0.15,0.14-0.39,0.29-0.4,0.44c-0.02,0.33-0.04,0.77,0.17,0.95
		c0.22,0.18,0.72,0.17,1.07,0.12c0.22-0.03,0.4-0.3,0.59-0.47c3.97-3.62,7.94-7.24,11.9-10.86c1-0.91,1.37-0.91,2.39,0.02
		c3.99,3.64,7.97,7.28,11.96,10.91c0.17,0.15,0.33,0.37,0.54,0.42c0.28,0.07,0.66,0.1,0.9-0.01C48.46,34.48,48.59,34.17,48.82,33.9z
		 M36.92,49.03c0-1.65,0.02-3.23-0.01-4.8c-0.02-1.12-1.12-2.08-2.4-2.14c-0.56-0.03-1.13-0.02-1.69,0
		c-1.45,0.04-2.52,1.02-2.53,2.32c-0.01,1.04,0,2.08,0,3.12c0,0.5,0,0.99,0,1.53c2.13,0,4.15,0,6.16,0
		C36.58,49.05,36.71,49.04,36.92,49.03z"/>
	<path class="st2" d="M26.58,36.71c0.46-0.76,0.13-1.7,0.03-2.66c-0.12-1.14,0.89-2.23,2.09-2.55c1.3-0.34,2.61,0.09,3.39,1.12
		c0.6,0.79,2.4,0.79,3.01-0.01c0.91-1.18,2.54-1.56,3.91-0.91c1.32,0.62,1.89,2.02,1.41,3.36c-0.09,0.26-0.09,0.59,0.01,0.86
		c0.49,1.37-0.11,2.76-1.48,3.39c-1.4,0.64-3,0.25-3.87-0.99c-0.26-0.37-0.53-0.48-0.97-0.45c-0.32,0.02-0.65,0.03-0.97,0
		c-0.51-0.05-0.81,0.11-1.1,0.52c-0.75,1.06-2.06,1.44-3.38,1.09C27.5,39.16,26.6,38.05,26.58,36.71z M38.68,33.96
		c-0.35-0.25-0.67-0.66-0.96-0.64c-0.34,0.02-0.86,0.38-0.92,0.66c-0.18,0.73-0.56,1.05-1.37,1.03c-1.26-0.02-2.53-0.01-3.79,0
		c-0.68,0-1.09-0.3-1.15-0.88c-0.05-0.49-0.32-0.81-0.82-0.83c-0.28-0.01-0.76,0.23-0.81,0.42c-0.08,0.31,0.01,0.76,0.23,1.01
		c0.5,0.56,0.47,0.99-0.01,1.54c-0.22,0.25-0.3,0.7-0.21,1.01c0.06,0.19,0.63,0.46,0.81,0.39c0.33-0.13,0.66-0.47,0.76-0.78
		c0.2-0.59,0.51-0.93,1.22-0.92c1.29,0.01,2.58,0.02,3.87,0c0.72-0.01,1.03,0.33,1.24,0.91c0.11,0.31,0.43,0.68,0.75,0.79
		c0.21,0.07,0.76-0.21,0.86-0.44c0.11-0.26-0.01-0.71-0.22-0.94c-0.5-0.54-0.57-1-0.02-1.53C38.33,34.57,38.44,34.32,38.68,33.96z"
		/>
</g>
</svg>
