<?xml version="1.0" encoding="utf-8"?>
<!-- Generator: Adobe Illustrator 24.0.2, SVG Export Plug-In . SVG Version: 6.00 Build 0)  -->
<svg version="1.1" id="Capa_1" xmlns="http://www.w3.org/2000/svg" xmlns:xlink="http://www.w3.org/1999/xlink" x="0px" y="0px"
	 viewBox="0 0 141.7 141.7" style="enable-background:new 0 0 141.7 141.7;" xml:space="preserve">
<style type="text/css">
	.st0{fill:#09B1B8;}
</style>
<g>
	<path class="st0" d="M64.9,101.9c-0.3,0.6-0.8,1.2-1,1.9c-2.3,9.1-5,18.1-9,26.6c-1.3,2.7-2.8,5.4-4.3,8c-0.3,0.6-1.2,1.1-1.9,1.2
		c-6.4,0.6-12.4-0.3-17.8-4.2c-6.7-4.8-10.3-11.3-10.7-19.7c-0.4-8,3-14.2,8-19.8c10.3-11.6,19.8-23.7,28.5-36.6
		c6.4-9.5,20-10.6,27.7-2.1c2.9,3.2,5.1,7,7.6,10.4c7.5,10.1,15.2,20,23.7,29.3c9.9,10.8,9.3,25.2,0.8,34.6c-5.7,6.3-13,8.9-21.4,8
		c-0.6-0.1-1.3-0.7-1.6-1.2c-2.2-4.4-4.3-8.8-6.5-13.3c-0.3-0.7-0.9-1.3-1.4-1.9c0.2,0.1,0.5,0.3,0.6,0.3c-1.7-6.5-3.4-13-5.1-19.4
		c-0.5-2-0.4-2.1,1.6-2.1c2.2,0,4.5,0,7.1,0C84,90.8,78.1,80.1,72,69.2c-0.5,0.7-0.9,1-1.1,1.5c-3.9,7.7-7.8,15.4-11.6,23.1
		c-0.3,0.7-0.1,1.6-0.1,2.4c-0.3,0.1-0.8,0-1,0.2c-1,1.6-1.8,3.2-2.9,5C58.9,101.6,61.9,101.7,64.9,101.9z"/>
	<path class="st0" d="M137.9,48.8c-0.5,11.1-5.4,19.8-14.9,25.6c-3.3,2-7,2.8-10.8,2c-5-1-8.5-5.2-9.2-10.8
		c-1.3-11.6,3.4-20.6,12.3-27.7c2.8-2.2,6.1-3.5,9.6-3.9c6.9-0.6,12.5,4.6,13,12C137.9,46.9,137.9,47.8,137.9,48.8z"/>
	<path class="st0" d="M62.7,12.7c0.2,0.6,0.3,1.3,0.6,2c2.8,6.7,3.9,13.5,1.6,20.5c-2.8,8.4-11,11.1-18.4,6.1
		c-4.3-2.9-7-7.1-8.8-11.8c-2.3-6.2-2.9-12.4-0.7-18.8c2.8-8.1,11.2-11.1,18.1-6c2.5,1.8,4.3,4.5,6.5,6.7
		C61.9,12,62.3,12.3,62.7,12.7z"/>
	<path class="st0" d="M107.7,18.2c-0.3,9.7-3.4,17.2-10.4,22.9c-3.1,2.5-6.7,3.5-10.6,2.5c-4.8-1.2-7.2-4.7-8.5-9.1
		c-3.1-10,1.2-23.1,9.5-29.3c7.6-5.7,16.6-2.6,19,6.7C107.4,14.2,107.5,16.6,107.7,18.2z"/>
	<path class="st0" d="M29.9,39.5c7.3,7.5,10.8,15.5,10,25.2c-0.4,4.3-2.3,7.8-5.9,10.1c-4.4,2.9-9,2.1-13.4-0.1
		c-10-5-16.9-18.1-15.6-29.2c1.3-10.2,10.3-14.8,19.4-9.8C26.6,36.8,28.6,38.6,29.9,39.5z"/>
</g>
</svg>
