<?xml version="1.0" encoding="utf-8"?>
<!-- Generator: Adobe Illustrator 24.0.2, SVG Export Plug-In . SVG Version: 6.00 Build 0)  -->
<svg version="1.1" id="Capa_1" xmlns="http://www.w3.org/2000/svg" xmlns:xlink="http://www.w3.org/1999/xlink" x="0px" y="0px"
	 viewBox="0 0 48.8 46.2" style="enable-background:new 0 0 48.8 46.2;" xml:space="preserve">
<style type="text/css">
	.Sombra_x0020_paralela{fill:none;}
	.Esquinas_x0020_redondeadas_x0020_2_x0020_pt_x002E_{fill:#FFFFFF;stroke:#000000;stroke-miterlimit:10;}
	.Reflejo_x0020_vivo_x0020_X{fill:none;}
	.Bisel_x0020_suave{fill:url(#SVGID_1_);}
	.Atardecer{fill:#FFFFFF;}
	.Follaje_GS{fill:#FFDD00;}
	.Pompadour_GS{fill-rule:evenodd;clip-rule:evenodd;fill:#51AEE2;}
	.st0{fill:#FFFFFF;}
	.st1{fill:#08A7AB;stroke:#08A9AC;stroke-width:0.75;stroke-miterlimit:10;}
	.st2{fill:#08A7AB;}
</style>
<linearGradient id="SVGID_1_" gradientUnits="userSpaceOnUse" x1="-38.8845" y1="-81.0799" x2="-38.1774" y2="-80.3728">
	<stop  offset="0" style="stop-color:#E6E6EB"/>
	<stop  offset="0.1738" style="stop-color:#E2E2E6"/>
	<stop  offset="0.352" style="stop-color:#D5D4D8"/>
	<stop  offset="0.5323" style="stop-color:#C0BFC2"/>
	<stop  offset="0.7139" style="stop-color:#A4A2A4"/>
	<stop  offset="0.8949" style="stop-color:#828282"/>
	<stop  offset="1" style="stop-color:#6B6E6E"/>
</linearGradient>
<g>
	<path class="st0" d="M6,13.6c0-3.2,0-6.3,0-9.5c0-0.4,0-0.6,0.5-0.6c12,0,23.9,0,35.9,0c0.5,0,0.5,0.2,0.5,0.6c0,6,0,12,0,18
		c-0.5-0.1-0.4-0.6-0.5-0.9c-1-4.1-3.3-6.9-7.1-7.9c-6.3-1.8-11.7,3.1-12.3,9c-0.2,1.7,0,3.4,0.6,5c0.3,0.8,0.3,1.5,0,2.2
		c-0.4,1-0.8,2-1.1,3c-0.4,1.1-0.1,1.5,1,1.5c2.4,0,4.8,0,7.2,0c1.1,0,2.3,0.3,3.4,0.1c4.3-0.8,7.1-3.4,8.4-7.9
		c0.1-0.4,0-0.9,0.6-0.9c0,5.8,0,11.6,0,17.4c0,0.5-0.1,0.6-0.6,0.6c-11.9,0-23.8,0-35.7,0c-0.5,0-0.6-0.1-0.6-0.6
		c0-3.2,0-6.4,0-9.6c0.4,0,0.5,0.5,0.5,0.8c0.9,3.6,3.3,5.7,6.3,7.1c0.3,0.1,0.6,0.2,0.9,0.2c1.3,0,2.6,0,3.8,0
		c1.4,0,2.2-0.7,2.3-2.2c0.2-1.9,0.2-3.8,0-5.6c-0.2-1.6-0.9-2.3-2.4-2.4c-2.8-0.3-3.4-1-3.4-4.1c0-2.4,0-4.9,0-7.3
		c0-2.3,0.9-3.3,3-3.4c1.9-0.1,2.7-0.9,2.8-2.9c0.1-1.5,0.1-3.1,0-4.6c-0.1-2-0.9-2.8-2.8-2.8c-0.7,0-1.3,0.1-2,0
		c-2.1-0.3-3.8,0.7-5.4,1.9C8.3,9,7.2,10.6,6.6,12.6C6.5,13,6.6,13.6,6,13.6z"/>
	<path class="st1" d="M6,13.6c0.3-0.1,0.2-0.4,0.3-0.7c0.7-2.8,2.3-4.7,4.6-6.3c2.4-1.6,4.9-1.2,7.4-1.1c0.9,0,1.8,1,1.8,2.1
		c0.2,2.1,0.2,4.3,0,6.4c-0.1,1.3-1.1,2.1-2.4,2.2c-0.4,0-0.8,0-1.2,0.1c-1.2,0.2-2.1,1.2-2.1,2.5c0,3.1,0,6.2,0,9.2
		c0,1.3,0.9,2.4,2.2,2.5c0.4,0,0.8,0,1.2,0.1c1.3,0.1,2.3,1,2.4,2.4c0.1,2,0.1,4,0,6c-0.1,1.4-1.1,2.3-2.3,2.3c-1.4,0-2.8,0.1-4.3,0
		c-1,0-1.7-0.8-2.6-1.2c-2.1-1.2-3.6-3-4.4-5.4C6.3,34.2,6.4,33.5,6,33C6,26.6,6,20.1,6,13.6z"/>
	<path class="st1" d="M42.8,25.3c-0.3,0.2-0.2,0.5-0.3,0.8c-1.2,5.5-6,9-11.1,8.3c-2.6-0.3-5.2-0.1-7.8-0.1c-0.2,0-0.5,0-0.7,0
		c-0.8-0.1-1.1-0.5-0.8-1.4c0.4-1.2,0.8-2.4,1.3-3.6c0.3-0.6,0.2-1.2,0-1.8C21,21,24.8,13.8,31.1,12.8c5.5-0.9,10.6,3,11.6,9
		c0,0.1,0,0.3,0.2,0.4C42.8,23.2,42.8,24.2,42.8,25.3z"/>
	<path class="st0" d="M7.7,23.4c0-2.6,0-5.2,0-7.8c0-3.3,1.5-5.7,4.1-7.4c2-1.3,4-0.9,6.1-0.9c0.5,0,0.7,0.5,0.7,0.9
		c0,1.7,0,3.5,0,5.2c0,0.8-0.5,1.1-1.1,1.1c-0.7,0-1.4,0-2,0.3c-1.6,0.7-2.7,2.3-2.7,4.2c0,3,0,5.9,0,8.9c0,2.6,1.7,4.5,4.2,4.5
		c1.5,0,1.6,0.2,1.6,1.8c0,1.4,0,2.8,0,4.1c0,1-0.3,1.3-1.2,1.3c-0.6,0-1.2-0.1-1.8,0c-2.3,0.3-4.1-0.9-5.7-2.5
		c-1.6-1.6-2.2-3.7-2.2-6C7.7,28.5,7.7,26,7.7,23.4z"/>
	<path class="st0" d="M41.2,23.5c0,5.6-4.6,9.8-9.7,9.1c-2.2-0.3-4.5-0.1-6.7-0.1c-0.7,0-1-0.1-0.6-0.9c0.1-0.1,0.1-0.3,0.2-0.4
		c0.8-1.7,0.9-3.2,0.3-5.2C23,21,26.1,15.8,31,14.6c4.6-1.1,9.3,2.4,10,7.5C41.1,22.6,41.2,23.1,41.2,23.5z"/>
	<path class="st2" d="M16.8,10.8c0,0.6-0.3,0.9-0.8,0.9c-0.5,0-0.8-0.4-0.8-0.9c0-0.5,0.3-0.9,0.8-0.9C16.5,10,16.8,10.3,16.8,10.8z
		"/>
	<path class="st2" d="M16.8,36c0,0.5-0.3,0.9-0.8,0.9c-0.5,0-0.8-0.4-0.8-0.9c0-0.5,0.3-0.9,0.8-0.9C16.5,35.1,16.8,35.5,16.8,36z"
		/>
	<path class="st2" d="M13.5,11.7c-0.1,0.5-0.3,0.9-0.9,0.9c-0.5,0-0.8-0.4-0.8-0.9c0-0.5,0.4-0.8,0.8-0.8
		C13.2,10.8,13.4,11.2,13.5,11.7z"/>
	<path class="st2" d="M12.7,34.2c0.5,0,0.8,0.4,0.8,0.9c0,0.5-0.3,0.8-0.8,0.8c-0.5,0-0.8-0.3-0.8-0.9
		C11.9,34.5,12.2,34.3,12.7,34.2z"/>
	<path class="st1" d="M36,21.6c0.9-0.1,1.7,0.1,2.1,1.2c0.5,1.3-0.2,2.6-1.5,2.8c-0.6,0.1-1.5-0.3-1.9,0.1c-0.4,0.4-0.1,1.3-0.2,2
		c-0.1,1.1-0.8,1.9-1.8,1.9c-1,0-1.8-0.8-1.8-1.9c0-0.7,0.3-1.5-0.1-2c-0.4-0.4-1.2-0.1-1.8-0.1c-1-0.1-1.8-0.9-1.8-2
		c0-1.1,0.8-1.9,1.8-2c0.6,0,1.5,0.3,1.8-0.1c0.3-0.4,0.1-1.3,0.1-1.9c0-1.1,0.8-1.9,1.8-1.9c0.9-0.1,1.8,0.7,1.9,1.8
		c0,0.3,0,0.5,0,0.8C34.5,21.6,34.5,21.6,36,21.6z"/>
</g>
</svg>
