<?xml version="1.0" encoding="utf-8"?>
<!-- Generator: Adobe Illustrator 24.0.2, SVG Export Plug-In . SVG Version: 6.00 Build 0)  -->
<svg version="1.1" id="Capa_1" xmlns="http://www.w3.org/2000/svg" xmlns:xlink="http://www.w3.org/1999/xlink" x="0px" y="0px"
	 viewBox="0 0 47.6 42.5" style="enable-background:new 0 0 47.6 42.5;" xml:space="preserve">
<style type="text/css">
	.Sombra_x0020_paralela{fill:none;}
	.Esquinas_x0020_redondeadas_x0020_2_x0020_pt_x002E_{fill:#FFFFFF;stroke:#000000;stroke-miterlimit:10;}
	.Reflejo_x0020_vivo_x0020_X{fill:none;}
	.Bisel_x0020_suave{fill:url(#SVGID_1_);}
	.Atardecer{fill:#FFFFFF;}
	.Follaje_GS{fill:#FFDD00;}
	.Pompadour_GS{fill-rule:evenodd;clip-rule:evenodd;fill:#51AEE2;}
	.st0{fill:#0CA8AC;}
</style>
<linearGradient id="SVGID_1_" gradientUnits="userSpaceOnUse" x1="-47.595" y1="-50.7069" x2="-46.8879" y2="-49.9998">
	<stop  offset="0" style="stop-color:#E6E6EB"/>
	<stop  offset="0.1738" style="stop-color:#E2E2E6"/>
	<stop  offset="0.352" style="stop-color:#D5D4D8"/>
	<stop  offset="0.5323" style="stop-color:#C0BFC2"/>
	<stop  offset="0.7139" style="stop-color:#A4A2A4"/>
	<stop  offset="0.8949" style="stop-color:#828282"/>
	<stop  offset="1" style="stop-color:#6B6E6E"/>
</linearGradient>
<path class="st0" d="M39,6.2c-2.2,2.2-4.3,4.3-6.5,6.5c-0.3,0.3-0.5,0.5-0.3,1c0.2,0.9,0,1.8-0.7,2.5c-0.6,0.5-1.1,1.1-1.6,1.6
	c-0.1,0.2-0.2,0.5-0.2,0.7c0.3,1.1,0,2.1-0.8,2.9c-2.7,2.7-5.3,5.3-8,8c-0.3,0.3-0.4,0.6-0.2,1c0.4,0.8,0.6,1.6,0.9,2.4
	c0.2,0.6,0,1.1-0.5,1.2c-0.5,0.2-0.9-0.1-1.1-0.7c-0.5-1.1-1-2.2-1.5-3.3c-0.1-0.1-0.2-0.2-0.2-0.3c-1.2,1.2-2.4,2.4-3.6,3.6
	c0.2,0.3,0.6,0.6,0.7,1c0.2,0.5-0.1,0.8-0.5,1.1c-0.2,0-0.4,0-0.5,0c-0.8-0.7-1.5-1.4-2.3-2.2c-1.1-1.2-2.3-2.3-3.4-3.5
	c0-0.2,0-0.4,0-0.5c0.7-0.8,0.9-0.8,2,0.2c1.2-1.2,2.4-2.4,3.7-3.7c-1-0.5-2.1-1-3.2-1.5c-0.2-0.1-0.4-0.1-0.6-0.2
	c-0.5-0.2-0.7-0.6-0.5-1.1c0.2-0.5,0.6-0.7,1.1-0.5c0.8,0.3,1.7,0.5,2.4,0.9c0.5,0.3,0.8,0.1,1.2-0.2c2.6-2.6,5.2-5.2,7.8-7.8
	c0.9-0.9,1.8-1.3,3-0.9c0.2,0,0.4,0,0.6-0.2c0.6-0.5,1.1-1.1,1.7-1.7c0.7-0.8,1.6-1,2.6-0.7c0.4,0.1,0.7,0,0.9-0.3
	C33.1,9.6,35,7.7,37,5.7c0.3-0.3,0.5-0.5,0.8-0.8c0.4,0,0.8,0,1.2,0C39,5.4,39,5.8,39,6.2z M23.3,24.4c0,0,0-0.1-0.1-0.1
	c-0.5-0.5-0.9-0.9-1.4-1.4c-0.7-0.7-0.8-1.1-0.4-1.6c0.4-0.4,1-0.3,1.7,0.4c0.5,0.5,0.9,1,1.4,1.6c0.5-0.5,0.9-0.9,1.4-1.4
	c-0.6-0.5-1.1-1.1-1.7-1.6c-0.5-0.5-0.6-1.1-0.2-1.5c0.4-0.4,0.9-0.3,1.5,0.2c0.6,0.6,1.1,1.1,1.6,1.7c1.2-1.1,1.2-1.3,0.2-2.4
	c-0.6-0.6-1.1-1.1-1.7-1.7c-0.8-0.8-1.1-0.8-1.8,0c-2,2-4.1,4.1-6.1,6.1c-0.6,0.6-1.3,1.2-1.6,1.5c1.3,1.3,2.6,2.6,3.8,3.8
	c-0.1,0.1-0.2,0.2-0.3,0.3c0.4-0.4,0.9-0.8,1.4-1.4c-0.6-0.6-1.2-1.2-1.8-1.7c-0.5-0.4-0.4-1.1-0.2-1.4c0.4-0.4,0.9-0.4,1.4,0.1
	c0.6,0.6,1.1,1.2,1.7,1.7C22.5,25.2,22.9,24.8,23.3,24.4z M15.9,26.9c-1.3,1.3-2.6,2.6-3.8,3.7c0.4,0.4,0.8,0.8,1.1,1.2
	c1.2-1.2,2.5-2.5,3.8-3.8C16.7,27.7,16.3,27.3,15.9,26.9z M28.4,16.9c0.6-0.6,1.2-1.2,1.8-1.9c0.4-0.4,0.4-1,0.1-1.3
	c-0.4-0.4-0.9-0.4-1.3,0c-0.6,0.6-1.2,1.2-1.8,1.8C27.6,16,28,16.4,28.4,16.9z"/>
</svg>
