<?xml version="1.0" encoding="utf-8"?>
<!-- Generator: Adobe Illustrator 23.0.5, SVG Export Plug-In . SVG Version: 6.00 Build 0)  -->
<svg version="1.1" xmlns="http://www.w3.org/2000/svg" xmlns:xlink="http://www.w3.org/1999/xlink" x="0px" y="0px"
	 viewBox="0 0 283.5 283.5" style="enable-background:new 0 0 283.5 283.5;" xml:space="preserve">
<style type="text/css">
	.st0{fill:#00A6AA;stroke:#02A6A9;stroke-width:0.75;stroke-miterlimit:10;}
	.st1{fill:#00A6AA;}
</style>
<g id="Capa_2">
</g>
<g id="Capa_1">
	<g>
		<path class="st0" d="M93.9,189.8c-2.9-0.2-5.9,0-8.8-0.3c-8.8-1-15.6-8-15.6-16.8c-0.1-20.6-0.1-41.1,0-61.7
			c0.1-8.5,6.5-15.7,15-16.8c2.9-0.4,5.9-0.3,8.8-0.4c9.3-0.6,16.6-6,17.4-14.4c1.3-14.2,1.2-28.5,0-42.8
			c-0.6-6.9-6.6-13.7-13.2-13.9c-17.9-0.4-35.9-3.5-52.8,7.4C28.5,40.4,16.7,53.3,11.6,72.1c-0.4,1.5-0.1,3.6-2.2,4.4
			c0,43.1,0,86.2,0,129.3c2.5,3.4,2.3,7.6,3.8,11.3c6.1,16,16.3,28.4,31.7,36c6,3,11.5,7.9,18.6,8.1c10.2,0.4,20.4,0.2,30.5,0
			c9.1-0.2,16.2-6.4,16.8-15.5c1-13.3,0.9-26.6,0-39.9C110.3,196.5,103.4,190.4,93.9,189.8z M99.6,240.8c0,7-1.8,8.7-8.6,8.8
			c-4.3,0-8.7-0.4-12.9,0.1c-16.7,1.9-29.5-6-40.8-16.6c-11.5-10.7-16-24.6-16-40.2c0.1-17,0-34.1,0-51.1c0-17.4-0.1-34.9,0-52.3
			C21.6,67.4,32,51.8,50.7,40.2c14.1-8.7,29-5.7,43.8-6c3.5-0.1,5,3.1,5,6.2c0.2,11.5,0.2,23.1,0,34.7c-0.1,5.1-3.4,7.1-8.2,7
			c-4.9-0.1-9.8-0.1-14.5,1.7c-11.7,4.5-19.2,15.4-19.3,28.1c0,19.8,0,39.6,0,59.3c0,17.6,12.5,30.1,30.3,30.3
			c10.6,0.1,11.8,1.3,11.8,11.8C99.6,222.4,99.7,231.6,99.6,240.8z"/>
		<path class="st0" d="M274,132.3c-1.3-0.3-1-1.4-1.2-2.3c-6.8-39.6-43.4-66-83-59.9c-45.3,7-72.9,55-56,98c1.7,4.3,1.8,7.9,0,12.1
			c-3.4,7.8-6.5,15.9-9.5,23.9c-2.1,5.5,0.1,8.7,6.1,9c1.8,0.1,3.5,0,5.3,0c18.8,0.4,37.7-1.5,56.3,0.8c37.1,4.5,71-18.6,79.9-55.2
			c0.4-1.7,0-4,2.1-5.1C274,146.4,274,139.3,274,132.3z M262.1,142.1c0,37.5-33.1,65.7-69.6,60.6c-15.9-2.2-32.1-0.7-48.1-0.6
			c-5.2,0-6.9-1-4.2-5.9c0.5-0.8,0.7-1.8,1.1-2.7c5.7-11.2,6.6-21.6,2-34.6c-11.5-33,10.7-68,45.9-75.9c32.9-7.4,66.6,16,71.9,49.9
			C261.7,136.1,262.2,139.3,262.1,142.1z"/>
		<path class="st1" d="M87.2,57.7c-0.3,3.7-2,5.9-5.8,5.9c-3.8,0-5.8-2.4-5.9-5.8c-0.1-3.5,2.3-5.9,5.8-5.9
			C84.8,51.9,87,54.1,87.2,57.7z"/>
		<path class="st1" d="M87.2,225.7c-0.2,3.6-2.4,5.8-5.8,5.8c-3.5,0-5.9-2.4-5.9-5.9c0-3.4,2.1-5.8,5.9-5.8
			C85.1,219.9,86.9,222,87.2,225.7z"/>
		<path class="st1" d="M63.5,63.8c-0.8,3.5-2.4,6-6.3,5.8c-3.8-0.2-5.6-2.4-5.5-6.2c0.1-3.6,2.6-5.4,5.7-5.5
			C61,57.9,62.9,60.4,63.5,63.8z"/>
		<path class="st1" d="M57.7,213.9c3.7,0.3,5.7,2.7,5.6,6.2c-0.1,3.3-2.5,5.6-5.7,5.5c-3.4-0.1-5.9-2-5.9-5.9
			C51.8,215.9,53.9,214,57.7,213.9z"/>
		<path class="st0" d="M224.6,129.4c6.1-0.6,12.1,0.7,15.3,7.8c3.8,8.4-1.7,17.6-10.9,18.4c-4.6,0.4-10.6-1.9-13.6,0.9
			c-3.1,2.9-0.6,8.9-1.1,13.5c-0.7,7.2-6,12.4-13,12.4c-7.4,0-12.8-5.3-13.2-12.8c-0.3-4.4,1.8-10.2-0.9-13c-2.8-2.9-8.5-0.7-13-0.9
			c-7.5-0.4-13-6-13-13.1c0-7,5.8-12.8,13.1-13.1c4.4-0.2,10.5,2,12.9-0.9c2.3-2.7,0.7-8.5,0.9-13c0.3-7.1,5.7-12.6,12.7-13
			c6.8-0.3,12.7,4.9,13.4,12.1c0.2,1.8,0.2,3.5,0.2,5.3C214.5,129.4,214.5,129.4,224.6,129.4z"/>
	</g>
</g>
</svg>
