<?xml version="1.0" encoding="utf-8"?>
<!-- Generator: Adobe Illustrator 23.0.5, SVG Export Plug-In . SVG Version: 6.00 Build 0)  -->
<svg version="1.1" id="Capa_1" xmlns="http://www.w3.org/2000/svg" xmlns:xlink="http://www.w3.org/1999/xlink" x="0px" y="0px"
	 viewBox="0 0 141.7 141.7" style="enable-background:new 0 0 141.7 141.7;" xml:space="preserve">
<style type="text/css">
	.st0{fill:#09B1B8;}
</style>
<g>
	<path class="st0" d="M43.9,123.7c-0.2-2.3-0.4-4.5-0.6-6.6c-0.4-7.1-0.4-14.3,2.1-21.1c1.9-5.1,5.1-9,10.8-10.1
		c3.1-0.6,6.2-0.5,9.3,0.3c0.6,0.2,1.3,0.3,2.1,0.5c-0.7-2.6-1.6-5-2.1-7.5c-0.9-4.1-1.7-8.2-2.3-12.3c-0.5-3.6,1.1-6.3,4.2-8
		c8.7-4.7,17.4-9.4,26.1-14.1c2.5-1.4,5-1.3,7.5,0c1.7,0.9,3.4,1.8,5.5,2.9c-0.2-2.3-0.2-4.3-0.6-6.3c-1.4-7.8-4.9-14.5-11.6-19
		C87,17.1,79,16.6,71,21c-7.2,4-14.2,3.9-21.3,0c-10-5.6-21.9-2.8-29.2,6.8c-3.6,4.8-5.7,10.2-6.1,16.2c0,0.6-0.1,1.1-0.2,1.7
		c-0.2,1.3-1,2.2-2.1,2c-1.3-0.2-2-1-1.9-2.3c0.1-1.8,0.3-3.5,0.6-5.3c1.8-9.3,6.3-17.1,14.5-22.1c8.7-5.3,17.7-5.3,26.6-0.5
		c2.7,1.5,5.5,2.4,8.7,2.4c2.6,0,5.1-0.5,7.2-1.9c14.5-8.9,31.8-2.5,39.3,13.2c2.5,5.3,3.7,10.9,3.5,16.8c-0.1,1.4,0.4,2.1,1.7,2.8
		c5,2.6,10,5.3,15,8c3.1,1.7,4.8,4.8,4.3,8.3c-1.3,8.9-3.4,17.6-7,25.8c-2.7,6.2-6.2,11.8-11.5,16.2c-4.7,3.9-10.1,5.9-16.3,5.9
		c-0.6,0-1.5,0.4-1.9,0.8c-4.2,4.1-8.8,7.5-14,10.4c-3.7,2-7.6-0.3-7.6-4.5c0.1-2.9,0.6-5.8,0.7-8.8c0.1-3.5,0-7.1,0.2-10.6
		c0.1-1.6-0.6-2.8-1.3-4.1c-0.8-1.4-1.4-2.9-2.2-4.3c-0.6-0.9-1.3-1.9-2.2-2.3c-3.5-1.8-7.3-2.2-11.2-1.6c-3.8,0.6-6.1,3.2-7.5,6.6
		c-2.5,5.9-2.6,12.1-2.3,18.3c0.1,2.6,0.5,5.1,0.7,7.7c0.1,1.9-0.5,3.5-2.1,4.6c-1.6,1-3.1,0.8-4.7-0.1
		c-10.8-6.1-18.5-14.6-21.5-26.9c-1.7-6.7-1.5-13.5-0.4-20.3c0.7-4.3-0.1-8.2-2.5-11.9c-1.5-2.3-2.8-4.8-4-7.3
		c-0.8-1.6-0.4-2.8,0.8-3.4c1.2-0.5,2.2,0.1,3,1.8c0.8,1.8,1.6,3.6,2.7,5.2c4.1,5.5,4.9,11.6,3.8,18.2c-1.8,11.1,0.2,21.4,7.3,30.5
		c3.4,4.3,7.7,7.6,12.4,10.3C43.1,123.4,43.4,123.5,43.9,123.7z M98.5,110.9c1.3-0.3,3.9-0.7,6.2-1.6c5.4-2.1,9.3-6.2,12.3-11.1
		c6.1-9.8,8.8-20.7,10.4-32c0.3-1.8-0.7-3.1-2.3-3.9c-8.5-4.6-17.1-9.2-25.6-13.9c-1.5-0.8-2.9-0.9-4.4,0
		c-8.5,4.6-16.9,9.2-25.4,13.8c-2.1,1.1-2.9,2.6-2.4,4.9c1.3,6,2.5,12.1,4.3,17.9c2,6.8,5.1,13.1,10,18.3
		C85.8,108,91,110.7,98.5,110.9z M90.7,113.9c-5.1-1.5-8.9-4.4-12.4-7.9c-0.2,3.3-0.3,6.2-0.5,9.1c-0.1,2-0.4,3.9-0.6,5.9
		c-0.1,1.5,0.4,2.2,1.4,1.6C83,120.3,86.9,117.5,90.7,113.9z"/>
	<path class="st0" d="M96.9,108c-5.3-0.2-9.8-2.7-13.5-6.8c-4.5-5-7.4-10.9-9.2-17.2c-1.6-5.4-2.7-11-4-16.5
		c-0.3-1.4,0.1-2.4,1.5-3.1c8-4.3,16-8.6,24-13c1.2-0.6,2.1-0.6,3.2,0c7.8,4.3,15.6,8.5,23.4,12.7c2.1,1.1,2.2,1.3,1.9,3.7
		c-1.4,9-3.6,17.7-7.9,25.8c-2.5,4.8-5.7,9-10.4,11.8C103.3,107.1,100.4,107.9,96.9,108z M97.7,103.9c0.6-0.1,1.7-0.2,2.7-0.5
		c5.2-1.4,8.4-5,11.1-9.3c4.7-7.8,7-16.5,8.6-25.4c0.2-0.9-0.1-1.3-0.9-1.7c-7-3.7-14-7.5-20.9-11.3c-0.5-0.3-1.3-0.3-1.8,0
		c-7,3.7-14,7.6-21.1,11.4c-0.8,0.4-0.9,0.9-0.7,1.7c0.6,2.6,1,5.3,1.7,7.8c1.9,7.5,4.4,14.8,9.4,21
		C88.7,101.2,92.4,103.6,97.7,103.9z"/>
	<path class="st0" d="M96.2,87.3c3.4-5.8,6.8-11.5,10.1-17.1c0.3-0.5,0.6-1,0.9-1.6c1-1.7,2.1-2.2,3.3-1.4c1.2,0.7,1.3,1.8,0.3,3.4
		c-1.6,2.7-3.2,5.4-4.8,8.1c-2.3,4-4.7,7.9-7,11.9c-1.1,1.9-2.1,2.1-3.9,0.9c-3.8-2.6-7.5-5.2-11.3-7.9c-0.3-0.2-0.6-0.4-0.8-0.6
		c-0.9-0.8-1.2-1.8-0.4-2.8c0.8-1,1.8-1.1,2.8-0.4c3.1,2.1,6.1,4.3,9.2,6.4C95.1,86.6,95.6,86.9,96.2,87.3z"/>
</g>
</svg>
