<?xml version="1.0" encoding="utf-8"?>
<!-- Generator: Adobe Illustrator 23.0.5, SVG Export Plug-In . SVG Version: 6.00 Build 0)  -->
<svg version="1.1" id="Capa_1" xmlns="http://www.w3.org/2000/svg" xmlns:xlink="http://www.w3.org/1999/xlink" x="0px" y="0px"
	 viewBox="0 0 141.73 141.73" style="enable-background:new 0 0 141.73 141.73;" xml:space="preserve">
<style type="text/css">
	.st0{fill:#FFFFFF;stroke:#000000;stroke-width:2.1898;stroke-miterlimit:10;}
</style>
<circle class="st0" cx="70.87" cy="70.87" r="62.07"/>
<g>
	<path d="M56.2,109.06c-0.14-1.59-0.29-3.04-0.38-4.49c-0.3-4.84-0.29-9.67,1.42-14.3c1.28-3.47,3.48-6.07,7.29-6.82
		c2.1-0.41,4.22-0.35,6.32,0.19c0.42,0.11,0.85,0.22,1.41,0.36c-0.5-1.78-1.05-3.42-1.41-5.11c-0.6-2.77-1.17-5.56-1.57-8.36
		c-0.34-2.41,0.73-4.27,2.87-5.43c5.89-3.2,11.79-6.39,17.69-9.58c1.7-0.92,3.4-0.91,5.09,0.02c1.14,0.63,2.29,1.22,3.73,1.99
		c-0.14-1.56-0.16-2.94-0.4-4.28c-0.93-5.31-3.35-9.79-7.83-12.9c-5.07-3.52-10.47-3.84-15.88-0.84c-4.87,2.7-9.62,2.67-14.44-0.02
		c-6.8-3.8-14.85-1.9-19.8,4.64c-2.46,3.25-3.83,6.92-4.15,10.98c-0.03,0.38-0.06,0.75-0.11,1.12c-0.12,0.91-0.69,1.48-1.45,1.38
		c-0.89-0.12-1.34-0.69-1.27-1.57c0.09-1.19,0.18-2.39,0.41-3.56c1.24-6.33,4.27-11.56,9.85-14.99c5.89-3.62,11.98-3.62,18.05-0.33
		c1.84,1,3.75,1.63,5.86,1.61c1.75-0.01,3.43-0.36,4.91-1.26c9.82-6,21.52-1.7,26.59,8.92c1.72,3.59,2.51,7.38,2.34,11.35
		c-0.04,0.97,0.3,1.45,1.13,1.88c3.4,1.78,6.76,3.62,10.13,5.44c2.13,1.16,3.26,3.26,2.93,5.64c-0.85,6.02-2.27,11.89-4.73,17.47
		c-1.84,4.17-4.2,8.01-7.78,10.95c-3.21,2.64-6.87,4.02-11.06,3.99c-0.44,0-0.99,0.24-1.31,0.55c-2.82,2.79-5.98,5.11-9.45,7.02
		c-2.51,1.38-5.18-0.17-5.12-3.05c0.05-1.98,0.38-3.95,0.46-5.93c0.1-2.39,0-4.8,0.13-7.19c0.06-1.11-0.41-1.93-0.9-2.81
		c-0.53-0.95-0.94-1.98-1.52-2.91c-0.38-0.61-0.88-1.28-1.49-1.59c-2.39-1.22-4.97-1.52-7.6-1.09c-2.59,0.43-4.1,2.2-5.06,4.49
		c-1.67,3.99-1.78,8.19-1.57,12.42c0.09,1.74,0.34,3.47,0.47,5.21c0.09,1.28-0.32,2.38-1.44,3.09c-1.06,0.68-2.13,0.55-3.2-0.06
		c-7.3-4.12-12.51-9.9-14.55-18.22c-1.12-4.56-1.03-9.16-0.24-13.76c0.49-2.89-0.1-5.55-1.7-8.03c-1.02-1.57-1.89-3.25-2.73-4.92
		c-0.55-1.09-0.29-1.93,0.52-2.27c0.84-0.36,1.5,0.08,2.02,1.2c0.56,1.21,1.08,2.47,1.86,3.53c2.79,3.74,3.31,7.83,2.59,12.36
		c-1.2,7.51,0.12,14.53,4.96,20.63c2.31,2.91,5.2,5.13,8.41,6.97C55.65,108.89,55.84,108.93,56.2,109.06z M93.2,100.41
		c0.9-0.23,2.61-0.49,4.18-1.1c3.69-1.44,6.27-4.21,8.32-7.49c4.15-6.64,5.98-14.04,7.06-21.68c0.17-1.19-0.49-2.07-1.57-2.65
		c-5.78-3.12-11.55-6.24-17.31-9.39c-1.03-0.57-1.98-0.58-3.01-0.01c-5.73,3.13-11.48,6.23-17.22,9.35
		c-1.42,0.77-1.98,1.73-1.63,3.29c0.9,4.07,1.71,8.17,2.89,12.15c1.36,4.58,3.47,8.85,6.77,12.42
		C84.58,98.42,88.08,100.27,93.2,100.41z M87.89,102.46c-3.43-1.01-6.01-2.96-8.4-5.38c-0.11,2.21-0.18,4.19-0.31,6.16
		c-0.09,1.33-0.27,2.65-0.4,3.98c-0.1,0.99,0.3,1.47,0.97,1.11C82.66,106.77,85.32,104.87,87.89,102.46z"/>
	<path d="M92.12,98.4c-3.61-0.15-6.64-1.83-9.12-4.59c-3.04-3.37-4.98-7.37-6.25-11.66c-1.08-3.66-1.81-7.43-2.68-11.15
		c-0.22-0.95,0.07-1.61,0.99-2.1c5.43-2.9,10.84-5.83,16.24-8.79c0.79-0.43,1.43-0.4,2.2,0.02c5.28,2.89,10.58,5.75,15.87,8.62
		c1.42,0.77,1.51,0.9,1.26,2.5c-0.95,6.08-2.47,11.99-5.36,17.47c-1.69,3.22-3.83,6.09-7.02,7.99C96.42,97.8,94.43,98.38,92.12,98.4
		z M92.6,95.65c0.42-0.07,1.14-0.15,1.83-0.33c3.49-0.92,5.72-3.41,7.49-6.32c3.21-5.29,4.75-11.17,5.84-17.19
		c0.11-0.59-0.1-0.86-0.58-1.12c-4.73-2.54-9.45-5.11-14.19-7.64c-0.32-0.17-0.89-0.18-1.2-0.01c-4.77,2.54-9.51,5.14-14.28,7.69
		c-0.53,0.28-0.63,0.58-0.49,1.15c0.41,1.76,0.69,3.56,1.15,5.31c1.32,5.09,2.99,10.04,6.39,14.2
		C86.55,93.84,89.03,95.48,92.6,95.65z"/>
	<path d="M91.62,84.43c2.33-3.94,4.6-7.76,6.87-11.59c0.21-0.35,0.41-0.71,0.62-1.07c0.68-1.15,1.4-1.46,2.21-0.95
		c0.78,0.49,0.85,1.24,0.2,2.33c-1.08,1.83-2.16,3.65-3.25,5.48c-1.59,2.68-3.17,5.36-4.76,8.04c-0.77,1.3-1.45,1.45-2.66,0.61
		c-2.56-1.77-5.11-3.55-7.66-5.33c-0.2-0.14-0.39-0.28-0.57-0.43c-0.63-0.56-0.79-1.22-0.25-1.9c0.52-0.66,1.21-0.77,1.91-0.29
		c2.09,1.43,4.16,2.89,6.24,4.33C90.85,83.9,91.19,84.13,91.62,84.43z"/>
</g>
</svg>
