<?xml version="1.0" encoding="utf-8"?>
<!-- Generator: Adobe Illustrator 23.0.5, SVG Export Plug-In . SVG Version: 6.00 Build 0)  -->
<svg version="1.1" id="Capa_1" xmlns="http://www.w3.org/2000/svg" xmlns:xlink="http://www.w3.org/1999/xlink" x="0px" y="0px"
	 viewBox="0 0 141.7 185.7" style="enable-background:new 0 0 141.7 185.7;" xml:space="preserve">
<style type="text/css">
	.st0{fill:#09B1B8;}
	.st1{fill:#FFFFFF;}
	.st2{enable-background:new    ;}
</style>
<path class="st0" d="M123.5,143.6H18.6c-10.2,0-18.4-8.2-18.4-18.4V20.3c0-10.2,8.2-18.4,18.4-18.4h104.9c10.2,0,18.4,8.2,18.4,18.4
	v104.9C141.9,135.4,133.6,143.6,123.5,143.6z"/>
<g id="_x33_43._Playlist">
	<g>
		<path class="st1" d="M37.7,36.5l-12.4-7.7c-2.5-1.5-4.6-0.4-4.6,2.5v16.2c0,3,2.1,4.1,4.6,2.5l12.4-7.8
			C40.2,40.7,40.2,38.2,37.7,36.5z M117.6,31.4H53c-3,0-5.4,2.4-5.4,5.4v5.4c0,3,2.4,5.4,5.4,5.4h64.6c2.9,0,5.4-2.4,5.4-5.4v-5.4
			C123,33.8,120.6,31.4,117.6,31.4z M25.3,82.3l12.4-7.8c2.5-1.6,2.4-4-0.3-5.3l-11.9-5.9c-2.7-1.3-4.8,0-4.8,3v13.4
			C20.7,82.8,22.8,83.9,25.3,82.3z M117.6,63.7H53c-3,0-5.4,2.4-5.4,5.4v5.3c0,2.9,2.4,5.4,5.4,5.4h64.6c2.9,0,5.4-2.4,5.4-5.4V69
			C123,66.1,120.6,63.7,117.6,63.7z M37.7,101.2l-12.4-7.8c-2.5-1.6-4.6-0.4-4.6,2.5v16.2c0,2.9,2.1,4.1,4.6,2.5l12.4-7.8
			C40.2,105.3,40.2,102.8,37.7,101.2z M117.6,96H53c-3,0-5.4,2.4-5.4,5.4v5.4c0,2.9,2.4,5.4,5.4,5.4h64.6c2.9,0,5.4-2.4,5.4-5.4
			v-5.4C123,98.4,120.6,96,117.6,96z"/>
	</g>
</g>
<g class="st2">
	<path class="st0" d="M46,152.4l-11.4,17.4h-0.8l-11.4-17.4v26.3h-2.2V149c1.1,0,1.6,0,2.7,0l11.3,17.4l11.2-17.3h2.8v29.7H46V152.4
		z"/>
	<path class="st0" d="M53.2,168.3c0-6.3,4.7-10.8,10.6-10.8s11.1,3.6,10.3,11.8H55.3c0.4,4.9,4.2,7.8,8.5,7.8c2.8,0,6-1.1,7.5-3.2
		l1.5,1.2c-2,2.7-5.7,4-9,4C57.9,179.1,53.2,175,53.2,168.3z M72.3,167.5c0-5.2-3.4-8-8.5-8c-4.3,0-8,2.9-8.5,8H72.3z"/>
	<path class="st0" d="M81.6,157.9v3.7c1.6-2.9,4.5-4.1,7.5-4.1c5.6,0,9.4,3.4,9.4,9.2v12.1h-2.1v-12c0-4.7-2.9-7.3-7.5-7.2
		c-4.3,0-7.3,3.3-7.3,7.6v11.6h-2.1v-20.9L81.6,157.9L81.6,157.9z"/>
	<path class="st0" d="M119.8,178.8V175c-1.6,2.9-4.5,4.1-7.5,4.1c-5.6,0-9.4-3.4-9.4-9.2v-12.1h2.1v12c0,4.7,2.9,7.3,7.5,7.2
		c4.3,0,7.3-3.3,7.3-7.6v-11.6h2.1v21L119.8,178.8L119.8,178.8z"/>
</g>
</svg>
