<?xml version="1.0" encoding="utf-8"?>
<!-- Generator: Adobe Illustrator 23.0.5, SVG Export Plug-In . SVG Version: 6.00 Build 0)  -->
<svg version="1.1" id="Capa_1" xmlns="http://www.w3.org/2000/svg" xmlns:xlink="http://www.w3.org/1999/xlink" x="0px" y="0px"
	 viewBox="0 0 141.7 185.7" style="enable-background:new 0 0 141.7 185.7;" xml:space="preserve">
<style type="text/css">
	.st0{fill:#09B1B8;}
	.st1{enable-background:new    ;}
	.st2{fill:#FFFFFF;}
</style>
<path class="st0" d="M123.5,143.6H18.6c-10.2,0-18.4-8.2-18.4-18.4V20.3c0-10.2,8.2-18.4,18.4-18.4h104.9c10.2,0,18.4,8.2,18.4,18.4
	v104.9C141.9,135.4,133.6,143.6,123.5,143.6z"/>
<g class="st1">
	<path class="st0" d="M46,152.4l-11.4,17.4h-0.8l-11.4-17.4v26.3h-2.2V149c1.1,0,1.6,0,2.7,0l11.3,17.4l11.2-17.3h2.8v29.7H46V152.4
		z"/>
	<path class="st0" d="M53.2,168.3c0-6.3,4.7-10.8,10.6-10.8s11.1,3.6,10.3,11.8H55.3c0.4,4.9,4.2,7.8,8.5,7.8c2.8,0,6-1.1,7.5-3.2
		l1.5,1.2c-2,2.7-5.7,4-9,4C57.9,179.1,53.2,175,53.2,168.3z M72.3,167.5c0-5.2-3.4-8-8.5-8c-4.3,0-8,2.9-8.5,8H72.3z"/>
	<path class="st0" d="M81.6,157.9v3.7c1.6-2.9,4.5-4.1,7.5-4.1c5.6,0,9.4,3.4,9.4,9.2v12.1h-2.1v-12c0-4.7-2.9-7.3-7.5-7.2
		c-4.3,0-7.3,3.3-7.3,7.6v11.6h-2.1v-20.9L81.6,157.9L81.6,157.9z"/>
	<path class="st0" d="M119.8,178.8V175c-1.6,2.9-4.5,4.1-7.5,4.1c-5.6,0-9.4-3.4-9.4-9.2v-12.1h2.1v12c0,4.7,2.9,7.3,7.5,7.2
		c4.3,0,7.3-3.3,7.3-7.6v-11.6h2.1v21L119.8,178.8L119.8,178.8z"/>
</g>
<g id="_x33_43._Playlist">
	<g>
		<path class="st2" d="M31.4,31.9l-14.4-9c-2.9-1.8-5.3-0.5-5.3,2.9v18.8c0,3.5,2.4,4.8,5.3,2.9l14.4-9
			C34.3,36.7,34.3,33.8,31.4,31.9z M124.2,25.9h-75c-3.5,0-6.3,2.8-6.3,6.3v6.3c0,3.5,2.8,6.3,6.3,6.3h75c3.4,0,6.3-2.8,6.3-6.3
			v-6.3C130.5,28.7,127.7,25.9,124.2,25.9z M17,85.1l14.4-9c2.9-1.8,2.8-4.6-0.3-6.1l-13.8-6.9c-3.1-1.5-5.6,0-5.6,3.5v15.6
			C11.7,85.6,14.1,86.9,17,85.1z M124.2,63.4h-75c-3.5,0-6.3,2.8-6.3,6.3v6.2c0,3.4,2.8,6.3,6.3,6.3h75c3.4,0,6.3-2.8,6.3-6.3v-6.3
			C130.5,66.2,127.7,63.4,124.2,63.4z M31.4,107L17,98c-2.9-1.8-5.3-0.5-5.3,2.9v18.8c0,3.4,2.4,4.8,5.3,2.9l14.4-9
			C34.3,111.8,34.3,108.8,31.4,107z M124.2,100.9h-75c-3.5,0-6.3,2.8-6.3,6.3v6.3c0,3.4,2.8,6.3,6.3,6.3h75c3.4,0,6.3-2.8,6.3-6.3
			v-6.3C130.5,103.7,127.7,100.9,124.2,100.9z"/>
	</g>
</g>
</svg>
