<?xml version="1.0" encoding="utf-8"?>
<!-- Generator: Adobe Illustrator 23.0.5, SVG Export Plug-In . SVG Version: 6.00 Build 0)  -->
<svg version="1.1" id="Capa_1" xmlns="http://www.w3.org/2000/svg" xmlns:xlink="http://www.w3.org/1999/xlink" x="0px" y="0px"
	 viewBox="0 0 141.7 185.6" style="enable-background:new 0 0 141.7 185.6;" xml:space="preserve">
<style type="text/css">
	.st0{fill:#FFFFFF;}
	.st1{fill:#09B1B8;}
	.st2{enable-background:new    ;}
</style>
<path class="st0" d="M123.3,141.7H18.4C8.2,141.7,0,133.5,0,123.3V18.4C0,8.2,8.2,0,18.4,0h104.9c10.2,0,18.4,8.2,18.4,18.4v104.9
	C141.7,133.5,133.5,141.7,123.3,141.7z"/>
<g id="_x33_43._Playlist">
	<g>
		<path class="st1" d="M31.2,30l-14.4-9c-2.9-1.8-5.3-0.5-5.3,2.9v18.8c0,3.5,2.4,4.8,5.3,2.9l14.4-9C34.1,34.8,34.1,31.9,31.2,30z
			 M124,24H49c-3.5,0-6.3,2.8-6.3,6.3v6.3c0,3.5,2.8,6.3,6.3,6.3h75c3.4,0,6.3-2.8,6.3-6.3v-6.3C130.3,26.8,127.5,24,124,24z
			 M16.8,83.2l14.4-9c2.9-1.8,2.8-4.6-0.3-6.1l-13.8-6.9c-3.1-1.5-5.6,0-5.6,3.5v15.6C11.5,83.7,13.9,85,16.8,83.2z M124,61.5H49
			c-3.5,0-6.3,2.8-6.3,6.3V74c0,3.4,2.8,6.3,6.3,6.3h75c3.4,0,6.3-2.8,6.3-6.3v-6.3C130.3,64.3,127.5,61.5,124,61.5z M31.2,105.1
			l-14.4-9c-2.9-1.8-5.3-0.5-5.3,2.9v18.8c0,3.4,2.4,4.8,5.3,2.9l14.4-9C34.1,109.9,34.1,106.9,31.2,105.1z M124,99H49
			c-3.5,0-6.3,2.8-6.3,6.3v6.3c0,3.4,2.8,6.3,6.3,6.3h75c3.4,0,6.3-2.8,6.3-6.3v-6.3C130.3,101.8,127.5,99,124,99z"/>
	</g>
</g>
<g class="st2">
	<path class="st1" d="M45.8,150.5l-11.4,17.4h-0.8l-11.4-17.4v26.3H20v-29.7c1.1,0,1.6,0,2.7,0L34,164.5l11.2-17.3H48v29.7h-2.2
		V150.5z"/>
	<path class="st1" d="M53,166.4c0-6.3,4.7-10.8,10.6-10.8s11.1,3.6,10.3,11.8H55.1c0.4,4.9,4.2,7.8,8.5,7.8c2.8,0,6-1.1,7.5-3.2
		l1.5,1.2c-2,2.7-5.7,4-9,4C57.7,177.2,53,173.1,53,166.4z M72.1,165.6c0-5.2-3.4-8-8.5-8c-4.3,0-8,2.9-8.5,8H72.1z"/>
	<path class="st1" d="M81.4,156v3.7c1.6-2.9,4.5-4.1,7.5-4.1c5.6,0,9.4,3.4,9.4,9.2v12.1h-2.1v-12c0-4.7-2.9-7.3-7.5-7.2
		c-4.3,0-7.3,3.3-7.3,7.6v11.6h-2.1V156H81.4z"/>
	<path class="st1" d="M119.7,176.9v-3.8c-1.6,2.9-4.5,4.1-7.5,4.1c-5.6,0-9.4-3.4-9.4-9.2v-12.1h2.1v12c0,4.7,2.9,7.3,7.5,7.2
		c4.3,0,7.3-3.3,7.3-7.6v-11.6h2.1v21L119.7,176.9L119.7,176.9z"/>
</g>
</svg>
