<?xml version="1.0" encoding="utf-8"?>
<!-- Generator: Adobe Illustrator 23.0.5, SVG Export Plug-In . SVG Version: 6.00 Build 0)  -->
<svg version="1.1" id="Capa_1" xmlns="http://www.w3.org/2000/svg" xmlns:xlink="http://www.w3.org/1999/xlink" x="0px" y="0px"
	 viewBox="0 0 141.73 141.73" style="enable-background:new 0 0 141.73 141.73;" xml:space="preserve">
<g id="_x33_43._Playlist">
	<g>
		<path d="M31.18,30.05l-14.4-9c-2.93-1.83-5.3-0.52-5.3,2.93v18.75c0,3.45,2.37,4.77,5.3,2.94l14.4-9
			C34.11,34.85,34.11,31.87,31.18,30.05z M124,23.98H48.99c-3.45,0-6.25,2.8-6.25,6.25v6.25c0,3.45,2.8,6.25,6.25,6.25H124
			c3.45,0,6.25-2.8,6.25-6.25v-6.25C130.25,26.78,127.46,23.98,124,23.98z M16.78,83.19l14.4-9.01c2.93-1.83,2.8-4.56-0.29-6.11
			l-13.82-6.91c-3.09-1.54-5.59,0-5.59,3.45v15.63C11.48,83.7,13.85,85.01,16.78,83.19z M124,61.49H48.99
			c-3.45,0-6.25,2.79-6.25,6.25v6.25c0,3.45,2.8,6.25,6.25,6.25H124c3.45,0,6.25-2.8,6.25-6.25v-6.25
			C130.25,64.29,127.46,61.49,124,61.49z M31.18,105.06l-14.4-9.01c-2.93-1.83-5.3-0.51-5.3,2.94v18.75c0,3.45,2.37,4.77,5.3,2.94
			l14.4-9C34.11,109.86,34.11,106.89,31.18,105.06z M124,98.99H48.99c-3.45,0-6.25,2.8-6.25,6.25v6.25c0,3.45,2.8,6.25,6.25,6.25
			H124c3.45,0,6.25-2.8,6.25-6.25v-6.25C130.25,101.8,127.46,98.99,124,98.99z"/>
	</g>
</g>
</svg>
