<?xml version="1.0" encoding="utf-8"?>
<!-- Generator: Adobe Illustrator 23.0.5, SVG Export Plug-In . SVG Version: 6.00 Build 0)  -->
<svg version="1.1" id="Capa_1" xmlns="http://www.w3.org/2000/svg" xmlns:xlink="http://www.w3.org/1999/xlink" x="0px" y="0px"
	 viewBox="0 0 141.7 141.7" style="enable-background:new 0 0 141.7 141.7;" xml:space="preserve">
<style type="text/css">
	.st0{fill:#09B1B8;}
</style>
<path class="st0" d="M129.9,16.5c-8.4,8.4-16.7,16.8-25.1,25.2c-1.2,1.2-1.8,2.1-1.3,4c0.9,3.6,0,7.1-2.8,9.8
	c-2.1,2.1-4.3,4.1-6.3,6.3c-0.5,0.6-0.9,1.8-0.7,2.6c1.1,4.4-0.1,8-3.3,11.2c-10.3,10.3-20.6,20.7-31,30.9c-1.3,1.3-1.5,2.3-0.7,4
	c1.4,3,2.5,6.1,3.6,9.2c0.8,2.4,0,4.2-2,4.8c-2.1,0.6-3.4-0.4-4.5-2.9c-1.8-4.3-3.8-8.6-5.7-12.8c-0.2-0.5-0.7-1-0.9-1.3
	c-4.7,4.7-9.3,9.3-14,13.9c0.9,1.2,2.2,2.4,2.8,3.9c0.8,1.9-0.5,3.3-2,4.3c-0.7,0-1.4,0-2.1,0c-2.9-2.8-5.9-5.6-8.8-8.5
	c-4.5-4.5-8.8-9-13.2-13.6c0-0.7,0-1.4,0-2.1c2.6-3.3,3.7-3.1,7.9,0.7c4.7-4.7,9.3-9.3,14.3-14.4c-4-1.8-8.2-3.8-12.5-5.7
	c-0.8-0.4-1.7-0.4-2.5-0.8c-1.9-0.9-2.8-2.4-2.1-4.4c0.7-1.9,2.3-2.7,4.2-2c3.2,1.1,6.5,2.1,9.5,3.7c2.1,1.1,3.2,0.6,4.6-0.9
	c10-10.1,20.2-20.1,30.2-30.3c3.4-3.4,7.1-4.9,11.8-3.6c0.6,0.2,1.7-0.1,2.2-0.6c2.2-2.1,4.4-4.3,6.5-6.5c2.8-2.9,6.4-3.7,10.1-2.8
	c1.7,0.4,2.5-0.1,3.6-1.2c7.4-7.4,14.8-14.8,22.2-22.3c1-1,2.1-2,3.2-3c1.6,0,3.1,0,4.7,0C129.9,13.4,129.9,15,129.9,16.5z
	 M68.9,87.2c-0.1-0.2-0.2-0.3-0.3-0.4c-1.8-1.8-3.6-3.6-5.4-5.4c-2.8-2.8-3.2-4.4-1.5-6.2c1.6-1.7,3.8-1.2,6.4,1.5
	c1.9,1.9,3.6,4,5.5,6.1c2-2.1,3.5-3.6,5.4-5.5c-2.2-2.1-4.5-4.1-6.6-6.3c-2.1-2.1-2.3-4.2-0.8-5.7c1.6-1.6,3.5-1.3,5.7,0.9
	c2.2,2.1,4.3,4.3,6.4,6.5c4.7-4.2,4.8-5.2,0.6-9.4c-2.2-2.2-4.4-4.5-6.7-6.7c-3-3-4.3-3-7.2,0c-7.9,7.9-15.8,15.8-23.7,23.7
	c-2.4,2.4-4.9,4.7-6.2,5.9c5.1,5.1,9.9,10,14.7,14.8c-0.4,0.3-0.7,0.7-1.1,1c1.7-1.6,3.4-3.2,5.5-5.3c-2.5-2.3-4.7-4.5-7.1-6.5
	c-2-1.6-1.7-4.3-0.6-5.3c1.5-1.6,3.6-1.4,5.5,0.5c2.2,2.2,4.4,4.5,6.5,6.6C65.7,90.4,67.2,88.9,68.9,87.2z M40.3,97.2
	c-5.1,5.1-10,9.9-14.6,14.6c1.4,1.5,3,3.1,4.4,4.5c4.8-4.8,9.7-9.6,14.7-14.6C43.2,100.1,41.6,98.5,40.3,97.2z M88.8,58.1
	c2.4-2.5,4.7-4.8,7-7.2c1.6-1.7,1.6-3.7,0.2-5.1c-1.4-1.4-3.4-1.4-5.1,0.2c-2.4,2.3-4.8,4.6-7.1,6.9C85.5,54.6,87.1,56.3,88.8,58.1z
	"/>
</svg>
