<?xml version="1.0" encoding="utf-8"?>
<!-- Generator: Adobe Illustrator 23.0.5, SVG Export Plug-In . SVG Version: 6.00 Build 0)  -->
<svg version="1.1" id="Capa_1" xmlns="http://www.w3.org/2000/svg" xmlns:xlink="http://www.w3.org/1999/xlink" x="0px" y="0px"
	 viewBox="0 0 141.7 141.7" style="enable-background:new 0 0 141.7 141.7;" xml:space="preserve">
<style type="text/css">
	.st0{fill:#09B1B8;}
	.st1{fill:#FFFFFF;}
</style>
<path class="st0" d="M123.3,141.7H18.4C8.2,141.7,0,133.5,0,123.3V18.4C0,8.2,8.2,0,18.4,0h104.9c10.2,0,18.4,8.2,18.4,18.4v104.9
	C141.7,133.5,133.5,141.7,123.3,141.7z"/>
<g>
	<path class="st1" d="M44.7,100.2c0.5,0,0.8,0,1.1,0c21.3,0,42.6,0,63.8,0c3.2,0,3.6,2.5,2.9,4.6c-0.3,0.9-1.1,1.4-2.1,1.4
		c-0.3,0-0.6,0-0.8,0c-23.5,0-47,0-70.5,0c-0.3,0-0.7,0.1-1,0c-0.6-0.3-1.3-0.5-1.7-1c-0.9-1-0.7-3.9,0.1-4.9
		c3-3.6,6.1-7.2,9.2-10.8c0.2-0.2,0.3-0.7,0.3-1c-2.9-12.7-5.8-25.4-8.6-38.1c-1.6-7.4-3.1-14.8-4.6-22.2c-0.2-0.8-0.4-1.2-1.3-1.3
		c-3.4-0.4-6.8-1-10.3-1.5c-1.2-0.2-2.2-0.8-2.5-2c-0.3-1.2-0.1-2.3,0.8-3.2c0.8-0.8,1.8-0.9,2.9-0.7c2.2,0.3,4.3,0.6,6.5,1
		c2.4,0.4,4.8,0.7,7.3,1.1c1.2,0.2,1.5,0.4,1.8,1.6c1.1,5.5,2.3,11,3.4,16.5c0.4,1.9,0.8,3.8,1.2,5.6c0.1,0.2,0.4,0.4,0.6,0.5
		c0.2,0.1,0.5,0,0.7,0c25.2,0,50.4,0,75.6,0c0.3,0,0.7,0,1,0c2.2,0.1,3.3,1.6,2.5,3.7c-4.3,12.3-8.7,24.6-13.1,36.9
		c-0.6,1.7-1.4,2.2-3.2,2.3c-7,0.4-14.1,0.9-21.1,1.3c-5.1,0.3-10.1,0.6-15.2,0.9c-6.2,0.4-12.4,0.8-18.6,1.2
		c-0.2,0-0.5,0.2-0.7,0.3C49,95.1,47,97.5,44.7,100.2z M115.8,52.1c-24,0-47.9,0-71.8,0c2.6,11.4,5.2,22.7,7.7,34.1
		c0.3,0,0.5,0,0.7,0c5-0.3,10-0.6,14.9-0.9c6-0.4,12-0.7,18-1.1c6.2-0.4,12.4-0.8,18.6-1.1c0.6,0,1-0.2,1.2-0.9
		c1.8-5.3,3.7-10.6,5.6-15.9C112.4,61.6,114.1,56.9,115.8,52.1z"/>
	<path class="st1" d="M46.2,117.1c0-5.1,4-9.1,9.1-9.2c5.1,0,9.2,4,9.2,9c0,5.2-4,9.3-9.1,9.3C50.3,126.3,46.3,122.3,46.2,117.1z
		 M51,117.2c0,2.5,2,4.4,4.5,4.4c2.5,0,4.4-2,4.4-4.5c0-2.5-2-4.4-4.5-4.4C52.9,112.7,50.9,114.7,51,117.2z"/>
	<path class="st1" d="M88.1,117.1c0-5.1,4-9.2,9.2-9.1c5,0,9.1,4.1,9.1,9c0,5.2-4,9.3-9.1,9.3C92.1,126.3,88.1,122.3,88.1,117.1z
		 M92.8,117.1c0,2.4,1.9,4.4,4.4,4.4c2.5,0,4.5-2,4.5-4.4c0-2.5-2-4.4-4.5-4.4C94.8,112.7,92.8,114.6,92.8,117.1z"/>
	<g>
		<path class="st1" d="M104,21.7c-8.1-2.7-16.9,1.5-19.6,9.5c-2,6-0.1,12.4,4.4,16.4c-0.8-1.1-1.4-2.3-1.7-3.7
			c-0.3-1.2-0.3-2.4-0.1-3.5c0.1-0.7,0.4-1.4,0.6-2.1c0.4-1,0.7-2,1.1-3c0.6-1.5,1.1-3,1.7-4.5c0.4-1,0.7-2,1.1-3
			c0.2-0.5,0.3-0.9,0.5-1.4c0.2,0.3,0.3,0.5,0.5,0.8c0.6,1,1.2,2,1.9,3.1c0.5,0.8,0.9,1.5,1.4,2.3c0.2,0.3,0.4,0.5,0.8,0.4
			c0.8,0,1.6,0.1,2.3,0.3c0.6,0.2,1.3,0.3,1.9,0.6c1,0.4,1.9,0.9,2.7,1.5c0.3,0.2,0.5,0.3,0.8,0.1c1-0.4,2-0.8,3-1.2
			c0.9-0.3,1.8-0.7,2.7-1c0.3-0.1,0.7-0.3,1-0.4c0,0.2-0.1,0.3-0.1,0.4c-0.3,0.9-0.6,1.8-0.9,2.8c-0.6,1.9-1.2,3.9-1.8,5.9
			c-0.4,1.2-0.8,2.4-1.1,3.6c-0.4,1.3-1,2.4-1.9,3.4c-0.9,1-2,1.8-3.2,2.3c-0.1,0-0.2,0.1-0.3,0.1c5.4-0.9,10.1-4.6,11.9-10.1
			C116.5,33.1,112.1,24.4,104,21.7z"/>
		<path class="st1" d="M95.4,47.8c-0.4,0.3-0.9,0.4-1.5,0.5c-0.6,0.1-1.3,0.1-1.9-0.1c-0.3-0.1-0.7-0.2-1-0.3
			c-0.2-0.1-0.3-0.3-0.3-0.4c0.1-0.2,0.2-0.3,0.5-0.2c0.7,0.2,1.5,0.4,2.3,0.3c0.5,0,1-0.1,1.5-0.4c0.2-0.2,0.3-0.3,0.4-0.6
			c0.1-0.3,0.2-0.5,0.3-0.8c0-0.1,0-0.2-0.1-0.2c-0.5-0.3-0.9-0.7-1-1.3c-0.2-0.7,0.2-1.5,0.9-1.8c1-0.4,2.3-0.1,2.9,0.8
			c0.7,1.1,0.2,2.3-1,2.6c-0.3,0.1-0.6,0-0.9,0c0,0-0.1,0-0.1,0.1c-0.1,0.3-0.2,0.6-0.3,0.9c-0.1,0.5,0.1,0.9,0.4,1.3
			c0.5,0.6,1.1,1,1.7,1.4c0.3,0.1,0.6,0.2,0.8,0.3c0.2,0.1,0.3,0.2,0.2,0.4c-0.1,0.2-0.2,0.3-0.4,0.2c-1.1-0.4-2.2-1-2.9-1.9
			C95.7,48.4,95.6,48.1,95.4,47.8z"/>
		<path class="st1" d="M91.3,31.4c0.3-0.7,0.5-1.4,0.8-2.1c0-0.1,0.1-0.2,0.3-0.2c0.2,0,0.3,0.1,0.4,0.2c0.3,0.5,0.6,1,0.9,1.4
			c0.4,0.6,0.7,1.2,1.1,1.8c0.1,0.1,0.1,0.3,0,0.4C94.6,33,94.4,33,94.3,33c-1.1-0.1-2.1,0-3.1,0.4c-0.2,0.1-0.3,0.1-0.4,0
			c-0.1-0.1-0.1-0.3-0.1-0.4C90.9,32.4,91.1,31.9,91.3,31.4L91.3,31.4z"/>
		<path class="st1" d="M108.9,37.1c-0.2,0.6-0.4,1.2-0.6,1.9c0,0.1-0.1,0.2-0.3,0.3c-0.2,0-0.3,0-0.4-0.2c-0.4-0.7-0.9-1.3-1.6-1.7
			c-0.2-0.2-0.5-0.3-0.7-0.5c-0.1-0.1-0.2-0.2-0.2-0.3c0-0.2,0.1-0.3,0.3-0.3c0.8-0.3,1.6-0.6,2.3-0.9c0.4-0.2,0.8-0.3,1.1-0.4
			c0.2-0.1,0.3-0.1,0.4,0c0.1,0.1,0.1,0.3,0.1,0.4C109.3,35.9,109.1,36.5,108.9,37.1L108.9,37.1z"/>
		<path class="st1" d="M101.4,41.6c0.2-0.6,0.7-1.1,1.4-1.1c0.5,0,1,0.3,1.2,0.8c0.3,0.8,0,1.6-0.7,2c-0.7,0.5-1.6,0.2-1.9-0.6
			C101.3,42.4,101.3,42,101.4,41.6z"/>
		<path class="st1" d="M94.4,39.3c-0.2,0.7-0.8,1.1-1.4,1.1c-0.5,0-0.9-0.3-1.1-0.7c-0.4-0.8,0-1.9,0.9-2.3c0.7-0.3,1.4,0.1,1.6,0.7
			C94.5,38.5,94.5,38.9,94.4,39.3z"/>
		<path class="st1" d="M102.3,46.4c0.9,0.3,1.8,0.6,2.6,0.9c0.2,0.1,0.3,0.2,0.2,0.4c0,0.2-0.2,0.3-0.3,0.3c0,0-0.1,0-0.1,0
			c-1.8-0.6-3.5-1.2-5.3-1.8c-0.2-0.1-0.3-0.3-0.2-0.4c0.1-0.2,0.3-0.3,0.4-0.2C100.5,45.8,101.4,46.1,102.3,46.4z"/>
		<path class="st1" d="M91,42.6c0.9,0.3,1.7,0.6,2.6,0.9c0.2,0.1,0.3,0.2,0.2,0.4c-0.1,0.2-0.2,0.3-0.4,0.2
			c-1.1-0.4-2.3-0.8-3.4-1.2c-0.6-0.2-1.3-0.4-1.9-0.6c-0.2-0.1-0.2-0.2-0.2-0.3s0.1-0.3,0.3-0.3c0.1,0,0.2,0,0.2,0
			C89.2,42,90.1,42.3,91,42.6z"/>
		<path class="st1" d="M89.3,46.5c-0.2-0.1-0.3-0.2-0.3-0.3c0-0.2,0.1-0.3,0.3-0.3c0.5-0.1,0.9-0.1,1.4-0.2c0.9-0.1,1.7-0.3,2.6-0.4
			c0.2,0,0.4,0.1,0.4,0.3c0,0.2-0.1,0.3-0.3,0.4c-1.3,0.2-2.6,0.4-3.9,0.6C89.4,46.5,89.3,46.5,89.3,46.5z"/>
		<path class="st1" d="M98.6,47c0.1,0,0.1,0.1,0.2,0.1c0.9,1,1.9,1.9,2.8,2.9c0.1,0.1,0.2,0.3,0.1,0.4c-0.1,0.1-0.2,0.2-0.3,0.2
			c-0.1,0-0.2-0.1-0.2-0.1c-0.5-0.5-1-1.1-1.6-1.6c-0.4-0.4-0.8-0.8-1.2-1.3c-0.2-0.2-0.2-0.5,0.1-0.6C98.5,47,98.5,47,98.6,47z"/>
		<path class="st1" d="M100.2,47.3c0.1-0.2,0.3-0.3,0.5-0.2c0.4,0.2,0.8,0.5,1.2,0.7c0.5,0.3,1,0.6,1.6,0.9c0.3,0.1,0.3,0.3,0.2,0.5
			c-0.1,0.2-0.3,0.2-0.4,0.1c-0.5-0.3-1-0.6-1.4-0.8c-0.4-0.3-0.9-0.5-1.3-0.8C100.2,47.7,100.2,47.5,100.2,47.3z"/>
		<path class="st1" d="M88.2,43.9c0.1-0.2,0.2-0.3,0.4-0.2c0.6,0.1,1.2,0.2,1.7,0.2c0.5,0.1,1,0.1,1.5,0.2c0.2,0,0.3,0.2,0.3,0.3
			c0,0.2-0.2,0.3-0.4,0.3c-0.8-0.1-1.7-0.2-2.5-0.3c-0.3,0-0.5-0.1-0.8-0.1C88.2,44.3,88.1,44.1,88.2,43.9z"/>
	</g>
	<g>
		<path class="st1" d="M80.1,40.7c0,0.2-0.1,0.3-0.1,0.5c-0.4,1.1-0.9,2.1-1.5,3.1c-0.9,1.4-1.9,2.6-3.2,3.6
			c-1.3,1.1-2.7,1.9-4.3,2.5c-0.5,0.2-1,0.3-1.5,0.4c0.2-0.2,0.3-0.3,0.5-0.5c0.7-0.7,1.2-1.5,1.7-2.4c0.8-1.5,1.3-3.1,1.7-4.8
			c0.2-0.9,0.4-1.9,0.6-2.8c0.1-0.3,0-0.6,0-1c0-0.3,0.1-0.5,0.2-0.8c0.3-0.9,0.6-1.8,0.7-2.8c0.2-1,0.2-2,0.1-3
			c-0.1-1-0.2-1.9-0.6-2.8c-0.2-0.4-0.3-0.8-0.6-1.2c-0.4-0.5-0.8-0.6-1.4-0.5c-1,0.2-1.8,0.7-2.4,1.5c-0.5,0.5-0.9,1.1-1.3,1.7
			c0,0-0.1,0.1-0.1,0.1c-1-0.3-1.8-0.8-2.8-0.9c0-0.3,0-0.6,0-0.9c0-1-0.2-2.1-0.7-3c-0.2-0.5-0.6-0.9-1-1.2c-0.3-0.2-0.6-0.2-1-0.2
			c-0.6,0.1-1.1,0.5-1.6,0.9c-1,0.7-1.7,1.7-2.4,2.6c-0.8,1.1-1.3,2.3-1.7,3.6c-0.1,0.2-0.1,0.4-0.2,0.6c0,0.3-0.3,0.6-0.5,0.8
			c-0.7,0.9-1.2,1.9-1.7,3c-0.6,1.2-1,2.4-1.3,3.6c-0.3,1.3-0.5,2.5-0.4,3.8c0,0.3,0.1,0.6,0.1,1c-0.2-0.3-0.4-0.6-0.6-0.9
			c-1-1.5-1.7-3.1-2.1-4.9c-0.4-1.7-0.5-3.5-0.3-5.3c0.1-1.1,0.4-2.1,0.7-3.1c0.6-1.8,1.5-3.4,2.7-4.8c1.5-1.8,3.4-3.2,5.5-4.1
			c1.7-0.7,3.4-1.2,5.3-1.3c1.3-0.1,2.6,0,3.9,0.3c0.4,0.1,0.8,0.2,1.2,0.3c0.1,0,0.1,0.1,0.2,0.1c0.1,0.2,0.2,0.2,0.3,0.1
			c0.1,0,0.2,0,0.2,0c1.5,0.5,2.9,1.2,4.2,2.2c1.9,1.4,3.5,3.2,4.6,5.4c0.9,1.8,1.5,3.7,1.7,5.7c0.1,1.3,0,2.5-0.2,3.8
			c0,0.1,0,0.1-0.1,0.2c-0.3,0.2-0.6,0.3-0.9,0.5c-0.2,0.1-0.2,0.2-0.1,0.3C79.7,40,79.9,40.3,80.1,40.7z"/>
		<path class="st1" d="M63.4,37.5c-0.3,0.9-1,1.7-2.2,1.9c-1.3,0.3-2.6-0.6-2.9-2c-0.3-1.3,0.3-2.7,1.4-3.5c1.2-0.8,2.9-0.4,3.6,1
			C63.7,35.7,63.8,36.5,63.4,37.5z M60.2,36.1c-0.1,0.4,0.1,0.9,0.6,1.1c0.4,0.1,0.9-0.1,1.1-0.6c0.1-0.5-0.1-0.9-0.6-1.1
			C60.8,35.4,60.3,35.7,60.2,36.1z"/>
		<path class="st1" d="M58.6,32.7c0.3-0.7,0.6-1.5,0.9-2.1c0.6-1,1.3-2,2.2-2.8c0.4-0.4,0.9-0.7,1.3-1c0.2-0.1,0.3-0.1,0.5,0.1
			c0.4,0.5,0.6,1,0.7,1.6c0.2,0.7,0.2,1.5,0.2,2.2c0,0.2-0.1,0.3-0.3,0.3c-1.4,0-2.7,0.3-3.9,0.9c-0.5,0.2-1,0.5-1.5,0.8
			C58.7,32.7,58.7,32.7,58.6,32.7C58.6,32.7,58.6,32.7,58.6,32.7z"/>
		<path class="st1" d="M73.2,37.1c-0.4-0.6-0.7-1.3-1.1-1.9c-0.7-1.1-1.5-2-2.6-2.7c-0.1-0.1-0.1-0.1-0.1-0.3c0.5-0.7,1-1.4,1.6-2
			c0.4-0.3,0.8-0.6,1.3-0.7c0.3-0.1,0.3-0.1,0.5,0.2c0.3,0.6,0.5,1.2,0.6,1.9c0.3,1.3,0.3,2.5,0.1,3.8
			C73.5,36.1,73.4,36.6,73.2,37.1C73.3,37.1,73.2,37.1,73.2,37.1z"/>
		<path class="st1" d="M62.1,46c0.1-0.4,0.3-0.9,0.4-1.3c0-0.1,0-0.2-0.1-0.3c-0.8-0.6-1.1-1.4-0.9-2.4c0.1-0.7,0.5-1,1.2-0.9
			c1,0.1,1.8,0.3,2.6,0.9c0.6,0.4,0.7,0.8,0.4,1.5c-0.4,0.8-1.1,1.3-2,1.3c-0.2,0-0.2,0.1-0.3,0.2c-0.3,0.9-0.5,1.7-0.8,2.5
			c-0.1,0.4-0.6,0.5-0.8,0.2c-0.1-0.1-0.1-0.3-0.1-0.4C61.9,46.9,62,46.4,62.1,46L62.1,46z"/>
		<path class="st1" d="M69.4,38.1c0.5,0.1,0.7,0.6,0.5,1.1c-0.1,0.4-0.6,0.7-1,0.5c-0.5-0.1-0.7-0.6-0.6-1.1
			C68.5,38.2,68.9,37.9,69.4,38.1z"/>
		<path class="st1" d="M80.1,40.7c-0.2-0.3-0.4-0.7-0.6-1c-0.1-0.2-0.1-0.3,0.1-0.3c0.3-0.2,0.6-0.3,0.9-0.5c0,0.2,0,0.3-0.1,0.5
			c-0.1,0.4-0.2,0.8-0.3,1.2C80.2,40.6,80.1,40.6,80.1,40.7z"/>
	</g>
</g>
</svg>
