<?xml version="1.0" encoding="utf-8"?>
<!-- Generator: Adobe Illustrator 23.0.5, SVG Export Plug-In . SVG Version: 6.00 Build 0)  -->
<svg version="1.1" id="Capa_1" xmlns="http://www.w3.org/2000/svg" xmlns:xlink="http://www.w3.org/1999/xlink" x="0px" y="0px"
	 viewBox="0 0 141.73 141.73" style="enable-background:new 0 0 141.73 141.73;" xml:space="preserve">
<style type="text/css">
	.st0{fill:#FFFFFF;stroke:#000000;stroke-width:2.1898;stroke-miterlimit:10;}
</style>
<circle class="st0" cx="70.87" cy="70.87" r="62.07"/>
<g>
	<path d="M50.96,92.4c0.37,0,0.58,0,0.79,0c15.21,0,30.43,0.01,45.64-0.01c2.3,0,2.54,1.77,2.06,3.3c-0.2,0.65-0.77,0.99-1.48,1.02
		c-0.2,0.01-0.4,0.01-0.6,0.01c-16.79,0-33.58,0-50.37,0c-0.24,0-0.51,0.07-0.71-0.02c-0.44-0.18-0.95-0.36-1.24-0.69
		c-0.61-0.69-0.49-2.79,0.1-3.49c2.18-2.56,4.38-5.12,6.55-7.7c0.15-0.17,0.23-0.51,0.18-0.73c-2.05-9.09-4.15-18.16-6.17-27.25
		c-1.17-5.26-2.22-10.56-3.29-15.84c-0.12-0.59-0.32-0.85-0.96-0.93c-2.45-0.32-4.89-0.71-7.33-1.08c-0.88-0.13-1.55-0.55-1.8-1.44
		c-0.24-0.87-0.07-1.66,0.57-2.32c0.58-0.6,1.31-0.61,2.06-0.5c1.56,0.23,3.11,0.46,4.67,0.7c1.73,0.26,3.46,0.53,5.19,0.8
		c0.89,0.14,1.08,0.31,1.26,1.17c0.82,3.94,1.63,7.87,2.44,11.81c0.28,1.35,0.55,2.69,0.85,4.03c0.04,0.16,0.28,0.31,0.45,0.38
		c0.15,0.06,0.35,0.01,0.53,0.01c18.03,0,36.05,0,54.08,0c0.24,0,0.48-0.01,0.72,0c1.57,0.05,2.33,1.17,1.8,2.65
		c-3.11,8.8-6.22,17.6-9.34,26.4c-0.42,1.18-1.02,1.59-2.27,1.66c-5.03,0.3-10.07,0.61-15.1,0.92c-3.62,0.22-7.24,0.43-10.86,0.64
		c-4.44,0.27-8.87,0.54-13.31,0.83c-0.17,0.01-0.39,0.11-0.5,0.24C54.07,88.74,52.58,90.5,50.96,92.4z M101.77,58.03
		c-17.16,0-34.23,0-51.36,0c1.86,8.16,3.7,16.26,5.54,24.37c0.21,0,0.35,0.01,0.48,0c3.56-0.22,7.12-0.44,10.68-0.66
		c4.3-0.26,8.59-0.51,12.89-0.77c4.44-0.27,8.87-0.55,13.31-0.8c0.46-0.03,0.69-0.16,0.85-0.62c1.32-3.8,2.66-7.59,4.01-11.38
		C99.36,64.82,100.55,61.46,101.77,58.03z"/>
	<path d="M52.07,104.53c-0.02-3.63,2.86-6.54,6.49-6.55c3.65-0.02,6.58,2.86,6.6,6.45c0.02,3.72-2.85,6.64-6.53,6.64
		C54.96,111.07,52.09,108.21,52.07,104.53z M55.44,104.55c0.01,1.78,1.42,3.17,3.2,3.16c1.77-0.01,3.17-1.43,3.16-3.21
		c-0.01-1.76-1.44-3.17-3.21-3.16C56.82,101.35,55.43,102.77,55.44,104.55z"/>
	<path d="M81.98,104.52c0-3.66,2.89-6.55,6.56-6.54c3.6,0,6.53,2.9,6.53,6.46c0.01,3.73-2.85,6.62-6.54,6.64
		C84.88,111.08,81.98,108.19,81.98,104.52z M85.35,104.53c0,1.75,1.39,3.17,3.12,3.18c1.81,0.01,3.25-1.4,3.24-3.18
		c0-1.77-1.41-3.18-3.19-3.18C86.75,101.34,85.35,102.75,85.35,104.53z"/>
	<g>
		<path d="M93.37,36.27c-5.79-1.96-12.06,1.08-14,6.8c-1.45,4.29-0.06,8.87,3.17,11.72c-0.6-0.79-1.02-1.67-1.24-2.65
			c-0.19-0.84-0.21-1.69-0.06-2.53c0.09-0.51,0.26-0.99,0.45-1.47c0.27-0.7,0.52-1.41,0.79-2.11c0.41-1.08,0.82-2.17,1.22-3.25
			c0.26-0.7,0.52-1.41,0.78-2.11c0.12-0.33,0.25-0.67,0.39-1.02c0.13,0.21,0.24,0.39,0.36,0.58c0.44,0.73,0.89,1.46,1.33,2.19
			c0.33,0.54,0.66,1.07,0.98,1.61c0.13,0.23,0.31,0.33,0.58,0.32c0.56-0.01,1.11,0.04,1.65,0.18c0.45,0.12,0.91,0.25,1.35,0.41
			c0.7,0.26,1.34,0.64,1.93,1.09c0.18,0.14,0.36,0.18,0.57,0.1c0.71-0.28,1.43-0.56,2.14-0.84c0.65-0.25,1.3-0.5,1.94-0.75
			c0.24-0.09,0.48-0.19,0.75-0.29c-0.03,0.12-0.05,0.22-0.08,0.31c-0.2,0.66-0.41,1.31-0.61,1.97c-0.43,1.39-0.85,2.79-1.28,4.19
			c-0.26,0.86-0.54,1.72-0.8,2.58c-0.27,0.9-0.71,1.7-1.34,2.4c-0.65,0.72-1.42,1.27-2.31,1.65c-0.07,0.03-0.15,0.06-0.22,0.09
			c3.85-0.66,7.21-3.32,8.54-7.24C102.29,44.47,99.16,38.24,93.37,36.27z"/>
		<path d="M87.22,54.94c-0.3,0.21-0.66,0.32-1.04,0.37c-0.46,0.06-0.92,0.04-1.37-0.05c-0.24-0.05-0.47-0.12-0.71-0.19
			c-0.16-0.05-0.23-0.18-0.18-0.32c0.05-0.13,0.17-0.19,0.33-0.14c0.53,0.17,1.08,0.26,1.64,0.23c0.38-0.02,0.74-0.1,1.06-0.32
			c0.15-0.11,0.25-0.25,0.31-0.42c0.06-0.18,0.12-0.37,0.19-0.55c0.03-0.08,0.02-0.11-0.06-0.16c-0.36-0.21-0.64-0.51-0.74-0.93
			c-0.13-0.53,0.13-1.05,0.64-1.29c0.7-0.32,1.65-0.06,2.08,0.58c0.52,0.76,0.16,1.65-0.74,1.83c-0.2,0.04-0.41,0.02-0.61,0.03
			c-0.03,0-0.09,0.02-0.1,0.05c-0.08,0.22-0.17,0.44-0.23,0.67c-0.09,0.37,0.07,0.67,0.29,0.95c0.33,0.43,0.77,0.73,1.25,0.97
			c0.2,0.09,0.4,0.17,0.6,0.25c0.13,0.05,0.18,0.17,0.14,0.3c-0.04,0.12-0.17,0.2-0.29,0.16c-0.81-0.28-1.54-0.68-2.08-1.37
			C87.46,55.41,87.35,55.17,87.22,54.94z"/>
		<path d="M84.25,43.21c0.19-0.5,0.38-1,0.56-1.5c0.03-0.09,0.1-0.16,0.2-0.17c0.11-0.01,0.2,0.04,0.26,0.13
			c0.21,0.34,0.42,0.69,0.63,1.03c0.26,0.43,0.52,0.86,0.78,1.28c0.06,0.1,0.07,0.21,0,0.31c-0.07,0.1-0.16,0.1-0.27,0.09
			c-0.76-0.06-1.51-0.03-2.23,0.28c-0.11,0.05-0.21,0.05-0.3-0.03c-0.1-0.09-0.09-0.19-0.05-0.3
			C83.97,43.96,84.11,43.58,84.25,43.21C84.25,43.21,84.25,43.21,84.25,43.21z"/>
		<path d="M96.86,47.3c-0.14,0.44-0.28,0.89-0.41,1.33c-0.03,0.1-0.09,0.17-0.19,0.18c-0.11,0.01-0.2-0.03-0.26-0.13
			c-0.27-0.5-0.66-0.9-1.11-1.25c-0.16-0.13-0.34-0.24-0.51-0.36c-0.09-0.06-0.17-0.11-0.16-0.23c0.01-0.12,0.07-0.19,0.19-0.24
			c0.56-0.22,1.12-0.44,1.68-0.65c0.27-0.11,0.54-0.21,0.82-0.32c0.11-0.05,0.22-0.06,0.32,0.03c0.1,0.09,0.09,0.2,0.05,0.32
			C97.12,46.43,96.99,46.87,96.86,47.3C96.86,47.3,96.86,47.3,96.86,47.3z"/>
		<path d="M91.53,50.55c0.16-0.46,0.53-0.77,0.97-0.79c0.37-0.02,0.73,0.23,0.85,0.58c0.19,0.56,0.01,1.12-0.48,1.46
			c-0.48,0.33-1.13,0.12-1.33-0.42C91.43,51.11,91.43,50.83,91.53,50.55z"/>
		<path d="M86.5,48.85c-0.16,0.47-0.54,0.78-0.98,0.79c-0.39,0.01-0.65-0.19-0.81-0.52c-0.29-0.58,0.03-1.37,0.63-1.61
			c0.48-0.19,0.99,0.04,1.16,0.53C86.6,48.31,86.6,48.58,86.5,48.85z"/>
		<path d="M92.14,53.97c0.63,0.21,1.26,0.43,1.89,0.64c0.12,0.04,0.19,0.15,0.17,0.26c-0.01,0.11-0.11,0.2-0.23,0.2
			c-0.03,0-0.07-0.01-0.1-0.02c-1.26-0.43-2.52-0.85-3.77-1.28c-0.14-0.05-0.22-0.19-0.17-0.31c0.04-0.12,0.19-0.18,0.32-0.14
			C90.88,53.54,91.51,53.75,92.14,53.97z"/>
		<path d="M84.06,51.23c0.63,0.21,1.25,0.42,1.88,0.64c0.15,0.05,0.21,0.17,0.16,0.31c-0.05,0.13-0.16,0.19-0.3,0.14
			c-0.81-0.27-1.62-0.55-2.44-0.83c-0.45-0.15-0.91-0.31-1.36-0.46c-0.11-0.04-0.17-0.11-0.17-0.23c0-0.12,0.08-0.21,0.2-0.23
			c0.05-0.01,0.11,0.01,0.16,0.02C82.81,50.8,83.44,51.02,84.06,51.23z"/>
		<path d="M82.85,54.05c-0.13-0.04-0.19-0.14-0.19-0.25c0.01-0.12,0.09-0.21,0.22-0.23c0.33-0.05,0.65-0.1,0.98-0.15
			c0.62-0.09,1.25-0.19,1.87-0.28c0.16-0.03,0.28,0.05,0.31,0.2c0.02,0.14-0.07,0.25-0.23,0.28c-0.94,0.14-1.88,0.29-2.81,0.43
			C82.94,54.05,82.88,54.05,82.85,54.05z"/>
		<path d="M89.5,54.36c0.05,0.03,0.09,0.06,0.12,0.09c0.67,0.69,1.33,1.39,2,2.08c0.09,0.09,0.11,0.19,0.06,0.3
			c-0.05,0.1-0.14,0.15-0.24,0.13c-0.06-0.01-0.12-0.05-0.17-0.1c-0.38-0.39-0.75-0.78-1.12-1.17c-0.29-0.3-0.57-0.6-0.86-0.9
			c-0.15-0.15-0.12-0.34,0.06-0.41C89.4,54.36,89.45,54.36,89.5,54.36z"/>
		<path d="M90.65,54.63c0.05-0.14,0.21-0.21,0.35-0.13c0.29,0.16,0.58,0.33,0.87,0.5c0.37,0.21,0.74,0.43,1.11,0.64
			c0.18,0.1,0.23,0.24,0.13,0.38c-0.08,0.11-0.2,0.14-0.31,0.07c-0.34-0.2-0.69-0.4-1.03-0.6c-0.31-0.18-0.63-0.36-0.94-0.54
			C90.67,54.86,90.61,54.76,90.65,54.63z"/>
		<path d="M82.03,52.19c0.04-0.13,0.14-0.18,0.29-0.16c0.41,0.05,0.83,0.11,1.24,0.16c0.35,0.05,0.69,0.09,1.04,0.14
			c0.15,0.02,0.24,0.12,0.23,0.25c-0.02,0.15-0.12,0.24-0.27,0.23c-0.59-0.07-1.19-0.15-1.78-0.23c-0.18-0.02-0.37-0.05-0.55-0.07
			C82.08,52.48,81.98,52.33,82.03,52.19z"/>
	</g>
	<g>
		<path d="M76.27,49.87c-0.03,0.12-0.06,0.25-0.1,0.37c-0.28,0.77-0.63,1.51-1.07,2.2c-0.62,0.98-1.37,1.83-2.26,2.57
			c-0.93,0.77-1.96,1.38-3.1,1.81c-0.34,0.13-0.68,0.23-1.04,0.32c0.11-0.11,0.23-0.22,0.34-0.34c0.5-0.51,0.87-1.1,1.19-1.73
			c0.55-1.09,0.93-2.24,1.22-3.42c0.17-0.67,0.3-1.35,0.42-2.02c0.04-0.22,0.03-0.45,0.02-0.68c-0.01-0.2,0.04-0.37,0.11-0.55
			c0.25-0.64,0.42-1.3,0.53-1.98c0.11-0.72,0.14-1.44,0.09-2.17c-0.04-0.69-0.16-1.38-0.4-2.03c-0.11-0.31-0.25-0.6-0.46-0.87
			c-0.27-0.34-0.59-0.45-1.01-0.36c-0.71,0.14-1.28,0.53-1.75,1.05c-0.34,0.37-0.63,0.8-0.94,1.2c-0.02,0.03-0.05,0.07-0.07,0.1
			c-0.68-0.21-1.3-0.57-2.02-0.64c0-0.23,0-0.44-0.01-0.65c-0.02-0.75-0.13-1.49-0.48-2.17c-0.17-0.34-0.41-0.62-0.72-0.85
			c-0.21-0.16-0.45-0.16-0.69-0.11c-0.43,0.1-0.78,0.34-1.12,0.61c-0.69,0.53-1.24,1.18-1.73,1.89c-0.54,0.8-0.95,1.67-1.25,2.59
			c-0.04,0.14-0.09,0.27-0.11,0.42c-0.03,0.25-0.2,0.41-0.33,0.59c-0.48,0.66-0.87,1.38-1.23,2.12c-0.4,0.83-0.72,1.69-0.96,2.58
			c-0.24,0.9-0.38,1.81-0.32,2.74c0.01,0.23,0.05,0.46,0.06,0.71c-0.15-0.22-0.31-0.44-0.46-0.67c-0.69-1.08-1.19-2.25-1.47-3.51
			c-0.28-1.25-0.34-2.52-0.18-3.8c0.1-0.76,0.27-1.49,0.52-2.21c0.44-1.27,1.09-2.43,1.96-3.46c1.09-1.28,2.41-2.28,3.95-2.96
			c1.2-0.53,2.46-0.84,3.78-0.92c0.94-0.06,1.86,0.01,2.78,0.19c0.28,0.06,0.56,0.13,0.84,0.2c0.05,0.01,0.09,0.04,0.13,0.06
			c0.05,0.13,0.13,0.16,0.25,0.08c0.05,0.01,0.11,0.01,0.16,0.02c1.07,0.35,2.06,0.87,2.97,1.54c1.38,1.02,2.47,2.29,3.26,3.83
			c0.66,1.29,1.05,2.66,1.18,4.1c0.08,0.91,0.03,1.82-0.12,2.72c-0.01,0.04-0.03,0.08-0.05,0.12c-0.21,0.12-0.43,0.23-0.64,0.35
			c-0.14,0.07-0.15,0.11-0.08,0.25C76,49.38,76.13,49.63,76.27,49.87z"/>
		<path d="M64.37,47.61c-0.23,0.63-0.72,1.2-1.55,1.38c-0.96,0.2-1.86-0.43-2.09-1.43c-0.22-0.96,0.18-1.95,1.01-2.49
			c0.89-0.58,2.05-0.27,2.55,0.68C64.55,46.28,64.59,46.88,64.37,47.61z M62.05,46.62c-0.1,0.32,0.08,0.66,0.4,0.76
			c0.32,0.1,0.67-0.09,0.76-0.4c0.1-0.33-0.07-0.66-0.4-0.76C62.48,46.11,62.15,46.29,62.05,46.62z"/>
		<path d="M60.91,44.13c0.18-0.53,0.4-1.04,0.67-1.53c0.42-0.75,0.92-1.43,1.56-2c0.3-0.26,0.64-0.47,0.96-0.7
			c0.13-0.09,0.23-0.05,0.33,0.06c0.29,0.34,0.43,0.74,0.51,1.17c0.11,0.53,0.11,1.06,0.11,1.6c0,0.14-0.04,0.18-0.19,0.18
			c-0.97,0-1.9,0.22-2.78,0.63c-0.37,0.17-0.72,0.38-1.08,0.58c-0.02,0.01-0.04,0.04-0.06,0.05C60.93,44.15,60.92,44.14,60.91,44.13
			z"/>
		<path d="M71.36,47.34c-0.26-0.46-0.49-0.92-0.77-1.36c-0.48-0.76-1.1-1.4-1.85-1.9c-0.1-0.06-0.09-0.1-0.04-0.19
			c0.33-0.52,0.69-1.02,1.15-1.43c0.27-0.24,0.56-0.44,0.91-0.53c0.21-0.06,0.25-0.04,0.35,0.16c0.22,0.43,0.34,0.89,0.44,1.36
			c0.18,0.91,0.19,1.82,0.05,2.73c-0.06,0.38-0.15,0.75-0.23,1.13C71.38,47.32,71.37,47.34,71.36,47.34z"/>
		<path d="M63.42,53.68c0.09-0.31,0.19-0.61,0.28-0.92c0.03-0.09,0.01-0.13-0.06-0.19c-0.54-0.45-0.79-1.03-0.67-1.73
			c0.08-0.47,0.37-0.69,0.86-0.65c0.68,0.05,1.32,0.25,1.88,0.63c0.43,0.29,0.49,0.6,0.27,1.07c-0.29,0.6-0.77,0.9-1.43,0.93
			c-0.12,0.01-0.16,0.05-0.2,0.16c-0.18,0.61-0.37,1.21-0.56,1.82c-0.09,0.28-0.41,0.35-0.6,0.14c-0.08-0.09-0.1-0.19-0.07-0.31
			C63.23,54.31,63.33,53.99,63.42,53.68C63.42,53.68,63.42,53.68,63.42,53.68z"/>
		<path d="M68.62,48.01c0.33,0.1,0.5,0.43,0.39,0.76c-0.1,0.32-0.43,0.49-0.75,0.39c-0.33-0.1-0.5-0.43-0.4-0.76
			C67.97,48.08,68.29,47.91,68.62,48.01z"/>
		<path d="M76.27,49.87c-0.13-0.25-0.27-0.49-0.4-0.74c-0.07-0.14-0.06-0.18,0.08-0.25c0.22-0.11,0.43-0.23,0.64-0.35
			c-0.01,0.11-0.02,0.22-0.04,0.33c-0.07,0.29-0.14,0.58-0.22,0.87C76.32,49.79,76.29,49.83,76.27,49.87z"/>
	</g>
</g>
</svg>
