<?xml version="1.0" encoding="utf-8"?>
<!-- Generator: Adobe Illustrator 23.0.5, SVG Export Plug-In . SVG Version: 6.00 Build 0)  -->
<svg version="1.1" id="Capa_1" xmlns="http://www.w3.org/2000/svg" xmlns:xlink="http://www.w3.org/1999/xlink" x="0px" y="0px"
	 viewBox="0 0 141.7 141.7" style="enable-background:new 0 0 141.7 141.7;" xml:space="preserve">
<style type="text/css">
	.st0{fill:#09B1B8;}
	.st1{fill:#FFFFFF;}
</style>
<circle class="st0" cx="70.8" cy="70.8" r="70.9"/>
<g>
	<path class="st1" d="M70.9,19.8c28.2,0,51,23,51,51.4c0,27.9-23.1,50.8-51.4,50.8c-28,0-50.8-23.2-50.8-51.6
		C19.8,42.7,43,19.8,70.9,19.8z M70.9,32.4c-20.9,0-38.3,17.3-38.4,38.3c-0.1,21,17.4,38.6,38.4,38.6c20.9,0,38.3-17.3,38.4-38.3
		C109.4,50,91.9,32.4,70.9,32.4z"/>
	<path class="st1" d="M71,61.4c4.7-4.8,9.6-9.5,14.3-14.4c1.8-1.9,3.5-2.1,5.5-0.7C92,47.1,93.1,48,94,49c3.2,3.6,3.1,5-0.2,8.3
		c-4.5,4.5-9,9-13.6,13.6c4.9,4.9,9.6,9.6,14.4,14.3c2.2,2.2,2.4,3.6,0.6,6.1c-0.8,1.1-1.7,2.1-2.8,3c-3.3,2.8-4.7,2.7-7.7-0.3
		c-4.6-4.6-9.1-9.1-13.7-13.8C66,85,61.3,89.8,56.5,94.5c-2.2,2.2-3.7,2.4-6.3,0.5c-1-0.8-2-1.7-2.8-2.6c-2.8-3.3-2.7-4.7,0.3-7.7
		c4.4-4.5,8.9-8.9,13.3-13.4c0.1-0.1,0.1-0.3,0.3-0.6c-4.8-4.7-9.5-9.6-14.4-14.3c-1.9-1.8-2.1-3.6-0.7-5.5c0.9-1.2,1.9-2.4,3-3.4
		c3.3-2.8,4.7-2.7,7.7,0.3c4.5,4.4,8.9,8.9,13.4,13.3C70.6,61.2,70.7,61.2,71,61.4z"/>
</g>
</svg>
