<?xml version="1.0" encoding="utf-8"?>
<!-- Generator: Adobe Illustrator 23.0.5, SVG Export Plug-In . SVG Version: 6.00 Build 0)  -->
<svg version="1.1" id="Capa_1" xmlns="http://www.w3.org/2000/svg" xmlns:xlink="http://www.w3.org/1999/xlink" x="0px" y="0px"
	 viewBox="0 0 141.7 141.7" style="enable-background:new 0 0 141.7 141.7;" xml:space="preserve">
<style type="text/css">
	.st0{fill:#09B1B8;}
</style>
<g>
	<path class="st0" d="M96.6,17.9c0-2.4,0-4.7,0-7.1c0.3,0,0.7,0,1,0c5.9,0,11.8,0,17.6,0c9.1,0,16.4,7.2,16.4,16.4c0,21,0,42,0,63
		c0,8.6,0,17.1,0,25.7c0,7.6-5.1,14-12.4,15.8c-1.2,0.3-2.6,0.5-3.8,0.5c-6,0-12,0-18,0c-0.2,0-0.4,0-0.7,0c0-2.3,0-4.6,0-7
		c8.3,0,16.5,0,24.8,0c0-1.1,0-2.1,0-3.2c-8.3,0-16.5,0-24.8,0c0-1.3,0-2.4,0-3.7c8.2,0,16.5,0,24.8,0c0-1.1,0-2.1,0-3.3
		c-0.8,0-1.6,0-2.4,0c-0.2,0-0.4,0.2-0.5,0.3c-0.8,0.8-1.2,0.7-2-0.1c-0.2-0.2-0.6-0.3-0.9-0.3c-6,0-12,0-17.9,0c-0.3,0-0.6,0-1,0
		c0-1.2,0-2.4,0-3.7c7.2,0,14.3,0,21.7,0c-0.5-0.7-0.9-1.3-1.2-1.9c0.1-0.1,0.2-0.1,0.3-0.2c0.4,0.5,0.9,1,1.3,1.6
		c0.6,0.7,1.7,0.7,2.3-0.1c0.4-0.5,0.7-1,0.4-1.9c-0.5,0.4-1,0.9-1.5,1.3c0.1-1,1-1.3,1.7-1.8c0-0.1-0.1-0.1-0.1-0.2
		c-8.2,0-16.5,0-24.8,0c0-1.3,0-2.5,0-3.7c8.2,0,16.5,0,24.8,0c0-1.1,0-2.1,0-3.2c-8.3,0-16.5,0-24.8,0c0-1.3,0-2.5,0-3.7
		c8.2,0,16.5,0,24.8,0c0-1.1,0-2.1,0-3.2c-8.3,0-16.5,0-24.8,0c0-1.3,0-2.4,0-3.7c8.3,0,16.5,0,24.8,0c0-1.1,0-2.1,0-3.2
		c-8.3,0-16.5,0-24.8,0c0-1.3,0-2.5,0-3.7c8.3,0,16.5,0,24.8,0c0-1.1,0-2.1,0-3.2c-8.3,0-16.5,0-24.8,0c0-1.3,0-2.4,0-3.7
		c8.2,0,16.5,0,24.8,0c0-1.1,0-2.1,0-3.2c-8.3,0-16.5,0-24.8,0c0-1.3,0-2.4,0-3.7c8.2,0,16.5,0,24.8,0c0-1.1,0-2.1,0-3.2
		c-8.2,0-16.5,0-24.8,0c0-1.3,0-2.5,0-3.7c8.2,0,16.5,0,24.8,0c0-1.1,0-2.1,0-3.2c-8.2,0-16.5,0-24.8,0c0-1.2,0-2.4,0-3.7
		c8.2,0,16.5,0,24.8,0c0-1.1,0-2.1,0-3.2c-8.3,0-16.5,0-24.8,0c0-1.3,0-2.4,0-3.7c8.3,0,16.5,0,24.8,0c0-1.1,0-2.1,0-3.2
		c-8.3,0-16.5,0-24.8,0c0-1.2,0-2.4,0-3.7c8.2,0,16.5,0,24.8,0c0-1.1,0-2.1,0-3.2c-8.2,0-16.5,0-24.8,0c0-1.3,0-2.5,0-3.7
		c8.3,0,16.5,0,24.8,0c0-1.1,0-2.1,0-3.2c-8.2,0-16.5,0-24.8,0c0-1.3,0-2.4,0-3.7c8.2,0,16.5,0,24.8,0c0-1.1,0-2.1,0-3.2
		c-8.2,0-16.5,0-24.8,0c0-1.3,0-2.4,0-3.7c8.3,0,16.5,0,24.8,0c0-1.1,0-2.1,0-3.2C113.1,17.9,104.9,17.9,96.6,17.9z"/>
	<path class="st0" d="M38.8,92.8C55.3,68,71.7,43.2,88.2,18.4c0,0,0.1,0,0.1,0.1c-0.4,1.7-0.9,3.4-1.3,5.2
		c-1.4,5.4-2.7,10.9-4.1,16.3c-0.2,0.8-0.6,1.5-1.1,2.2c-6.6,10.4-13.2,20.7-19.7,31.1c-3.4,5.3-6.7,10.5-10.1,15.8
		c-0.3,0.5-0.3,0.8,0.1,1.2c0.9,1,1.7,2.1,2.5,3.2c0.1,0.2,0.1,0.4,0.2,0.7c-0.2-0.1-0.4-0.2-0.6-0.3c-0.8-1-1.6-2-2.4-3
		c-0.1-0.2-0.3-0.4-0.5-0.6c-0.9,1.4-1.7,2.6-2.5,3.9c-4.8,7.6-9.7,15.2-14.5,22.8c-0.8,1.3-1.9,2.3-3.2,3c-3.5,2-7.3,3.1-11.1,1.5
		c-5.3-2.2-8.7-6.1-9.6-11.9c-0.5-3,0.1-5.9,1.3-8.7c1.7-4,4.3-7.3,7.8-9.8c5.5-3.9,11.4-3.9,16.9,0C37.2,91.5,38,92.1,38.8,92.8z
		 M35.9,101.9c0.1-5.3-4.3-7.8-7.7-7.9c-2.4,0-4.6,0.9-6.4,2.4c-3.9,3.1-6.1,7-5.7,12.1c0.4,5.8,5.8,9,10.9,6.8
		C31.7,113.3,35.9,107.2,35.9,101.9z"/>
	<path class="st0" d="M46.6,9.6c1.5,6.7,3,13.5,4.5,20.2c1.6,7.3,3.2,14.7,4.9,22c0.3,1.5,0.7,3.1,1,4.6c0.1,0.3,0,0.6-0.1,0.8
		c-2,2.8-3.9,5.6-5.9,8.4c0,0.1-0.1,0.1-0.2,0.2c-0.3-1.5-0.6-3.1-0.9-4.5c-1.7-8.5-3.4-17-5-25.5c-0.3-1.4,0-3,0.1-4.5
		c0.4-6.1,0.9-12.2,1.3-18.3c0.1-1.2,0.2-2.3,0.3-3.5C46.5,9.6,46.6,9.6,46.6,9.6z"/>
	<path class="st0" d="M86.3,106c-1.4-2.9-3.4-5.4-6.3-7c-3.6-2.1-7.4-2.1-11.3-1.1c-0.8,0.2-1.6,0.5-2.4,0.8
		c-0.8-3.5-1.5-7-2.3-10.5l-1.5-6.3l-6.6,10.3l0.2,1.2c0,0.1,0,0.1,0.1,0.2c1.8,9,3.6,17.9,5.3,26.9c0.5,2.9,1.3,5.5,3.5,7.5
		c3.6,3.4,7.7,5.1,12.7,3.5c6-1.9,9.8-5.7,10.9-12C89.4,114.8,88.4,110.3,86.3,106z M81.7,122.1c-2.2,4-7,5.5-10.7,3.2
		c-2.3-1.4-3.8-3.6-4.8-6.1c-1.3-3.3-1.7-6.8-0.8-10.3c0.9-3.1,2.8-5.1,6.1-5.7c3.3-0.6,6,0.7,8.1,3.2c0.1,0.1,2,3.1,2.2,3.6
		C83.6,114.1,83.8,118.2,81.7,122.1z"/>
</g>
</svg>
