<?xml version="1.0" encoding="utf-8"?>
<!-- Generator: Adobe Illustrator 23.0.5, SVG Export Plug-In . SVG Version: 6.00 Build 0)  -->
<svg version="1.1" id="Capa_1" xmlns="http://www.w3.org/2000/svg" xmlns:xlink="http://www.w3.org/1999/xlink" x="0px" y="0px"
	 viewBox="0 0 141.7 141.7" style="enable-background:new 0 0 141.7 141.7;" xml:space="preserve">
<style type="text/css">
	.st0{fill:#09B1B8;}
</style>
<g>
	<path class="st0" d="M67.6,4c2.1,0,4.3,0,6.4,0c0.5,0.1,1,0.3,1.5,0.3c3.1,0.4,6.2,0.6,9.2,1.2c28.8,6.2,49.4,30.1,52.4,57.5
		c0.2,1.5,0.4,2.9,0.6,4.4c0,2.4,0,4.8,0,7.3c-0.1,0.4-0.3,0.8-0.3,1.2c-0.2,1.7-0.3,3.4-0.6,5.1c-2,13.3-7.4,25-16.5,34.7
		c-16.1,17.3-36.1,24.4-59.6,21.2c-14.5-2-27-8.4-37.3-18.9C9.4,103.8,3,86.5,4.2,66.5c0.5-8.8,2.6-17.2,6.7-25
		C21.9,20.2,39.3,7.8,63.2,4.6C64.6,4.4,66.1,4.2,67.6,4z M16.2,88c20.5,9.4,40.6,18.7,60.9,28c1.9-3.9,3.5-7.7,4.2-11.8
		c0.3-1.7,0.1-3.5,0.5-5.1c1.3-4.8,3.4-9.4,6.2-13.5c2.5-3.6,5.8-6.3,10.1-7.6c6.9-2,12.9-5.6,19-9.2c2.3-1.4,4.4-3.2,5-5.9
		c0.9-3.7,1.5-7.4,1.9-11.2c0.3-2.7,0.2-5.5-1.7-7.8c-0.7-0.9-1.8-1.8-2.8-2.1c-1.6-0.4-3.4-0.5-5.1-0.3c-4.3,0.6-8.6,1.5-12.9,2
		c-4.7,0.5-9-0.4-11.8-4.8c-2.1-3.4-5.2-4.8-9.1-4.5c-5.9,0.3-11.8,0.5-17.7,1.2c-9.4,1-16.1,5.9-19.4,15c-1.4,3.8-3.6,6.9-6.8,9.3
		c-1.4,1.1-2.6,2.2-3.9,3.4c-2.2,2.1-3.7,4.7-3.9,7.8c-0.2,2.6-1.3,4.8-3.2,6.7C22.6,80.9,19.6,84.4,16.2,88z"/>
	<path class="st0" d="M69.3,37.7c0.2,0.3,0.6,0.6,0.8,1c0.4,0.7,0.9,1,1.7,0.7c0.3-0.1,0.7-0.2,1.1-0.1c1.4,0.2,2.8,0.4,3.4-1.3
		c0.1-0.1,1.1,0,1.5,0.2c0.7,0.3,1.3,0.8,0.9,1.6c-1.3,2.3,1.2,3.4,1.6,5.2c0,0.1,0.8,0.2,1.2,0.2c0.7,0,1.3,0.2,1.3,1
		c0,0.8,0.2,1.9-0.9,2c-1.5,0-2.1,0.9-2.5,2.1c-0.1,0.3-0.4,0.7-0.6,0.9c-0.7,0.7-0.8,1.3-0.2,2.1c0.6,0.9,0.3,1.4-0.6,1.9
		c-0.8,0.5-1.6,0.7-2-0.4c-0.4-0.9-0.9-1.2-1.9-0.9c-0.4,0.1-0.9,0.1-1.4,0c-1.2-0.2-2.3-0.2-3,1.2c-0.1,0.2-1.2,0.2-1.8,0
		c-0.7-0.3-1.2-0.9-0.6-1.7c0.8-1,0.5-1.7-0.3-2.5c-0.3-0.3-0.5-0.6-0.6-1c-0.4-1.2-0.9-2-2.4-1.9c-1,0.1-1-0.9-0.9-1.5
		c0.1-0.5,0.7-1.3,1-1.3c1.3,0.1,1.9-0.5,2.2-1.6c0.1-0.4,0.4-0.9,0.7-1.2c0.8-0.8,1-1.5,0.3-2.5C66.8,39.1,68,37.7,69.3,37.7z
		 M76.9,46.7c0-2.1-1.9-3.9-4-3.9c-2,0.1-3.8,1.8-3.8,3.9c0,2.1,1.8,3.9,3.9,3.8C75.1,50.5,76.9,48.7,76.9,46.7z"/>
	<path class="st0" d="M61.2,44.7c-1.4,2,0.6,2.9,0.9,4.3c0,0.2,0.6,0.4,0.9,0.4c0.8,0,1.3,0.3,1.3,1.2c0,0.9-0.4,1.3-1.3,1.4
		c-0.4,0.1-0.9,0.5-1.2,0.9c-0.4,0.4-0.7,0.9-0.8,1.4c-0.2,0.5-0.4,1.2-0.2,1.7c0.3,0.9,0.1,1.3-0.7,1.7c-0.8,0.5-1.1,0.2-1.6-0.4
		c-0.3-0.4-0.9-0.5-1.4-0.6c-0.5-0.1-1,0.1-1.5,0c-0.9-0.2-1.5-0.1-1.9,0.8c-0.4,0.8-1.1,0.7-1.6,0.2c-0.3-0.3-0.6-1.1-0.4-1.5
		c0.3-0.7,0.4-1.2-0.2-1.9c-0.4-0.4-0.5-1-0.9-1.4c-0.3-0.4-0.8-0.9-1.2-0.9c-0.9-0.1-1.3-0.5-1.3-1.3c0-0.8,0.4-1.4,1.2-1.3
		c0.8,0.1,1.2-0.3,1.4-1c0.2-0.5,0.4-0.9,0.8-1.3c0.5-0.6,0.7-1.1,0.2-1.9c-0.5-0.7-0.1-1.1,0.6-1.5c0.7-0.4,1.2-0.5,1.6,0.3
		c0.4,0.8,0.9,0.9,1.7,0.7c0.5-0.1,1-0.1,1.5,0c0.8,0.3,1.3,0,1.7-0.7c0.2-0.3,0.9-0.6,1.2-0.5C60.4,43.8,60.8,44.3,61.2,44.7z
		 M56.4,47.5c-1.8,0-3.2,1.4-3.3,3.1c-0.1,1.7,1.4,3.2,3.1,3.3c1.8,0,3.2-1.3,3.3-3.1C59.6,49.1,58.1,47.6,56.4,47.5z"/>
	<path class="st0" d="M62.2,58.4c0.9,0.3,1.5,0.6,1,1.8c-0.3,0.7,1.1,2.6,1.8,2.9c0.3,0.1,0.8,0.6,0.8,0.8c0,0.3-0.4,0.7-0.8,0.9
		c-1.1,0.4-1.9,2.1-1.7,3.3c0.1,0.3-0.2,0.8-0.4,0.9c-0.3,0.1-0.8,0.1-1.1-0.1c-1.2-0.9-2.7-1-3.9,0c-0.3,0.2-0.9,0.3-1.1,0.2
		c-0.3-0.2-0.4-0.8-0.4-1.1c0.2-1.1-0.8-2.8-1.8-3.2c-0.4-0.1-0.6-0.6-0.9-0.9c0.3-0.3,0.5-0.7,0.9-0.8c1-0.4,2.1-2.3,1.9-3.3
		c-0.1-0.3,0.1-0.8,0.3-1c0.3-0.2,0.8-0.2,1.1-0.1C59.4,59.9,60.9,59.8,62.2,58.4z M59.9,61.5c-1.3,0-2.4,1.1-2.5,2.3
		c0,1.3,1.1,2.5,2.5,2.5c1.3,0,2.4-1.2,2.4-2.4C62.3,62.6,61.2,61.5,59.9,61.5z"/>
</g>
</svg>
