<?xml version="1.0" encoding="utf-8"?>
<!-- Generator: Adobe Illustrator 23.0.5, SVG Export Plug-In . SVG Version: 6.00 Build 0)  -->
<svg version="1.1" id="Capa_1" xmlns="http://www.w3.org/2000/svg" xmlns:xlink="http://www.w3.org/1999/xlink" x="0px" y="0px"
	 viewBox="0 0 141.7 141.7" style="enable-background:new 0 0 141.7 141.7;" xml:space="preserve">
<style type="text/css">
	.st0{fill:#09B1B8;}
</style>
<g>
	<path class="st0" d="M114.9,26.8h-7.3v-7.3c0-4.1-3.3-7.3-7.3-7.3H26.8c-4.1,0-7.3,3.3-7.3,7.3v88c0,4.1,3.3,7.3,7.3,7.3h7.3v7.3
		c0,4.1,3.3,7.3,7.3,7.3h73.4c4.1,0,7.3-3.3,7.3-7.3v-88C122.2,30.1,118.9,26.8,114.9,26.8z M26.8,107.5v-88h73.4v88H26.8z
		 M114.9,122.2H41.5v-7.3h58.7c4.1,0,7.3-3.3,7.3-7.3V34.2h7.3V122.2z"/>
	<path class="st0" d="M89.2,34.2H52.5c-2,0-3.7,1.6-3.7,3.7c0,2,1.6,3.7,3.7,3.7h36.7c2,0,3.7-1.6,3.7-3.7
		C92.9,35.8,91.2,34.2,89.2,34.2z"/>
	<path class="st0" d="M89.2,56.2H37.8c-2,0-3.7,1.6-3.7,3.7c0,2,1.6,3.7,3.7,3.7h51.4c2,0,3.7-1.6,3.7-3.7
		C92.9,57.8,91.2,56.2,89.2,56.2z"/>
	<path class="st0" d="M89.2,70.9H37.8c-2,0-3.7,1.6-3.7,3.7c0,2,1.6,3.7,3.7,3.7h51.4c2,0,3.7-1.6,3.7-3.7
		C92.9,72.5,91.2,70.9,89.2,70.9z"/>
	<path class="st0" d="M89.2,85.5H37.8c-2,0-3.7,1.6-3.7,3.7c0,2,1.6,3.7,3.7,3.7h51.4c2,0,3.7-1.6,3.7-3.7
		C92.9,87.2,91.2,85.5,89.2,85.5z"/>
</g>
</svg>
