<?xml version="1.0" encoding="utf-8"?>
<!-- Generator: Adobe Illustrator 24.0.2, SVG Export Plug-In . SVG Version: 6.00 Build 0)  -->
<svg version="1.1" id="Capa_1" xmlns="http://www.w3.org/2000/svg" xmlns:xlink="http://www.w3.org/1999/xlink" x="0px" y="0px"
	 viewBox="0 0 76 41.2" style="enable-background:new 0 0 76 41.2;" xml:space="preserve">
<style type="text/css">
	.Sombra_x0020_paralela{fill:none;}
	.Esquinas_x0020_redondeadas_x0020_2_x0020_pt_x002E_{fill:#FFFFFF;stroke:#000000;stroke-miterlimit:10;}
	.Reflejo_x0020_vivo_x0020_X{fill:none;}
	.Bisel_x0020_suave{fill:url(#SVGID_1_);}
	.Atardecer{fill:#FFFFFF;}
	.Follaje_GS{fill:#FFDD00;}
	.Pompadour_GS{fill-rule:evenodd;clip-rule:evenodd;fill:#51AEE2;}
	.st0{fill:#00A6AA;}
</style>
<linearGradient id="SVGID_1_" gradientUnits="userSpaceOnUse" x1="-19.6" y1="-82" x2="-18.8929" y2="-81.2929">
	<stop  offset="0" style="stop-color:#E6E6EB"/>
	<stop  offset="0.1738" style="stop-color:#E2E2E6"/>
	<stop  offset="0.352" style="stop-color:#D5D4D8"/>
	<stop  offset="0.5323" style="stop-color:#C0BFC2"/>
	<stop  offset="0.7139" style="stop-color:#A4A2A4"/>
	<stop  offset="0.8949" style="stop-color:#828282"/>
	<stop  offset="1" style="stop-color:#6B6E6E"/>
</linearGradient>
<g>
	<g>
		<path class="st0" d="M20.2,5.8C11.8,5.8,5,12.4,5,20.7c0,6.2,3.8,11.5,9.2,13.7c-1.1-0.8-2.1-1.7-2.8-2.9c-0.6-1-1-2.1-1.2-3.2
			c-0.1-0.7-0.1-1.4-0.1-2.1c0-1,0.1-2,0.1-3.1c0-1.6,0.1-3.2,0.2-4.7c0-1,0.1-2,0.1-3.1c0-0.5,0-1,0.1-1.5c0.3,0.2,0.5,0.4,0.7,0.6
			c0.9,0.7,1.8,1.5,2.7,2.2c0.7,0.6,1.3,1.1,2,1.7c0.3,0.2,0.5,0.3,0.9,0.2c0.7-0.3,1.5-0.4,2.2-0.5c0.6,0,1.3-0.1,1.9-0.1
			c1,0,2,0.2,3,0.6c0.3,0.1,0.5,0.1,0.8-0.1c0.8-0.7,1.6-1.3,2.4-2c0.7-0.6,1.5-1.2,2.2-1.8c0.3-0.2,0.5-0.5,0.8-0.7
			c0,0.2,0,0.3,0,0.4c0,0.9,0,1.9,0.1,2.8c0.1,2,0.1,4,0.2,6c0,1.2,0.1,2.5,0.1,3.7c0,1.3-0.2,2.5-0.7,3.7c-0.5,1.2-1.3,2.3-2.3,3.1
			c-0.1,0.1-0.2,0.1-0.2,0.2c4.7-2.5,7.9-7.4,7.9-13.1C35.3,12.4,28.5,5.8,20.2,5.8z"/>
		<path class="st0" d="M20.4,32.6c-0.3,0.4-0.7,0.7-1.2,0.9C18.6,33.8,18,34,17.4,34c-0.3,0-0.7,0.1-1,0.1c-0.2,0-0.4-0.1-0.4-0.3
			c0-0.2,0.1-0.3,0.4-0.3c0.8,0,1.5-0.1,2.2-0.4c0.5-0.2,0.9-0.5,1.2-0.9c0.1-0.2,0.2-0.4,0.2-0.7c0-0.3,0-0.5,0-0.8
			c0-0.1,0-0.2-0.1-0.2c-0.6-0.1-1-0.4-1.4-0.9c-0.4-0.6-0.3-1.4,0.3-1.9c0.8-0.7,2.1-0.8,2.9-0.2c1,0.8,0.9,2.1-0.2,2.7
			c-0.2,0.1-0.5,0.2-0.8,0.3c0,0-0.1,0.1-0.1,0.1c0,0.3,0,0.6,0,1c0,0.5,0.4,0.8,0.8,1.1c0.6,0.4,1.3,0.6,2,0.7c0.3,0,0.6,0,0.9,0.1
			c0.2,0,0.3,0.1,0.3,0.3c0,0.2-0.1,0.3-0.3,0.3c-1.2,0-2.3-0.2-3.3-0.9C20.9,33.1,20.7,32.8,20.4,32.6z"/>
		<path class="st0" d="M11.4,18.7c0-0.7,0-1.5,0.1-2.2c0-0.1,0.1-0.2,0.2-0.3c0.1-0.1,0.3,0,0.4,0.1c0.4,0.4,0.8,0.7,1.3,1.1
			c0.5,0.4,1,0.9,1.6,1.3c0.1,0.1,0.2,0.2,0.1,0.4c0,0.2-0.2,0.2-0.3,0.2c-1,0.3-2,0.6-2.8,1.3c-0.1,0.1-0.2,0.2-0.4,0.1
			c-0.2-0.1-0.2-0.2-0.2-0.4C11.4,19.8,11.4,19.3,11.4,18.7C11.4,18.7,11.4,18.7,11.4,18.7z"/>
		<path class="st0" d="M29.5,18.5c0,0.6,0,1.3,0,1.9c0,0.1,0,0.3-0.2,0.3c-0.1,0.1-0.3,0-0.4-0.1c-0.6-0.5-1.2-0.9-2-1.1
			c-0.3-0.1-0.5-0.2-0.8-0.2c-0.1,0-0.3-0.1-0.3-0.2c0-0.2,0-0.3,0.1-0.4c0.6-0.5,1.3-1.1,1.9-1.6c0.3-0.3,0.6-0.5,0.9-0.8
			c0.1-0.1,0.3-0.2,0.4-0.1c0.2,0.1,0.2,0.2,0.2,0.4C29.5,17.2,29.5,17.9,29.5,18.5C29.5,18.5,29.5,18.5,29.5,18.5z"/>
		<path class="st0" d="M24,25c0-0.7,0.4-1.2,0.9-1.4c0.5-0.2,1,0,1.4,0.4c0.5,0.6,0.5,1.4,0,2.1c-0.5,0.6-1.4,0.7-1.9,0
			C24.1,25.8,24,25.4,24,25z"/>
		<path class="st0" d="M16.8,25c0,0.7-0.4,1.2-0.9,1.4c-0.5,0.2-0.9,0-1.3-0.3c-0.6-0.6-0.6-1.8,0.1-2.3c0.5-0.5,1.3-0.4,1.7,0.2
			C16.7,24.3,16.8,24.6,16.8,25z"/>
		<path class="st0" d="M26.3,29.2c0.9,0,1.8,0,2.7,0c0.2,0,0.3,0.1,0.3,0.3c0,0.1-0.1,0.3-0.2,0.4c0,0-0.1,0-0.1,0
			c-1.8,0-3.6,0-5.4,0c-0.2,0-0.4-0.1-0.4-0.3c0-0.2,0.2-0.3,0.4-0.3C24.5,29.2,25.4,29.2,26.3,29.2z"/>
		<path class="st0" d="M14.7,29.2c0.9,0,1.8,0,2.7,0c0.2,0,0.4,0.1,0.3,0.3c0,0.2-0.1,0.3-0.3,0.3c-1.2,0-2.3,0-3.5,0
			c-0.7,0-1.3,0-2,0c-0.2,0-0.3-0.1-0.3-0.2c-0.1-0.2,0-0.3,0.2-0.4c0.1,0,0.1,0,0.2,0C12.9,29.2,13.8,29.2,14.7,29.2z"/>
		<path class="st0" d="M14.4,33.3c-0.2,0-0.3-0.1-0.4-0.2c0-0.2,0-0.3,0.2-0.4c0.4-0.2,0.8-0.4,1.2-0.6c0.8-0.4,1.5-0.8,2.3-1.2
			c0.2-0.1,0.4-0.1,0.5,0.1c0.1,0.2,0,0.4-0.2,0.5c-1.1,0.6-2.3,1.2-3.4,1.8C14.5,33.3,14.4,33.3,14.4,33.3z"/>
		<path class="st0" d="M23.1,30.8c0.1,0,0.1,0,0.2,0.1c1.2,0.6,2.3,1.2,3.5,1.8c0.2,0.1,0.2,0.2,0.2,0.4c0,0.1-0.1,0.3-0.3,0.3
			c-0.1,0-0.2,0-0.3-0.1c-0.7-0.3-1.3-0.7-2-1c-0.5-0.3-1-0.5-1.5-0.8c-0.3-0.1-0.3-0.4-0.1-0.6C22.9,30.9,23,30.8,23.1,30.8z"/>
		<path class="st0" d="M24.7,30.7c0-0.2,0.2-0.4,0.4-0.3c0.4,0.1,0.9,0.2,1.3,0.3c0.6,0.1,1.1,0.2,1.7,0.3c0.3,0.1,0.4,0.2,0.3,0.4
			c-0.1,0.2-0.2,0.3-0.4,0.2c-0.5-0.1-1.1-0.2-1.6-0.3c-0.5-0.1-1-0.2-1.5-0.3C24.8,31,24.7,30.8,24.7,30.7z"/>
		<path class="st0" d="M12.5,31.3c0-0.2,0.1-0.3,0.3-0.3c0.6-0.1,1.1-0.2,1.7-0.3c0.5-0.1,0.9-0.2,1.4-0.3c0.2,0,0.4,0.1,0.4,0.2
			c0,0.2,0,0.4-0.3,0.4c-0.8,0.2-1.6,0.3-2.4,0.5c-0.2,0-0.5,0.1-0.7,0.1C12.7,31.6,12.5,31.5,12.5,31.3z"/>
	</g>
	<g>
		<path class="st0" d="M70.9,21.8c0,0.2,0,0.4,0,0.5c-0.1,1.1-0.2,2.2-0.5,3.3c-0.4,1.5-1,2.9-1.9,4.3c-0.9,1.4-2,2.6-3.3,3.6
			c-0.4,0.3-0.8,0.6-1.2,0.8c0.1-0.2,0.2-0.4,0.3-0.6c0.4-0.9,0.7-1.8,0.9-2.7c0.3-1.6,0.3-3.3,0.2-4.9c-0.1-0.9-0.2-1.9-0.3-2.8
			c0-0.3-0.1-0.6-0.2-0.9c-0.1-0.3-0.1-0.5-0.1-0.8c0.1-0.9,0-1.9-0.1-2.8c-0.1-1-0.4-1.9-0.7-2.9c-0.3-0.9-0.8-1.7-1.3-2.5
			c-0.3-0.4-0.6-0.7-0.9-0.9c-0.5-0.3-1-0.3-1.5-0.1c-0.9,0.5-1.5,1.2-1.9,2.1c-0.3,0.6-0.5,1.3-0.7,1.9c0,0.1,0,0.1,0,0.2
			c-1,0-1.9-0.2-2.9,0c-0.1-0.3-0.2-0.6-0.3-0.9c-0.3-1-0.8-1.9-1.5-2.6c-0.4-0.4-0.8-0.6-1.3-0.8c-0.3-0.1-0.6,0-0.9,0.1
			c-0.5,0.3-0.9,0.8-1.2,1.2c-0.7,1-1.1,2-1.5,3.2c-0.4,1.3-0.6,2.6-0.6,3.9c0,0.2,0,0.4,0,0.6c0.1,0.3-0.1,0.6-0.2,0.9
			c-0.4,1.1-0.6,2.1-0.7,3.3c-0.2,1.2-0.3,2.5-0.2,3.8c0,1.3,0.2,2.5,0.7,3.7c0.1,0.3,0.3,0.6,0.4,0.9c-0.3-0.2-0.6-0.4-0.9-0.7
			c-1.3-1.1-2.5-2.5-3.3-4c-0.9-1.5-1.5-3.1-1.8-4.9c-0.2-1-0.2-2.1-0.2-3.1c0.1-1.8,0.4-3.6,1.2-5.3c0.9-2.1,2.2-3.9,4-5.4
			c1.4-1.2,2.9-2.1,4.6-2.7C52,7.3,53.2,7,54.5,6.9c0.4,0,0.8-0.1,1.2-0.1c0.1,0,0.1,0,0.2,0C56,7,56.1,7,56.2,6.9
			c0.1,0,0.1,0,0.2,0c1.5,0,3,0.3,4.5,0.8c2.2,0.8,4.1,2,5.8,3.7c1.4,1.4,2.4,3,3.2,4.9c0.5,1.2,0.8,2.4,0.9,3.6c0,0.1,0,0.1,0,0.2
			c-0.2,0.2-0.5,0.5-0.7,0.7c-0.1,0.1-0.2,0.2,0,0.4C70.4,21.3,70.7,21.6,70.9,21.8z"/>
		<path class="st0" d="M54.5,23.7c0,0.9-0.5,1.9-1.5,2.4c-1.2,0.7-2.6,0.2-3.3-1c-0.7-1.2-0.5-2.6,0.3-3.6c0.9-1.1,2.6-1.2,3.6-0.1
			C54.2,21.9,54.5,22.6,54.5,23.7z M51.1,23.3c0,0.5,0.4,0.8,0.8,0.8c0.5,0,0.8-0.4,0.8-0.8c0-0.5-0.4-0.8-0.8-0.8
			C51.4,22.5,51.1,22.8,51.1,23.3z"/>
		<path class="st0" d="M48.6,20.5c0-0.8,0.1-1.5,0.3-2.3c0.2-1.1,0.6-2.2,1.2-3.2c0.3-0.5,0.6-0.9,1-1.3c0.1-0.2,0.3-0.2,0.5-0.1
			c0.5,0.3,0.9,0.8,1.1,1.3c0.4,0.6,0.6,1.3,0.8,2c0.1,0.2,0,0.3-0.2,0.3c-1.3,0.4-2.4,1-3.4,1.9c-0.4,0.4-0.8,0.8-1.2,1.2
			C48.7,20.5,48.7,20.5,48.6,20.5C48.6,20.5,48.6,20.5,48.6,20.5z"/>
		<path class="st0" d="M63.5,20.5c-0.5-0.5-1-1-1.6-1.5c-0.9-0.8-2-1.4-3.2-1.7c-0.2,0-0.2-0.1-0.1-0.2c0.2-0.8,0.5-1.6,0.9-2.3
			c0.3-0.4,0.6-0.8,1-1.1c0.3-0.2,0.3-0.2,0.5,0.1c0.5,0.5,0.8,1,1.1,1.6c0.6,1.1,1,2.3,1.2,3.5C63.4,19.4,63.5,19.9,63.5,20.5
			C63.5,20.5,63.5,20.5,63.5,20.5z"/>
		<path class="st0" d="M55.7,32c0-0.4,0-0.9,0-1.3c0-0.1,0-0.2-0.2-0.2c-0.9-0.4-1.4-1-1.6-2c-0.1-0.6,0.2-1,0.9-1.2
			c0.9-0.2,1.8-0.2,2.7,0.1c0.7,0.2,0.9,0.6,0.8,1.3c-0.1,0.9-0.6,1.5-1.5,1.8c-0.2,0.1-0.2,0.1-0.2,0.3c0,0.9,0,1.7,0,2.6
			c0,0.4-0.4,0.6-0.7,0.4c-0.1-0.1-0.2-0.2-0.2-0.4C55.7,32.9,55.7,32.4,55.7,32C55.7,32,55.7,32,55.7,32z"/>
		<path class="st0" d="M60.2,22.5c0.5,0,0.8,0.4,0.8,0.8c0,0.5-0.4,0.8-0.8,0.8c-0.5,0-0.8-0.4-0.8-0.8
			C59.4,22.8,59.7,22.5,60.2,22.5z"/>
		<path class="st0" d="M70.9,21.8c-0.3-0.3-0.5-0.5-0.8-0.8c-0.2-0.1-0.1-0.2,0-0.4c0.2-0.2,0.5-0.5,0.7-0.7c0,0.2,0.1,0.3,0.1,0.5
			c0,0.4,0,0.8,0.1,1.2C71,21.7,70.9,21.8,70.9,21.8z"/>
	</g>
</g>
</svg>
