<?xml version="1.0" encoding="utf-8"?>
<!-- Generator: Adobe Illustrator 23.0.5, SVG Export Plug-In . SVG Version: 6.00 Build 0)  -->
<svg version="1.1" id="Capa_1" xmlns="http://www.w3.org/2000/svg" xmlns:xlink="http://www.w3.org/1999/xlink" x="0px" y="0px"
	 viewBox="0 0 141.73 141.73" style="enable-background:new 0 0 141.73 141.73;" xml:space="preserve">
<style type="text/css">
	.st0{fill:#FFFFFF;stroke:#000000;stroke-width:1.8445;stroke-miterlimit:10;}
</style>
<g>
	<circle class="st0" cx="70.87" cy="60.6" r="52.28"/>
	<path d="M78.64,51.8c3.84-2.47,6.4-6.77,6.4-11.68c0-7.67-6.22-13.89-13.89-13.89c-7.67,0-13.89,6.22-13.89,13.89
		c0,4.91,2.55,9.21,6.4,11.68c-9.06,0.81-16.18,8.44-16.18,17.7v14.41l0.04,0.23l0.99,0.31c9.35,2.92,17.48,3.9,24.17,3.9
		c13.07,0,20.64-3.73,21.11-3.96l0.93-0.47h0.1V69.5C94.82,60.24,87.69,52.61,78.64,51.8z"/>
</g>
<g>
	<path d="M13.92,133.64v-13.43h1.02v13.43H13.92z"/>
	<path d="M18.64,124.16v1.69c0.73-1.3,2.05-1.84,3.38-1.86c2.53,0,4.28,1.55,4.28,4.18v5.47h-0.94v-5.45c0-2.15-1.32-3.3-3.38-3.28
		c-1.96,0.02-3.32,1.5-3.32,3.45v5.27h-0.94v-9.47H18.64z"/>
	<path d="M30,121.07c0,1-1.52,1-1.52,0C28.48,120.08,30,120.08,30,121.07z M28.75,124.12v9.51h0.94v-9.51H28.75z"/>
	<path d="M40.15,132.31c-0.96,0.96-2.21,1.42-3.45,1.42c-2.67,0-4.87-1.84-4.87-4.83s2.13-4.83,4.87-4.83
		c1.25,0,2.49,0.48,3.45,1.42l-0.61,0.59c-0.77-0.77-1.82-1.13-2.84-1.13c-2.15,0-3.95,1.4-3.95,3.95s1.8,3.95,3.95,3.95
		c1.02,0,2.05-0.4,2.82-1.17L40.15,132.31z"/>
	<path d="M43.31,121.07c0,1-1.52,1-1.52,0C41.8,120.08,43.31,120.08,43.31,121.07z M42.07,124.12v9.51h0.94v-9.51H42.07z"/>
	<path d="M54.81,124.16c0,3.16,0,6.31,0,9.47h-0.94v-2.01c-0.92,1.48-2.34,2.17-3.87,2.17c-2.65,0-4.81-1.99-4.81-4.89
		s2.17-4.85,4.81-4.85c1.53,0,3.09,0.71,3.87,2.19v-2.07H54.81z M46.12,128.9c0,2.38,1.73,3.97,3.88,3.97c5.27,0,5.27-7.92,0-7.92
		C47.84,124.95,46.12,126.52,46.12,128.9z"/>
	<path d="M58.24,124.16l0.04,1.69c0.59-1.29,1.94-1.78,3.15-1.78c0.71-0.02,1.4,0.17,2.03,0.56l-0.42,0.77
		c-0.5-0.31-1.05-0.44-1.61-0.44c-1.76,0.02-3.13,1.44-3.13,3.16v5.52h-0.94v-9.47H58.24z"/>
	<path d="M79.04,122.8c-0.98-1.57-2.55-1.8-4.07-1.82c-1.57,0-4.07,0.58-4.07,2.72c0,1.71,1.84,2.11,4.1,2.53
		c2.59,0.5,5.27,0.96,5.27,3.85c-0.02,3.03-3.07,3.76-5.31,3.76c-2.09,0-4.47-0.86-5.5-2.92l0.92-0.46
		c0.82,1.63,2.93,2.44,4.58,2.44s4.28-0.46,4.28-2.84c0.02-2.01-2.21-2.46-4.41-2.88c-2.46-0.48-4.97-0.98-4.97-3.45
		c-0.06-2.84,2.9-3.72,5.1-3.72c1.92,0,3.59,0.31,4.91,2.28L79.04,122.8z"/>
	<path d="M82.38,128.9c0-2.84,2.15-4.89,4.81-4.89s5.04,1.63,4.68,5.33h-8.54c0.19,2.22,1.9,3.51,3.86,3.51
		c1.25,0,2.7-0.5,3.41-1.44l0.67,0.54c-0.92,1.21-2.57,1.82-4.09,1.82C84.53,133.77,82.38,131.91,82.38,128.9z M91.03,128.52
		c-0.02-2.34-1.55-3.64-3.84-3.64c-1.96,0-3.64,1.32-3.86,3.64H91.03z"/>
	<path d="M100.81,125.89c-0.96-0.84-1.9-1-2.95-1c-1.48-0.02-2.9,0.54-2.86,1.75c0.04,1.27,1.69,1.52,2.88,1.73
		c1.69,0.29,4.01,0.58,3.91,2.78c-0.06,2.09-2.22,2.65-3.89,2.65s-3.32-0.63-4.14-1.9l0.69-0.61c0.79,1.13,2.21,1.61,3.47,1.61
		c1.15,0,2.9-0.31,2.95-1.8c0.04-1.36-1.53-1.63-3.09-1.88c-1.84-0.31-3.66-0.65-3.68-2.55c-0.02-1.86,1.84-2.67,3.76-2.65
		c1.38,0,2.59,0.38,3.53,1.27L100.81,125.89z"/>
	<path d="M105.13,121.07c0,1-1.52,1-1.52,0C103.62,120.08,105.13,120.08,105.13,121.07z M103.88,124.12v9.51h0.94v-9.51H103.88z"/>
	<path d="M112.09,133.77c-2.67,0-4.81-1.84-4.81-4.85c0-3.01,2.15-4.93,4.81-4.93s4.81,1.92,4.81,4.93
		C116.91,131.93,114.76,133.77,112.09,133.77z M112.09,132.85c2.15,0,3.89-1.48,3.89-3.93s-1.75-4.05-3.89-4.05
		c-2.15,0-3.89,1.59-3.89,4.05S109.95,132.85,112.09,132.85z M112.36,122.51l1.71-2.21v-0.02h-1.21l-1.38,2.15v0.08H112.36z"/>
	<path d="M120,124.16v1.69c0.73-1.3,2.05-1.84,3.38-1.86c2.53,0,4.28,1.55,4.28,4.18v5.47h-0.94v-5.45c0-2.15-1.32-3.3-3.38-3.28
		c-1.96,0.02-3.32,1.5-3.32,3.45v5.27h-0.94v-9.47H120z"/>
</g>
</svg>
