<?xml version="1.0" encoding="utf-8"?>
<!-- Generator: Adobe Illustrator 23.0.5, SVG Export Plug-In . SVG Version: 6.00 Build 0)  -->
<svg version="1.1" id="Capa_1" xmlns="http://www.w3.org/2000/svg" xmlns:xlink="http://www.w3.org/1999/xlink" x="0px" y="0px"
	 viewBox="0 0 141.7 173.8" style="enable-background:new 0 0 141.7 173.8;" xml:space="preserve">
<style type="text/css">
	.st0{fill:#FFFFFF;}
	.st1{fill:#09B1B8;}
</style>
<circle class="st0" cx="70.9" cy="72.9" r="70.9"/>
<path class="st1" d="M81.4,60.9c5.2-3.3,8.7-9.2,8.7-15.8c0-10.4-8.4-18.8-18.8-18.8s-18.8,8.4-18.8,18.8c0,6.7,3.5,12.5,8.7,15.8
	c-12.3,1.1-21.9,11.4-21.9,24v19.5l0.1,0.3l1.3,0.4c12.7,4,23.7,5.3,32.8,5.3c17.7,0,28-5.1,28.6-5.4l1.3-0.6h0.1V84.9
	C103.3,72.4,93.7,62,81.4,60.9z"/>
<g>
	<path class="st1" d="M6.8,165.9v-15.1h1.1v15.1H6.8z"/>
	<path class="st1" d="M12.1,155.2v1.9c0.8-1.5,2.3-2.1,3.8-2.1c2.9,0,4.8,1.7,4.8,4.7v6.2h-1.1v-6.1c0-2.4-1.5-3.7-3.8-3.7
		c-2.2,0-3.7,1.7-3.7,3.9v5.9h-1.1v-10.7H12.1z"/>
	<path class="st1" d="M24.9,151.7c0,1.1-1.7,1.1-1.7,0C23.2,150.6,24.9,150.6,24.9,151.7z M23.5,155.1v10.7h1.1v-10.7H23.5z"/>
	<path class="st1" d="M36.3,164.4c-1.1,1.1-2.5,1.6-3.9,1.6c-3,0-5.5-2.1-5.5-5.4s2.4-5.4,5.5-5.4c1.4,0,2.8,0.5,3.9,1.6l-0.7,0.7
		c-0.9-0.9-2.1-1.3-3.2-1.3c-2.4,0-4.5,1.6-4.5,4.5c0,2.9,2,4.5,4.5,4.5c1.1,0,2.3-0.5,3.2-1.3L36.3,164.4z"/>
	<path class="st1" d="M39.9,151.7c0,1.1-1.7,1.1-1.7,0C38.2,150.6,39.9,150.6,39.9,151.7z M38.5,155.1v10.7h1.1v-10.7H38.5z"/>
	<path class="st1" d="M52.9,155.2c0,3.6,0,7.1,0,10.7h-1.1v-2.3c-1,1.7-2.6,2.4-4.4,2.4c-3,0-5.4-2.2-5.4-5.5s2.4-5.5,5.4-5.5
		c1.7,0,3.5,0.8,4.4,2.5v-2.3L52.9,155.2L52.9,155.2z M43.1,160.5c0,2.7,1.9,4.5,4.4,4.5c5.9,0,5.9-8.9,0-8.9
		C45,156.1,43.1,157.8,43.1,160.5z"/>
	<path class="st1" d="M56.7,155.2l0,1.9c0.7-1.5,2.2-2,3.5-2c0.8,0,1.6,0.2,2.3,0.6l-0.5,0.9c-0.6-0.3-1.2-0.5-1.8-0.5
		c-2,0-3.5,1.6-3.5,3.6v6.2h-1.1v-10.7L56.7,155.2L56.7,155.2z"/>
	<path class="st1" d="M80.2,153.7c-1.1-1.8-2.9-2-4.6-2.1c-1.8,0-4.6,0.7-4.6,3.1c0,1.9,2.1,2.4,4.6,2.9c2.9,0.6,5.9,1.1,5.9,4.3
		c0,3.4-3.5,4.2-6,4.2c-2.4,0-5-1-6.2-3.3l1-0.5c0.9,1.8,3.3,2.7,5.2,2.7c1.9,0,4.8-0.5,4.8-3.2c0-2.3-2.5-2.8-5-3.2
		c-2.8-0.5-5.6-1.1-5.6-3.9c-0.1-3.2,3.3-4.2,5.7-4.2c2.2,0,4,0.3,5.5,2.6L80.2,153.7z"/>
	<path class="st1" d="M83.9,160.5c0-3.2,2.4-5.5,5.4-5.5s5.7,1.8,5.3,6H85c0.2,2.5,2.1,4,4.3,4c1.4,0,3-0.6,3.8-1.6l0.8,0.6
		c-1,1.4-2.9,2.1-4.6,2.1C86.3,166,83.9,163.9,83.9,160.5z M93.7,160.1c0-2.6-1.7-4.1-4.3-4.1c-2.2,0-4.1,1.5-4.3,4.1H93.7z"/>
	<path class="st1" d="M104.7,157.1c-1.1-0.9-2.1-1.1-3.3-1.1c-1.7,0-3.3,0.6-3.2,2c0,1.4,1.9,1.7,3.2,1.9c1.9,0.3,4.5,0.7,4.4,3.1
		c-0.1,2.4-2.5,3-4.4,3s-3.7-0.7-4.7-2.1l0.8-0.7c0.9,1.3,2.5,1.8,3.9,1.8c1.3,0,3.3-0.3,3.3-2c0-1.5-1.7-1.8-3.5-2.1
		c-2.1-0.3-4.1-0.7-4.1-2.9c0-2.1,2.1-3,4.2-3c1.6,0,2.9,0.4,4,1.4L104.7,157.1z"/>
	<path class="st1" d="M109.6,151.7c0,1.1-1.7,1.1-1.7,0C107.9,150.6,109.6,150.6,109.6,151.7z M108.2,155.1v10.7h1.1v-10.7H108.2z"
		/>
	<path class="st1" d="M117.4,166c-3,0-5.4-2.1-5.4-5.5s2.4-5.6,5.4-5.6c3,0,5.4,2.2,5.4,5.6C122.8,163.9,120.4,166,117.4,166z
		 M117.4,165c2.4,0,4.4-1.7,4.4-4.4s-2-4.6-4.4-4.6c-2.4,0-4.4,1.8-4.4,4.6C113,163.3,115,165,117.4,165z M117.7,153.3l1.9-2.5v0
		h-1.4l-1.6,2.4v0.1C116.7,153.3,117.7,153.3,117.7,153.3z"/>
	<path class="st1" d="M126.3,155.2v1.9c0.8-1.5,2.3-2.1,3.8-2.1c2.9,0,4.8,1.7,4.8,4.7v6.2h-1.1v-6.1c0-2.4-1.5-3.7-3.8-3.7
		c-2.2,0-3.7,1.7-3.7,3.9v5.9h-1.1v-10.7H126.3z"/>
</g>
</svg>
