<?xml version="1.0" encoding="utf-8"?>
<!-- Generator: Adobe Illustrator 23.0.5, SVG Export Plug-In . SVG Version: 6.00 Build 0)  -->
<svg version="1.1" id="Capa_1" xmlns="http://www.w3.org/2000/svg" xmlns:xlink="http://www.w3.org/1999/xlink" x="0px" y="0px"
	 viewBox="0 0 141.73 226.77" style="enable-background:new 0 0 141.73 226.77;" xml:space="preserve">
<style type="text/css">
	.st0{fill:#FFFFFF;}
</style>
<g>
	<g transform="matrix(0.24 0 0 0.24 6.6489 19.2347)">
		<g>
			<g>
				<path class="st0" d="M68.46,151.93c4.68-0.78,9.47-1.19,14.03-2.42c11.71-3.15,18.52-11.91,18.67-23.04
					c0.11-7.72-4-13.16-10.03-16.67c-9.87-5.74-20.32-10.49-30.42-15.85c-9.07-4.81-18.6-9.05-26.88-15
					c-19.41-13.94-18.34-37.01,1.74-50.07c11.03-7.17,23.24-10,36.45-8.69c-2.38,0.35-4.8,0.55-7.14,1.09
					c-3.76,0.86-7.68,1.48-11.16,3.03c-13.61,6.08-16.65,22.33-5.3,31.9c6.86,5.78,15.28,9.82,23.25,14.17
					c11.23,6.13,22.84,11.59,34,17.86c3.79,2.13,7.05,5.53,9.95,8.88c8.81,10.17,8.85,24.57,0.45,36.06
					C107.06,145.5,83.98,155.02,68.46,151.93z"/>
				<g>
					<path class="st0" d="M35.3,100.12c-10.25,0-18.56,8.21-18.56,18.33c0,7.59,4.67,14.11,11.33,16.89
						c-1.38-0.94-2.52-2.1-3.4-3.53c-0.76-1.23-1.24-2.56-1.45-3.99c-0.13-0.85-0.11-1.71-0.08-2.57c0.05-1.26,0.07-2.52,0.11-3.77
						c0.06-1.94,0.13-3.88,0.19-5.82c0.04-1.26,0.07-2.52,0.1-3.77c0.02-0.6,0.04-1.2,0.07-1.83c0.31,0.26,0.6,0.49,0.88,0.73
						c1.1,0.92,2.19,1.84,3.29,2.76c0.81,0.68,1.62,1.35,2.42,2.03c0.33,0.29,0.67,0.36,1.09,0.2c0.88-0.31,1.79-0.54,2.72-0.61
						c0.78-0.06,1.57-0.09,2.36-0.07c1.25,0.03,2.46,0.29,3.64,0.7c0.36,0.13,0.67,0.09,0.96-0.16c0.98-0.83,1.96-1.65,2.95-2.48
						c0.89-0.75,1.79-1.49,2.68-2.24c0.33-0.28,0.67-0.56,1.03-0.86c0.01,0.2,0.03,0.37,0.03,0.54c0.03,1.15,0.06,2.3,0.09,3.45
						c0.07,2.44,0.15,4.89,0.23,7.33c0.05,1.51,0.07,3.02,0.13,4.53c0.06,1.57-0.21,3.08-0.83,4.52c-0.64,1.5-1.57,2.78-2.78,3.87
						c-0.1,0.09-0.2,0.17-0.3,0.26c5.76-3.11,9.66-9.15,9.66-16.09C53.86,108.32,45.55,100.12,35.3,100.12z"/>
					<path class="st0" d="M35.58,133.06c-0.37,0.49-0.87,0.86-1.44,1.15c-0.7,0.35-1.44,0.56-2.21,0.65
						c-0.41,0.05-0.82,0.07-1.23,0.09c-0.28,0.01-0.46-0.16-0.46-0.4c0-0.24,0.17-0.39,0.45-0.39c0.94-0.01,1.86-0.16,2.73-0.52
						c0.59-0.24,1.13-0.55,1.51-1.08c0.18-0.25,0.27-0.53,0.27-0.83c0-0.32-0.01-0.65,0-0.97c0-0.14-0.04-0.19-0.18-0.22
						c-0.69-0.14-1.28-0.46-1.67-1.07c-0.5-0.78-0.36-1.74,0.33-2.38c0.95-0.89,2.58-0.98,3.61-0.2c1.23,0.93,1.15,2.53-0.19,3.3
						c-0.29,0.17-0.64,0.24-0.95,0.37c-0.05,0.02-0.13,0.08-0.13,0.13c-0.01,0.4-0.03,0.8,0,1.19c0.06,0.63,0.48,1.03,0.97,1.35
						c0.76,0.5,1.61,0.75,2.51,0.86c0.36,0.04,0.72,0.06,1.09,0.08c0.23,0.02,0.39,0.17,0.39,0.39c0,0.22-0.16,0.4-0.38,0.4
						c-1.44,0-2.82-0.25-4.04-1.06C36.21,133.66,35.91,133.35,35.58,133.06z"/>
					<path class="st0" d="M24.55,116.03c0.03-0.89,0.06-1.79,0.09-2.68c0.01-0.17,0.07-0.3,0.22-0.37c0.17-0.08,0.34-0.04,0.48,0.08
						c0.52,0.43,1.03,0.87,1.55,1.3c0.64,0.54,1.29,1.08,1.93,1.61c0.16,0.13,0.23,0.29,0.17,0.49c-0.05,0.19-0.2,0.24-0.38,0.29
						c-1.24,0.31-2.42,0.76-3.39,1.64c-0.14,0.13-0.3,0.19-0.49,0.11c-0.2-0.09-0.25-0.26-0.24-0.46
						C24.52,117.37,24.54,116.7,24.55,116.03C24.55,116.03,24.55,116.03,24.55,116.03z"/>
					<path class="st0" d="M46.77,115.75c0.02,0.78,0.04,1.56,0.06,2.34c0,0.17-0.05,0.32-0.21,0.4c-0.17,0.08-0.34,0.06-0.48-0.07
						c-0.7-0.65-1.54-1.07-2.43-1.38c-0.33-0.12-0.67-0.2-1.01-0.29c-0.17-0.04-0.33-0.09-0.37-0.28c-0.05-0.19,0.01-0.34,0.17-0.47
						c0.77-0.64,1.54-1.29,2.31-1.94c0.37-0.32,0.75-0.63,1.12-0.95c0.16-0.13,0.32-0.22,0.52-0.13c0.2,0.09,0.25,0.27,0.25,0.47
						C46.72,114.21,46.74,114.98,46.77,115.75C46.76,115.75,46.77,115.75,46.77,115.75z"/>
					<path class="st0" d="M40.05,123.77c0-0.82,0.44-1.5,1.11-1.77c0.58-0.22,1.28-0.03,1.66,0.46c0.61,0.78,0.62,1.78,0.03,2.57
						c-0.58,0.77-1.73,0.8-2.34,0.05C40.2,124.7,40.05,124.26,40.05,123.77z"/>
					<path class="st0" d="M31.17,123.77c0,0.82-0.44,1.52-1.12,1.78c-0.61,0.23-1.14,0.05-1.57-0.39c-0.77-0.77-0.69-2.19,0.13-2.89
						c0.66-0.56,1.59-0.46,2.13,0.22C31.03,122.86,31.17,123.29,31.17,123.77z"/>
					<path class="st0" d="M42.87,128.86c1.11,0,2.23,0,3.34,0c0.21,0,0.38,0.14,0.42,0.33c0.04,0.18-0.07,0.38-0.25,0.45
						c-0.05,0.02-0.12,0.03-0.17,0.03c-2.23,0-4.45,0-6.68,0c-0.26,0-0.45-0.18-0.44-0.41c0-0.22,0.19-0.39,0.44-0.39
						C40.63,128.86,41.75,128.86,42.87,128.86z"/>
					<path class="st0" d="M28.57,128.86c1.11,0,2.21,0,3.32,0c0.27,0,0.43,0.16,0.43,0.41c-0.01,0.24-0.15,0.39-0.41,0.39
						c-1.44,0-2.87,0-4.31,0c-0.8,0-1.6,0-2.4,0c-0.19,0-0.33-0.09-0.39-0.27c-0.06-0.2,0.01-0.38,0.19-0.47
						c0.08-0.04,0.18-0.05,0.27-0.05C26.36,128.86,27.47,128.86,28.57,128.86z"/>
					<path class="st0" d="M28.17,133.99c-0.22,0-0.38-0.12-0.43-0.3c-0.05-0.19,0.03-0.38,0.22-0.48c0.49-0.26,0.98-0.51,1.48-0.77
						c0.94-0.49,1.88-0.97,2.81-1.46c0.25-0.13,0.48-0.07,0.6,0.15c0.12,0.22,0.03,0.44-0.22,0.57c-1.41,0.73-2.82,1.47-4.23,2.2
						C28.31,133.94,28.22,133.97,28.17,133.99z"/>
					<path class="st0" d="M38.89,130.9c0.1,0.03,0.18,0.04,0.24,0.08c1.43,0.74,2.86,1.48,4.29,2.22c0.19,0.1,0.28,0.24,0.25,0.45
						c-0.03,0.18-0.14,0.31-0.32,0.33c-0.1,0.01-0.23-0.02-0.32-0.06c-0.81-0.41-1.61-0.83-2.41-1.25
						c-0.62-0.32-1.23-0.64-1.85-0.96c-0.31-0.16-0.37-0.47-0.13-0.69C38.72,130.96,38.82,130.94,38.89,130.9z"/>
					<path class="st0" d="M40.86,130.71c0-0.25,0.23-0.45,0.48-0.4c0.55,0.1,1.1,0.21,1.65,0.32c0.7,0.14,1.41,0.28,2.11,0.42
						c0.34,0.07,0.5,0.26,0.41,0.54c-0.06,0.21-0.24,0.33-0.46,0.28c-0.65-0.13-1.3-0.27-1.96-0.4c-0.59-0.12-1.19-0.23-1.79-0.34
						C41.01,131.07,40.86,130.94,40.86,130.71z"/>
					<path class="st0" d="M25.87,131.48c0-0.22,0.12-0.36,0.38-0.41c0.68-0.14,1.37-0.27,2.06-0.41c0.58-0.11,1.15-0.23,1.73-0.35
						c0.25-0.05,0.45,0.07,0.5,0.27c0.05,0.25-0.06,0.45-0.31,0.51c-0.98,0.2-1.96,0.4-2.95,0.6c-0.3,0.06-0.61,0.13-0.91,0.18
						C26.09,131.92,25.87,131.73,25.87,131.48z"/>
				</g>
				<g>
					<path class="st0" d="M121.98,54.62c0.01,0.22,0.03,0.43,0.02,0.65c-0.06,1.37-0.26,2.73-0.62,4.06
						c-0.51,1.87-1.29,3.61-2.35,5.23c-1.11,1.7-2.47,3.18-4.07,4.42c-0.48,0.37-0.97,0.71-1.5,1.02c0.12-0.23,0.25-0.47,0.37-0.7
						c0.55-1.06,0.86-2.19,1.06-3.35c0.34-2.01,0.38-4.04,0.27-6.08c-0.06-1.15-0.19-2.3-0.32-3.45c-0.04-0.37-0.17-0.74-0.31-1.09
						c-0.11-0.31-0.12-0.62-0.1-0.94c0.09-1.15,0.03-2.29-0.13-3.43c-0.17-1.21-0.49-2.38-0.92-3.52c-0.41-1.09-0.94-2.12-1.65-3.05
						c-0.33-0.43-0.7-0.84-1.16-1.16c-0.6-0.42-1.17-0.42-1.8-0.08c-1.07,0.58-1.78,1.48-2.29,2.55c-0.36,0.77-0.61,1.58-0.91,2.38
						c-0.02,0.06-0.04,0.13-0.06,0.19c-1.19-0.01-2.36-0.28-3.55-0.02c-0.11-0.36-0.22-0.7-0.33-1.05c-0.41-1.2-0.94-2.32-1.84-3.24
						c-0.45-0.46-0.96-0.79-1.57-1.01c-0.42-0.15-0.8-0.04-1.15,0.17c-0.64,0.37-1.08,0.93-1.5,1.52c-0.84,1.19-1.41,2.5-1.83,3.88
						c-0.48,1.55-0.7,3.14-0.73,4.76c0,0.24-0.01,0.48,0.03,0.72c0.07,0.41-0.12,0.76-0.24,1.12c-0.44,1.3-0.72,2.64-0.92,4
						c-0.23,1.53-0.32,3.07-0.27,4.61c0.06,1.55,0.28,3.08,0.84,4.55c0.14,0.37,0.32,0.71,0.45,1.1c-0.35-0.28-0.72-0.55-1.06-0.84
						c-1.64-1.4-3.02-3.02-4.09-4.89c-1.07-1.87-1.79-3.87-2.16-6c-0.21-1.26-0.31-2.52-0.26-3.8c0.08-2.26,0.55-4.43,1.44-6.51
						c1.11-2.59,2.73-4.83,4.87-6.68c1.67-1.44,3.53-2.56,5.59-3.33c1.47-0.55,2.99-0.91,4.55-1.06c0.48-0.05,0.96-0.06,1.44-0.09
						c0.08,0,0.16,0.02,0.25,0.04c0.14,0.18,0.29,0.2,0.43,0c0.09-0.01,0.18-0.04,0.27-0.04c1.89,0.04,3.73,0.38,5.51,1
						c2.72,0.95,5.09,2.46,7.11,4.52c1.7,1.74,3,3.74,3.91,5.99c0.57,1.42,0.95,2.89,1.15,4.41c0.01,0.07-0.01,0.15-0.02,0.22
						c-0.29,0.29-0.57,0.59-0.86,0.87c-0.18,0.18-0.19,0.26,0,0.44C121.31,53.97,121.65,54.29,121.98,54.62z"/>
					<path class="st0" d="M101.81,56.87c-0.06,1.13-0.55,2.28-1.8,2.97c-1.44,0.8-3.19,0.23-4.05-1.26
						c-0.82-1.43-0.67-3.21,0.39-4.48c1.14-1.37,3.15-1.45,4.41-0.16C101.44,54.64,101.8,55.57,101.81,56.87z M97.61,56.42
						c0,0.56,0.46,1.01,1.02,1.02c0.56,0,1.03-0.47,1.02-1.02c-0.01-0.58-0.45-1.02-1.01-1.03C98.05,55.39,97.61,55.84,97.61,56.42z
						"/>
					<path class="st0" d="M94.55,52.99c0.02-0.94,0.12-1.87,0.32-2.78c0.3-1.4,0.77-2.74,1.52-3.97c0.35-0.56,0.78-1.07,1.19-1.6
						c0.16-0.21,0.34-0.2,0.56-0.06c0.64,0.39,1.05,0.98,1.4,1.61c0.44,0.79,0.71,1.65,0.97,2.5c0.07,0.22,0.03,0.31-0.21,0.38
						c-1.56,0.48-2.94,1.29-4.15,2.38c-0.51,0.46-0.97,0.97-1.45,1.46c-0.03,0.03-0.05,0.08-0.07,0.12
						C94.6,53.01,94.57,53,94.55,52.99z"/>
					<path class="st0" d="M112.88,52.98c-0.64-0.6-1.25-1.23-1.91-1.8c-1.15-0.98-2.45-1.69-3.9-2.13c-0.19-0.06-0.2-0.12-0.15-0.29
						c0.27-1,0.6-1.97,1.14-2.86c0.31-0.52,0.68-0.98,1.2-1.3c0.31-0.19,0.38-0.19,0.63,0.08c0.56,0.58,0.99,1.26,1.38,1.97
						c0.74,1.36,1.2,2.82,1.43,4.34c0.1,0.63,0.13,1.28,0.19,1.92C112.89,52.94,112.88,52.97,112.88,52.98z"/>
					<path class="st0" d="M103.28,67.04c0-0.54,0-1.07,0-1.61c0-0.15-0.05-0.22-0.2-0.28c-1.09-0.46-1.77-1.26-1.93-2.44
						c-0.11-0.79,0.25-1.29,1.05-1.47c1.11-0.25,2.23-0.26,3.33,0.09c0.82,0.26,1.08,0.72,0.96,1.57c-0.16,1.1-0.79,1.82-1.82,2.2
						c-0.19,0.07-0.24,0.16-0.24,0.35c0.01,1.06,0.01,2.13,0,3.19c0,0.49-0.48,0.76-0.9,0.52c-0.17-0.1-0.26-0.26-0.26-0.46
						C103.29,68.14,103.29,67.59,103.28,67.04C103.29,67.04,103.28,67.04,103.28,67.04z"/>
					<path class="st0" d="M108.82,55.4c0.57,0,1,0.44,1,1.02c0,0.56-0.44,1-1,1c-0.57,0-1.02-0.44-1.02-1.01
						C107.8,55.84,108.24,55.4,108.82,55.4z"/>
					<path class="st0" d="M121.98,54.62c-0.34-0.33-0.67-0.66-1.01-0.99c-0.19-0.18-0.18-0.26,0-0.44c0.29-0.29,0.57-0.58,0.86-0.87
						c0.03,0.18,0.08,0.37,0.1,0.55c0.04,0.5,0.06,1,0.08,1.5C122.02,54.46,121.99,54.54,121.98,54.62z"/>
				</g>
			</g>
			<g>
				<path class="st0" d="M16.09,158.71c1.59,0.04,3.04,0.44,4.37,1.28c0.79,0.48,1.15,1.15,1.01,2.07c-0.22,1.23-1.41,1.94-2.6,1.54
					c-0.53-0.18-1.01-0.44-1.54-0.62c-0.79-0.31-1.63-0.31-2.43-0.04c-1.81,0.57-2.69,2.34-2.07,4.23c0.49,1.59,1.54,2.65,3.09,3.26
					c0.66,0.26,1.37,0.44,2.03,0.71c5.86,2.21,8.11,10.01,4.23,14.91c-2.16,2.69-5.07,3.62-8.47,2.78
					c-2.78-0.71-4.81-2.47-6.09-5.03c-0.18-0.31-0.31-0.62-0.35-1.01c-0.04-0.88,0.35-1.63,1.1-2.03c0.79-0.35,1.63-0.18,2.29,0.49
					c0.26,0.31,0.49,0.71,0.71,1.06c0.75,1.23,1.76,2.16,3.18,2.6c1.98,0.62,3.97-0.22,4.94-2.03c1.63-3.13-0.22-7.32-3.66-8.2
					c-1.98-0.53-3.75-1.54-5.12-3.13c-1.76-2.07-2.47-4.45-1.94-7.14C9.48,160.96,12.48,158.71,16.09,158.71z"/>
				<path class="st0" d="M26.15,173.83c0-4.15-0.04-8.33,0-12.48c0-1.72,0.26-2.07,1.85-2.69c0.88-0.4,1.72-0.49,2.65-0.49
					c2.07,0.04,4.15,0.04,6.22,0.04c0.44,0,0.84,0,1.23,0.18c0.84,0.26,1.32,0.93,1.32,1.76c0.04,0.84-0.4,1.5-1.19,1.85
					c-0.44,0.18-0.88,0.22-1.37,0.22h-5.6c-1.06,0-1.1,0.04-1.1,1.1v4.72c0,0.88,0.09,0.97,0.93,0.97h2.47c0.26,0,0.53,0,0.79,0.04
					c0.88,0.13,1.59,0.79,1.72,1.68c0.09,0.84-0.4,1.68-1.19,2.07c-0.44,0.18-0.88,0.22-1.37,0.22h-2.07
					c-1.28,0.04-1.28,0.04-1.28,1.37c0,1.94,0,3.84,0,5.78v3.66c0.04,0.88,0.09,0.93,0.97,0.93c1.63,0.04,3.26,0,4.94,0
					c0.4,0,0.75,0,1.15,0.13c0.79,0.31,1.28,0.88,1.32,1.68c0.09,0.84-0.35,1.46-1.06,1.9c-0.44,0.22-0.93,0.31-1.41,0.31
					c-2.6,0.04-5.16,0.04-7.76,0.04c-1.41,0-2.21-0.79-2.21-2.12c0-4.28,0-8.55,0-12.88H26.15z"/>
				<path class="st0" d="M50.14,175.46c0.79,0.97,1.59,1.9,2.34,2.82c1.63,1.94,3.31,3.84,4.94,5.78c0.22,0.31,0.49,0.62,0.66,0.93
					c0.48,0.88,0.35,1.81-0.35,2.43c-0.71,0.66-1.76,0.71-2.51,0.09c-0.4-0.26-0.75-0.66-1.06-1.01c-2.73-3.22-5.47-6.44-8.2-9.7
					c-0.09-0.09-0.18-0.13-0.31-0.26c-0.31,0.26-0.18,0.57-0.18,0.84c0,2.56,0,5.12-0.04,7.67c0,0.4,0.04,0.84-0.13,1.24
					c-0.31,0.88-1.15,1.5-1.98,1.46c-0.97-0.09-1.72-0.79-1.85-1.76c-0.04-0.26-0.04-0.57-0.04-0.88c0-7.67,0.04-15.35,0.04-23.02
					c0-0.49,0-0.97,0.13-1.46c0.49-1.54,2.34-2.03,3.35-0.79c0.53,0.62,0.93,0.57,1.54,0.31c4.63-1.9,9.75,1.1,10.67,5.82
					c0.79,4.1-1.81,8.16-5.95,9.17C50.84,175.2,50.54,175.2,50.14,175.46z M45.6,167.39c-0.13,2.29,1.9,3.92,3.7,3.92
					c2.16,0,3.92-1.68,3.92-3.84c0.04-2.12-1.72-3.92-3.84-3.92C47.23,163.56,45.46,165.37,45.6,167.39z"/>
				<path class="st0" d="M69.23,179.34c0.71-2.69,1.41-5.34,2.12-7.98l2.25-8.69c0.13-0.44,0.22-0.88,0.44-1.28
					c0.44-0.93,1.41-1.32,2.29-1.1c0.88,0.26,1.46,1.01,1.46,1.98c0,0.57-0.18,1.1-0.35,1.63c-1.81,7.01-3.66,14.02-5.47,21.03
					c-0.13,0.49-0.22,0.97-0.4,1.41c-0.44,1.23-1.37,1.63-2.69,1.37s-2.07-1.01-2.42-2.34c-1.9-7.32-3.88-14.64-5.82-21.96
					c-0.09-0.31-0.18-0.66-0.22-0.97c-0.18-1.06,0.35-2.03,1.32-2.34c1.01-0.31,1.98,0.13,2.42,1.15c0.18,0.35,0.26,0.75,0.4,1.1
					l4.37,16.36c0.04,0.22,0.09,0.44,0.18,0.66C69.15,179.34,69.19,179.34,69.23,179.34z"/>
				<path class="st0" d="M79.77,181.95c0.18-6.88,0.13-13.8,0.18-20.73c0-0.53,0.04-1.06,0.22-1.54c0.35-0.79,1.06-1.24,1.85-1.24
					s1.5,0.49,1.81,1.24c0.18,0.44,0.26,0.93,0.26,1.37c-0.04,0.88,0,1.76-0.04,2.65c-0.22,6.61-0.09,13.27-0.18,19.89
					c0,0.66-0.04,1.37-0.13,2.03c-0.13,1.19-0.97,1.94-2.03,1.9c-0.97-0.04-1.85-0.79-1.9-1.9
					C79.73,184.42,79.77,183.18,79.77,181.95z"/>
				<path class="st0" d="M86.08,173.35v-11.33c0-0.53,0-1.06,0.18-1.54c0.48-1.63,2.29-2.03,3.44-0.79
					c0.53,0.62,0.53,0.62,1.37,0.31c4.23-1.46,8.55,0.66,9.7,5.07c1.01,3.88-1.59,8.07-5.51,8.82c-1.41,0.26-2.82,0.22-4.19-0.31
					c-0.79-0.31-0.79-0.26-0.84,0.62c-0.18,3.57-0.13,7.1-0.13,10.63c0,0.4,0,0.79-0.09,1.19c-0.18,0.88-0.93,1.5-1.81,1.54
					c-0.88,0.04-1.63-0.48-1.94-1.32c-0.18-0.53-0.18-1.06-0.18-1.59v-5.69C86.08,177.05,86.08,175.2,86.08,173.35z M93.67,170
					c1.9,0,3.26-1.37,3.26-3.22c-0.04-1.81-1.5-3.31-3.26-3.26c-1.76,0-3.22,1.46-3.22,3.26C90.45,168.63,91.81,170,93.67,170z"/>
				<path class="st0" d="M103.01,173.83c0-4.15-0.04-8.33,0-12.48c0-1.72,0.26-2.07,1.85-2.69c0.88-0.4,1.72-0.49,2.65-0.49
					c2.07,0.04,4.15,0.04,6.22,0.04c0.44,0,0.84,0,1.23,0.18c0.84,0.26,1.32,0.93,1.32,1.76c0.04,0.84-0.4,1.5-1.19,1.85
					c-0.44,0.18-0.88,0.22-1.37,0.22h-5.6c-1.06,0-1.1,0.04-1.1,1.1v4.72c0,0.88,0.09,0.97,0.93,0.97h2.47c0.26,0,0.53,0,0.79,0.04
					c0.88,0.13,1.59,0.79,1.72,1.68c0.09,0.84-0.4,1.68-1.19,2.07c-0.44,0.18-0.88,0.22-1.37,0.22h-2.07
					c-1.28,0.04-1.28,0.04-1.28,1.37c0,1.94,0,3.84,0,5.78v3.66c0.04,0.88,0.09,0.93,0.97,0.93c1.63,0.04,3.26,0,4.94,0
					c0.4,0,0.75,0,1.15,0.13c0.79,0.31,1.28,0.88,1.32,1.68c0.09,0.84-0.35,1.46-1.06,1.9c-0.44,0.22-0.93,0.31-1.41,0.31
					c-2.6,0.04-5.16,0.04-7.76,0.04c-1.41,0-2.21-0.79-2.21-2.12c0-4.28,0-8.55,0-12.88H103.01z"/>
				<path class="st0" d="M121.23,175.33V164.7c0-0.22,0.04-0.44,0-0.66c-0.04-0.71-0.09-0.75-0.84-0.79c-0.22,0-0.44,0-0.66,0h-5.03
					c-0.35,0-0.66,0-0.97-0.04c-0.88-0.18-1.54-0.97-1.63-1.76c-0.04-0.88,0.49-1.68,1.32-1.98c0.44-0.18,0.93-0.22,1.37-0.22
					c5.73,0,11.46-0.04,17.2-0.04c0.4,0,0.75,0.04,1.1,0.18c0.79,0.26,1.37,1.06,1.37,1.85c0.04,0.75-0.53,1.54-1.37,1.85
					c-0.4,0.13-0.84,0.13-1.23,0.13c-1.81,0.04-3.62,0.04-5.42,0.04c-1.15,0-1.15,0-1.15,1.15v21.43c0,0.4,0,0.79-0.04,1.19
					c-0.18,1.01-0.97,1.76-1.94,1.76c-0.93,0-1.81-0.75-1.98-1.72c-0.09-0.35-0.04-0.75-0.04-1.1
					C121.23,182.43,121.23,178.9,121.23,175.33z"/>
			</g>
			<g>
				<g>
					<path class="st0" d="M41.01,199.32c0.01,1.36,0.04,2.72,0,4.08c-0.01,0.37-1.08,0.18-1.07-0.24c0.04-1.36,0.01-2.72,0-4.08
						c-0.01-1.49,0.21-3.31-0.56-4.65c-0.43-0.73-1.52-1.43-2.33-0.83c-0.69,0.51-1.05,1.46-1.17,2.28
						c-0.16,1.17-0.09,2.39-0.07,3.57c0.02,1.27,0.13,2.54,0.11,3.81c0,0.18-0.27,0.24-0.53,0.18c-0.15,0.11-0.66-0.01-0.66-0.25
						c0.01-1.39,0.03-2.78,0-4.17c-0.02-1.24,0.02-2.6-0.3-3.8c-0.19-0.71-0.72-1.77-1.56-1.86c-0.89-0.1-1.48,0.55-1.83,1.34
						c0,2.91,0,5.83,0,8.74c0,0.48-1.42,0.25-1.42-0.32c0-3.37,0-6.75,0-10.12c0-0.48,1.42-0.25,1.42,0.32c0,0.07,0,0.14,0,0.21
						c0.25-0.21,0.53-0.38,0.87-0.48c1.49-0.45,2.61,0.6,3.11,1.87c0.1-0.35,0.25-0.68,0.45-1c0.57-0.89,1.39-1.22,2.43-1.08
						c0.97,0.13,1.87,0.57,2.42,1.41c0.95,1.44,0.71,3.42,0.72,5.08L41.01,199.32z"/>
					<path class="st0" d="M42.03,194.69c0-0.43,0.35-0.78,0.78-0.78c0.43,0,0.78,0.35,0.78,0.78c0,0.43-0.35,0.78-0.78,0.78
						C42.38,195.47,42.03,195.12,42.03,194.69z M43.54,196.37c0,2.35,0,4.7,0,7.05c0,0.48-1.42,0.25-1.42-0.32c0-2.35,0-4.7,0-7.05
						C42.12,195.57,43.54,195.8,43.54,196.37z"/>
					<path class="st0" d="M55.91,203.33c0.12,0.41-0.95,0.3-1.05-0.07c-0.12-0.42-0.25-0.84-0.37-1.26
						c-0.25-0.85-0.49-1.7-0.74-2.55c-0.05,0-0.1,0-0.14,0c-0.92,0-1.84,0-2.76,0c-0.44,1.3-0.88,2.6-1.32,3.9
						c-0.17,0.53-1.58,0.18-1.42-0.3c0.14-0.42,0.29-0.84,0.43-1.26c0.99-2.94,1.98-5.89,2.98-8.83c0.11-0.34,0.75-0.31,1.13-0.11
						c0.16,0.06,0.3,0.15,0.33,0.27c0.12,0.42,0.25,0.84,0.37,1.26c0.86,2.99,1.72,5.97,2.58,8.96H55.91z M53.37,198.64
						c0.04,0,0.08,0,0.13,0.01c-0.37-1.28-0.74-2.56-1.1-3.83c-0.43,1.28-0.86,2.56-1.29,3.83
						C51.87,198.65,52.62,198.65,53.37,198.64L53.37,198.64z"/>
					<path class="st0" d="M68.22,200.15c0.01,1.06,0.05,2.14,0.01,3.2c-0.02,0.37-1.09,0.17-1.07-0.25c0.04-1.02,0.01-2.05,0-3.08
						c-0.01-1.11,0.17-2.56-0.71-3.39c-0.49-0.46-1.47-0.69-2.11-0.41c-0.59,0.26-1.02,0.88-1.19,1.49
						c-0.22,0.83-0.12,1.79-0.11,2.64c0.02,0.97,0.13,1.93,0.11,2.9c0,0.19-0.3,0.24-0.57,0.17c-0.19,0.07-0.61-0.05-0.61-0.27
						c0.01-1.07,0.03-2.15-0.01-3.22c-0.03-0.86,0-1.89-0.35-2.69c-0.3-0.68-0.96-1.22-1.73-1.18c-0.71,0.04-1.27,0.42-1.62,0.96
						c0,2.13,0,4.25,0,6.38c0,0.48-1.42,0.25-1.42-0.32c0-2.46,0-4.93,0-7.39c0-0.48,1.42-0.25,1.42,0.32c0,0.04,0,0.08,0,0.12
						c1.02-0.69,2.53-0.64,3.51,0.35c0.19,0.2,0.35,0.43,0.46,0.66c0.16-0.42,0.42-0.8,0.83-1.12c1.17-0.92,3.27-0.54,4.29,0.44
						c1,0.97,0.87,2.42,0.89,3.71L68.22,200.15z"/>
					<path class="st0" d="M69.26,194.69c0-0.43,0.35-0.78,0.78-0.78s0.78,0.35,0.78,0.78c0,0.43-0.35,0.78-0.78,0.78
						S69.26,195.12,69.26,194.69z M70.78,196.37c0,2.35,0,4.7,0,7.05c0,0.48-1.42,0.25-1.42-0.32c0-2.35,0-4.7,0-7.05
						C69.36,195.57,70.78,195.8,70.78,196.37z"/>
					<path class="st0" d="M77.84,200.37c0.01,1.04,0.08,2.1-0.06,3.13c-0.14,1.06-0.49,2.3-1.5,2.85c-1.1,0.6-2.68,0.39-3.85,0.16
						c-0.2-0.04-0.7-0.24-0.63-0.53c0.07-0.31,0.58-0.26,0.81-0.21c1.01,0.19,2.38,0.37,3.08-0.56c0.59-0.79,0.72-1.94,0.76-2.89
						c0.01-0.28,0.02-0.55,0.02-0.83c-0.77,1-2.2,1.08-3.29,0.6c-1.24-0.54-1.56-1.81-1.54-3.05c0.03-1.29,0.32-2.5,1.61-3.05
						c1.2-0.5,2.59-0.21,3.64,0.49c0.07,0.05,0.12,0.1,0.15,0.14c0.38,0.05,0.79,0.25,0.79,0.56c0.02,1.06,0.02,2.13,0.03,3.19
						L77.84,200.37z M75.63,200.83c0.65-1.1,0.82-2.46,0.56-3.71c-0.02-0.09,0.01-0.15,0.07-0.19c-0.03-0.01-0.05-0.02-0.07-0.04
						c-1.01-0.67-2.39-0.69-3.11,0.42c-0.33,0.51-0.37,1.17-0.39,1.76c-0.02,0.6-0.01,1.25,0.25,1.81c0.27,0.59,0.75,0.92,1.4,0.89
						c0.61-0.03,1.01-0.45,1.31-0.95L75.63,200.83z"/>
					<path class="st0" d="M83.64,199.46c0,2.2-1.18,3.98-2.63,3.98c-1.45,0-2.63-1.78-2.63-3.98c0-2.2,1.18-3.98,2.63-3.98
						C82.46,195.49,83.64,197.27,83.64,199.46z M81.02,202.5c1.01,0.05,1.94-0.78,1.96-3.1c0.02-2.44-0.97-3.11-1.97-3.11
						c-0.87,0-1.57,1.39-1.57,3.11C79.44,201.12,80.14,202.47,81.02,202.5L81.02,202.5z"/>
					<path class="st0" d="M92.96,198.63c0.1,0.21-0.08,0.34-0.29,0.34c-1.14,0.02-2.29,0.02-3.43,0c0,1.48,0,2.96,0,4.45
						c0,0.48-1.42,0.25-1.42-0.32c0-3.27,0-6.54,0-9.81c0-0.04,0.01-0.08,0.03-0.11c-0.01-0.01-0.01-0.02-0.01-0.03
						c-0.04-0.25,0.29-0.28,0.45-0.28c1.32,0.03,2.64,0.04,3.96,0.02c0.21,0,0.59,0.05,0.71,0.28c0.1,0.21-0.08,0.34-0.29,0.34
						c-1.15,0.02-2.29,0.02-3.44,0c0.01,0.04,0.02,0.08,0.02,0.12c0,1.6,0,3.19,0,4.79c1,0.02,2,0.02,3.01,0
						c0.21,0,0.59,0.05,0.71,0.28V198.63z"/>
					<path class="st0" d="M93.47,194.69c0-0.43,0.35-0.78,0.78-0.78s0.78,0.35,0.78,0.78c0,0.43-0.35,0.78-0.78,0.78
						S93.47,195.12,93.47,194.69z M94.98,196.37c0,2.35,0,4.7,0,7.05c0,0.48-1.42,0.25-1.42-0.32c0-2.35,0-4.7,0-7.05
						C93.56,195.57,94.98,195.8,94.98,196.37z"/>
					<path class="st0" d="M98.9,195.88c2.04-0.07,4.1,1.2,4.13,3.39c0,0.17-0.31,0.25-0.42,0.25c-1.76,0.02-3.52,0.04-5.27,0.06
						c-0.06,0.59-0.1,1.21,0.03,1.76c0.31,1.31,1.9,1.84,3.07,1.33c0.32-0.13,0.71-0.09,1,0.08c0.17,0.1,0.46,0.43,0.14,0.57
						c-1.5,0.66-3.66,0.39-4.87-0.78c-0.54-0.52-0.82-1.17-0.85-1.92c-0.03-0.84,0.03-1.75,0.15-2.58c0.21-1.35,1.63-2.13,2.9-2.17
						H98.9z M97.37,198.78c1.4-0.02,2.8-0.04,4.2-0.06c-0.07-0.55-0.37-1.17-0.78-1.54c-0.76-0.72-1.86-0.56-2.65,0.01
						c-0.58,0.42-0.71,0.9-0.77,1.58L97.37,198.78z"/>
					<path class="st0" d="M105.13,193.49c0,3.3,0,6.6,0,9.91c0,0.48-1.42,0.25-1.42-0.32c0-3.3,0-6.6,0-9.91
						C103.7,192.7,105.13,192.93,105.13,193.49z"/>
					<path class="st0" d="M109.09,203.45c0-0.42,0.34-0.76,0.76-0.76c0.42,0,0.76,0.34,0.76,0.76c0,0.42-0.34,0.76-0.76,0.76
						C109.43,204.21,109.09,203.87,109.09,203.45z M109.14,201.76c0-2.96,0-5.93,0-8.89c0-0.48,1.42-0.25,1.42,0.32
						c0,2.96,0,5.93,0,8.89C110.56,202.56,109.14,202.33,109.14,201.76z"/>
				</g>
				<g>
					<path class="st0" d="M117.99,198.58c0,0.61-0.5,1.13-1.1,1.17c-0.18,0.01-0.33-0.04-0.47-0.15c-0.08-0.06-0.16-0.12-0.25-0.18
						c-0.2-0.13-0.39-0.13-0.59,0c-0.05,0.03-0.1,0.07-0.15,0.11c-0.28,0.25-0.59,0.26-0.93,0.13c-0.52-0.21-0.87-0.82-0.71-1.31
						c0.05-0.16,0.17-0.33,0.3-0.44c0.44-0.34,0.78-0.75,1.08-1.21c0.24-0.36,0.59-0.48,0.95-0.36c0.2,0.07,0.34,0.21,0.46,0.37
						c0.23,0.3,0.41,0.64,0.71,0.89c0.16,0.13,0.32,0.26,0.47,0.4C117.93,198.18,117.99,198.34,117.99,198.58z"/>
					<path class="st0" d="M118.84,196.25c-0.01,0.34-0.14,0.65-0.43,0.88c-0.44,0.34-0.96,0.16-1.06-0.4
						c-0.08-0.44,0.05-0.83,0.41-1.11c0.2-0.17,0.44-0.24,0.69-0.12c0.26,0.12,0.36,0.35,0.38,0.62
						C118.83,196.15,118.83,196.19,118.84,196.25z"/>
					<path class="st0" d="M112.91,196.27c0-0.27,0.07-0.51,0.26-0.7c0.28-0.26,0.7-0.2,0.96,0.15c0.25,0.33,0.32,0.71,0.18,1.1
						c-0.09,0.26-0.27,0.45-0.55,0.47c-0.28,0.02-0.49-0.13-0.65-0.35C112.97,196.74,112.9,196.51,112.91,196.27z"/>
					<path class="st0" d="M114.28,194.83c0-0.29,0.08-0.55,0.29-0.75c0.27-0.26,0.66-0.24,0.91,0.04c0.33,0.37,0.34,1.01,0.04,1.41
						c-0.29,0.37-0.79,0.35-1.05-0.05C114.34,195.29,114.28,195.09,114.28,194.83z"/>
					<path class="st0" d="M117.46,194.85c0,0.28-0.07,0.53-0.27,0.73c-0.28,0.29-0.65,0.28-0.92-0.01
						c-0.35-0.38-0.34-1.11,0.02-1.48c0.28-0.28,0.7-0.26,0.94,0.06C117.39,194.34,117.45,194.56,117.46,194.85z"/>
				</g>
				<g>
					<path class="st0" d="M27.14,198.58c0,0.61-0.5,1.13-1.1,1.17c-0.18,0.01-0.33-0.04-0.47-0.15c-0.08-0.06-0.16-0.12-0.25-0.18
						c-0.2-0.13-0.39-0.13-0.59,0c-0.05,0.03-0.1,0.07-0.15,0.11c-0.28,0.25-0.59,0.26-0.93,0.13c-0.52-0.21-0.87-0.82-0.71-1.31
						c0.05-0.16,0.17-0.33,0.3-0.44c0.44-0.34,0.78-0.75,1.08-1.21c0.24-0.36,0.59-0.48,0.95-0.36c0.2,0.07,0.34,0.21,0.46,0.37
						c0.23,0.3,0.41,0.64,0.71,0.89c0.16,0.13,0.32,0.26,0.47,0.4C27.08,198.18,27.14,198.34,27.14,198.58z"/>
					<path class="st0" d="M27.99,196.25c-0.01,0.34-0.14,0.65-0.43,0.88c-0.44,0.34-0.96,0.16-1.06-0.4
						c-0.08-0.44,0.05-0.83,0.41-1.11c0.2-0.17,0.44-0.24,0.69-0.12c0.26,0.12,0.36,0.35,0.38,0.62
						C27.98,196.15,27.98,196.19,27.99,196.25z"/>
					<path class="st0" d="M22.06,196.27c0-0.27,0.07-0.51,0.26-0.7c0.28-0.26,0.7-0.2,0.96,0.15c0.25,0.33,0.32,0.71,0.18,1.1
						c-0.09,0.26-0.27,0.45-0.55,0.47c-0.28,0.02-0.49-0.13-0.65-0.35C22.12,196.74,22.05,196.51,22.06,196.27z"/>
					<path class="st0" d="M23.44,194.83c0-0.29,0.08-0.55,0.29-0.75c0.27-0.26,0.66-0.24,0.91,0.04c0.33,0.37,0.34,1.01,0.04,1.41
						c-0.29,0.37-0.79,0.35-1.05-0.05C23.49,195.29,23.44,195.09,23.44,194.83z"/>
					<path class="st0" d="M26.61,194.85c0,0.28-0.07,0.53-0.27,0.73c-0.28,0.29-0.65,0.28-0.92-0.01c-0.35-0.38-0.34-1.11,0.02-1.48
						c0.28-0.28,0.7-0.26,0.94,0.06C26.54,194.34,26.61,194.56,26.61,194.85z"/>
				</g>
			</g>
		</g>
	</g>
</g>
</svg>
