<?xml version="1.0" encoding="utf-8"?>
<!-- Generator: Adobe Illustrator 23.0.5, SVG Export Plug-In . SVG Version: 6.00 Build 0)  -->
<svg version="1.1" id="Capa_1" xmlns="http://www.w3.org/2000/svg" xmlns:xlink="http://www.w3.org/1999/xlink" x="0px" y="0px"
	 viewBox="0 0 141.7 226.8" style="enable-background:new 0 0 141.7 226.8;" xml:space="preserve">
<style type="text/css">
	.st0{fill:#FFFFFF;}
</style>
<g>
	<g transform="matrix(0.24 0 0 0.24 6.6489 19.2347)">
		<g>
			<g>
				<path class="st0" d="M257.6,552.5c19.4-3.2,39.3-4.9,58.2-10c48.6-13.1,76.8-49.4,77.4-95.6c0.5-32-16.6-54.6-41.6-69.1
					c-40.9-23.8-84.3-43.5-126.2-65.7c-37.6-19.9-77.1-37.5-111.5-62.2C33.5,192,37.9,96.3,121.2,42.1c45.7-29.7,96.4-41.5,151.2-36
					c-9.9,1.5-19.9,2.3-29.6,4.5c-15.6,3.6-31.9,6.1-46.3,12.6c-56.4,25.2-69.1,92.6-22,132.3c28.5,24,63.4,40.7,96.4,58.8
					c46.6,25.4,94.7,48.1,141,74.1c15.7,8.8,29.2,22.9,41.3,36.8c36.5,42.2,36.7,101.9,1.9,149.6C417.7,525.8,322,565.3,257.6,552.5
					z"/>
				<g>
					<path class="st0" d="M120.1,337.6c-42.5,0-77,34.1-77,76c0,31.5,19.4,58.5,47,70c-5.7-3.9-10.5-8.7-14.1-14.6
						c-3.2-5.1-5.1-10.6-6-16.5c-0.5-3.5-0.5-7.1-0.3-10.7c0.2-5.2,0.3-10.5,0.5-15.6c0.2-8,0.5-16.1,0.8-24.1
						c0.2-5.2,0.3-10.5,0.4-15.6c0.1-2.5,0.2-5,0.3-7.6c1.3,1.1,2.5,2,3.6,3c4.6,3.8,9.1,7.6,13.6,11.4c3.4,2.8,6.7,5.6,10,8.4
						c1.4,1.2,2.8,1.5,4.5,0.8c3.6-1.3,7.4-2.2,11.3-2.5c3.2-0.2,6.5-0.4,9.8-0.3c5.2,0.1,10.2,1.2,15.1,2.9c1.5,0.5,2.8,0.4,4-0.7
						c4.1-3.4,8.1-6.8,12.2-10.3c3.7-3.1,7.4-6.2,11.1-9.3c1.4-1.2,2.8-2.3,4.3-3.6c0,0.8,0.1,1.5,0.1,2.2c0.1,4.8,0.2,9.5,0.4,14.3
						c0.3,10.1,0.6,20.3,1,30.4c0.2,6.3,0.3,12.5,0.5,18.8c0.2,6.5-0.9,12.8-3.4,18.7c-2.7,6.2-6.5,11.5-11.5,16.1
						c-0.4,0.4-0.8,0.7-1.2,1.1c23.9-12.9,40.1-37.9,40.1-66.7C197,371.6,162.6,337.6,120.1,337.6z"/>
					<path class="st0" d="M121.2,474.2c-1.5,2-3.6,3.6-6,4.8c-2.9,1.5-6,2.3-9.2,2.7c-1.7,0.2-3.4,0.3-5.1,0.4
						c-1.2,0-1.9-0.7-1.9-1.7c0-1,0.7-1.6,1.9-1.6c3.9,0,7.7-0.7,11.3-2.2c2.4-1,4.7-2.3,6.3-4.5c0.7-1,1.1-2.2,1.1-3.4
						c0-1.3,0-2.7,0-4c0-0.6-0.2-0.8-0.7-0.9c-2.9-0.6-5.3-1.9-6.9-4.4c-2.1-3.2-1.5-7.2,1.4-9.9c3.9-3.7,10.7-4.1,15-0.8
						c5.1,3.9,4.8,10.5-0.8,13.7c-1.2,0.7-2.7,1-3.9,1.5c-0.2,0.1-0.5,0.3-0.5,0.5c0,1.7-0.1,3.3,0,4.9c0.2,2.6,2,4.3,4,5.6
						c3.2,2.1,6.7,3.1,10.4,3.6c1.5,0.2,3,0.2,4.5,0.3c1,0.1,1.6,0.7,1.6,1.6s-0.7,1.7-1.6,1.7c-6,0-11.7-1-16.8-4.4
						C123.8,476.7,122.6,475.4,121.2,474.2z"/>
					<path class="st0" d="M75.5,403.6c0.1-3.7,0.2-7.4,0.4-11.1c0-0.7,0.3-1.2,0.9-1.5c0.7-0.3,1.4-0.2,2,0.3
						c2.2,1.8,4.3,3.6,6.4,5.4c2.7,2.2,5.4,4.5,8,6.7c0.7,0.5,1,1.2,0.7,2c-0.2,0.8-0.8,1-1.6,1.2c-5.1,1.3-10,3.2-14.1,6.8
						c-0.6,0.5-1.2,0.8-2,0.5c-0.8-0.4-1-1.1-1-1.9C75.4,409.1,75.4,406.3,75.5,403.6L75.5,403.6z"/>
					<path class="st0" d="M167.6,402.4c0.1,3.2,0.2,6.5,0.2,9.7c0,0.7-0.2,1.3-0.9,1.7c-0.7,0.3-1.4,0.2-2-0.3
						c-2.9-2.7-6.4-4.4-10.1-5.7c-1.4-0.5-2.8-0.8-4.2-1.2c-0.7-0.2-1.4-0.4-1.5-1.2c-0.2-0.8,0-1.4,0.7-1.9c3.2-2.7,6.4-5.4,9.6-8
						c1.5-1.3,3.1-2.6,4.6-3.9c0.7-0.5,1.3-0.9,2.2-0.5c0.8,0.4,1,1.1,1,1.9C167.4,396,167.5,399.2,167.6,402.4
						C167.6,402.4,167.6,402.4,167.6,402.4z"/>
					<path class="st0" d="M139.8,435.7c0-3.4,1.8-6.2,4.6-7.3c2.4-0.9,5.3-0.1,6.9,1.9c2.5,3.2,2.6,7.4,0.1,10.7
						c-2.4,3.2-7.2,3.3-9.7,0.2C140.4,439.5,139.8,437.7,139.8,435.7z"/>
					<path class="st0" d="M102.9,435.7c0,3.4-1.8,6.3-4.6,7.4c-2.5,1-4.7,0.2-6.5-1.6c-3.2-3.2-2.9-9.1,0.5-12
						c2.7-2.3,6.6-1.9,8.8,0.9C102.4,431.9,102.9,433.7,102.9,435.7z"/>
					<path class="st0" d="M151.5,456.8c4.6,0,9.2,0,13.9,0c0.9,0,1.6,0.6,1.7,1.4c0.2,0.7-0.3,1.6-1,1.9c-0.2,0.1-0.5,0.1-0.7,0.1
						c-9.2,0-18.5,0-27.7,0c-1.1,0-1.9-0.7-1.8-1.7c0-0.9,0.8-1.6,1.8-1.6C142.2,456.8,146.8,456.8,151.5,456.8z"/>
					<path class="st0" d="M92.2,456.8c4.6,0,9.2,0,13.8,0c1.1,0,1.8,0.7,1.8,1.7c0,1-0.6,1.6-1.7,1.6c-6,0-11.9,0-17.9,0
						c-3.3,0-6.6,0-10,0c-0.8,0-1.4-0.4-1.6-1.1c-0.2-0.8,0-1.6,0.8-1.9c0.3-0.2,0.7-0.2,1.1-0.2C83,456.8,87.6,456.8,92.2,456.8z"
						/>
					<path class="st0" d="M90.5,478.1c-0.9,0-1.6-0.5-1.8-1.2c-0.2-0.8,0.1-1.6,0.9-2c2-1.1,4.1-2.1,6.1-3.2c3.9-2,7.8-4,11.7-6.1
						c1-0.5,2-0.3,2.5,0.6c0.5,0.9,0.1,1.8-0.9,2.4c-5.8,3-11.7,6.1-17.5,9.1C91.1,477.9,90.7,478,90.5,478.1z"/>
					<path class="st0" d="M135,465.2c0.4,0.1,0.7,0.2,1,0.3c5.9,3.1,11.9,6.1,17.8,9.2c0.8,0.4,1.2,1,1,1.9
						c-0.1,0.7-0.6,1.3-1.3,1.4c-0.4,0-1-0.1-1.3-0.2c-3.4-1.7-6.7-3.4-10-5.2c-2.6-1.3-5.1-2.7-7.7-4c-1.3-0.7-1.5-1.9-0.5-2.9
						C134.3,465.5,134.7,465.4,135,465.2z"/>
					<path class="st0" d="M143.1,464.5c0-1,1-1.9,2-1.7c2.3,0.4,4.6,0.9,6.8,1.3c2.9,0.6,5.8,1.2,8.8,1.7c1.4,0.3,2.1,1.1,1.7,2.2
						c-0.2,0.9-1,1.4-1.9,1.2c-2.7-0.5-5.4-1.1-8.1-1.7c-2.4-0.5-4.9-1-7.4-1.4C143.7,465.9,143.1,465.4,143.1,464.5z"/>
					<path class="st0" d="M81,467.6c0-0.9,0.5-1.5,1.6-1.7c2.8-0.6,5.7-1.1,8.5-1.7c2.4-0.5,4.8-1,7.2-1.5c1-0.2,1.9,0.3,2.1,1.1
						c0.2,1-0.2,1.9-1.3,2.1c-4.1,0.8-8.1,1.7-12.2,2.5c-1.2,0.2-2.5,0.5-3.8,0.7C81.9,469.5,81,468.7,81,467.6z"/>
				</g>
				<g>
					<path class="st0" d="M479.6,148.9c0,0.9,0.1,1.8,0.1,2.7c-0.2,5.7-1.1,11.3-2.6,16.8c-2.1,7.8-5.4,15-9.7,21.7
						c-4.6,7.1-10.2,13.2-16.9,18.3c-2,1.5-4,2.9-6.2,4.2c0.5-1,1-1.9,1.5-2.9c2.3-4.4,3.6-9.1,4.4-13.9c1.4-8.3,1.6-16.8,1.1-25.2
						c-0.2-4.8-0.8-9.5-1.3-14.3c-0.2-1.5-0.7-3.1-1.3-4.5c-0.5-1.3-0.5-2.6-0.4-3.9c0.4-4.8,0.1-9.5-0.5-14.2
						c-0.7-5-2-9.9-3.8-14.6c-1.7-4.5-3.9-8.8-6.8-12.6c-1.4-1.8-2.9-3.5-4.8-4.8c-2.5-1.7-4.9-1.7-7.5-0.3
						c-4.4,2.4-7.4,6.1-9.5,10.6c-1.5,3.2-2.5,6.6-3.8,9.9c-0.1,0.2-0.2,0.5-0.2,0.8c-4.9,0-9.8-1.2-14.7-0.1
						c-0.5-1.5-0.9-2.9-1.4-4.4c-1.7-5-3.9-9.6-7.6-13.4c-1.9-1.9-4-3.3-6.5-4.2c-1.7-0.6-3.3-0.2-4.8,0.7c-2.7,1.5-4.5,3.9-6.2,6.3
						c-3.5,4.9-5.8,10.4-7.6,16.1c-2,6.4-2.9,13-3,19.7c0,1,0,2,0.1,3c0.3,1.7-0.5,3.2-1,4.6c-1.8,5.4-3,10.9-3.8,16.6
						c-1,6.3-1.3,12.7-1.1,19.1c0.2,6.4,1.2,12.8,3.5,18.9c0.6,1.5,1.3,2.9,1.9,4.6c-1.5-1.2-3-2.3-4.4-3.5
						c-6.8-5.8-12.5-12.5-17-20.3c-4.4-7.8-7.4-16.1-9-24.9c-0.9-5.2-1.3-10.5-1.1-15.8c0.3-9.4,2.3-18.4,6-27
						c4.6-10.7,11.3-20,20.2-27.7c6.9-6,14.6-10.6,23.2-13.8c6.1-2.3,12.4-3.8,18.9-4.4c2-0.2,4-0.2,6-0.4c0.3,0,0.7,0.1,1,0.2
						c0.6,0.7,1.2,0.8,1.8,0c0.4,0,0.7-0.2,1.1-0.2c7.8,0.2,15.5,1.6,22.9,4.1c11.3,3.9,21.1,10.2,29.5,18.7
						c7.1,7.2,12.4,15.5,16.2,24.8c2.4,5.9,3.9,12,4.8,18.3c0,0.3,0,0.6-0.1,0.9c-1.2,1.2-2.4,2.4-3.6,3.6c-0.7,0.7-0.8,1.1,0,1.8
						C476.8,146.2,478.2,147.5,479.6,148.9z"/>
					<path class="st0" d="M395.9,158.2c-0.2,4.7-2.3,9.5-7.5,12.3c-6,3.3-13.2,1-16.8-5.2c-3.4-5.9-2.8-13.3,1.6-18.6
						c4.7-5.7,13.1-6,18.3-0.7C394.4,149,395.9,152.8,395.9,158.2z M378.5,156.3c0,2.3,1.9,4.2,4.2,4.2c2.3,0,4.3-1.9,4.2-4.2
						c0-2.4-1.9-4.2-4.2-4.3C380.3,152.1,378.5,153.9,378.5,156.3z"/>
					<path class="st0" d="M365.8,142.1c0.1-3.9,0.5-7.8,1.3-11.5c1.2-5.8,3.2-11.4,6.3-16.5c1.5-2.3,3.2-4.4,4.9-6.6
						c0.7-0.9,1.4-0.8,2.3-0.2c2.7,1.6,4.4,4.1,5.8,6.7c1.8,3.3,2.9,6.8,4,10.4c0.3,0.9,0.1,1.3-0.9,1.6c-6.5,2-12.2,5.4-17.2,9.9
						c-2.1,1.9-4,4-6,6.1c-0.1,0.1-0.2,0.3-0.3,0.5C366,142.2,365.9,142.2,365.8,142.1z"/>
					<path class="st0" d="M441.8,142.1c-2.7-2.5-5.2-5.1-7.9-7.5c-4.8-4.1-10.2-7-16.2-8.8c-0.8-0.2-0.8-0.5-0.6-1.2
						c1.1-4.1,2.5-8.2,4.7-11.9c1.3-2.2,2.8-4.1,5-5.4c1.3-0.8,1.6-0.8,2.6,0.3c2.3,2.4,4.1,5.2,5.7,8.2c3.1,5.6,5,11.7,5.9,18
						c0.4,2.6,0.5,5.3,0.8,8C441.9,141.9,441.8,142,441.8,142.1z"/>
					<path class="st0" d="M402,200.4c0-2.2,0-4.4,0-6.7c0-0.6-0.2-0.9-0.8-1.2c-4.5-1.9-7.3-5.2-8-10.1c-0.5-3.3,1-5.4,4.4-6.1
						c4.6-1,9.2-1.1,13.8,0.4c3.4,1.1,4.5,3,4,6.5c-0.7,4.6-3.3,7.5-7.5,9.1c-0.8,0.3-1,0.7-1,1.5c0,4.4,0,8.8,0,13.2
						c0,2-2,3.2-3.7,2.2c-0.7-0.4-1.1-1.1-1.1-1.9C402,205,402,202.7,402,200.4C402,200.4,402,200.4,402,200.4z"/>
					<path class="st0" d="M425,152.1c2.4,0,4.1,1.8,4.1,4.2c0,2.3-1.8,4.1-4.1,4.1c-2.4,0-4.2-1.8-4.2-4.2S422.6,152.1,425,152.1z"
						/>
					<path class="st0" d="M479.6,148.9c-1.4-1.4-2.8-2.7-4.2-4.1c-0.8-0.7-0.7-1.1,0-1.8c1.2-1.2,2.4-2.4,3.6-3.6
						c0.1,0.7,0.3,1.5,0.4,2.3c0.2,2.1,0.2,4.1,0.3,6.2C479.7,148.2,479.6,148.5,479.6,148.9z"/>
				</g>
			</g>
			<g>
				<path class="st0" d="M40.4,580.6c6.6,0.2,12.6,1.8,18.1,5.3c3.3,2,4.8,4.8,4.2,8.6c-0.9,5.1-5.8,8-10.8,6.4
					c-2.2-0.7-4.2-1.8-6.4-2.6c-3.3-1.3-6.8-1.3-10.1-0.2c-7.5,2.4-11.2,9.7-8.6,17.5c2,6.6,6.4,11,12.8,13.5
					c2.7,1.1,5.7,1.8,8.4,2.9c24.3,9.2,33.6,41.5,17.5,61.8c-9,11.2-21,15-35.1,11.5c-11.5-2.9-19.9-10.2-25.3-20.9
					c-0.7-1.3-1.3-2.6-1.5-4.2c-0.2-3.6,1.5-6.8,4.6-8.4c3.3-1.5,6.8-0.7,9.5,2c1.1,1.3,2,2.9,2.9,4.4c3.1,5.1,7.3,9,13.2,10.8
					c8.2,2.6,16.5-0.9,20.5-8.4c6.8-13-0.9-30.4-15.2-34c-8.2-2.2-15.6-6.4-21.2-13c-7.3-8.6-10.2-18.5-8-29.6
					C13,589.9,25.4,580.6,40.4,580.6z"/>
				<path class="st0" d="M82.1,643.3c0-17.2-0.2-34.5,0-51.8c0-7.1,1.1-8.6,7.7-11.2c3.6-1.7,7.1-2,11-2c8.6,0.2,17.2,0.2,25.8,0.2
					c1.8,0,3.5,0,5.1,0.7c3.5,1.1,5.5,3.9,5.5,7.3c0.2,3.5-1.7,6.2-4.9,7.7c-1.8,0.7-3.6,0.9-5.7,0.9h-23.2c-4.4,0-4.6,0.2-4.6,4.6
					v19.6c0,3.6,0.4,4,3.9,4h10.2c1.1,0,2.2,0,3.3,0.2c3.6,0.5,6.6,3.3,7.1,7c0.4,3.5-1.7,7-4.9,8.6c-1.8,0.7-3.6,0.9-5.7,0.9h-8.6
					c-5.3,0.2-5.3,0.2-5.3,5.7c0,8,0,15.9,0,24v15.2c0.2,3.6,0.4,3.9,4,3.9c6.8,0.2,13.5,0,20.5,0c1.7,0,3.1,0,4.8,0.5
					c3.3,1.3,5.3,3.6,5.5,7c0.4,3.5-1.5,6.1-4.4,7.9c-1.8,0.9-3.9,1.3-5.8,1.3c-10.8,0.2-21.4,0.2-32.2,0.2c-5.8,0-9.2-3.3-9.2-8.8
					c0-17.8,0-35.5,0-53.4L82.1,643.3L82.1,643.3z"/>
				<path class="st0" d="M181.6,650.1c3.3,4,6.6,7.9,9.7,11.7c6.8,8,13.7,15.9,20.5,24c0.9,1.3,2,2.6,2.7,3.9
					c2,3.6,1.5,7.5-1.5,10.1c-2.9,2.7-7.3,2.9-10.4,0.4c-1.7-1.1-3.1-2.7-4.4-4.2c-11.3-13.4-22.7-26.7-34-40.2
					c-0.4-0.4-0.7-0.5-1.3-1.1c-1.3,1.1-0.7,2.4-0.7,3.5c0,10.6,0,21.2-0.2,31.8c0,1.7,0.2,3.5-0.5,5.1c-1.3,3.6-4.8,6.2-8.2,6.1
					c-4-0.4-7.1-3.3-7.7-7.3c-0.2-1.1-0.2-2.4-0.2-3.6c0-31.8,0.2-63.7,0.2-95.5c0-2,0-4,0.5-6.1c2-6.4,9.7-8.4,13.9-3.3
					c2.2,2.6,3.9,2.4,6.4,1.3c19.2-7.9,40.4,4.6,44.3,24.1c3.3,17-7.5,33.8-24.7,38C184.5,649,183.3,649,181.6,650.1z M162.8,616.6
					c-0.5,9.5,7.9,16.3,15.3,16.3c9,0,16.3-7,16.3-15.9c0.2-8.8-7.1-16.3-15.9-16.3C169.5,600.7,162.2,608.2,162.8,616.6z"/>
				<path class="st0" d="M260.8,666.1c2.9-11.2,5.8-22.1,8.8-33.1l9.3-36c0.5-1.8,0.9-3.6,1.8-5.3c1.8-3.9,5.8-5.5,9.5-4.6
					c3.6,1.1,6.1,4.2,6.1,8.2c0,2.4-0.7,4.6-1.5,6.8c-7.5,29.1-15.2,58.1-22.7,87.2c-0.5,2-0.9,4-1.7,5.8c-1.8,5.1-5.7,6.8-11.2,5.7
					c-5.5-1.1-8.6-4.2-10-9.7c-7.9-30.4-16.1-60.7-24.1-91.1c-0.4-1.3-0.7-2.7-0.9-4c-0.7-4.4,1.5-8.4,5.5-9.7
					c4.2-1.3,8.2,0.5,10,4.8c0.7,1.5,1.1,3.1,1.7,4.6l18.1,67.9c0.2,0.9,0.4,1.8,0.7,2.7C260.5,666.1,260.6,666.1,260.8,666.1z"/>
				<path class="st0" d="M304.5,677c0.7-28.5,0.5-57.2,0.7-86c0-2.2,0.2-4.4,0.9-6.4c1.5-3.3,4.4-5.1,7.7-5.1s6.2,2,7.5,5.1
					c0.7,1.8,1.1,3.9,1.1,5.7c-0.2,3.6,0,7.3-0.2,11c-0.9,27.4-0.4,55-0.7,82.5c0,2.7-0.2,5.7-0.5,8.4c-0.5,4.9-4,8-8.4,7.9
					c-4-0.2-7.7-3.3-7.9-7.9C304.3,687.2,304.5,682.1,304.5,677z"/>
				<path class="st0" d="M330.7,641.3v-47c0-2.2,0-4.4,0.7-6.4c2-6.8,9.5-8.4,14.3-3.3c2.2,2.6,2.2,2.6,5.7,1.3
					c17.5-6.1,35.5,2.7,40.2,21c4.2,16.1-6.6,33.5-22.9,36.6c-5.8,1.1-11.7,0.9-17.4-1.3c-3.3-1.3-3.3-1.1-3.5,2.6
					c-0.7,14.8-0.5,29.4-0.5,44.1c0,1.7,0,3.3-0.4,4.9c-0.7,3.6-3.9,6.2-7.5,6.4c-3.6,0.2-6.8-2-8-5.5c-0.7-2.2-0.7-4.4-0.7-6.6
					v-23.6C330.7,656.6,330.7,649,330.7,641.3z M362.2,627.4c7.9,0,13.5-5.7,13.5-13.4c-0.2-7.5-6.2-13.7-13.5-13.5
					c-7.3,0-13.4,6.1-13.4,13.5C348.8,621.7,354.4,627.4,362.2,627.4z"/>
				<path class="st0" d="M400.9,643.3c0-17.2-0.2-34.5,0-51.8c0-7.1,1.1-8.6,7.7-11.2c3.6-1.7,7.1-2,11-2c8.6,0.2,17.2,0.2,25.8,0.2
					c1.8,0,3.5,0,5.1,0.7c3.5,1.1,5.5,3.9,5.5,7.3c0.2,3.5-1.7,6.2-4.9,7.7c-1.8,0.7-3.6,0.9-5.7,0.9h-23.2c-4.4,0-4.6,0.2-4.6,4.6
					v19.6c0,3.6,0.4,4,3.9,4h10.2c1.1,0,2.2,0,3.3,0.2c3.6,0.5,6.6,3.3,7.1,7c0.4,3.5-1.7,7-4.9,8.6c-1.8,0.7-3.6,0.9-5.7,0.9h-8.6
					c-5.3,0.2-5.3,0.2-5.3,5.7c0,8,0,15.9,0,24v15.2c0.2,3.6,0.4,3.9,4,3.9c6.8,0.2,13.5,0,20.5,0c1.7,0,3.1,0,4.8,0.5
					c3.3,1.3,5.3,3.6,5.5,7c0.4,3.5-1.5,6.1-4.4,7.9c-1.8,0.9-3.9,1.3-5.8,1.3c-10.8,0.2-21.4,0.2-32.2,0.2c-5.8,0-9.2-3.3-9.2-8.8
					c0-17.8,0-35.5,0-53.4L400.9,643.3L400.9,643.3z"/>
				<path class="st0" d="M476.5,649.5v-44.1c0-0.9,0.2-1.8,0-2.7c-0.2-2.9-0.4-3.1-3.5-3.3c-0.9,0-1.8,0-2.7,0h-20.9
					c-1.5,0-2.7,0-4-0.2c-3.6-0.7-6.4-4-6.8-7.3c-0.2-3.6,2-7,5.5-8.2c1.8-0.7,3.9-0.9,5.7-0.9c23.8,0,47.5-0.2,71.3-0.2
					c1.7,0,3.1,0.2,4.6,0.7c3.3,1.1,5.7,4.4,5.7,7.7c0.2,3.1-2.2,6.4-5.7,7.7c-1.7,0.5-3.5,0.5-5.1,0.5c-7.5,0.2-15,0.2-22.5,0.2
					c-4.8,0-4.8,0-4.8,4.8v88.9c0,1.7,0,3.3-0.2,4.9c-0.7,4.2-4,7.3-8,7.3c-3.9,0-7.5-3.1-8.2-7.1c-0.4-1.5-0.2-3.1-0.2-4.6
					C476.5,679,476.5,664.3,476.5,649.5z"/>
			</g>
			<g>
				<g>
					<path class="st0" d="M143.7,749c0,5.6,0.2,11.3,0,16.9c0,1.5-4.5,0.7-4.4-1c0.2-5.6,0-11.3,0-16.9c0-6.2,0.9-13.7-2.3-19.3
						c-1.8-3-6.3-5.9-9.7-3.4c-2.9,2.1-4.4,6.1-4.9,9.5c-0.7,4.9-0.4,9.9-0.3,14.8c0.1,5.3,0.5,10.5,0.5,15.8c0,0.7-1.1,1-2.2,0.7
						c-0.6,0.5-2.7,0-2.7-1c0-5.8,0.1-11.5,0-17.3c-0.1-5.1,0.1-10.8-1.2-15.8c-0.8-2.9-3-7.3-6.5-7.7c-3.7-0.4-6.1,2.3-7.6,5.6
						c0,12.1,0,24.2,0,36.2c0,2-5.9,1-5.9-1.3c0-14,0-28,0-42c0-2,5.9-1,5.9,1.3c0,0.3,0,0.6,0,0.9c1-0.9,2.2-1.6,3.6-2
						c6.2-1.9,10.8,2.5,12.9,7.8c0.4-1.5,1-2.8,1.9-4.1c2.4-3.7,5.8-5.1,10.1-4.5c4,0.5,7.8,2.4,10,5.8c3.9,6,2.9,14.2,3,21.1
						L143.7,749z"/>
					<path class="st0" d="M148,729.8c0-1.8,1.5-3.2,3.2-3.2s3.2,1.5,3.2,3.2c0,1.8-1.5,3.2-3.2,3.2C149.4,733,148,731.6,148,729.8z
						 M154.2,736.8c0,9.7,0,19.5,0,29.2c0,2-5.9,1-5.9-1.3c0-9.7,0-19.5,0-29.2C148.4,733.5,154.2,734.4,154.2,736.8z"/>
					<path class="st0" d="M205.5,765.6c0.5,1.7-3.9,1.2-4.4-0.3c-0.5-1.7-1-3.5-1.5-5.2c-1-3.5-2-7.1-3.1-10.6c-0.2,0-0.4,0-0.6,0
						c-3.8,0-7.6,0-11.4,0c-1.8,5.4-3.6,10.8-5.5,16.2c-0.7,2.2-6.6,0.7-5.9-1.2c0.6-1.7,1.2-3.5,1.8-5.2
						c4.1-12.2,8.2-24.4,12.4-36.6c0.5-1.4,3.1-1.3,4.7-0.5c0.7,0.2,1.2,0.6,1.4,1.1c0.5,1.7,1,3.5,1.5,5.2
						C198.5,740.9,202.1,753.3,205.5,765.6L205.5,765.6L205.5,765.6z M195,746.2c0.2,0,0.3,0,0.5,0c-1.5-5.3-3.1-10.6-4.6-15.9
						c-1.8,5.3-3.6,10.6-5.4,15.9C188.8,746.2,191.9,746.2,195,746.2L195,746.2z"/>
					<path class="st0" d="M256.6,752.5c0,4.4,0.2,8.9,0,13.3c-0.1,1.5-4.5,0.7-4.4-1c0.2-4.2,0-8.5,0-12.8c0-4.6,0.7-10.6-2.9-14.1
						c-2-1.9-6.1-2.9-8.8-1.7c-2.4,1.1-4.2,3.6-4.9,6.2c-0.9,3.4-0.5,7.4-0.5,10.9c0.1,4,0.5,8,0.5,12c0,0.8-1.2,1-2.4,0.7
						c-0.8,0.3-2.5-0.2-2.5-1.1c0-4.4,0.1-8.9,0-13.4c-0.1-3.6,0-7.8-1.5-11.2c-1.2-2.8-4-5.1-7.2-4.9c-2.9,0.2-5.3,1.7-6.7,4
						c0,8.8,0,17.6,0,26.5c0,2-5.9,1-5.9-1.3c0-10.2,0-20.4,0-30.6c0-2,5.9-1,5.9,1.3c0,0.2,0,0.3,0,0.5c4.2-2.9,10.5-2.7,14.6,1.5
						c0.8,0.8,1.5,1.8,1.9,2.7c0.7-1.7,1.7-3.3,3.4-4.6c4.9-3.8,13.6-2.2,17.8,1.8C257.1,741.2,256.6,747.2,256.6,752.5L256.6,752.5
						z"/>
					<path class="st0" d="M260.9,729.8c0-1.8,1.5-3.2,3.2-3.2s3.2,1.5,3.2,3.2c0,1.8-1.5,3.2-3.2,3.2S260.9,731.6,260.9,729.8z
						 M267.2,736.8c0,9.7,0,19.5,0,29.2c0,2-5.9,1-5.9-1.3c0-9.7,0-19.5,0-29.2C261.3,733.5,267.2,734.4,267.2,736.8z"/>
					<path class="st0" d="M296.5,753.4c0,4.3,0.3,8.7-0.2,13c-0.6,4.4-2,9.5-6.2,11.8c-4.6,2.5-11.1,1.6-16,0.7
						c-0.8-0.2-2.9-1-2.6-2.2c0.3-1.3,2.4-1.1,3.4-0.9c4.2,0.8,9.9,1.5,12.8-2.3c2.4-3.3,3-8,3.2-12c0-1.2,0.1-2.3,0.1-3.4
						c-3.2,4.1-9.1,4.5-13.6,2.5c-5.1-2.2-6.5-7.5-6.4-12.6c0.1-5.4,1.3-10.4,6.7-12.6c5-2.1,10.7-0.9,15.1,2
						c0.3,0.2,0.5,0.4,0.6,0.6c1.6,0.2,3.3,1,3.3,2.3C296.5,744.5,296.5,749,296.5,753.4L296.5,753.4z M287.3,755.3
						c2.7-4.6,3.4-10.2,2.3-15.4c-0.1-0.4,0-0.6,0.3-0.8c-0.1,0-0.2-0.1-0.3-0.2c-4.2-2.8-9.9-2.9-12.9,1.7
						c-1.4,2.1-1.5,4.9-1.6,7.3c-0.1,2.5,0,5.2,1,7.5c1.1,2.4,3.1,3.8,5.8,3.7C284.5,759,286.2,757.3,287.3,755.3L287.3,755.3z"/>
					<path class="st0" d="M320.6,749.6c0,9.1-4.9,16.5-10.9,16.5s-10.9-7.4-10.9-16.5c0-9.1,4.9-16.5,10.9-16.5
						C315.7,733.1,320.6,740.5,320.6,749.6z M309.7,762.2c4.2,0.2,8-3.2,8.1-12.9c0.1-10.1-4-12.9-8.2-12.9c-3.6,0-6.5,5.8-6.5,12.9
						C303.1,756.5,306,762.1,309.7,762.2L309.7,762.2z"/>
					<path class="st0" d="M359.2,746.1c0.4,0.9-0.3,1.4-1.2,1.4c-4.7,0.1-9.5,0.1-14.2,0c0,6.1,0,12.3,0,18.5c0,2-5.9,1-5.9-1.3
						c0-13.6,0-27.1,0-40.7c0-0.2,0-0.3,0.1-0.5c0,0,0-0.1,0-0.1c-0.2-1,1.2-1.2,1.9-1.2c5.5,0.1,10.9,0.2,16.4,0.1
						c0.9,0,2.4,0.2,2.9,1.2c0.4,0.9-0.3,1.4-1.2,1.4c-4.8,0.1-9.5,0.1-14.3,0c0,0.2,0.1,0.3,0.1,0.5c0,6.6,0,13.2,0,19.9
						c4.1,0.1,8.3,0.1,12.5,0c0.9,0,2.4,0.2,2.9,1.2L359.2,746.1L359.2,746.1z"/>
					<path class="st0" d="M361.3,729.8c0-1.8,1.5-3.2,3.2-3.2s3.2,1.5,3.2,3.2c0,1.8-1.5,3.2-3.2,3.2S361.3,731.6,361.3,729.8z
						 M367.6,736.8c0,9.7,0,19.5,0,29.2c0,2-5.9,1-5.9-1.3c0-9.7,0-19.5,0-29.2C361.7,733.5,367.6,734.4,367.6,736.8z"/>
					<path class="st0" d="M383.8,734.7c8.5-0.3,17,5,17.1,14.1c0,0.7-1.3,1-1.7,1c-7.3,0.1-14.6,0.2-21.9,0.2
						c-0.2,2.4-0.4,5,0.1,7.3c1.3,5.4,7.9,7.6,12.7,5.5c1.3-0.5,2.9-0.4,4.1,0.3c0.7,0.4,1.9,1.8,0.6,2.4
						c-6.2,2.7-15.2,1.6-20.2-3.2c-2.2-2.2-3.4-4.9-3.5-8c-0.1-3.5,0.1-7.3,0.6-10.7C372.7,738.1,378.6,734.9,383.8,734.7
						L383.8,734.7L383.8,734.7z M377.5,746.8c5.8-0.1,11.6-0.2,17.4-0.2c-0.3-2.3-1.5-4.9-3.2-6.4c-3.2-3-7.7-2.3-11,0
						C378.3,741.9,377.7,743.9,377.5,746.8L377.5,746.8z"/>
					<path class="st0" d="M409.7,724.8c0,13.7,0,27.4,0,41.1c0,2-5.9,1-5.9-1.3c0-13.7,0-27.4,0-41.1
						C403.7,721.6,409.7,722.5,409.7,724.8z"/>
					<path class="st0" d="M426.1,766.1c0-1.7,1.4-3.2,3.2-3.2c1.7,0,3.2,1.4,3.2,3.2c0,1.7-1.4,3.2-3.2,3.2
						C427.5,769.3,426.1,767.9,426.1,766.1z M426.3,759.1c0-12.3,0-24.6,0-36.9c0-2,5.9-1,5.9,1.3c0,12.3,0,24.6,0,36.9
						C432.2,762.4,426.3,761.5,426.3,759.1z"/>
				</g>
				<g>
					<path class="st0" d="M463,745.9c0,2.5-2.1,4.7-4.6,4.9c-0.7,0-1.4-0.2-1.9-0.6c-0.3-0.2-0.7-0.5-1-0.7c-0.8-0.5-1.6-0.5-2.4,0
						c-0.2,0.1-0.4,0.3-0.6,0.5c-1.2,1-2.4,1.1-3.9,0.5c-2.2-0.9-3.6-3.4-2.9-5.4c0.2-0.7,0.7-1.4,1.2-1.8c1.8-1.4,3.2-3.1,4.5-5
						c1-1.5,2.4-2,3.9-1.5c0.8,0.3,1.4,0.9,1.9,1.5c1,1.2,1.7,2.7,2.9,3.7c0.7,0.5,1.3,1.1,1.9,1.7C462.8,744.3,463,744.9,463,745.9
						z"/>
					<path class="st0" d="M466.5,736.3c0,1.4-0.6,2.7-1.8,3.6c-1.8,1.4-4,0.7-4.4-1.7c-0.3-1.8,0.2-3.4,1.7-4.6
						c0.8-0.7,1.8-1,2.9-0.5c1.1,0.5,1.5,1.5,1.6,2.6C466.5,735.9,466.5,736,466.5,736.3z"/>
					<path class="st0" d="M441.9,736.4c0-1.1,0.3-2.1,1.1-2.9c1.2-1.1,2.9-0.8,4,0.6c1,1.4,1.3,2.9,0.7,4.6
						c-0.4,1.1-1.1,1.9-2.3,1.9c-1.2,0.1-2-0.5-2.7-1.5C442.2,738.3,441.9,737.4,441.9,736.4z"/>
					<path class="st0" d="M447.6,730.4c0-1.2,0.3-2.3,1.2-3.1c1.1-1.1,2.7-1,3.8,0.2c1.4,1.5,1.4,4.2,0.2,5.8
						c-1.2,1.5-3.3,1.5-4.4-0.2C447.9,732.3,447.6,731.5,447.6,730.4z"/>
					<path class="st0" d="M460.8,730.5c0,1.2-0.3,2.2-1.1,3c-1.2,1.2-2.7,1.2-3.8,0c-1.5-1.6-1.4-4.6,0.1-6.1
						c1.2-1.2,2.9-1.1,3.9,0.2C460.5,728.4,460.8,729.3,460.8,730.5z"/>
				</g>
				<g>
					<path class="st0" d="M86.2,745.9c0,2.5-2.1,4.7-4.6,4.9c-0.7,0-1.4-0.2-1.9-0.6c-0.3-0.2-0.7-0.5-1-0.7c-0.8-0.5-1.6-0.5-2.4,0
						c-0.2,0.1-0.4,0.3-0.6,0.5c-1.2,1-2.4,1.1-3.9,0.5c-2.2-0.9-3.6-3.4-2.9-5.4c0.2-0.7,0.7-1.4,1.2-1.8c1.8-1.4,3.2-3.1,4.5-5
						c1-1.5,2.4-2,3.9-1.5c0.8,0.3,1.4,0.9,1.9,1.5c1,1.2,1.7,2.7,2.9,3.7c0.7,0.5,1.3,1.1,1.9,1.7C86,744.3,86.2,744.9,86.2,745.9z
						"/>
					<path class="st0" d="M89.7,736.3c0,1.4-0.6,2.7-1.8,3.6c-1.8,1.4-4,0.7-4.4-1.7c-0.3-1.8,0.2-3.4,1.7-4.6
						c0.8-0.7,1.8-1,2.9-0.5c1.1,0.5,1.5,1.5,1.6,2.6C89.7,735.9,89.7,736,89.7,736.3z"/>
					<path class="st0" d="M65.2,736.4c0-1.1,0.3-2.1,1.1-2.9c1.2-1.1,2.9-0.8,4,0.6c1,1.4,1.3,2.9,0.7,4.6c-0.4,1.1-1.1,1.9-2.3,1.9
						c-1.2,0.1-2-0.5-2.7-1.5C65.4,738.3,65.1,737.4,65.2,736.4z"/>
					<path class="st0" d="M70.9,730.4c0-1.2,0.3-2.3,1.2-3.1c1.1-1.1,2.7-1,3.8,0.2c1.4,1.5,1.4,4.2,0.2,5.8
						c-1.2,1.5-3.3,1.5-4.4-0.2C71.1,732.3,70.9,731.5,70.9,730.4z"/>
					<path class="st0" d="M84,730.5c0,1.2-0.3,2.2-1.1,3c-1.2,1.2-2.7,1.2-3.8,0c-1.5-1.6-1.4-4.6,0.1-6.1c1.2-1.2,2.9-1.1,3.9,0.2
						C83.7,728.4,84,729.3,84,730.5z"/>
				</g>
			</g>
		</g>
	</g>
</g>
</svg>
