<?xml version="1.0" encoding="utf-8"?>
<!-- Generator: Adobe Illustrator 23.0.5, SVG Export Plug-In . SVG Version: 6.00 Build 0)  -->
<svg version="1.1" id="Capa_1" xmlns="http://www.w3.org/2000/svg" xmlns:xlink="http://www.w3.org/1999/xlink" x="0px" y="0px"
	 viewBox="0 0 340.5 147.9" style="enable-background:new 0 0 340.5 147.9;" xml:space="preserve">
<style type="text/css">
	.st0{fill:#FFFFFF;}
	.st1{enable-background:new    ;}
</style>
<g>
	<g>
		<path class="st0" d="M59.3,132.8c4.1-0.7,8.3-1.1,12.4-2.1c10.3-2.8,16.3-10.5,16.4-20.3c0.1-6.8-3.5-11.6-8.8-14.7
			c-8.7-5.1-17.9-9.2-26.8-14c-8-4.2-16.4-8-23.7-13.2C11.7,56.3,12.7,36,30.4,24.5c9.7-6.3,20.5-8.8,32.1-7.7
			c-2.1,0.3-4.2,0.5-6.3,1c-3.3,0.8-6.8,1.3-9.8,2.7c-12,5.4-14.7,19.7-4.7,28.1c6,5.1,13.5,8.7,20.5,12.5
			c9.9,5.4,20.1,10.2,30,15.7c3.3,1.9,6.2,4.9,8.8,7.8c7.8,9,7.8,21.6,0.4,31.8C93.3,127.2,73,135.6,59.3,132.8z"/>
		<g>
			<path class="st0" d="M30.1,87.2c-9,0-16.4,7.2-16.4,16.2c0,6.7,4.1,12.4,10,14.9c-1.2-0.8-2.2-1.8-3-3.1
				c-0.7-1.1-1.1-2.3-1.3-3.5c-0.1-0.8-0.1-1.5-0.1-2.3c0-1.1,0.1-2.2,0.1-3.3c0-1.7,0.1-3.4,0.2-5.1c0-1.1,0.1-2.2,0.1-3.3
				c0-0.5,0-1.1,0.1-1.6c0.3,0.2,0.5,0.4,0.8,0.6c1,0.8,1.9,1.6,2.9,2.4c0.7,0.6,1.4,1.2,2.1,1.8c0.3,0.3,0.6,0.3,1,0.2
				c0.8-0.3,1.6-0.5,2.4-0.5c0.7-0.1,1.4-0.1,2.1-0.1c1.1,0,2.2,0.3,3.2,0.6c0.3,0.1,0.6,0.1,0.8-0.1c0.9-0.7,1.7-1.5,2.6-2.2
				c0.8-0.7,1.6-1.3,2.4-2c0.3-0.3,0.6-0.5,0.9-0.8c0,0.2,0,0.3,0,0.5c0,1,0,2,0.1,3c0.1,2.2,0.1,4.3,0.2,6.5c0,1.3,0.1,2.7,0.1,4
				c0,1.4-0.2,2.7-0.7,4c-0.6,1.3-1.4,2.4-2.5,3.4c-0.1,0.1-0.2,0.2-0.3,0.2c5.1-2.7,8.5-8.1,8.5-14.2
				C46.5,94.4,39.2,87.2,30.1,87.2z"/>
			<path class="st0" d="M30.4,116.2c-0.3,0.4-0.8,0.8-1.3,1c-0.6,0.3-1.3,0.5-2,0.6c-0.4,0-0.7,0.1-1.1,0.1c-0.3,0-0.4-0.1-0.4-0.4
				c0-0.2,0.1-0.3,0.4-0.3c0.8,0,1.6-0.1,2.4-0.5c0.5-0.2,1-0.5,1.3-0.9c0.2-0.2,0.2-0.5,0.2-0.7c0-0.3,0-0.6,0-0.9
				c0-0.1,0-0.2-0.2-0.2c-0.6-0.1-1.1-0.4-1.5-0.9c-0.4-0.7-0.3-1.5,0.3-2.1c0.8-0.8,2.3-0.9,3.2-0.2c1.1,0.8,1,2.2-0.2,2.9
				c-0.3,0.2-0.6,0.2-0.8,0.3c0,0-0.1,0.1-0.1,0.1c0,0.3,0,0.7,0,1.1c0,0.6,0.4,0.9,0.9,1.2c0.7,0.4,1.4,0.7,2.2,0.8
				c0.3,0,0.6,0.1,1,0.1c0.2,0,0.3,0.2,0.3,0.3c0,0.2-0.1,0.4-0.3,0.4c-1.3,0-2.5-0.2-3.6-0.9C30.9,116.8,30.7,116.5,30.4,116.2z"/>
			<path class="st0" d="M20.6,101.2c0-0.8,0-1.6,0.1-2.4c0-0.2,0.1-0.3,0.2-0.3c0.1-0.1,0.3,0,0.4,0.1c0.5,0.4,0.9,0.8,1.4,1.2
				c0.6,0.5,1.1,0.9,1.7,1.4c0.1,0.1,0.2,0.3,0.1,0.4c0,0.2-0.2,0.2-0.3,0.3c-1.1,0.3-2.1,0.7-3,1.4c-0.1,0.1-0.3,0.2-0.4,0.1
				c-0.2-0.1-0.2-0.2-0.2-0.4C20.6,102.4,20.6,101.8,20.6,101.2C20.7,101.2,20.6,101.2,20.6,101.2z"/>
			<path class="st0" d="M40.2,101c0,0.7,0,1.4,0,2.1c0,0.2,0,0.3-0.2,0.3c-0.2,0.1-0.3,0.1-0.4-0.1c-0.6-0.6-1.3-0.9-2.1-1.2
				c-0.3-0.1-0.6-0.2-0.9-0.3c-0.2,0-0.3-0.1-0.3-0.2c0-0.2,0-0.3,0.2-0.4c0.7-0.6,1.3-1.1,2-1.7c0.3-0.3,0.7-0.6,1-0.8
				c0.1-0.1,0.3-0.2,0.5-0.1c0.2,0.1,0.2,0.2,0.2,0.4C40.2,99.6,40.2,100.3,40.2,101L40.2,101z"/>
			<path class="st0" d="M34.3,108c0-0.7,0.4-1.3,1-1.6c0.5-0.2,1.1,0,1.5,0.4c0.5,0.7,0.5,1.6,0,2.3c-0.5,0.7-1.5,0.7-2.1,0
				C34.4,108.9,34.3,108.5,34.3,108z"/>
			<path class="st0" d="M26.5,108c0,0.7-0.4,1.3-1,1.6c-0.5,0.2-1,0-1.4-0.3c-0.7-0.7-0.6-1.9,0.1-2.5c0.6-0.5,1.4-0.4,1.9,0.2
				C26.4,107.2,26.5,107.6,26.5,108z"/>
			<path class="st0" d="M36.8,112.5c1,0,2,0,2.9,0c0.2,0,0.3,0.1,0.4,0.3c0,0.2-0.1,0.3-0.2,0.4c0,0-0.1,0-0.2,0c-2,0-3.9,0-5.9,0
				c-0.2,0-0.4-0.2-0.4-0.4c0-0.2,0.2-0.3,0.4-0.3C34.8,112.5,35.8,112.5,36.8,112.5z"/>
			<path class="st0" d="M24.2,112.5c1,0,2,0,2.9,0c0.2,0,0.4,0.1,0.4,0.4c0,0.2-0.1,0.3-0.4,0.3c-1.3,0-2.5,0-3.8,0
				c-0.7,0-1.4,0-2.1,0c-0.2,0-0.3-0.1-0.3-0.2c0-0.2,0-0.3,0.2-0.4c0.1,0,0.2,0,0.2,0C22.3,112.5,23.2,112.5,24.2,112.5z"/>
			<path class="st0" d="M23.8,117c-0.2,0-0.3-0.1-0.4-0.3s0-0.3,0.2-0.4c0.4-0.2,0.9-0.4,1.3-0.7c0.8-0.4,1.6-0.9,2.5-1.3
				c0.2-0.1,0.4-0.1,0.5,0.1c0.1,0.2,0,0.4-0.2,0.5c-1.2,0.7-2.5,1.3-3.7,1.9C24,117,23.9,117,23.8,117z"/>
			<path class="st0" d="M33.3,114.3c0.1,0,0.2,0,0.2,0.1c1.3,0.7,2.5,1.3,3.8,2c0.2,0.1,0.3,0.2,0.2,0.4c0,0.2-0.1,0.3-0.3,0.3
				c-0.1,0-0.2,0-0.3-0.1c-0.7-0.4-1.4-0.7-2.1-1.1c-0.5-0.3-1.1-0.6-1.6-0.8c-0.3-0.1-0.3-0.4-0.1-0.6
				C33.1,114.4,33.2,114.3,33.3,114.3z"/>
			<path class="st0" d="M35,114.1c0-0.2,0.2-0.4,0.4-0.3c0.5,0.1,1,0.2,1.5,0.3c0.6,0.1,1.2,0.3,1.9,0.4c0.3,0.1,0.4,0.2,0.4,0.5
				c-0.1,0.2-0.2,0.3-0.4,0.3c-0.6-0.1-1.2-0.2-1.7-0.3c-0.5-0.1-1-0.2-1.6-0.3C35.2,114.5,35,114.3,35,114.1z"/>
			<path class="st0" d="M21.8,114.8c0-0.2,0.1-0.3,0.3-0.4c0.6-0.1,1.2-0.2,1.8-0.4c0.5-0.1,1-0.2,1.5-0.3c0.2,0,0.4,0.1,0.4,0.2
				c0,0.2,0,0.4-0.3,0.4c-0.9,0.2-1.7,0.3-2.6,0.5c-0.3,0.1-0.5,0.1-0.8,0.2C22,115.2,21.8,115.1,21.8,114.8z"/>
		</g>
		<g>
			<path class="st0" d="M106.5,47.1c0,0.2,0,0.4,0,0.6c-0.1,1.2-0.2,2.4-0.6,3.6c-0.4,1.6-1.1,3.2-2.1,4.6c-1,1.5-2.2,2.8-3.6,3.9
				c-0.4,0.3-0.9,0.6-1.3,0.9c0.1-0.2,0.2-0.4,0.3-0.6c0.5-0.9,0.8-1.9,0.9-3c0.3-1.8,0.3-3.6,0.2-5.3c-0.1-1-0.2-2-0.3-3
				c0-0.3-0.2-0.7-0.3-1c-0.1-0.3-0.1-0.5-0.1-0.8c0.1-1,0-2-0.1-3c-0.2-1.1-0.4-2.1-0.8-3.1c-0.4-1-0.8-1.9-1.4-2.7
				c-0.3-0.4-0.6-0.7-1-1c-0.5-0.4-1-0.4-1.6-0.1c-0.9,0.5-1.6,1.3-2,2.2c-0.3,0.7-0.5,1.4-0.8,2.1c0,0.1,0,0.1-0.1,0.2
				c-1.1,0-2.1-0.2-3.1,0c-0.1-0.3-0.2-0.6-0.3-0.9c-0.4-1-0.8-2-1.6-2.9c-0.4-0.4-0.8-0.7-1.4-0.9c-0.4-0.1-0.7,0-1,0.2
				c-0.6,0.3-0.9,0.8-1.3,1.3c-0.7,1-1.2,2.2-1.6,3.4c-0.4,1.4-0.6,2.8-0.6,4.2c0,0.2,0,0.4,0,0.6c0.1,0.4-0.1,0.7-0.2,1
				c-0.4,1.2-0.6,2.3-0.8,3.5c-0.2,1.3-0.3,2.7-0.2,4.1c0.1,1.4,0.3,2.7,0.7,4c0.1,0.3,0.3,0.6,0.4,1c-0.3-0.3-0.6-0.5-0.9-0.7
				c-1.4-1.2-2.7-2.7-3.6-4.3c-0.9-1.7-1.6-3.4-1.9-5.3c-0.2-1.1-0.3-2.2-0.2-3.3c0.1-2,0.5-3.9,1.3-5.7c1-2.3,2.4-4.3,4.3-5.9
				c1.5-1.3,3.1-2.3,4.9-2.9c1.3-0.5,2.6-0.8,4-0.9c0.4,0,0.8-0.1,1.3-0.1c0.1,0,0.1,0,0.2,0c0.1,0.2,0.3,0.2,0.4,0
				c0.1,0,0.2,0,0.2,0c1.7,0,3.3,0.3,4.8,0.9c2.4,0.8,4.5,2.2,6.3,4c1.5,1.5,2.6,3.3,3.4,5.3c0.5,1.3,0.8,2.5,1,3.9
				c0,0.1,0,0.1,0,0.2c-0.3,0.3-0.5,0.5-0.8,0.8c-0.2,0.2-0.2,0.2,0,0.4C105.9,46.5,106.2,46.8,106.5,47.1z"/>
			<path class="st0" d="M88.7,49.1c-0.1,1-0.5,2-1.6,2.6c-1.3,0.7-2.8,0.2-3.6-1.1c-0.7-1.3-0.6-2.8,0.3-3.9c1-1.2,2.8-1.3,3.9-0.1
				C88.4,47.2,88.7,48,88.7,49.1z M85,48.7c0,0.5,0.4,0.9,0.9,0.9c0.5,0,0.9-0.4,0.9-0.9c0-0.5-0.4-0.9-0.9-0.9
				C85.4,47.8,85,48.2,85,48.7z"/>
			<path class="st0" d="M82.3,45.7c0-0.8,0.1-1.6,0.3-2.5c0.3-1.2,0.7-2.4,1.3-3.5c0.3-0.5,0.7-0.9,1-1.4c0.1-0.2,0.3-0.2,0.5-0.1
				c0.6,0.3,0.9,0.9,1.2,1.4c0.4,0.7,0.6,1.5,0.8,2.2c0.1,0.2,0,0.3-0.2,0.3c-1.4,0.4-2.6,1.1-3.7,2.1
				C83.2,44.7,82.8,45.2,82.3,45.7C82.4,45.7,82.4,45.7,82.3,45.7C82.3,45.7,82.3,45.7,82.3,45.7z"/>
			<path class="st0" d="M98.4,45.7c-0.6-0.5-1.1-1.1-1.7-1.6c-1-0.9-2.2-1.5-3.4-1.9c-0.2,0-0.2-0.1-0.1-0.3c0.2-0.9,0.5-1.7,1-2.5
				c0.3-0.5,0.6-0.9,1.1-1.2c0.3-0.2,0.3-0.2,0.6,0.1c0.5,0.5,0.9,1.1,1.2,1.7c0.7,1.2,1.1,2.5,1.3,3.8C98.4,44.5,98.4,45,98.4,45.7
				C98.5,45.7,98.4,45.7,98.4,45.7z"/>
			<path class="st0" d="M90,58.1c0-0.5,0-0.9,0-1.4c0-0.1,0-0.2-0.2-0.3c-1-0.4-1.6-1.1-1.7-2.2c-0.1-0.7,0.2-1.1,0.9-1.3
				c1-0.2,2-0.2,2.9,0.1c0.7,0.2,0.9,0.6,0.8,1.4c-0.1,1-0.7,1.6-1.6,1.9c-0.2,0.1-0.2,0.1-0.2,0.3c0,0.9,0,1.9,0,2.8
				c0,0.4-0.4,0.7-0.8,0.5c-0.1-0.1-0.2-0.2-0.2-0.4C90,59,90,58.6,90,58.1L90,58.1z"/>
			<path class="st0" d="M94.9,47.8c0.5,0,0.9,0.4,0.9,0.9c0,0.5-0.4,0.9-0.9,0.9c-0.5,0-0.9-0.4-0.9-0.9
				C94,48.2,94.4,47.8,94.9,47.8z"/>
			<path class="st0" d="M106.5,47.1c-0.3-0.3-0.6-0.6-0.9-0.9c-0.2-0.2-0.2-0.2,0-0.4c0.3-0.3,0.5-0.5,0.8-0.8
				c0,0.2,0.1,0.3,0.1,0.5c0,0.4,0.1,0.9,0.1,1.3C106.5,47,106.5,47.1,106.5,47.1z"/>
		</g>
	</g>
	<g>
		<g class="st1">
			<path class="st0" d="M140.8,42.6c2.5,0.1,4.8,0.7,6.9,2c1.3,0.8,1.8,1.8,1.6,3.3c-0.4,2-2.2,3.1-4.1,2.5c-0.8-0.3-1.6-0.7-2.5-1
				c-1.3-0.5-2.6-0.5-3.9-0.1c-2.9,0.9-4.3,3.7-3.3,6.7c0.8,2.5,2.5,4.2,4.9,5.2c1.1,0.4,2.2,0.7,3.2,1.1
				c9.3,3.5,12.9,15.9,6.7,23.7c-3.4,4.3-8.1,5.7-13.5,4.4c-4.4-1.1-7.6-3.9-9.7-8c-0.3-0.5-0.5-1-0.6-1.6c-0.1-1.4,0.6-2.6,1.8-3.2
				c1.3-0.6,2.6-0.3,3.6,0.8c0.4,0.5,0.8,1.1,1.1,1.7c1.2,2,2.8,3.4,5,4.1c3.2,1,6.3-0.4,7.9-3.2c2.6-5-0.4-11.6-5.8-13
				c-3.2-0.8-6-2.5-8.1-5c-2.8-3.3-3.9-7.1-3.1-11.4C130.3,46.2,135.1,42.6,140.8,42.6z"/>
			<path class="st0" d="M156,66.7c0-6.6-0.1-13.2,0-19.8c0-2.7,0.4-3.3,2.9-4.3c1.4-0.6,2.7-0.8,4.2-0.8c3.3,0.1,6.6,0.1,9.9,0.1
				c0.7,0,1.3,0,2,0.3c1.3,0.4,2.1,1.5,2.1,2.8c0.1,1.3-0.6,2.4-1.9,2.9c-0.7,0.3-1.4,0.4-2.2,0.4h-8.9c-1.7,0-1.8,0.1-1.8,1.8v7.5
				c0,1.4,0.1,1.5,1.5,1.5h3.9c0.4,0,0.8,0,1.3,0.1c1.4,0.2,2.5,1.3,2.7,2.7c0.1,1.3-0.6,2.7-1.9,3.3c-0.7,0.3-1.4,0.4-2.2,0.4h-3.3
				c-2,0.1-2,0.1-2,2.2c0,3.1,0,6.1,0,9.2v5.8c0.1,1.4,0.1,1.5,1.5,1.5c2.6,0.1,5.2,0,7.9,0c0.6,0,1.2,0,1.8,0.2
				c1.3,0.5,2,1.4,2.1,2.7c0.1,1.3-0.6,2.3-1.7,3c-0.7,0.4-1.5,0.5-2.2,0.5c-4.1,0.1-8.2,0.1-12.3,0.1c-2.2,0-3.5-1.3-3.5-3.4
				C156,80.3,156,73.5,156,66.7L156,66.7z"/>
			<path class="st0" d="M193.4,69.3c1.3,1.5,2.5,3,3.7,4.5c2.6,3.1,5.3,6.1,7.9,9.2c0.4,0.5,0.8,1,1.1,1.5c0.8,1.4,0.6,2.9-0.6,3.9
				c-1.1,1.1-2.8,1.1-4,0.1c-0.6-0.4-1.2-1.1-1.7-1.6c-4.3-5.1-8.7-10.2-13-15.4c-0.1-0.1-0.3-0.2-0.5-0.4c-0.5,0.4-0.3,0.9-0.3,1.3
				c0,4.1,0,8.1-0.1,12.2c0,0.6,0.1,1.3-0.2,2c-0.5,1.4-1.8,2.4-3.2,2.3c-1.5-0.1-2.7-1.3-2.9-2.8c-0.1-0.4-0.1-0.9-0.1-1.4
				c0-12.2,0.1-24.4,0.1-36.6c0-0.8,0-1.5,0.2-2.3c0.8-2.5,3.7-3.2,5.3-1.3c0.8,1,1.5,0.9,2.5,0.5c7.4-3,15.5,1.8,17,9.3
				c1.3,6.5-2.9,13-9.5,14.6C194.5,68.9,194,68.9,193.4,69.3z M186.2,56.4c-0.2,3.6,3,6.2,5.9,6.2c3.4,0,6.2-2.7,6.2-6.1
				c0.1-3.4-2.7-6.2-6.1-6.2C188.8,50.3,186,53.2,186.2,56.4z"/>
			<path class="st0" d="M223,75.4c1.1-4.3,2.2-8.5,3.4-12.7l3.6-13.8c0.2-0.7,0.4-1.4,0.7-2c0.7-1.5,2.2-2.1,3.6-1.8
				c1.4,0.4,2.3,1.6,2.3,3.2c0,0.9-0.3,1.8-0.6,2.6c-2.9,11.1-5.8,22.3-8.7,33.4c-0.2,0.8-0.3,1.5-0.6,2.2c-0.7,2-2.2,2.6-4.3,2.2
				c-2.1-0.4-3.3-1.6-3.9-3.7c-3-11.6-6.2-23.3-9.3-34.9c-0.1-0.5-0.3-1.1-0.3-1.5c-0.3-1.7,0.6-3.2,2.1-3.7
				c1.6-0.5,3.2,0.2,3.9,1.8c0.3,0.6,0.4,1.2,0.6,1.8l6.9,26c0.1,0.4,0.1,0.7,0.3,1.1C222.8,75.4,222.9,75.4,223,75.4z"/>
			<path class="st0" d="M239,79.6c0.3-10.9,0.2-21.9,0.3-32.9c0-0.8,0.1-1.7,0.4-2.5c0.6-1.3,1.7-2,2.9-2s2.4,0.8,2.9,2
				c0.3,0.7,0.4,1.5,0.4,2.2c-0.1,1.4,0,2.8-0.1,4.2c-0.3,10.5-0.1,21.1-0.3,31.6c0,1.1-0.1,2.2-0.2,3.2c-0.2,1.9-1.5,3.1-3.2,3
				c-1.5-0.1-2.9-1.3-3-3C238.9,83.5,239,81.5,239,79.6z"/>
			<path class="st0" d="M248.2,65.9v-18c0-0.8,0-1.7,0.3-2.5c0.8-2.6,3.6-3.2,5.5-1.3c0.8,1,0.8,1,2.2,0.5
				c6.7-2.3,13.6,1.1,15.4,8.1c1.6,6.2-2.5,12.8-8.8,14c-2.2,0.4-4.5,0.4-6.7-0.5c-1.3-0.5-1.3-0.4-1.3,1
				c-0.3,5.7-0.2,11.3-0.2,16.9c0,0.6,0,1.3-0.1,1.9c-0.3,1.4-1.5,2.4-2.9,2.5c-1.4,0.1-2.6-0.8-3.1-2.1c-0.3-0.8-0.3-1.7-0.3-2.5
				v-9C248.2,71.8,248.2,68.9,248.2,65.9z M260.3,60.6c3,0,5.2-2.2,5.2-5.1c-0.1-2.9-2.4-5.3-5.2-5.2c-2.8,0-5.1,2.3-5.1,5.2
				C255.2,58.4,257.3,60.6,260.3,60.6z"/>
			<path class="st0" d="M274.4,66.7c0-6.6-0.1-13.2,0-19.8c0-2.7,0.4-3.3,2.9-4.3c1.4-0.6,2.7-0.8,4.2-0.8c3.3,0.1,6.6,0.1,9.9,0.1
				c0.7,0,1.3,0,2,0.3c1.3,0.4,2.1,1.5,2.1,2.8c0.1,1.3-0.6,2.4-1.9,2.9c-0.7,0.3-1.4,0.4-2.2,0.4h-8.9c-1.7,0-1.8,0.1-1.8,1.8v7.5
				c0,1.4,0.1,1.5,1.5,1.5h3.9c0.4,0,0.8,0,1.3,0.1c1.4,0.2,2.5,1.3,2.7,2.7c0.1,1.3-0.6,2.7-1.9,3.3c-0.7,0.3-1.4,0.4-2.2,0.4h-3.3
				c-2,0.1-2,0.1-2,2.2c0,3.1,0,6.1,0,9.2v5.8c0.1,1.4,0.1,1.5,1.5,1.5c2.6,0.1,5.2,0,7.9,0c0.6,0,1.2,0,1.8,0.2
				c1.3,0.5,2,1.4,2.1,2.7c0.1,1.3-0.6,2.3-1.7,3c-0.7,0.4-1.5,0.5-2.2,0.5c-4.1,0.1-8.2,0.1-12.3,0.1c-2.2,0-3.5-1.3-3.5-3.4
				C274.3,80.3,274.3,73.5,274.4,66.7L274.4,66.7z"/>
			<path class="st0" d="M302.5,69.1V52.2c0-0.4,0.1-0.7,0-1.1c-0.1-1.1-0.1-1.2-1.3-1.3c-0.4,0-0.7,0-1.1,0h-8c-0.6,0-1.1,0-1.5-0.1
				c-1.4-0.3-2.5-1.5-2.6-2.8c-0.1-1.4,0.8-2.7,2.1-3.2c0.7-0.3,1.5-0.4,2.2-0.4c9.1,0,18.2-0.1,27.3-0.1c0.6,0,1.2,0.1,1.8,0.3
				c1.3,0.4,2.2,1.7,2.2,2.9c0.1,1.2-0.8,2.5-2.2,2.9c-0.6,0.2-1.3,0.2-2,0.2c-2.9,0.1-5.7,0.1-8.6,0.1c-1.8,0-1.8,0-1.8,1.8v34.1
				c0,0.6,0,1.3-0.1,1.9c-0.3,1.6-1.5,2.8-3.1,2.8c-1.5,0-2.9-1.2-3.2-2.7c-0.1-0.6-0.1-1.2-0.1-1.8
				C302.5,80.3,302.5,74.7,302.5,69.1z"/>
		</g>
		<g>
			<g class="st1">
				<path class="st0" d="M180.4,107.2c0,2.2,0.1,4.3,0,6.5c0,0.6-1.7,0.3-1.7-0.4c0.1-2.2,0-4.3,0-6.5c0-2.4,0.3-5.3-0.9-7.4
					c-0.7-1.2-2.4-2.3-3.7-1.3c-1.1,0.8-1.7,2.3-1.9,3.6c-0.3,1.9-0.1,3.8-0.1,5.7c0,2,0.2,4,0.2,6.1c0,0.3-0.4,0.4-0.8,0.3
					c-0.2,0.2-1.1,0-1.1-0.4c0-2.2,0-4.4,0-6.6c0-2,0-4.1-0.5-6c-0.3-1.1-1.1-2.8-2.5-3c-1.4-0.2-2.4,0.9-2.9,2.1
					c0,4.6,0,9.3,0,13.9c0,0.8-2.3,0.4-2.3-0.5c0-5.4,0-10.7,0-16.1c0-0.8,2.3-0.4,2.3,0.5c0,0.1,0,0.2,0,0.3
					c0.4-0.3,0.8-0.6,1.4-0.8c2.4-0.7,4.1,1,4.9,3c0.2-0.6,0.4-1.1,0.7-1.6c0.9-1.4,2.2-1.9,3.9-1.7c1.5,0.2,3,0.9,3.9,2.2
					C180.8,101.4,180.5,104.6,180.4,107.2L180.4,107.2z"/>
				<path class="st0" d="M182.1,99.8c0-0.7,0.6-1.2,1.2-1.2c0.7,0,1.2,0.6,1.2,1.2s-0.6,1.2-1.2,1.2
					C182.6,101.1,182.1,100.5,182.1,99.8z M184.5,102.5c0,3.7,0,7.5,0,11.2c0,0.8-2.3,0.4-2.3-0.5c0-3.7,0-7.5,0-11.2
					C182.2,101.2,184.5,101.6,184.5,102.5z"/>
				<path class="st0" d="M204.1,113.6c0.2,0.6-1.5,0.5-1.7-0.1c-0.2-0.7-0.4-1.3-0.6-2c-0.4-1.3-0.8-2.7-1.2-4c-0.1,0-0.2,0-0.2,0
					c-1.5,0-2.9,0-4.4,0c-0.7,2.1-1.4,4.1-2.1,6.2c-0.3,0.8-2.5,0.3-2.3-0.5c0.2-0.7,0.5-1.3,0.7-2c1.6-4.7,3.2-9.4,4.7-14
					c0.2-0.5,1.2-0.5,1.8-0.2c0.3,0.1,0.5,0.2,0.5,0.4c0.2,0.7,0.4,1.3,0.6,2C201.4,104.1,202.8,108.8,204.1,113.6L204.1,113.6z
					 M200.1,106.1c0.1,0,0.1,0,0.2,0c-0.6-2-1.2-4.1-1.8-6.1c-0.7,2-1.4,4.1-2,6.1C197.7,106.1,198.9,106.1,200.1,106.1L200.1,106.1
					z"/>
				<path class="st0" d="M223.7,108.5c0,1.7,0.1,3.4,0,5.1c0,0.6-1.7,0.3-1.7-0.4c0.1-1.6,0-3.3,0-4.9c0-1.8,0.3-4.1-1.1-5.4
					c-0.8-0.7-2.3-1.1-3.3-0.7c-0.9,0.4-1.6,1.4-1.9,2.4c-0.4,1.3-0.2,2.8-0.2,4.2c0,1.5,0.2,3.1,0.2,4.6c0,0.3-0.5,0.4-0.9,0.3
					c-0.3,0.1-1-0.1-1-0.4c0-1.7,0-3.4,0-5.1c0-1.4,0-3-0.6-4.3c-0.5-1.1-1.5-1.9-2.7-1.9c-1.1,0.1-2,0.7-2.6,1.5
					c0,3.4,0,6.8,0,10.1c0,0.8-2.3,0.4-2.3-0.5c0-3.9,0-7.8,0-11.8c0-0.8,2.3-0.4,2.3,0.5c0,0.1,0,0.1,0,0.2c1.6-1.1,4-1,5.6,0.6
					c0.3,0.3,0.6,0.7,0.7,1.1c0.3-0.7,0.7-1.3,1.3-1.8c1.9-1.5,5.2-0.9,6.8,0.7C223.9,104.2,223.7,106.5,223.7,108.5L223.7,108.5z"
					/>
				<path class="st0" d="M225.3,99.8c0-0.7,0.6-1.2,1.2-1.2s1.2,0.6,1.2,1.2s-0.6,1.2-1.2,1.2S225.3,100.5,225.3,99.8z M227.8,102.5
					c0,3.7,0,7.5,0,11.2c0,0.8-2.3,0.4-2.3-0.5c0-3.7,0-7.5,0-11.2C225.5,101.2,227.8,101.6,227.8,102.5z"/>
				<path class="st0" d="M239,108.9c0,1.7,0.1,3.3-0.1,5c-0.2,1.7-0.8,3.7-2.4,4.5c-1.8,1-4.3,0.6-6.1,0.3c-0.3-0.1-1.1-0.4-1-0.8
					c0.1-0.5,0.9-0.4,1.3-0.3c1.6,0.3,3.8,0.6,4.9-0.9c0.9-1.3,1.1-3.1,1.2-4.6c0-0.4,0-0.9,0-1.3c-1.2,1.6-3.5,1.7-5.2,1
					c-2-0.9-2.5-2.9-2.5-4.8c0-2,0.5-4,2.6-4.8c1.9-0.8,4.1-0.3,5.8,0.8c0.1,0.1,0.2,0.2,0.2,0.2c0.6,0.1,1.3,0.4,1.3,0.9
					C239,105.5,239,107.2,239,108.9L239,108.9z M235.5,109.6c1-1.8,1.3-3.9,0.9-5.9c0-0.1,0-0.2,0.1-0.3c0,0-0.1,0-0.1-0.1
					c-1.6-1.1-3.8-1.1-4.9,0.7c-0.5,0.8-0.6,1.9-0.6,2.8c0,1,0,2,0.4,2.9c0.4,0.9,1.2,1.5,2.2,1.4C234.4,111,235,110.4,235.5,109.6
					L235.5,109.6z"/>
				<path class="st0" d="M248.2,107.4c0,3.5-1.9,6.3-4.2,6.3s-4.2-2.8-4.2-6.3c0-3.5,1.9-6.3,4.2-6.3S248.2,103.9,248.2,107.4z
					 M244,112.2c1.6,0.1,3.1-1.2,3.1-4.9c0-3.9-1.5-4.9-3.1-4.9c-1.4,0-2.5,2.2-2.5,4.9C241.5,110.1,242.6,112.2,244,112.2
					L244,112.2z"/>
				<path class="st0" d="M263,106.1c0.2,0.3-0.1,0.5-0.5,0.5c-1.8,0-3.6,0-5.5,0c0,2.4,0,4.7,0,7.1c0,0.8-2.3,0.4-2.3-0.5
					c0-5.2,0-10.4,0-15.6c0-0.1,0-0.1,0-0.2c0,0,0,0,0,0c-0.1-0.4,0.5-0.4,0.7-0.4c2.1,0,4.2,0.1,6.3,0c0.3,0,0.9,0.1,1.1,0.4
					c0.2,0.3-0.1,0.5-0.5,0.5c-1.8,0-3.6,0-5.5,0c0,0.1,0,0.1,0,0.2c0,2.5,0,5.1,0,7.6c1.6,0,3.2,0,4.8,0
					C262.2,105.7,262.8,105.8,263,106.1L263,106.1z"/>
				<path class="st0" d="M263.8,99.8c0-0.7,0.6-1.2,1.2-1.2s1.2,0.6,1.2,1.2s-0.6,1.2-1.2,1.2S263.8,100.5,263.8,99.8z M266.2,102.5
					c0,3.7,0,7.5,0,11.2c0,0.8-2.3,0.4-2.3-0.5c0-3.7,0-7.5,0-11.2C264,101.2,266.2,101.6,266.2,102.5z"/>
				<path class="st0" d="M272.4,101.7c3.3-0.1,6.5,1.9,6.6,5.4c0,0.3-0.5,0.4-0.7,0.4c-2.8,0-5.6,0.1-8.4,0.1
					c-0.1,0.9-0.2,1.9,0,2.8c0.5,2.1,3,2.9,4.9,2.1c0.5-0.2,1.1-0.1,1.6,0.1c0.3,0.2,0.7,0.7,0.2,0.9c-2.4,1.1-5.8,0.6-7.7-1.2
					c-0.9-0.8-1.3-1.9-1.3-3.1c0-1.3,0-2.8,0.2-4.1C268.2,103,270.5,101.8,272.4,101.7L272.4,101.7z M270,106.3
					c2.2,0,4.5-0.1,6.7-0.1c-0.1-0.9-0.6-1.9-1.2-2.5c-1.2-1.1-3-0.9-4.2,0C270.3,104.5,270.1,105.2,270,106.3L270,106.3z"/>
				<path class="st0" d="M282.3,97.9c0,5.2,0,10.5,0,15.7c0,0.8-2.3,0.4-2.3-0.5c0-5.2,0-10.5,0-15.7
					C280.1,96.7,282.3,97,282.3,97.9z"/>
				<path class="st0" d="M288.7,113.8c0-0.7,0.5-1.2,1.2-1.2c0.7,0,1.2,0.5,1.2,1.2c0,0.7-0.5,1.2-1.2,1.2
					C289.2,115,288.7,114.4,288.7,113.8z M288.7,111.1c0-4.7,0-9.4,0-14.1c0-0.8,2.3-0.4,2.3,0.5c0,4.7,0,9.4,0,14.1
					C291,112.3,288.7,112,288.7,111.1z"/>
			</g>
			<g>
				<path class="st0" d="M302.8,106c0,1-0.8,1.8-1.8,1.9c-0.3,0-0.5-0.1-0.8-0.2c-0.1-0.1-0.3-0.2-0.4-0.3c-0.3-0.2-0.6-0.2-0.9,0
					c-0.1,0.1-0.2,0.1-0.2,0.2c-0.5,0.4-0.9,0.4-1.5,0.2c-0.8-0.3-1.4-1.3-1.1-2.1c0.1-0.3,0.3-0.5,0.5-0.7c0.7-0.5,1.2-1.2,1.7-1.9
					c0.4-0.6,0.9-0.8,1.5-0.6c0.3,0.1,0.5,0.3,0.7,0.6c0.4,0.5,0.6,1,1.1,1.4c0.3,0.2,0.5,0.4,0.7,0.6
					C302.7,105.4,302.8,105.6,302.8,106z"/>
				<path class="st0" d="M304.1,102.3c0,0.5-0.2,1-0.7,1.4c-0.7,0.6-1.5,0.3-1.7-0.6c-0.1-0.7,0.1-1.3,0.6-1.8
					c0.3-0.3,0.7-0.4,1.1-0.2c0.4,0.2,0.6,0.6,0.6,1C304.1,102.2,304.1,102.2,304.1,102.3z"/>
				<path class="st0" d="M294.7,102.3c0-0.4,0.1-0.8,0.4-1.1c0.4-0.4,1.1-0.3,1.5,0.2c0.4,0.5,0.5,1.1,0.3,1.8
					c-0.1,0.4-0.4,0.7-0.9,0.8c-0.5,0-0.8-0.2-1-0.6C294.8,103.1,294.7,102.7,294.7,102.3z"/>
				<path class="st0" d="M296.9,100.1c0-0.5,0.1-0.9,0.5-1.2c0.4-0.4,1-0.4,1.4,0.1c0.5,0.6,0.5,1.6,0.1,2.2
					c-0.5,0.6-1.3,0.6-1.7-0.1C297,100.8,296.9,100.5,296.9,100.1z"/>
				<path class="st0" d="M302,100.1c0,0.4-0.1,0.8-0.4,1.2c-0.4,0.5-1,0.4-1.5,0c-0.6-0.6-0.5-1.8,0-2.3c0.5-0.4,1.1-0.4,1.5,0.1
					C301.8,99.3,302,99.6,302,100.1z"/>
			</g>
			<g>
				<path class="st0" d="M158.4,106c0,1-0.8,1.8-1.8,1.9c-0.3,0-0.5-0.1-0.8-0.2c-0.1-0.1-0.3-0.2-0.4-0.3c-0.3-0.2-0.6-0.2-0.9,0
					c-0.1,0.1-0.2,0.1-0.2,0.2c-0.4,0.4-0.9,0.4-1.5,0.2c-0.8-0.3-1.4-1.3-1.1-2.1c0.1-0.3,0.3-0.5,0.5-0.7c0.7-0.5,1.2-1.2,1.7-1.9
					c0.4-0.6,0.9-0.8,1.5-0.6c0.3,0.1,0.5,0.3,0.7,0.6c0.4,0.5,0.6,1,1.1,1.4c0.3,0.2,0.5,0.4,0.7,0.6
					C158.3,105.4,158.4,105.6,158.4,106z"/>
				<path class="st0" d="M159.7,102.3c0,0.5-0.2,1-0.7,1.4c-0.7,0.6-1.5,0.3-1.7-0.6c-0.1-0.7,0.1-1.3,0.6-1.8
					c0.3-0.3,0.7-0.4,1.1-0.2c0.4,0.2,0.6,0.6,0.6,1C159.7,102.2,159.7,102.2,159.7,102.3z"/>
				<path class="st0" d="M150.3,102.3c0-0.4,0.1-0.8,0.4-1.1c0.4-0.4,1.1-0.3,1.5,0.2c0.4,0.5,0.5,1.1,0.3,1.8
					c-0.1,0.4-0.4,0.7-0.9,0.8c-0.4,0-0.8-0.2-1-0.6C150.4,103.1,150.3,102.7,150.3,102.3z"/>
				<path class="st0" d="M152.5,100.1c0-0.5,0.1-0.9,0.5-1.2c0.4-0.4,1.1-0.4,1.4,0.1c0.5,0.6,0.5,1.6,0.1,2.2
					c-0.5,0.6-1.3,0.6-1.7-0.1C152.6,100.8,152.5,100.5,152.5,100.1z"/>
				<path class="st0" d="M157.6,100.1c0,0.4-0.1,0.8-0.4,1.2c-0.4,0.5-1,0.4-1.5,0c-0.6-0.6-0.5-1.8,0-2.3c0.4-0.4,1.1-0.4,1.5,0.1
					C157.4,99.3,157.6,99.6,157.6,100.1z"/>
			</g>
		</g>
	</g>
</g>
</svg>
