<?xml version="1.0" encoding="utf-8"?>
<!-- Generator: Adobe Illustrator 23.0.5, SVG Export Plug-In . SVG Version: 6.00 Build 0)  -->
<svg version="1.1" id="Capa_1" xmlns="http://www.w3.org/2000/svg" xmlns:xlink="http://www.w3.org/1999/xlink" x="0px" y="0px"
	 viewBox="0 0 340.45 147.93" style="enable-background:new 0 0 340.45 147.93;" xml:space="preserve">
<style type="text/css">
	.st0{fill:#FFFFFF;}
	.st1{font-family:'LittleOrion-PersonalUse-Regular';}
	.st2{font-size:70.0949px;}
	.st3{letter-spacing:1;}
	.st4{font-family:'PAPERNOTERegular';}
	.st5{font-size:16.2536px;}
</style>
<g>
	<g>
		<path class="st0" d="M59.33,132.84c4.13-0.69,8.34-1.05,12.36-2.13c10.32-2.77,16.31-10.49,16.45-20.3
			c0.09-6.8-3.53-11.6-8.83-14.68c-8.7-5.06-17.9-9.24-26.8-13.96c-7.99-4.24-16.38-7.97-23.68-13.21
			c-17.09-12.28-16.15-32.6,1.54-44.1c9.71-6.32,20.47-8.81,32.1-7.66c-2.1,0.31-4.23,0.48-6.29,0.96c-3.31,0.76-6.76,1.3-9.83,2.67
			c-11.99,5.35-14.66,19.67-4.67,28.1c6.04,5.1,13.46,8.65,20.48,12.48c9.9,5.4,20.12,10.21,29.95,15.73
			c3.34,1.88,6.21,4.88,8.76,7.82c7.76,8.96,7.8,21.64,0.4,31.76C93.33,127.17,73,135.56,59.33,132.84z"/>
		<g>
			<path class="st0" d="M30.12,87.2c-9.03,0-16.35,7.23-16.35,16.15c0,6.69,4.12,12.42,9.98,14.88c-1.21-0.83-2.22-1.85-2.99-3.11
				c-0.67-1.09-1.09-2.26-1.28-3.52c-0.11-0.75-0.1-1.51-0.07-2.27c0.04-1.11,0.06-2.22,0.1-3.32c0.05-1.71,0.11-3.42,0.16-5.13
				c0.03-1.11,0.06-2.22,0.09-3.32c0.02-0.53,0.04-1.05,0.06-1.61c0.28,0.23,0.53,0.43,0.78,0.64c0.97,0.81,1.93,1.62,2.89,2.43
				c0.71,0.6,1.43,1.19,2.13,1.79c0.29,0.25,0.59,0.31,0.96,0.18c0.77-0.27,1.57-0.47,2.39-0.53c0.69-0.05,1.39-0.08,2.08-0.07
				c1.1,0.03,2.17,0.25,3.21,0.62c0.32,0.11,0.59,0.08,0.85-0.14c0.86-0.73,1.73-1.46,2.6-2.18c0.79-0.66,1.57-1.32,2.36-1.97
				c0.29-0.25,0.59-0.49,0.91-0.76c0.01,0.18,0.03,0.33,0.03,0.48c0.03,1.01,0.05,2.03,0.08,3.04c0.06,2.15,0.14,4.3,0.2,6.46
				c0.04,1.33,0.06,2.66,0.11,3.99c0.05,1.38-0.19,2.71-0.73,3.98c-0.56,1.32-1.39,2.45-2.45,3.41c-0.09,0.08-0.18,0.15-0.26,0.22
				c5.07-2.74,8.51-8.06,8.51-14.17C46.46,94.43,39.15,87.2,30.12,87.2z"/>
			<path class="st0" d="M30.36,116.22c-0.32,0.43-0.77,0.76-1.27,1.01c-0.61,0.31-1.27,0.49-1.95,0.58
				c-0.36,0.04-0.72,0.06-1.08,0.08c-0.25,0.01-0.4-0.14-0.4-0.36c0-0.21,0.15-0.34,0.4-0.35c0.83-0.01,1.64-0.14,2.41-0.46
				c0.52-0.21,0.99-0.49,1.33-0.95c0.16-0.22,0.24-0.47,0.24-0.73c0-0.29,0-0.57,0-0.86c0-0.12-0.03-0.16-0.16-0.19
				c-0.61-0.12-1.13-0.41-1.47-0.94c-0.44-0.68-0.31-1.54,0.29-2.1c0.83-0.78,2.27-0.86,3.18-0.18c1.08,0.82,1.01,2.23-0.16,2.9
				c-0.26,0.15-0.56,0.21-0.84,0.33c-0.05,0.02-0.12,0.07-0.12,0.11c-0.01,0.35-0.03,0.7,0,1.05c0.05,0.55,0.42,0.9,0.85,1.19
				c0.67,0.44,1.42,0.66,2.21,0.75c0.32,0.04,0.64,0.05,0.96,0.07c0.2,0.01,0.34,0.15,0.34,0.35c0,0.19-0.14,0.36-0.33,0.36
				c-1.27,0-2.48-0.22-3.56-0.93C30.92,116.75,30.66,116.47,30.36,116.22z"/>
			<path class="st0" d="M20.65,101.22c0.03-0.79,0.05-1.57,0.08-2.36c0-0.15,0.06-0.26,0.19-0.33c0.15-0.07,0.3-0.04,0.42,0.07
				c0.46,0.38,0.91,0.77,1.37,1.15c0.57,0.47,1.14,0.95,1.7,1.42c0.14,0.12,0.2,0.26,0.15,0.43c-0.05,0.17-0.18,0.21-0.34,0.25
				c-1.09,0.27-2.13,0.67-2.98,1.44c-0.13,0.12-0.27,0.17-0.43,0.1c-0.18-0.08-0.22-0.23-0.21-0.4
				C20.62,102.4,20.64,101.81,20.65,101.22C20.66,101.22,20.65,101.22,20.65,101.22z"/>
			<path class="st0" d="M40.22,100.97c0.02,0.69,0.03,1.38,0.05,2.06c0,0.15-0.04,0.28-0.18,0.35c-0.15,0.07-0.3,0.05-0.42-0.06
				c-0.62-0.57-1.35-0.94-2.14-1.22c-0.29-0.1-0.59-0.18-0.89-0.26c-0.15-0.04-0.29-0.08-0.33-0.24c-0.04-0.17,0.01-0.3,0.15-0.42
				c0.68-0.57,1.35-1.14,2.03-1.71c0.33-0.28,0.66-0.55,0.99-0.83c0.14-0.12,0.28-0.19,0.46-0.12c0.18,0.08,0.22,0.24,0.22,0.42
				C40.18,99.62,40.2,100.29,40.22,100.97C40.22,100.97,40.22,100.97,40.22,100.97z"/>
			<path class="st0" d="M34.31,108.03c0-0.72,0.38-1.33,0.98-1.56c0.51-0.2,1.12-0.02,1.46,0.41c0.54,0.68,0.54,1.57,0.02,2.26
				c-0.51,0.68-1.52,0.7-2.06,0.04C34.44,108.86,34.3,108.47,34.31,108.03z"/>
			<path class="st0" d="M26.48,108.04c0,0.72-0.38,1.34-0.99,1.56c-0.54,0.2-1,0.04-1.39-0.35c-0.67-0.68-0.61-1.93,0.11-2.54
				c0.58-0.49,1.4-0.41,1.88,0.19C26.36,107.24,26.48,107.62,26.48,108.04z"/>
			<path class="st0" d="M36.79,112.52c0.98,0,1.96,0,2.94,0c0.18,0,0.33,0.12,0.37,0.29c0.03,0.16-0.07,0.33-0.22,0.39
				c-0.05,0.02-0.1,0.02-0.15,0.02c-1.96,0-3.92,0-5.88,0c-0.23,0-0.39-0.16-0.39-0.36c0-0.19,0.17-0.35,0.38-0.35
				C34.81,112.52,35.8,112.52,36.79,112.52z"/>
			<path class="st0" d="M24.2,112.52c0.97,0,1.95,0,2.92,0c0.24,0,0.38,0.14,0.38,0.36c-0.01,0.21-0.14,0.34-0.36,0.34
				c-1.27,0-2.53,0-3.8,0c-0.71,0-1.41,0-2.12,0c-0.17,0-0.29-0.08-0.34-0.24c-0.05-0.17,0.01-0.34,0.16-0.42
				c0.07-0.04,0.16-0.04,0.23-0.04C22.25,112.52,23.22,112.52,24.2,112.52z"/>
			<path class="st0" d="M23.84,117.04c-0.2,0-0.33-0.1-0.38-0.27c-0.05-0.17,0.03-0.33,0.2-0.42c0.43-0.23,0.87-0.45,1.3-0.68
				c0.83-0.43,1.65-0.86,2.48-1.28c0.22-0.11,0.42-0.06,0.52,0.13c0.1,0.19,0.03,0.39-0.19,0.5c-1.24,0.65-2.49,1.29-3.73,1.94
				C23.96,117,23.89,117.02,23.84,117.04z"/>
			<path class="st0" d="M33.28,114.32c0.08,0.03,0.16,0.04,0.22,0.07c1.26,0.65,2.52,1.31,3.78,1.96c0.17,0.09,0.25,0.21,0.22,0.39
				c-0.02,0.16-0.12,0.27-0.28,0.29c-0.09,0.01-0.2-0.01-0.28-0.06c-0.71-0.36-1.42-0.73-2.12-1.1c-0.54-0.28-1.08-0.56-1.63-0.84
				c-0.28-0.14-0.33-0.42-0.11-0.61C33.13,114.37,33.22,114.35,33.28,114.32z"/>
			<path class="st0" d="M35.02,114.14c0-0.22,0.2-0.39,0.42-0.35c0.48,0.09,0.97,0.19,1.45,0.29c0.62,0.12,1.24,0.25,1.86,0.37
				c0.3,0.06,0.44,0.23,0.37,0.47c-0.06,0.18-0.21,0.29-0.4,0.25c-0.58-0.11-1.15-0.24-1.72-0.35c-0.52-0.1-1.05-0.2-1.57-0.3
				C35.15,114.47,35.02,114.35,35.02,114.14z"/>
			<path class="st0" d="M21.81,114.83c0-0.2,0.1-0.32,0.33-0.36c0.6-0.12,1.21-0.24,1.81-0.36c0.51-0.1,1.01-0.2,1.52-0.3
				c0.22-0.04,0.4,0.06,0.44,0.24c0.05,0.22-0.05,0.4-0.28,0.44c-0.86,0.18-1.73,0.35-2.6,0.52c-0.27,0.05-0.53,0.11-0.8,0.16
				C22.01,115.22,21.81,115.05,21.81,114.83z"/>
		</g>
		<g>
			<path class="st0" d="M106.47,47.13c0.01,0.19,0.03,0.38,0.02,0.57c-0.06,1.21-0.23,2.4-0.55,3.57c-0.45,1.64-1.13,3.18-2.07,4.6
				c-0.98,1.5-2.17,2.8-3.59,3.9c-0.42,0.33-0.86,0.62-1.32,0.9c0.11-0.21,0.22-0.41,0.33-0.62c0.48-0.93,0.76-1.93,0.93-2.95
				c0.3-1.77,0.34-3.56,0.24-5.35c-0.06-1.01-0.16-2.03-0.28-3.04c-0.04-0.33-0.15-0.65-0.27-0.96c-0.1-0.27-0.11-0.54-0.09-0.82
				c0.08-1.01,0.02-2.02-0.12-3.02c-0.15-1.07-0.43-2.1-0.81-3.1c-0.36-0.96-0.83-1.87-1.45-2.69c-0.29-0.38-0.62-0.74-1.02-1.02
				c-0.52-0.37-1.03-0.37-1.59-0.07c-0.94,0.51-1.57,1.31-2.02,2.24c-0.32,0.67-0.54,1.39-0.8,2.09c-0.02,0.06-0.03,0.11-0.05,0.17
				c-1.05-0.01-2.08-0.24-3.13-0.02c-0.1-0.32-0.19-0.62-0.29-0.92c-0.36-1.05-0.83-2.05-1.62-2.86c-0.39-0.4-0.85-0.7-1.38-0.89
				c-0.37-0.13-0.7-0.03-1.01,0.15c-0.56,0.33-0.95,0.82-1.32,1.34c-0.74,1.05-1.24,2.2-1.61,3.42c-0.42,1.37-0.62,2.77-0.64,4.19
				c0,0.21-0.01,0.43,0.03,0.63c0.06,0.36-0.11,0.67-0.21,0.98c-0.39,1.15-0.63,2.32-0.81,3.52c-0.2,1.35-0.28,2.7-0.23,4.06
				c0.05,1.37,0.25,2.72,0.74,4c0.12,0.32,0.28,0.63,0.4,0.97c-0.31-0.25-0.63-0.48-0.94-0.74c-1.45-1.23-2.66-2.66-3.6-4.31
				c-0.94-1.65-1.58-3.41-1.9-5.28c-0.19-1.11-0.27-2.22-0.23-3.34c0.07-1.99,0.48-3.91,1.27-5.73c0.98-2.29,2.41-4.25,4.29-5.89
				c1.47-1.27,3.11-2.25,4.93-2.93c1.3-0.48,2.63-0.8,4.01-0.94c0.42-0.04,0.84-0.06,1.27-0.08c0.07,0,0.14,0.02,0.22,0.03
				c0.13,0.16,0.25,0.17,0.38,0c0.08-0.01,0.16-0.04,0.24-0.03c1.66,0.04,3.28,0.33,4.85,0.88c2.4,0.84,4.48,2.16,6.26,3.98
				c1.5,1.53,2.64,3.29,3.44,5.28c0.51,1.25,0.84,2.55,1.02,3.88c0.01,0.06-0.01,0.13-0.02,0.2c-0.25,0.26-0.5,0.52-0.75,0.77
				c-0.16,0.16-0.17,0.22,0,0.39C105.88,46.55,106.18,46.84,106.47,47.13z"/>
			<path class="st0" d="M88.7,49.11c-0.05,0.99-0.49,2.01-1.59,2.62c-1.27,0.7-2.81,0.21-3.57-1.11c-0.72-1.26-0.59-2.83,0.34-3.94
				c1-1.21,2.77-1.27,3.89-0.14C88.37,47.15,88.7,47.97,88.7,49.11z M85,48.71c0,0.49,0.4,0.89,0.9,0.9c0.49,0,0.91-0.41,0.9-0.9
				c-0.01-0.51-0.39-0.9-0.89-0.9C85.39,47.81,85,48.2,85,48.71z"/>
			<path class="st0" d="M82.31,45.69c0.02-0.83,0.11-1.64,0.28-2.45c0.27-1.23,0.68-2.42,1.34-3.49c0.3-0.5,0.69-0.94,1.04-1.41
				c0.14-0.19,0.3-0.18,0.49-0.06c0.56,0.35,0.92,0.86,1.23,1.42c0.38,0.7,0.62,1.45,0.85,2.21c0.06,0.19,0.03,0.27-0.19,0.34
				c-1.37,0.42-2.59,1.13-3.66,2.09c-0.45,0.4-0.86,0.86-1.28,1.29c-0.03,0.03-0.04,0.07-0.06,0.1
				C82.35,45.71,82.33,45.7,82.31,45.69z"/>
			<path class="st0" d="M98.45,45.69c-0.56-0.53-1.1-1.09-1.68-1.59c-1.01-0.86-2.16-1.49-3.44-1.88c-0.16-0.05-0.18-0.11-0.13-0.26
				c0.24-0.88,0.53-1.73,1-2.52c0.27-0.45,0.6-0.86,1.06-1.15c0.27-0.17,0.33-0.17,0.56,0.07c0.5,0.51,0.87,1.11,1.21,1.73
				c0.65,1.2,1.05,2.48,1.26,3.82c0.09,0.56,0.11,1.13,0.17,1.69C98.46,45.65,98.45,45.68,98.45,45.69z"/>
			<path class="st0" d="M90,58.07c0-0.47,0-0.94,0-1.41c0-0.13-0.04-0.19-0.17-0.25c-0.96-0.4-1.56-1.11-1.7-2.15
				c-0.09-0.69,0.22-1.13,0.93-1.3c0.98-0.22,1.97-0.22,2.93,0.08c0.73,0.23,0.95,0.63,0.84,1.39c-0.14,0.97-0.69,1.61-1.61,1.93
				c-0.17,0.06-0.21,0.14-0.21,0.31c0.01,0.94,0.01,1.87,0,2.81c0,0.44-0.43,0.67-0.79,0.45C90.08,59.84,90,59.71,90,59.53
				C90.01,59.04,90,58.56,90,58.07C90,58.07,90,58.07,90,58.07z"/>
			<path class="st0" d="M94.88,47.82c0.51,0,0.88,0.39,0.88,0.9c0,0.49-0.39,0.88-0.88,0.88c-0.51,0-0.9-0.39-0.9-0.89
				C93.98,48.2,94.37,47.82,94.88,47.82z"/>
			<path class="st0" d="M106.47,47.13c-0.3-0.29-0.59-0.58-0.89-0.87c-0.16-0.16-0.16-0.23,0-0.39c0.25-0.25,0.5-0.51,0.75-0.77
				c0.03,0.16,0.07,0.32,0.09,0.49c0.03,0.44,0.05,0.88,0.07,1.32C106.5,46.99,106.48,47.06,106.47,47.13z"/>
		</g>
	</g>
	<g>
		<text transform="matrix(1 0 0 1 126.8203 88.3405)" class="st0 st1 st2 st3">SERVIPET</text>
		<g>
			<text transform="matrix(1 0 0 1 161.4234 113.9552)" class="st0 st4 st5">Mi Amigo Fiel !</text>
			<g>
				<path class="st0" d="M302.79,106.02c0,0.97-0.79,1.8-1.75,1.86c-0.28,0.02-0.53-0.07-0.75-0.23c-0.13-0.1-0.26-0.2-0.4-0.29
					c-0.31-0.21-0.63-0.2-0.94,0.01c-0.08,0.05-0.16,0.11-0.23,0.17c-0.45,0.4-0.94,0.42-1.48,0.21c-0.83-0.33-1.38-1.31-1.13-2.09
					c0.09-0.26,0.27-0.53,0.48-0.7c0.69-0.54,1.23-1.2,1.72-1.92c0.38-0.57,0.94-0.76,1.51-0.57c0.32,0.11,0.54,0.33,0.73,0.59
					c0.36,0.48,0.65,1.02,1.12,1.41c0.25,0.21,0.51,0.42,0.74,0.64C302.7,105.39,302.79,105.64,302.79,106.02z"/>
				<path class="st0" d="M304.14,102.31c-0.02,0.54-0.22,1.04-0.68,1.4c-0.71,0.55-1.53,0.25-1.69-0.63
					c-0.12-0.7,0.09-1.31,0.65-1.77c0.32-0.26,0.7-0.38,1.1-0.19c0.42,0.19,0.57,0.56,0.61,0.99
					C304.14,102.16,304.14,102.22,304.14,102.31z"/>
				<path class="st0" d="M294.72,102.34c-0.01-0.43,0.11-0.82,0.42-1.11c0.44-0.42,1.11-0.32,1.53,0.24c0.4,0.52,0.5,1.12,0.28,1.75
					c-0.14,0.41-0.42,0.71-0.88,0.75c-0.45,0.04-0.78-0.21-1.03-0.56C294.81,103.1,294.71,102.73,294.72,102.34z"/>
				<path class="st0" d="M296.91,100.06c0-0.46,0.13-0.87,0.46-1.19c0.43-0.42,1.05-0.39,1.44,0.07c0.52,0.59,0.54,1.61,0.06,2.24
					c-0.46,0.59-1.26,0.55-1.67-0.07C297,100.79,296.91,100.47,296.91,100.06z"/>
				<path class="st0" d="M301.95,100.1c0,0.44-0.12,0.84-0.43,1.16c-0.44,0.46-1.04,0.44-1.47-0.02c-0.56-0.6-0.54-1.77,0.04-2.35
					c0.45-0.45,1.11-0.41,1.5,0.09C301.84,99.29,301.95,99.63,301.95,100.1z"/>
			</g>
			<g>
				<path class="st0" d="M158.39,106.02c0,0.97-0.79,1.8-1.75,1.86c-0.28,0.02-0.53-0.07-0.75-0.23c-0.13-0.1-0.26-0.2-0.4-0.29
					c-0.31-0.21-0.63-0.2-0.94,0.01c-0.08,0.05-0.16,0.11-0.23,0.17c-0.45,0.4-0.94,0.42-1.48,0.21c-0.83-0.33-1.38-1.31-1.13-2.09
					c0.09-0.26,0.27-0.53,0.48-0.7c0.69-0.54,1.23-1.2,1.72-1.92c0.38-0.57,0.94-0.76,1.51-0.57c0.32,0.11,0.54,0.33,0.73,0.59
					c0.36,0.48,0.65,1.02,1.12,1.41c0.25,0.21,0.51,0.42,0.74,0.64C158.31,105.39,158.39,105.64,158.39,106.02z"/>
				<path class="st0" d="M159.74,102.31c-0.02,0.54-0.22,1.04-0.68,1.4c-0.71,0.55-1.53,0.25-1.69-0.63
					c-0.12-0.7,0.09-1.31,0.65-1.77c0.32-0.26,0.7-0.38,1.1-0.19c0.42,0.19,0.57,0.56,0.61,0.99
					C159.74,102.16,159.74,102.22,159.74,102.31z"/>
				<path class="st0" d="M150.32,102.34c-0.01-0.43,0.11-0.82,0.42-1.11c0.44-0.42,1.11-0.32,1.53,0.24c0.4,0.52,0.5,1.12,0.28,1.75
					c-0.14,0.41-0.42,0.71-0.88,0.75c-0.45,0.04-0.78-0.21-1.03-0.56C150.42,103.1,150.31,102.73,150.32,102.34z"/>
				<path class="st0" d="M152.51,100.06c0-0.46,0.13-0.87,0.46-1.19c0.43-0.42,1.05-0.39,1.44,0.07c0.52,0.59,0.54,1.61,0.06,2.24
					c-0.46,0.59-1.26,0.55-1.67-0.07C152.6,100.79,152.51,100.47,152.51,100.06z"/>
				<path class="st0" d="M157.55,100.1c0,0.44-0.12,0.84-0.43,1.16c-0.44,0.46-1.04,0.44-1.47-0.02c-0.56-0.6-0.54-1.77,0.04-2.35
					c0.45-0.45,1.11-0.41,1.5,0.09C157.44,99.29,157.55,99.63,157.55,100.1z"/>
			</g>
		</g>
	</g>
</g>
</svg>
