<?xml version="1.0" encoding="utf-8"?>
<!-- Generator: Adobe Illustrator 23.0.5, SVG Export Plug-In . SVG Version: 6.00 Build 0)  -->
<svg version="1.1" id="Capa_1" xmlns="http://www.w3.org/2000/svg" xmlns:xlink="http://www.w3.org/1999/xlink" x="0px" y="0px"
	 viewBox="0 0 141.7 141.7" style="enable-background:new 0 0 141.7 141.7;" xml:space="preserve">
<style type="text/css">
	.st0{fill:#09B1B8;}
</style>
<g>
	<path class="st0" d="M76.8,94c3.7,0.6,5.8,2.7,5.8,5.8c0,2.5-1.2,4.4-3.6,5.4c-0.7,0.3-1,0.6-1.1,1.4c-1.2,6.7-2.4,13.5-3.5,20.2
		c-0.4,2.2-1.3,4-3.2,5.1c-0.8,0.5-1.9,0.8-2.9,0.8c-14.9,0-29.9,0-44.8,0c-2.8,0-5.2-2-5.9-5c-0.8-4-1.5-8.1-2.2-12.1
		c-0.5-3.1-1.1-6.1-1.7-9.1c-0.1-0.4-0.4-0.9-0.7-1.1c-2.9-1.4-4.3-3.7-3.8-6.4c0.4-2.7,2.4-4.5,5.7-5c0.1-1.2,0.1-2.4,0.3-3.6
		c0.7-4,2.6-7,6.6-8.6c0.3-0.1,0.6-0.5,0.7-0.8c0.9-3.9,2.8-6.9,6.7-8.4c0.3-0.1,0.5-0.6,0.6-1c0.5-2.4,1.6-4.5,3.3-6.2
		c3.3-3.1,8.1-3.1,11.3,0.1c0.5,0.5,1,1.1,1.6,1.7c0.5-0.5,0.9-1,1.3-1.5c3.6-3.7,9-3.5,12.3,0.4c1.3,1.6,2.1,3.4,2.6,5.4
		c0.1,0.4,0.3,0.9,0.6,1c3.9,1.5,5.8,4.4,6.7,8.3c0.1,0.4,0.4,0.8,0.7,1c4.6,1.9,6.4,5.6,6.8,10.3C76.8,92.7,76.8,93.3,76.8,94z
		 M17.5,105.7c1.2,7.1,2.4,13.9,3.7,20.8c0.3,1.7,1.2,2.3,3,2.3c14.3,0,28.7,0,43,0c2.1,0,2.9-0.6,3.3-2.7c0.8-4.6,1.6-9.2,2.4-13.8
		c0.4-2.2,0.8-4.4,1.2-6.7C55.2,105.7,36.4,105.7,17.5,105.7z M45.9,97.9c-10.1,0-20.3,0-30.4,0c-1.6,0-2.5,0.7-2.5,1.9
		c0,1.2,0.9,1.9,2.5,1.9c0.1,0,0.2,0,0.4,0c20,0,39.9,0,59.9,0c0.4,0,0.8,0,1.2,0c1-0.2,1.7-0.8,1.7-1.9c0-1.1-0.6-1.7-1.7-1.9
		c-0.4-0.1-0.8,0-1.2,0C65.8,97.9,55.9,97.9,45.9,97.9z M43.8,94c0.3-2.6-0.1-4.8-1.6-6.7c-1.4-1.8-3.4-2.3-5.2-1.5
		c-2.6,1.2-4.4,5.5-3.4,8.3C36.9,94,40.3,94,43.8,94z M58.1,94.1c0.8-2.7-0.4-6.2-2.5-7.8c-1.7-1.3-3.8-1.2-5.4,0.3
		c-2,1.8-2.6,4.2-2.4,6.8c0,0.2,0.4,0.7,0.6,0.7C51.7,94.1,54.9,94.1,58.1,94.1z M72.8,94c0.3-2.9-0.2-5.5-2.4-7.5
		c-1.5-1.4-3.4-1.5-5-0.5c-2.3,1.4-3.8,5.3-2.9,8C65.9,94,69.2,94,72.8,94z M29.1,94.1c0.8-2.7-0.5-6.6-2.8-8
		c-1.7-1.1-3.6-0.9-5.1,0.5c-2,1.8-2.6,4.2-2.4,6.8c0,0.3,0.4,0.7,0.7,0.7C22.7,94.1,25.9,94.1,29.1,94.1z M65.3,81.4
		c-0.2-2.7-2.6-5.3-5.2-5.2c-2.4,0-4.8,2.8-4.9,5.2c1.8,1.4,3.5,2.8,5,3.9C61.9,84.1,63.5,82.8,65.3,81.4z M31.2,85.5
		c1.3-1,2.4-2.2,3.7-3c1.8-1.1,1.9-1.1,0.9-3c-0.4-0.7-0.8-1.4-1.4-2c-1.6-1.7-4.2-1.9-5.8-0.2c-1,1-1.5,2.5-2.2,3.8
		c-0.1,0.2,0.1,0.8,0.3,0.8C28.6,82.6,30,84,31.2,85.5z M53.1,76c1.4-1,3-2.1,4.6-3.2c0.3-0.2,0.4-0.8,0.4-1.1
		c-0.7-2.7-2.7-4.5-4.8-4.6c-2.2-0.1-4.1,1.6-5,4.3c-0.1,0.2-0.2,0.3-0.2,0.4c0.1,0.4,0.2,0.8,0.5,1C50.1,73.9,51.6,75,53.1,76z
		 M51,81.3c-0.4-0.8-0.7-1.9-1.3-2.8c-1.7-2.7-4.9-3.1-7-0.7c-0.8,0.9-1.2,2.2-1.8,3.4c-0.1,0.2,0.1,0.7,0.2,0.8
		c2,0.7,3.5,2.1,4.6,3.6C47.3,84.1,49,82.8,51,81.3z M38.5,76.6c1.3-1.8,2.8-3.1,4.8-3.9c0.2-0.1,0.3-0.7,0.2-0.9
		c-0.5-1.1-1-2.3-1.8-3.2c-1.6-1.9-4-2-5.8-0.6c-1.3,1-2,2.4-2.4,3.9c-0.1,0.2,0.1,0.7,0.2,0.8C35.7,73.4,37.3,74.7,38.5,76.6z"/>
	<path class="st0" d="M84.5,90.7c1-2.7,1.9-5.1,2.8-7.5c2-5.2,3.9-10.5,5.9-15.7c0.3-0.8,0.3-1.3-0.2-2c-0.8-1.1-1.6-2.3-2.4-3.5
		c-0.5-0.8-0.5-1.3,0.3-1.9c3.7-2.7,7.4-5.5,11.1-8.2c0.7-0.6,1.3-0.4,1.4,0.5c0.2,1.4,1,1.9,2.2,2.3c10,3.9,18,10.1,23.2,19.6
		c2.7,5,4.1,10.4,4.1,16.1c0,13.3,0,26.5,0,39.8c0,0.4,0,0.7-0.1,1.1c-0.2,0.9-0.8,1.5-1.8,1.5c-1,0-1.7-0.5-1.9-1.5
		c-0.1-0.5-0.1-1-0.1-1.4c0-12.8-0.1-25.5,0-38.3c0-10.7-4.4-19.3-12.5-26.1c-3.1-2.6-6.6-4.7-10.4-6.3c-0.2-0.1-0.5-0.2-1-0.4
		c0.4,1.3,0.7,2.5,1,3.6c0.5,1.7,0.9,3.4,1.5,5.1c0.3,1-0.1,1.2-1,1c-1.9-0.4-3.8-0.9-5.7-1.3c-0.3-0.1-0.6-0.1-1.1-0.2
		c0.9,2.1,1.7,4.1,2.7,5.9c0.6,1.2,0.4,2-0.6,2.8c-5.5,4.9-11.1,9.9-16.5,14.8c-0.6,0.6-1.1,0.7-1.7,0c-0.4-0.5-0.9-0.9-1.4-1.3
		c-1.5-1.3-2.8-2.6-3.6-4.4c-1-2.4-2.9-4.2-5.2-5.6c-0.4-0.2-0.8-0.7-0.9-1.1c-1-2.6-2.4-4.9-4.5-6.8c-0.3-0.2-0.4-0.8-0.3-1.2
		c0.4-1,0.9-2,1.4-3.3c-1.2,0.3-2.3,0.4-3.3,0.7c-0.7,0.2-1.2,0.1-1.5-0.7c-0.1-0.4-0.3-0.8-0.6-1.1c-1.6-1.5-1.3-3.2-0.6-4.9
		c0.3-0.7,0.4-1.4,0.7-2.4c-1.5,0.7-2.8,1.4-4,1.9c-0.4,0.2-1.1,0.2-1.5,0.1c-1.2-0.4-2.4-0.8-3.7-1.3c0.2-0.2,0.4-0.4,0.7-0.5
		c2.8-1.4,5.6-2.8,8.5-4.1c1-0.4,1.6-0.9,1.9-2c0.2-1.2,0.6-1.3,1.5-0.6c3.6,2.7,7.2,5.3,10.8,8c0.9,0.7,1,1.3,0.3,2.2
		c-0.5,0.6-0.8,1.4-1.4,2c-1.4,1.5-1.4,3-0.6,4.9c2.7,6.8,5.1,13.6,7.7,20.5C84.1,89.8,84.2,90.1,84.5,90.7z M68.2,57.6
		c-0.6,2.1-1.1,3.9-1.7,5.9c2.1-0.7,4-0.9,5.6,0.8c0.6-0.9,1.1-1.7,1.7-2.5C72,60.4,70.2,59.1,68.2,57.6z M95.1,61.8
		c0.6,0.9,1.2,1.6,1.7,2.5c1.6-1.7,3.5-1.3,5.6-0.8c-0.6-2-1.1-3.8-1.7-5.9C98.8,59.1,97,60.4,95.1,61.8z M96.6,69.4
		c-1.1,3-2.1,5.7-3.1,8.4c1.5-1,2.7-2.1,4-3.3c0.2-0.2,0.5-0.4,0.6-0.6c0.1-0.3,0.2-0.7,0.1-0.9C97.8,71.8,97.3,70.8,96.6,69.4z
		 M72.4,69.4c-0.3,0.6-0.5,0.9-0.6,1.2c-1.3,2.9-1.3,2.9,1,4.9c0.8,0.7,1.6,1.4,2.4,2.1c0.1-0.1,0.1-0.1,0.2-0.2
		C74.4,74.9,73.5,72.3,72.4,69.4z"/>
	<path class="st0" d="M84.5,55.4c-12.8,0-23.2-10.4-23.2-23.2C61.3,19.3,71.7,9,84.7,9c12.7,0,23.1,10.4,23,23.2
		C107.7,45.1,97.3,55.4,84.5,55.4z M84.5,51.5c10.6,0,19.3-8.7,19.3-19.3c0-10.7-8.6-19.4-19.3-19.4c-10.6,0-19.3,8.6-19.3,19.3
		C65.1,42.8,73.8,51.5,84.5,51.5z"/>
	<path class="st0" d="M8.9,28c0.4-2.9,0.8-6.2,1.2-9.4c0.2-1.4,1.1-2.1,2.5-1.8c9.3,2.2,17.1,6.6,22,15.1c3.4,5.9,4,12.3,3.1,19
		c-0.2,1.6-0.5,3.1-0.8,4.6c-0.3,1.4-1,1.9-2.4,1.8C24.2,56.2,12.1,50,9.6,34.8C9.2,32.7,9.1,30.6,8.9,28z M33.8,50.5
		c2.3-16.6-7.9-26-20.1-29.4c-0.1,0.3-0.2,0.5-0.2,0.8c-0.5,3.7-0.8,7.4-0.3,11.2c0.8,5.6,2.9,10.5,7.3,14.3
		c2.8,2.5,6.1,4.1,9.9,5.1c-0.2-0.3-0.3-0.5-0.4-0.7c-1.4-2-2.8-3.9-4.1-5.9c-0.7-1-0.4-2.2,0.5-2.8c0.9-0.6,2-0.4,2.7,0.5
		c0.4,0.6,0.8,1.2,1.3,1.8C31.4,47.1,32.5,48.6,33.8,50.5z"/>
	<path class="st0" d="M110.6,90.2c4,0,8,0,12,0c1.8,0,2.5,0.6,2.5,2.4c0,6.2,0,12.4,0,18.6c0,1.1-0.4,1.9-1.5,2.4
		c-3.7,1.7-7.4,3.4-11,5.2c-0.9,0.4-1.7,0.4-2.5,0c-4.1-1.7-8.1-3.5-12.2-5.1c-1.2-0.5-1.8-1.2-1.7-2.6c0-6.2,0-12.3,0-18.5
		c0-1.8,0.6-2.5,2.5-2.5C102.6,90.2,106.6,90.2,110.6,90.2z M121.2,94.2c-7.2,0-14.2,0-21.3,0c0,5.3,0,10.5,0,15.7
		c0,0.3,0.3,0.7,0.6,0.8c3.3,1.4,6.7,2.8,10,4.2c0.3,0.1,0.8,0.2,1.1,0c3-1.4,5.9-2.7,8.8-4.2c0.3-0.1,0.6-0.6,0.6-0.9
		C121.2,104.7,121.2,99.5,121.2,94.2z"/>
	<path class="st0" d="M41.8,41.6c-0.3-1.6-0.7-3-0.9-4.4c-0.1-0.4,0.2-0.9,0.5-1.2c3.7-3.4,8.1-5.1,13-5.7c1.3-0.2,2,0.4,2.3,1.8
		c2.4,9-1,17.2-9,21.9c-2.2,1.3-4.5,2.3-7.1,3c0.3-1.4,0.4-2.6,0.7-3.8c0.1-0.4,0.6-0.7,1-0.9c2.7-1.1,5.1-2.5,7.2-4.6
		c3.6-3.7,4.6-8.2,3.7-13.3C48.6,35.4,44.5,37.3,41.8,41.6z"/>
	<path class="st0" d="M84.5,95c1,0,1.9,0.9,1.9,2c0,1-0.9,1.9-1.9,1.9c-1.1,0-2-0.9-1.9-2C82.6,95.8,83.5,95,84.5,95z"/>
	<path class="st0" d="M86.4,104.7c0,1-0.9,1.9-1.9,1.9c-1,0-1.9-0.9-1.9-1.9c0-1.1,0.9-2,2-2C85.6,102.8,86.4,103.7,86.4,104.7z"/>
	<path class="st0" d="M84.5,114.4c-1,0-1.9-0.9-1.9-1.9c0-1.1,0.9-2,2-1.9c1,0.1,1.9,0.9,1.8,2C86.4,113.6,85.5,114.4,84.5,114.4z"
		/>
	<path class="st0" d="M86.4,120.2c0,1-0.8,1.9-1.9,1.9c-1.1,0-2-0.9-2-2c0-1,0.9-1.9,1.9-1.9C85.5,118.3,86.4,119.1,86.4,120.2z"/>
	<path class="st0" d="M45.9,119.2c4.3,0,8.7,0,13,0c1.5,0,2.3,0.7,2.3,1.9c0,1.2-0.8,2-2.4,2c-8.7,0-17.5,0-26.2,0
		c-1.4,0-2.2-0.6-2.4-1.7c-0.1-1.3,0.8-2.1,2.3-2.2c4.2,0,8.4,0,12.6,0C45.4,119.2,45.7,119.2,45.9,119.2z"/>
	<path class="st0" d="M45.7,115.3c-1.2,0-2.4,0-3.6,0c-1.3,0-2-0.8-2.1-1.9c0-1.1,0.8-1.9,2-1.9c2.5,0,5.1,0,7.6,0
		c1.2,0,2,0.8,2,1.9c0,1.1-0.8,1.9-2.1,1.9C48.3,115.4,47,115.3,45.7,115.3z"/>
	<path class="st0" d="M24.5,38c0,1.1-0.8,1.9-1.9,1.9c-1.1,0-2-0.9-2-2c0-1.1,0.9-1.9,2-1.9C23.7,36.1,24.5,36.9,24.5,38z"/>
	<path class="st0" d="M112.5,101.8c1.1,0,2,0,2.9,0c1.2,0.1,2,0.9,2,2c0,1.1-0.8,1.8-2,1.8c-0.9,0-1.8,0-2.8,0c0,0.9,0,1.8,0,2.7
		c0,1.3-0.8,2.2-1.9,2.2c-1.1,0-1.9-0.8-1.9-2.2c0-0.8,0-1.6-0.1-2.4c0,0,0-0.1-0.2-0.3c-0.8,0-1.6,0-2.5,0c-1.3,0-2.1-0.8-2.1-1.9
		c0-1.1,0.8-1.9,2.1-2c0.8,0,1.7,0,2.7,0c0-0.9,0-1.8,0-2.7c0-1.3,0.8-2.2,1.9-2.1c1.1,0,1.9,0.8,1.9,2.2
		C112.5,100,112.5,100.8,112.5,101.8z"/>
</g>
</svg>
