<?xml version="1.0" encoding="utf-8"?>
<!-- Generator: Adobe Illustrator 23.0.5, SVG Export Plug-In . SVG Version: 6.00 Build 0)  -->
<svg version="1.1" id="Capa_1" xmlns="http://www.w3.org/2000/svg" xmlns:xlink="http://www.w3.org/1999/xlink" x="0px" y="0px"
	 viewBox="0 0 141.7 141.7" style="enable-background:new 0 0 141.7 141.7;" xml:space="preserve">
<style type="text/css">
	.st0{fill:#09B1B8;}
</style>
<g>
	<path class="st0" d="M41.3,129c-0.2-2.6-0.5-4.9-0.6-7.3c-0.5-7.9-0.5-15.7,2.3-23.3c2.1-5.6,5.6-9.9,11.8-11.1
		c3.4-0.7,6.9-0.6,10.3,0.3c0.7,0.2,1.4,0.4,2.3,0.6c-0.8-2.9-1.7-5.6-2.3-8.3c-1-4.5-1.9-9-2.6-13.6c-0.6-3.9,1.2-6.9,4.7-8.8
		c9.6-5.2,19.2-10.4,28.7-15.6c2.8-1.5,5.5-1.5,8.3,0c1.9,1,3.7,2,6.1,3.2c-0.2-2.5-0.3-4.8-0.7-7c-1.5-8.6-5.5-15.9-12.8-21
		c-8.2-5.7-17-6.2-25.8-1.3c-7.9,4.4-15.6,4.4-23.5,0c-11.1-6.2-24.1-3.1-32.2,7.6c-4,5.3-6.2,11.3-6.7,17.9c0,0.6-0.1,1.2-0.2,1.8
		c-0.2,1.5-1.1,2.4-2.4,2.2c-1.5-0.2-2.2-1.1-2.1-2.5c0.1-1.9,0.3-3.9,0.7-5.8c2-10.3,6.9-18.8,16-24.4c9.6-5.9,19.5-5.9,29.3-0.6
		c3,1.6,6.1,2.6,9.5,2.6c2.8,0,5.6-0.6,8-2.1c16-9.8,35-2.8,43.3,14.4c2.8,5.8,4.1,12,3.8,18.4c-0.1,1.6,0.5,2.4,1.8,3.1
		c5.5,2.9,11,5.9,16.5,8.8c3.5,1.9,5.3,5.3,4.8,9.2c-1.4,9.8-3.7,19.3-7.7,28.4c-3,6.8-6.8,13-12.6,17.8c-5.2,4.3-11.2,6.6-18,6.5
		c-0.7,0-1.6,0.4-2.1,0.9c-4.6,4.5-9.7,8.3-15.4,11.4c-4.1,2.2-8.4-0.3-8.3-5c0.1-3.2,0.6-6.4,0.7-9.6c0.2-3.9,0-7.8,0.2-11.7
		c0.1-1.8-0.7-3.1-1.5-4.6c-0.9-1.6-1.5-3.2-2.5-4.7c-0.6-1-1.4-2.1-2.4-2.6c-3.9-2-8.1-2.5-12.4-1.8c-4.2,0.7-6.7,3.6-8.2,7.3
		c-2.7,6.5-2.9,13.3-2.5,20.2c0.1,2.8,0.6,5.6,0.8,8.5c0.2,2.1-0.5,3.9-2.3,5c-1.7,1.1-3.5,0.9-5.2-0.1
		c-11.9-6.7-20.4-16.1-23.7-29.6c-1.8-7.4-1.7-14.9-0.4-22.4c0.8-4.7-0.2-9-2.8-13.1c-1.7-2.6-3.1-5.3-4.4-8C6,57.9,6.4,56.5,7.8,56
		c1.4-0.6,2.4,0.1,3.3,1.9c0.9,2,1.8,4,3,5.7c4.5,6.1,5.4,12.7,4.2,20.1c-1.9,12.2,0.2,23.6,8.1,33.5c3.8,4.7,8.5,8.3,13.7,11.3
		C40.4,128.8,40.7,128.8,41.3,129z M101.4,114.9c1.5-0.4,4.2-0.8,6.8-1.8c6-2.3,10.2-6.9,13.5-12.2c6.7-10.8,9.7-22.8,11.4-35.3
		c0.3-1.9-0.8-3.4-2.6-4.3c-9.4-5.1-18.8-10.1-28.2-15.2c-1.7-0.9-3.2-0.9-4.9,0c-9.3,5.1-18.7,10.2-28,15.2
		c-2.3,1.3-3.2,2.8-2.6,5.4c1.5,6.6,2.8,13.3,4.7,19.7c2.2,7.4,5.7,14.4,11,20.2C87.4,111.7,93.1,114.7,101.4,114.9z M92.8,118.2
		c-5.6-1.6-9.8-4.8-13.7-8.7c-0.2,3.6-0.3,6.8-0.5,10c-0.1,2.2-0.4,4.3-0.6,6.5c-0.2,1.6,0.5,2.4,1.6,1.8
		C84.3,125.3,88.6,122.2,92.8,118.2z"/>
	<path class="st0" d="M99.7,111.6c-5.9-0.2-10.8-3-14.8-7.4c-5-5.5-8.1-12-10.2-18.9c-1.8-5.9-3-12.1-4.4-18.1
		c-0.4-1.5,0.1-2.6,1.6-3.4c8.8-4.7,17.6-9.5,26.4-14.3c1.3-0.7,2.3-0.7,3.6,0c8.6,4.7,17.2,9.3,25.8,14c2.3,1.3,2.5,1.5,2.1,4.1
		c-1.5,9.9-4,19.5-8.7,28.4c-2.7,5.2-6.2,9.9-11.4,13C106.7,110.6,103.4,111.6,99.7,111.6z M100.4,107.2c0.7-0.1,1.9-0.2,3-0.5
		c5.7-1.5,9.3-5.6,12.2-10.3c5.2-8.6,7.7-18.2,9.5-28c0.2-1-0.2-1.4-1-1.8c-7.7-4.1-15.4-8.3-23.1-12.4c-0.5-0.3-1.4-0.3-2,0
		c-7.8,4.1-15.5,8.4-23.2,12.5c-0.9,0.5-1,0.9-0.8,1.9c0.7,2.9,1.1,5.8,1.9,8.6c2.2,8.3,4.9,16.3,10.4,23.1
		C90.6,104.2,94.6,106.9,100.4,107.2z"/>
	<path class="st0" d="M98.8,88.9c3.8-6.4,7.5-12.6,11.1-18.9c0.3-0.6,0.7-1.2,1-1.7c1.1-1.9,2.3-2.4,3.6-1.6c1.3,0.8,1.4,2,0.3,3.8
		c-1.8,3-3.5,5.9-5.3,8.9c-2.6,4.4-5.1,8.7-7.7,13.1c-1.2,2.1-2.4,2.4-4.3,1c-4.2-2.9-8.3-5.8-12.5-8.6c-0.3-0.2-0.6-0.4-0.9-0.7
		c-1-0.9-1.3-2-0.4-3.1c0.8-1.1,2-1.3,3.1-0.5c3.4,2.3,6.8,4.7,10.2,7C97.6,88,98.1,88.4,98.8,88.9z"/>
</g>
</svg>
