	<?xml version="1.0" encoding="utf-8"?>
<!-- Generator: Adobe Illustrator 23.0.5, SVG Export Plug-In . SVG Version: 6.00 Build 0)  -->
<svg version="1.1" id="Capa_1" xmlns="http://www.w3.org/2000/svg" xmlns:xlink="http://www.w3.org/1999/xlink" x="0px" y="0px"
	 viewBox="0 0 141.73 141.73" style="enable-background:new 0 0 141.73 141.73;" xml:space="preserve">
<g id="_x33_43._Playlist">
	<g>
		<path d="M31.18,30.05l-14.4-9c-2.93-1.83-5.3-0.52-5.3,2.93v18.75c0,3.45,2.37,4.77,5.3,2.94l14.4-9
			C34.11,34.85,34.11,31.87,31.18,30.05z M124,23.98H48.99c-3.45,0-6.25,2.8-6.25,6.25v6.25c0,3.45,2.8,6.25,6.25,6.25H124
			c3.45,0,6.25-2.8,6.25-6.25v-6.25C130.25,26.78,127.46,23.98,124,23.98z M16.78,83.19l14.4-9.01c2.93-1.83,2.8-4.56-0.29-6.11
			l-13.82-6.91c-3.09-1.54-5.59,0-5.59,3.45v15.63C11.48,83.7,13.85,85.01,16.78,83.19z M124,61.49H48.99
			c-3.45,0-6.25,2.79-6.25,6.25v6.25c0,3.45,2.8,6.25,6.25,6.25H124c3.45,0,6.25-2.8,6.25-6.25v-6.25
			C130.25,64.29,127.46,61.49,124,61.49z M31.18,105.06l-14.4-9.01c-2.93-1.83-5.3-0.51-5.3,2.94v18.75c0,3.45,2.37,4.77,5.3,2.94
			l14.4-9C34.11,109.86,34.11,106.89,31.18,105.06z M124,98.99H48.99c-3.45,0-6.25,2.8-6.25,6.25v6.25c0,3.45,2.8,6.25,6.25,6.25
			H124c3.45,0,6.25-2.8,6.25-6.25v-6.25C130.25,101.8,127.46,98.99,124,98.99z"/>
	</g>
</g>
<g class="st2">
	<path class="st1" d="M46,152.4l-11.4,17.4h-0.8l-11.4-17.4v26.3h-2.2V149c1.1,0,1.6,0,2.7,0l11.3,17.4l11.2-17.3h2.8v29.7H46V152.4
		z"/>
	<path class="st1" d="M53.2,168.3c0-6.3,4.7-10.8,10.6-10.8s11.1,3.6,10.3,11.8H55.3c0.4,4.9,4.2,7.8,8.5,7.8c2.8,0,6-1.1,7.5-3.2
		l1.5,1.2c-2,2.7-5.7,4-9,4C57.9,179.1,53.2,175,53.2,168.3z M72.3,167.5c0-5.2-3.4-8-8.5-8c-4.3,0-8,2.9-8.5,8H72.3z"/>
	<path class="st1" d="M81.6,157.9v3.7c1.6-2.9,4.5-4.1,7.5-4.1c5.6,0,9.4,3.4,9.4,9.2v12.1h-2.1v-12c0-4.7-2.9-7.3-7.5-7.2
		c-4.3,0-7.3,3.3-7.3,7.6v11.6h-2.1v-20.9H81.6z"/>
	<path class="st1" d="M119.8,178.8V175c-1.6,2.9-4.5,4.1-7.5,4.1c-5.6,0-9.4-3.4-9.4-9.2v-12.1h2.1v12c0,4.7,2.9,7.3,7.5,7.2
		c4.3,0,7.3-3.3,7.3-7.6v-11.6h2.1v21H119.8L119.8,178.8z"/>
</g>
</svg>
