<?xml version="1.0" encoding="utf-8"?>
<!-- Generator: Adobe Illustrator 24.0.2, SVG Export Plug-In . SVG Version: 6.00 Build 0)  -->
<svg version="1.1" id="Capa_1" xmlns="http://www.w3.org/2000/svg" xmlns:xlink="http://www.w3.org/1999/xlink" x="0px" y="0px"
	 viewBox="0 0 75 75.6" style="enable-background:new 0 0 75 75.6;" xml:space="preserve">
<style type="text/css">
	.st0{fill:#00A6AA;}
	.st1{font-family:'MyriadPro-Regular';}
	.st2{font-size:12.6757px;}
	.st3{fill:#50BDC7;stroke:#00B3B7;stroke-miterlimit:10;}
</style>
<text transform="matrix(1 0 0 1 5.874 54.4662)" class="st0 st1 st2">GUARDERIA</text>
<g>
	<path class="st3" d="M48.31,44.07c-7.24,0-14.42,0-21.64,0c0-4.89,0-9.76,0-14.67c-0.15,0-0.26,0-0.37,0c-0.94,0-1.88,0-2.82,0
		c-0.25,0-0.48-0.02-0.59-0.28c-0.1-0.25,0.03-0.45,0.21-0.63c2.2-2.19,4.39-4.39,6.58-6.58c1.03-1.03,2.07-2.04,3.1-3.07
		c1.41-1.41,2.82-2.83,4.23-4.25c0.41-0.41,0.58-0.4,0.98,0c1.22,1.23,2.45,2.45,3.67,3.67c3.41,3.41,6.82,6.82,10.23,10.23
		c0.17,0.17,0.32,0.35,0.21,0.62c-0.11,0.27-0.34,0.29-0.58,0.29c-0.95-0.01-1.9,0-2.86,0c-0.1,0-0.21,0.01-0.35,0.02
		C48.31,34.3,48.31,39.17,48.31,44.07z M37.47,36.44c1.01-0.16,2-0.28,2.98-0.48c0.93-0.19,1.24-1.22,0.61-1.92
		c-0.7-0.78-1.43-1.54-2.18-2.27c-0.95-0.92-2.06-0.89-2.97,0.07c-0.69,0.73-1.36,1.48-2.02,2.24c-0.6,0.69-0.29,1.7,0.6,1.88
		C35.48,36.17,36.47,36.29,37.47,36.44z M35.91,23.13c-0.15,0.21-0.3,0.42-0.45,0.61c-0.09,0.11-0.2,0.22-0.32,0.31
		c-0.32,0.27-0.72,0.48-0.96,0.81c-0.66,0.89-0.77,1.96-0.69,3.03c0.07,0.98,0.95,1.71,1.93,1.68c0.96-0.03,1.81-0.81,1.82-1.77
		c0.01-0.72-0.09-1.45-0.14-2.17c-0.06-0.93-0.83-1.56-1.06-2.41C36.04,23.21,36.01,23.2,35.91,23.13z M39,23.15
		c-0.04,0.01-0.08,0.01-0.13,0.02c-0.09,0.25-0.17,0.49-0.26,0.73c-0.03,0.08-0.08,0.17-0.12,0.24c-0.16,0.27-0.39,0.52-0.49,0.81
		c-0.31,0.95-0.37,1.95-0.3,2.94c0.07,0.96,0.91,1.68,1.87,1.67c0.97,0,1.79-0.74,1.87-1.72c0.06-0.82-0.03-1.62-0.34-2.39
		c-0.23-0.57-0.58-1.05-1.14-1.33c-0.25-0.12-0.47-0.23-0.58-0.53C39.32,23.43,39.13,23.3,39,23.15z M31.79,27.58
		c-0.3,0.69-0.68,1.33-0.87,2.02c-0.23,0.85,0.04,1.69,0.41,2.47c0.36,0.77,1.15,1.11,1.98,0.91c0.78-0.19,1.58-1.32,1.46-2.11
		c-0.03-0.21-0.18-0.42-0.32-0.59c-0.34-0.4-0.79-0.72-1.05-1.16C33.01,28.45,32.4,28.06,31.79,27.58z M43.17,27.6
		c-0.05-0.02-0.09-0.05-0.14-0.07c-0.13,0.17-0.23,0.44-0.39,0.48c-0.4,0.09-0.56,0.4-0.78,0.66c-0.47,0.55-0.96,1.08-1.41,1.64
		c-0.14,0.18-0.27,0.42-0.29,0.64c-0.04,0.54,0.21,0.99,0.54,1.4c0.89,1.09,2.49,0.86,2.99-0.46c0.16-0.42,0.28-0.88,0.34-1.33
		c0.09-0.63,0.05-1.27-0.35-1.81c-0.18-0.25-0.37-0.48-0.37-0.81C43.31,27.83,43.22,27.71,43.17,27.6z"/>
</g>
</svg>
