<?xml version="1.0" encoding="utf-8"?>
<!-- Generator: Adobe Illustrator 24.0.2, SVG Export Plug-In . SVG Version: 6.00 Build 0)  -->
<svg version="1.1" id="Capa_1" xmlns="http://www.w3.org/2000/svg" xmlns:xlink="http://www.w3.org/1999/xlink" x="0px" y="0px"
	 viewBox="0 0 141.7 141.7" style="enable-background:new 0 0 141.7 141.7;" xml:space="preserve">
<style type="text/css">
	.st0{fill:#05A7AB;stroke:#02A7AB;stroke-width:0.75;stroke-miterlimit:10;}
	.st1{fill:#FEFEFE;}
	.st2{fill:#FFFFFF;}
</style>
<g>
	<path class="st0" d="M139,90.1c0,8.5,0,17,0,25.6c-1.5,4.1-6.1,6.1-10.1,4.4c-1.6-0.7-1.7-2.2-2.2-3.5c-2.8-7.8-8.9-12.4-16.7-12.3
		c-7.5,0-13.5,4.4-16.2,11.7c-0.6,1.5-0.8,3.3-2.8,3.7c-11.6,0.2-23.2,0.1-34.7,0c-1.9-0.2-2.3-1.7-2.8-3.2
		c-3-8.1-8.9-12.3-17.3-12.3c-7.5,0-12.3,4.2-15.6,10.7c-0.6,1.2-0.9,2.5-1.9,3.5c-1,1.2-2.5,1.2-3.9,1.3c-2.3,0.1-4.6-0.2-6.9,0.3
		c-3,0.2-4.5-1.6-5.3-4.3c0-26.2,0-52.4,0-78.5c0.6-2.7,1.8-4.8,5-4.3c1.2,0.3,2.4,0.3,3.6,0.3c26.8,0,53.7,0,80.5,0c1,0,2,0,3-0.2
		c4-0.6,6,2.4,8.1,5c4,5.1,7.9,10.2,11.8,15.4c6,8,12.1,16,18.2,24C135.8,81.1,138.6,85,139,90.1z"/>
	<path class="st1" d="M48.1,42.8c3.5,1.2,7.1,2.2,10,4.7c7.1,6,10,13.7,8,22.9c-1.9,8.9-7.6,14.6-16.1,17.1c-0.7,0.2-1.4,0.1-2,0.7
		c-2.2,0.6-4.4,0.5-6.7,0c-5.6-1.4-10.6-3.9-14.2-8.7c-10-13.5-3.3-32.4,12.8-36.2c0.5-0.1,0.9-0.4,1.4-0.5
		C43.7,42.3,45.9,42.2,48.1,42.8z"/>
	<path class="st2" d="M86.8,50.1c4.4-0.8,8.8-0.3,13.2-0.3c1.2,0,2,0.9,2.7,1.9c6.4,8.5,12.8,17.1,19.2,25.6c0.2,0.3,0.4,0.7,0.7,1
		c0.7,1,1.8,2.3,1.4,3.3c-0.5,1.3-2.2,0.6-3.3,0.6c-10.2,0-20.4,0-30.5,0c-1.1,0-2.2,0.2-3.3-0.4c-0.3-0.3-0.4-0.7-0.4-1.1
		c0-9.8,0-19.7,0-29.5C86.4,50.8,86.5,50.4,86.8,50.1z"/>
	<path class="st0" d="M70.8,27.6c-3,0-7.1,1.2-8.7-0.3c-2-1.8-0.6-6-0.6-9.2c-0.1-6.5,3.9-10.9,9.5-10.9c5.6,0,9.4,4.4,9.4,11
		c0,2.4-0.1,4.8,0,7.2c0.1,1.8-0.3,2.6-2.3,2.5c-2.4-0.2-4.8,0-7.3,0C70.8,27.7,70.8,27.7,70.8,27.6z"/>
	<path class="st0" d="M48.8,122.1c0,7-5.3,12.4-12.1,12.4c-6.7,0-12.2-5.7-12.1-12.5c0.1-6.7,5.5-12.3,12-12.3
		C43.4,109.7,48.8,115.2,48.8,122.1z"/>
	<path class="st0" d="M122.2,122.3c-0.1,6.9-5.4,12.3-12.2,12.2c-6.6-0.1-11.8-5.5-11.8-12.4c0-6.9,5.6-12.6,12.1-12.4
		C117,109.8,122.3,115.4,122.2,122.3z"/>
	<path class="st0" d="M49.4,49.7c1.3,2.7,0.3,5.6,0.5,8.4c0.1,1.6,0.4,2.4,2,2.1c0.2,0,0.4,0,0.6,0c8.6,0.1,8.6,0.1,7.9,9.1
		c-0.1,1.5-0.7,1.7-1.8,1.6c-2.2-0.1-4.4,0.1-6.7-0.1c-1.6-0.1-1.9,0.6-2,2.1c-0.2,2.8,0.8,5.7-0.5,8.4c-2.2-0.6-4.4-0.3-6.5-0.2
		c-2.2,0.1-3-0.5-2.9-2.9c0.1-2.5,0.7-5-0.5-7.4c-2.8,0-5.6-0.1-8.4,0c-1.8,0.1-2.3-0.6-2.2-2.3c0.1-2.1,0.1-4.1,0-6.2
		c-0.1-1.7,0.4-2.4,2.1-2.3c2.8,0.1,5.6,0,8.4,0c1.2-2.4,0.5-5,0.5-7.4c0-2.4,0.7-3,2.9-2.9C45,50,47.2,50.2,49.4,49.7z"/>
</g>
</svg>
