<?xml version="1.0" encoding="utf-8"?>
<!-- Generator: Adobe Illustrator 24.0.2, SVG Export Plug-In . SVG Version: 6.00 Build 0)  -->
<svg version="1.1" id="Capa_1" xmlns="http://www.w3.org/2000/svg" xmlns:xlink="http://www.w3.org/1999/xlink" x="0px" y="0px"
	 viewBox="0 0 43.6 52.4" style="enable-background:new 0 0 43.6 52.4;" xml:space="preserve">
<style type="text/css">
	.st0{fill:#FFFFFF;stroke:#3C3C3B;stroke-width:0.8649;stroke-miterlimit:10;}
	.st1{fill:#3C3C3B;}
	.st2{fill:#00A6AA;}
	.st3{font-family:'MyriadPro-Regular';}
	.st4{font-size:12.6757px;}
	.st5{fill:#50BDC7;}
</style>
<text transform="matrix(1 0 0 1 7.4205 48.7749)" class="st2 st3 st4">Hotel</text>
<g>
	<path class="st5" d="M32.23,37.26c-6.95,0-13.9,0-20.85,0c-0.51-0.29-0.63-0.75-0.62-1.31c0.01-4.06,0.01-8.13,0.01-12.19
		c0-0.25,0-0.49,0-0.65c-0.84,0-1.63,0.18-2.29-0.03c-1.9-0.62-2.37-2.88-0.93-4.35c3.9-3.99,7.8-7.97,11.74-11.92
		c0.58-0.58,1.35-0.98,2.03-1.46c0.33,0,0.66,0,0.99,0c0.68,0.48,1.43,0.9,2.03,1.46c1.25,1.18,2.43,2.45,3.64,3.68
		c2.72,2.76,5.44,5.51,8.15,8.28c0.82,0.84,1,1.84,0.54,2.93c-0.44,1.04-1.34,1.6-2.53,1.56c-0.41-0.02-0.81-0.13-1.27-0.21
		c0,0.29,0,0.54,0,0.8c0,4.04-0.01,8.08,0.01,12.11C32.86,36.52,32.74,36.97,32.23,37.26z M12.65,35.37c1.46,0,2.89,0,4.38,0
		c0-1.55-0.01-3.06,0-4.57c0.01-1.34,0.59-2.38,1.63-3.22c1.15-0.92,2.5-0.84,3.85-0.83c2.22,0.03,4,1.77,4.05,3.98
		c0.03,1.3,0.01,2.6,0.01,3.9c0,0.25,0.02,0.5,0.03,0.73c1.5,0,2.91,0,4.4,0c0-0.29,0-0.55,0-0.8c0-4.23-0.01-8.46,0.01-12.69
		c0-0.55-0.17-0.92-0.55-1.3c-2.77-2.78-5.52-5.58-8.27-8.37c-0.13-0.13-0.27-0.24-0.4-0.36c0.06,0.08,0.12,0.17,0.19,0.25
		c-3.03,2.91-6.07,5.82-9.08,8.75c-0.19,0.18-0.29,0.54-0.29,0.82c-0.02,4.37-0.01,8.74-0.01,13.11
		C12.6,34.98,12.63,35.16,12.65,35.37z M35.16,20.61c-0.24-0.31-0.41-0.6-0.63-0.82c-3.91-3.98-7.83-7.95-11.74-11.92
		c-0.9-0.91-1.07-0.91-1.94-0.03c-3.93,3.99-7.87,7.98-11.8,11.97c-0.13,0.13-0.34,0.28-0.35,0.43c-0.02,0.32-0.04,0.76,0.15,0.93
		c0.19,0.18,0.63,0.17,0.94,0.12c0.19-0.03,0.35-0.3,0.52-0.46c3.49-3.53,6.97-7.07,10.45-10.6c0.88-0.89,1.2-0.89,2.1,0.02
		c3.5,3.55,7,7.11,10.5,10.66c0.15,0.15,0.29,0.36,0.47,0.41c0.25,0.07,0.58,0.1,0.79-0.01C34.85,21.18,34.97,20.88,35.16,20.61z
		 M24.72,35.38c0-1.61,0.02-3.15-0.01-4.68c-0.02-1.1-0.99-2.03-2.11-2.09c-0.49-0.03-0.99-0.02-1.49,0
		c-1.27,0.04-2.21,0.99-2.22,2.27c-0.01,1.02,0,2.03,0,3.05c0,0.48,0,0.97,0,1.49c1.87,0,3.64,0,5.41,0
		C24.42,35.41,24.53,35.4,24.72,35.38z"/>
	<path class="st5" d="M15.64,23.36c0.4-0.74,0.11-1.66,0.03-2.6c-0.1-1.11,0.78-2.18,1.84-2.49c1.14-0.33,2.29,0.09,2.98,1.09
		c0.53,0.78,2.11,0.77,2.65-0.01c0.8-1.15,2.23-1.52,3.44-0.89c1.16,0.61,1.66,1.98,1.24,3.28c-0.08,0.25-0.08,0.58,0.01,0.84
		c0.43,1.34-0.09,2.7-1.3,3.31c-1.23,0.62-2.63,0.25-3.39-0.97c-0.23-0.36-0.47-0.47-0.85-0.44c-0.28,0.02-0.57,0.03-0.85,0
		c-0.45-0.05-0.71,0.11-0.96,0.5c-0.66,1.03-1.81,1.41-2.97,1.07C16.44,25.75,15.65,24.67,15.64,23.36z M26.26,20.67
		c-0.31-0.24-0.59-0.64-0.85-0.62c-0.3,0.02-0.75,0.37-0.81,0.64c-0.15,0.71-0.49,1.02-1.2,1.01c-1.11-0.02-2.22-0.01-3.33,0
		c-0.59,0-0.96-0.29-1.01-0.86c-0.05-0.48-0.28-0.8-0.72-0.81c-0.25-0.01-0.67,0.22-0.71,0.41c-0.07,0.3,0.01,0.75,0.2,0.99
		c0.44,0.55,0.42,0.97-0.01,1.51c-0.19,0.24-0.26,0.69-0.18,0.98c0.05,0.19,0.55,0.45,0.71,0.38c0.29-0.13,0.58-0.46,0.67-0.77
		c0.17-0.58,0.44-0.91,1.07-0.9c1.13,0.01,2.27,0.01,3.4,0c0.63-0.01,0.9,0.32,1.09,0.89c0.1,0.31,0.37,0.66,0.66,0.77
		c0.18,0.07,0.67-0.21,0.75-0.43c0.1-0.25-0.01-0.7-0.2-0.92c-0.44-0.53-0.5-0.98-0.01-1.49C25.95,21.27,26.05,21.02,26.26,20.67z"
		/>
</g>
</svg>
