<?xml version="1.0" encoding="utf-8"?>
<!-- Generator: Adobe Illustrator 23.0.5, SVG Export Plug-In . SVG Version: 6.00 Build 0)  -->
<svg version="1.1" id="Capa_1" xmlns="http://www.w3.org/2000/svg" xmlns:xlink="http://www.w3.org/1999/xlink" x="0px" y="0px"
	 viewBox="0 0 340.45 147.93" style="enable-background:new 0 0 340.45 147.93;" xml:space="preserve">
<style type="text/css">
	.st0{fill:#48A4A8;}
</style>
<g>
	<g>
		<path class="st0" d="M59.33,132.84c4.13-0.69,8.34-1.05,12.36-2.13c10.32-2.77,16.31-10.49,16.45-20.3
			c0.09-6.8-3.53-11.6-8.83-14.68c-8.7-5.06-17.9-9.24-26.8-13.96c-7.99-4.24-16.38-7.97-23.68-13.21
			c-17.09-12.28-16.15-32.6,1.54-44.1c9.71-6.32,20.47-8.81,32.1-7.66c-2.1,0.31-4.23,0.48-6.29,0.96c-3.31,0.76-6.76,1.3-9.83,2.67
			c-11.99,5.35-14.66,19.67-4.67,28.1c6.04,5.1,13.46,8.65,20.48,12.48c9.9,5.4,20.12,10.21,29.95,15.73
			c3.34,1.88,6.21,4.88,8.76,7.82c7.76,8.96,7.8,21.64,0.4,31.76C93.33,127.17,73,135.56,59.33,132.84z"/>
		<g>
			<path class="st0" d="M30.12,87.2c-9.03,0-16.35,7.23-16.35,16.15c0,6.69,4.12,12.42,9.98,14.88c-1.21-0.83-2.22-1.85-2.99-3.11
				c-0.67-1.09-1.09-2.26-1.28-3.52c-0.11-0.75-0.1-1.51-0.07-2.27c0.04-1.11,0.06-2.22,0.1-3.32c0.05-1.71,0.11-3.42,0.16-5.13
				c0.03-1.11,0.06-2.22,0.09-3.32c0.02-0.53,0.04-1.05,0.06-1.61c0.28,0.23,0.53,0.43,0.78,0.64c0.97,0.81,1.93,1.62,2.89,2.43
				c0.71,0.6,1.43,1.19,2.13,1.79c0.29,0.25,0.59,0.31,0.96,0.18c0.77-0.27,1.57-0.47,2.39-0.53c0.69-0.05,1.39-0.08,2.08-0.07
				c1.1,0.03,2.17,0.25,3.21,0.62c0.32,0.11,0.59,0.08,0.85-0.14c0.86-0.73,1.73-1.46,2.6-2.18c0.79-0.66,1.57-1.32,2.36-1.97
				c0.29-0.25,0.59-0.49,0.91-0.76c0.01,0.18,0.03,0.33,0.03,0.48c0.03,1.01,0.05,2.03,0.08,3.04c0.06,2.15,0.14,4.3,0.2,6.46
				c0.04,1.33,0.06,2.66,0.11,3.99c0.05,1.38-0.19,2.71-0.73,3.98c-0.56,1.32-1.39,2.45-2.45,3.41c-0.09,0.08-0.18,0.15-0.26,0.22
				c5.07-2.74,8.51-8.06,8.51-14.17C46.46,94.43,39.15,87.2,30.12,87.2z"/>
			<path class="st0" d="M30.36,116.22c-0.32,0.43-0.77,0.76-1.27,1.01c-0.61,0.31-1.27,0.49-1.95,0.58
				c-0.36,0.04-0.72,0.06-1.08,0.08c-0.25,0.01-0.4-0.14-0.4-0.36c0-0.21,0.15-0.34,0.4-0.35c0.83-0.01,1.64-0.14,2.41-0.46
				c0.52-0.21,0.99-0.49,1.33-0.95c0.16-0.22,0.24-0.47,0.24-0.73c0-0.29,0-0.57,0-0.86c0-0.12-0.03-0.16-0.16-0.19
				c-0.61-0.12-1.13-0.41-1.47-0.94c-0.44-0.68-0.31-1.54,0.29-2.1c0.83-0.78,2.27-0.86,3.18-0.18c1.08,0.82,1.01,2.23-0.16,2.9
				c-0.26,0.15-0.56,0.21-0.84,0.33c-0.05,0.02-0.12,0.07-0.12,0.11c-0.01,0.35-0.03,0.7,0,1.05c0.05,0.55,0.42,0.9,0.85,1.19
				c0.67,0.44,1.42,0.66,2.21,0.75c0.32,0.04,0.64,0.05,0.96,0.07c0.2,0.01,0.34,0.15,0.34,0.35c0,0.19-0.14,0.36-0.33,0.36
				c-1.27,0-2.48-0.22-3.56-0.93C30.92,116.75,30.66,116.47,30.36,116.22z"/>
			<path class="st0" d="M20.65,101.22c0.03-0.79,0.05-1.57,0.08-2.36c0-0.15,0.06-0.26,0.19-0.33c0.15-0.07,0.3-0.04,0.42,0.07
				c0.46,0.38,0.91,0.77,1.37,1.15c0.57,0.47,1.14,0.95,1.7,1.42c0.14,0.12,0.2,0.26,0.15,0.43c-0.05,0.17-0.18,0.21-0.34,0.25
				c-1.09,0.27-2.13,0.67-2.98,1.44c-0.13,0.12-0.27,0.17-0.43,0.1c-0.18-0.08-0.22-0.23-0.21-0.4
				C20.62,102.4,20.64,101.81,20.65,101.22C20.66,101.22,20.65,101.22,20.65,101.22z"/>
			<path class="st0" d="M40.22,100.97c0.02,0.69,0.03,1.38,0.05,2.06c0,0.15-0.04,0.28-0.18,0.35c-0.15,0.07-0.3,0.05-0.42-0.06
				c-0.62-0.57-1.35-0.94-2.14-1.22c-0.29-0.1-0.59-0.18-0.89-0.26c-0.15-0.04-0.29-0.08-0.33-0.24c-0.04-0.17,0.01-0.3,0.15-0.42
				c0.68-0.57,1.35-1.14,2.03-1.71c0.33-0.28,0.66-0.55,0.99-0.83c0.14-0.12,0.28-0.19,0.46-0.12c0.18,0.08,0.22,0.24,0.22,0.42
				C40.18,99.62,40.2,100.29,40.22,100.97C40.22,100.97,40.22,100.97,40.22,100.97z"/>
			<path class="st0" d="M34.31,108.03c0-0.72,0.38-1.33,0.98-1.56c0.51-0.2,1.12-0.02,1.46,0.41c0.54,0.68,0.54,1.57,0.02,2.26
				c-0.51,0.68-1.52,0.7-2.06,0.04C34.44,108.86,34.3,108.47,34.31,108.03z"/>
			<path class="st0" d="M26.48,108.04c0,0.72-0.38,1.34-0.99,1.56c-0.54,0.2-1,0.04-1.39-0.35c-0.67-0.68-0.61-1.93,0.11-2.54
				c0.58-0.49,1.4-0.41,1.88,0.19C26.36,107.24,26.48,107.62,26.48,108.04z"/>
			<path class="st0" d="M36.79,112.52c0.98,0,1.96,0,2.94,0c0.18,0,0.33,0.12,0.37,0.29c0.03,0.16-0.07,0.33-0.22,0.39
				c-0.05,0.02-0.1,0.02-0.15,0.02c-1.96,0-3.92,0-5.88,0c-0.23,0-0.39-0.16-0.39-0.36c0-0.19,0.17-0.35,0.38-0.35
				C34.81,112.52,35.8,112.52,36.79,112.52z"/>
			<path class="st0" d="M24.2,112.52c0.97,0,1.95,0,2.92,0c0.24,0,0.38,0.14,0.38,0.36c-0.01,0.21-0.14,0.34-0.36,0.34
				c-1.27,0-2.53,0-3.8,0c-0.71,0-1.41,0-2.12,0c-0.17,0-0.29-0.08-0.34-0.24c-0.05-0.17,0.01-0.34,0.16-0.42
				c0.07-0.04,0.16-0.04,0.23-0.04C22.25,112.52,23.22,112.52,24.2,112.52z"/>
			<path class="st0" d="M23.84,117.04c-0.2,0-0.33-0.1-0.38-0.27c-0.05-0.17,0.03-0.33,0.2-0.42c0.43-0.23,0.87-0.45,1.3-0.68
				c0.83-0.43,1.65-0.86,2.48-1.28c0.22-0.11,0.42-0.06,0.52,0.13c0.1,0.19,0.03,0.39-0.19,0.5c-1.24,0.65-2.49,1.29-3.73,1.94
				C23.96,117,23.89,117.02,23.84,117.04z"/>
			<path class="st0" d="M33.28,114.32c0.08,0.03,0.16,0.04,0.22,0.07c1.26,0.65,2.52,1.31,3.78,1.96c0.17,0.09,0.25,0.21,0.22,0.39
				c-0.02,0.16-0.12,0.27-0.28,0.29c-0.09,0.01-0.2-0.01-0.28-0.06c-0.71-0.36-1.42-0.73-2.12-1.1c-0.54-0.28-1.08-0.56-1.63-0.84
				c-0.28-0.14-0.33-0.42-0.11-0.61C33.13,114.37,33.22,114.35,33.28,114.32z"/>
			<path class="st0" d="M35.02,114.14c0-0.22,0.2-0.39,0.42-0.35c0.48,0.09,0.97,0.19,1.45,0.29c0.62,0.12,1.24,0.25,1.86,0.37
				c0.3,0.06,0.44,0.23,0.37,0.47c-0.06,0.18-0.21,0.29-0.4,0.25c-0.58-0.11-1.15-0.24-1.72-0.35c-0.52-0.1-1.05-0.2-1.57-0.3
				C35.15,114.47,35.02,114.35,35.02,114.14z"/>
			<path class="st0" d="M21.81,114.83c0-0.2,0.1-0.32,0.33-0.36c0.6-0.12,1.21-0.24,1.81-0.36c0.51-0.1,1.01-0.2,1.52-0.3
				c0.22-0.04,0.4,0.06,0.44,0.24c0.05,0.22-0.05,0.4-0.28,0.44c-0.86,0.18-1.73,0.35-2.6,0.52c-0.27,0.05-0.53,0.11-0.8,0.16
				C22.01,115.22,21.81,115.05,21.81,114.83z"/>
		</g>
		<g>
			<path class="st0" d="M106.47,47.13c0.01,0.19,0.03,0.38,0.02,0.57c-0.06,1.21-0.23,2.4-0.55,3.57c-0.45,1.64-1.13,3.18-2.07,4.6
				c-0.98,1.5-2.17,2.8-3.59,3.9c-0.42,0.33-0.86,0.62-1.32,0.9c0.11-0.21,0.22-0.41,0.33-0.62c0.48-0.93,0.76-1.93,0.93-2.95
				c0.3-1.77,0.34-3.56,0.24-5.35c-0.06-1.01-0.16-2.03-0.28-3.04c-0.04-0.33-0.15-0.65-0.27-0.96c-0.1-0.27-0.11-0.54-0.09-0.82
				c0.08-1.01,0.02-2.02-0.12-3.02c-0.15-1.07-0.43-2.1-0.81-3.1c-0.36-0.96-0.83-1.87-1.45-2.69c-0.29-0.38-0.62-0.74-1.02-1.02
				c-0.52-0.37-1.03-0.37-1.59-0.07c-0.94,0.51-1.57,1.31-2.02,2.24c-0.32,0.67-0.54,1.39-0.8,2.09c-0.02,0.06-0.03,0.11-0.05,0.17
				c-1.05-0.01-2.08-0.24-3.13-0.02c-0.1-0.32-0.19-0.62-0.29-0.92c-0.36-1.05-0.83-2.05-1.62-2.86c-0.39-0.4-0.85-0.7-1.38-0.89
				c-0.37-0.13-0.7-0.03-1.01,0.15c-0.56,0.33-0.95,0.82-1.32,1.34c-0.74,1.05-1.24,2.2-1.61,3.42c-0.42,1.37-0.62,2.77-0.64,4.19
				c0,0.21-0.01,0.43,0.03,0.63c0.06,0.36-0.11,0.67-0.21,0.98c-0.39,1.15-0.63,2.32-0.81,3.52c-0.2,1.35-0.28,2.7-0.23,4.06
				c0.05,1.37,0.25,2.72,0.74,4c0.12,0.32,0.28,0.63,0.4,0.97c-0.31-0.25-0.63-0.48-0.94-0.74c-1.45-1.23-2.66-2.66-3.6-4.31
				c-0.94-1.65-1.58-3.41-1.9-5.28c-0.19-1.11-0.27-2.22-0.23-3.34c0.07-1.99,0.48-3.91,1.27-5.73c0.98-2.29,2.41-4.25,4.29-5.89
				c1.47-1.27,3.11-2.25,4.93-2.93c1.3-0.48,2.63-0.8,4.01-0.94c0.42-0.04,0.84-0.06,1.27-0.08c0.07,0,0.14,0.02,0.22,0.03
				c0.13,0.16,0.25,0.17,0.38,0c0.08-0.01,0.16-0.04,0.24-0.03c1.66,0.04,3.28,0.33,4.85,0.88c2.4,0.84,4.48,2.16,6.26,3.98
				c1.5,1.53,2.64,3.29,3.44,5.28c0.51,1.25,0.84,2.55,1.02,3.88c0.01,0.06-0.01,0.13-0.02,0.2c-0.25,0.26-0.5,0.52-0.75,0.77
				c-0.16,0.16-0.17,0.22,0,0.39C105.88,46.55,106.18,46.84,106.47,47.13z"/>
			<path class="st0" d="M88.7,49.11c-0.05,0.99-0.49,2.01-1.59,2.62c-1.27,0.7-2.81,0.21-3.57-1.11c-0.72-1.26-0.59-2.83,0.34-3.94
				c1-1.21,2.77-1.27,3.89-0.14C88.37,47.15,88.7,47.97,88.7,49.11z M85,48.71c0,0.49,0.4,0.89,0.9,0.9c0.49,0,0.91-0.41,0.9-0.9
				c-0.01-0.51-0.39-0.9-0.89-0.9C85.39,47.81,85,48.2,85,48.71z"/>
			<path class="st0" d="M82.31,45.69c0.02-0.83,0.11-1.64,0.28-2.45c0.27-1.23,0.68-2.42,1.34-3.49c0.3-0.5,0.69-0.94,1.04-1.41
				c0.14-0.19,0.3-0.18,0.49-0.06c0.56,0.35,0.92,0.86,1.23,1.42c0.38,0.7,0.62,1.45,0.85,2.21c0.06,0.19,0.03,0.27-0.19,0.34
				c-1.37,0.42-2.59,1.13-3.66,2.09c-0.45,0.4-0.86,0.86-1.28,1.29c-0.03,0.03-0.04,0.07-0.06,0.1
				C82.35,45.71,82.33,45.7,82.31,45.69z"/>
			<path class="st0" d="M98.45,45.69c-0.56-0.53-1.1-1.09-1.68-1.59c-1.01-0.86-2.16-1.49-3.44-1.88c-0.16-0.05-0.18-0.11-0.13-0.26
				c0.24-0.88,0.53-1.73,1-2.52c0.27-0.45,0.6-0.86,1.06-1.15c0.27-0.17,0.33-0.17,0.56,0.07c0.5,0.51,0.87,1.11,1.21,1.73
				c0.65,1.2,1.05,2.48,1.26,3.82c0.09,0.56,0.11,1.13,0.17,1.69C98.46,45.65,98.45,45.68,98.45,45.69z"/>
			<path class="st0" d="M90,58.07c0-0.47,0-0.94,0-1.41c0-0.13-0.04-0.19-0.17-0.25c-0.96-0.4-1.56-1.11-1.7-2.15
				c-0.09-0.69,0.22-1.13,0.93-1.3c0.98-0.22,1.97-0.22,2.93,0.08c0.73,0.23,0.95,0.63,0.84,1.39c-0.14,0.97-0.69,1.61-1.61,1.93
				c-0.17,0.06-0.21,0.14-0.21,0.31c0.01,0.94,0.01,1.87,0,2.81c0,0.44-0.43,0.67-0.79,0.45C90.08,59.84,90,59.71,90,59.53
				C90.01,59.04,90,58.56,90,58.07C90,58.07,90,58.07,90,58.07z"/>
			<path class="st0" d="M94.88,47.82c0.51,0,0.88,0.39,0.88,0.9c0,0.49-0.39,0.88-0.88,0.88c-0.51,0-0.9-0.39-0.9-0.89
				C93.98,48.2,94.37,47.82,94.88,47.82z"/>
			<path class="st0" d="M106.47,47.13c-0.3-0.29-0.59-0.58-0.89-0.87c-0.16-0.16-0.16-0.23,0-0.39c0.25-0.25,0.5-0.51,0.75-0.77
				c0.03,0.16,0.07,0.32,0.09,0.49c0.03,0.44,0.05,0.88,0.07,1.32C106.5,46.99,106.48,47.06,106.47,47.13z"/>
		</g>
	</g>
	<g>
		<g>
			<path class="st0" d="M140.84,42.64c2.52,0.07,4.84,0.7,6.94,2.03c1.26,0.77,1.82,1.82,1.61,3.29c-0.35,1.96-2.24,3.08-4.14,2.45
				c-0.84-0.28-1.61-0.7-2.45-0.98c-1.26-0.49-2.59-0.49-3.86-0.07c-2.87,0.91-4.28,3.72-3.29,6.73c0.77,2.52,2.45,4.21,4.91,5.19
				c1.05,0.42,2.17,0.7,3.22,1.12c9.32,3.5,12.9,15.91,6.73,23.69c-3.43,4.28-8.06,5.75-13.46,4.42c-4.42-1.12-7.64-3.93-9.67-7.99
				c-0.28-0.49-0.49-0.98-0.56-1.61c-0.07-1.4,0.56-2.59,1.75-3.22c1.26-0.56,2.59-0.28,3.65,0.77c0.42,0.49,0.77,1.12,1.12,1.68
				c1.19,1.96,2.8,3.44,5.05,4.14c3.15,0.98,6.31-0.35,7.85-3.22c2.59-4.98-0.35-11.64-5.82-13.04c-3.15-0.84-5.96-2.45-8.13-4.98
				c-2.8-3.29-3.93-7.08-3.08-11.36C130.33,46.21,135.09,42.64,140.84,42.64z"/>
			<path class="st0" d="M156.82,66.68c0-6.59-0.07-13.25,0-19.84c0-2.73,0.42-3.29,2.94-4.28c1.4-0.63,2.73-0.77,4.21-0.77
				c3.29,0.07,6.59,0.07,9.88,0.07c0.7,0,1.33,0,1.96,0.28c1.33,0.42,2.1,1.47,2.1,2.8c0.07,1.33-0.63,2.38-1.89,2.94
				c-0.7,0.28-1.4,0.35-2.17,0.35h-8.9c-1.68,0-1.75,0.07-1.75,1.75v7.5c0,1.4,0.14,1.54,1.47,1.54h3.93c0.42,0,0.84,0,1.26,0.07
				c1.4,0.21,2.52,1.26,2.73,2.66c0.14,1.33-0.63,2.66-1.89,3.29c-0.7,0.28-1.4,0.35-2.17,0.35h-3.29
				c-2.03,0.07-2.03,0.07-2.03,2.17c0,3.08,0,6.1,0,9.18v5.82c0.07,1.4,0.14,1.47,1.54,1.47c2.59,0.07,5.19,0,7.85,0
				c0.63,0,1.19,0,1.82,0.21c1.26,0.49,2.03,1.4,2.1,2.66c0.14,1.33-0.56,2.31-1.68,3.01c-0.7,0.35-1.47,0.49-2.24,0.49
				c-4.14,0.07-8.2,0.07-12.34,0.07c-2.24,0-3.5-1.26-3.5-3.36c0-6.8,0-13.6,0-20.47H156.82z"/>
			<path class="st0" d="M194.95,69.27c1.26,1.54,2.52,3.01,3.72,4.49c2.59,3.08,5.26,6.1,7.85,9.18c0.35,0.49,0.77,0.98,1.05,1.47
				c0.77,1.4,0.56,2.87-0.56,3.85c-1.12,1.05-2.8,1.12-4,0.14c-0.63-0.42-1.19-1.05-1.68-1.61c-4.35-5.12-8.69-10.23-13.04-15.42
				c-0.14-0.14-0.28-0.21-0.49-0.42c-0.49,0.42-0.28,0.91-0.28,1.33c0,4.07,0,8.13-0.07,12.2c0,0.63,0.07,1.33-0.21,1.96
				c-0.49,1.4-1.82,2.38-3.15,2.31c-1.54-0.14-2.73-1.26-2.94-2.8c-0.07-0.42-0.07-0.91-0.07-1.4c0-12.2,0.07-24.39,0.07-36.59
				c0-0.77,0-1.54,0.21-2.31c0.77-2.45,3.72-3.22,5.33-1.26c0.84,0.98,1.47,0.91,2.45,0.49c7.36-3.01,15.49,1.75,16.96,9.25
				c1.26,6.52-2.87,12.97-9.46,14.58C196.07,68.85,195.58,68.85,194.95,69.27z M187.73,56.45c-0.21,3.65,3.01,6.24,5.89,6.24
				c3.43,0,6.24-2.66,6.24-6.1c0.07-3.36-2.73-6.24-6.1-6.24C190.33,50.35,187.52,53.22,187.73,56.45z"/>
			<path class="st0" d="M225.3,75.44c1.12-4.28,2.24-8.48,3.36-12.69l3.58-13.81c0.21-0.7,0.35-1.4,0.7-2.03
				c0.7-1.47,2.24-2.1,3.64-1.75c1.4,0.42,2.31,1.61,2.31,3.15c0,0.91-0.28,1.75-0.56,2.59c-2.87,11.15-5.82,22.29-8.69,33.44
				c-0.21,0.77-0.35,1.54-0.63,2.24c-0.7,1.96-2.17,2.59-4.28,2.17c-2.1-0.42-3.29-1.61-3.85-3.71
				c-3.01-11.64-6.17-23.27-9.25-34.91c-0.14-0.49-0.28-1.05-0.35-1.54c-0.28-1.68,0.56-3.22,2.1-3.72
				c1.61-0.49,3.15,0.21,3.86,1.82c0.28,0.56,0.42,1.19,0.63,1.75l6.94,26.01c0.07,0.35,0.14,0.7,0.28,1.05
				C225.16,75.44,225.23,75.44,225.3,75.44z"/>
			<path class="st0" d="M242.05,79.58c0.28-10.94,0.21-21.94,0.28-32.95c0-0.84,0.07-1.68,0.35-2.45c0.56-1.26,1.68-1.96,2.94-1.96
				s2.38,0.77,2.87,1.96c0.28,0.7,0.42,1.47,0.42,2.17c-0.07,1.4,0,2.8-0.07,4.21c-0.35,10.51-0.14,21.1-0.28,31.61
				c0,1.05-0.07,2.17-0.21,3.22c-0.21,1.89-1.54,3.08-3.22,3.01c-1.54-0.07-2.94-1.26-3.01-3.01
				C241.98,83.5,242.05,81.54,242.05,79.58z"/>
			<path class="st0" d="M252.08,65.91V47.89c0-0.84,0-1.68,0.28-2.45c0.77-2.59,3.65-3.22,5.47-1.26c0.84,0.98,0.84,0.98,2.17,0.49
				c6.73-2.31,13.6,1.05,15.42,8.06c1.61,6.17-2.52,12.83-8.76,14.02c-2.24,0.42-4.49,0.35-6.66-0.49
				c-1.26-0.49-1.26-0.42-1.33,0.98c-0.28,5.68-0.21,11.29-0.21,16.89c0,0.63,0,1.26-0.14,1.89c-0.28,1.4-1.47,2.38-2.87,2.45
				c-1.4,0.07-2.59-0.77-3.08-2.1c-0.28-0.84-0.28-1.68-0.28-2.52v-9.04C252.08,71.8,252.08,68.85,252.08,65.91z M264.13,60.58
				c3.01,0,5.19-2.17,5.19-5.12c-0.07-2.87-2.38-5.26-5.19-5.19c-2.8,0-5.12,2.31-5.12,5.19C259.02,58.41,261.19,60.58,264.13,60.58
				z"/>
			<path class="st0" d="M278.99,66.68c0-6.59-0.07-13.25,0-19.84c0-2.73,0.42-3.29,2.94-4.28c1.4-0.63,2.73-0.77,4.21-0.77
				c3.29,0.07,6.59,0.07,9.88,0.07c0.7,0,1.33,0,1.96,0.28c1.33,0.42,2.1,1.47,2.1,2.8c0.07,1.33-0.63,2.38-1.89,2.94
				c-0.7,0.28-1.4,0.35-2.17,0.35h-8.9c-1.68,0-1.75,0.07-1.75,1.75v7.5c0,1.4,0.14,1.54,1.47,1.54h3.93c0.42,0,0.84,0,1.26,0.07
				c1.4,0.21,2.52,1.26,2.73,2.66c0.14,1.33-0.63,2.66-1.89,3.29c-0.7,0.28-1.4,0.35-2.17,0.35h-3.29
				c-2.03,0.07-2.03,0.07-2.03,2.17c0,3.08,0,6.1,0,9.18v5.82c0.07,1.4,0.14,1.47,1.54,1.47c2.59,0.07,5.19,0,7.85,0
				c0.63,0,1.19,0,1.82,0.21c1.26,0.49,2.03,1.4,2.1,2.66c0.14,1.33-0.56,2.31-1.68,3.01c-0.7,0.35-1.47,0.49-2.24,0.49
				c-4.14,0.07-8.2,0.07-12.34,0.07c-2.24,0-3.5-1.26-3.5-3.36c0-6.8,0-13.6,0-20.47H278.99z"/>
			<path class="st0" d="M307.94,69.06V52.17c0-0.35,0.07-0.7,0-1.05c-0.07-1.12-0.14-1.19-1.33-1.26c-0.35,0-0.7,0-1.05,0h-7.99
				c-0.56,0-1.05,0-1.54-0.07c-1.4-0.28-2.45-1.54-2.59-2.8c-0.07-1.4,0.77-2.66,2.1-3.15c0.7-0.28,1.47-0.35,2.17-0.35
				c9.11,0,18.23-0.07,27.34-0.07c0.63,0,1.19,0.07,1.75,0.28c1.26,0.42,2.17,1.68,2.17,2.94c0.07,1.19-0.84,2.45-2.17,2.94
				c-0.63,0.21-1.33,0.21-1.96,0.21c-2.87,0.07-5.75,0.07-8.62,0.07c-1.82,0-1.82,0-1.82,1.82v34.07c0,0.63,0,1.26-0.07,1.89
				c-0.28,1.61-1.54,2.8-3.08,2.8c-1.47,0-2.87-1.19-3.15-2.73c-0.14-0.56-0.07-1.19-0.07-1.75
				C307.94,80.35,307.94,74.74,307.94,69.06z"/>
		</g>
		<g>
			<g>
				<path class="st0" d="M180.44,107.19c0.02,2.16,0.06,4.32,0,6.48c-0.02,0.58-1.72,0.29-1.71-0.37c0.06-2.16,0.02-4.32,0-6.48
					c-0.02-2.37,0.34-5.27-0.89-7.39c-0.68-1.15-2.42-2.28-3.71-1.32c-1.09,0.81-1.67,2.32-1.85,3.62c-0.26,1.85-0.15,3.8-0.11,5.67
					c0.03,2.02,0.21,4.03,0.18,6.06c0,0.29-0.42,0.37-0.85,0.29c-0.24,0.18-1.06-0.02-1.06-0.39c0.02-2.21,0.05-4.42,0-6.63
					c-0.03-1.97,0.03-4.13-0.47-6.05c-0.31-1.14-1.14-2.81-2.49-2.96c-1.41-0.16-2.36,0.88-2.91,2.13c0,4.63,0,9.26,0,13.89
					c0,0.76-2.26,0.39-2.26-0.5c0-5.36,0-10.73,0-16.09c0-0.76,2.26-0.39,2.26,0.5c0,0.11,0,0.23,0,0.34
					c0.39-0.34,0.84-0.6,1.38-0.76c2.37-0.72,4.14,0.96,4.94,2.97c0.16-0.55,0.39-1.09,0.71-1.59c0.91-1.41,2.21-1.93,3.87-1.72
					c1.54,0.21,2.97,0.91,3.85,2.24c1.51,2.29,1.12,5.44,1.14,8.08L180.44,107.19z"/>
				<path class="st0" d="M182.06,99.83c0-0.68,0.55-1.24,1.24-1.24c0.68,0,1.23,0.55,1.23,1.24c0,0.68-0.55,1.23-1.23,1.23
					C182.62,101.07,182.06,100.52,182.06,99.83z M184.47,102.5c0,3.74,0,7.48,0,11.21c0,0.76-2.26,0.39-2.26-0.5
					c0-3.74,0-7.48,0-11.21C182.21,101.23,184.47,101.6,184.47,102.5z"/>
				<path class="st0" d="M204.12,113.57c0.19,0.65-1.51,0.47-1.67-0.11c-0.2-0.67-0.39-1.33-0.59-2c-0.39-1.35-0.78-2.7-1.17-4.05
					c-0.08,0-0.16,0-0.23,0c-1.46,0-2.92,0-4.39,0c-0.7,2.06-1.4,4.13-2.1,6.19c-0.28,0.84-2.52,0.29-2.26-0.47
					c0.23-0.67,0.46-1.33,0.68-2c1.58-4.68,3.15-9.36,4.73-14.04c0.18-0.54,1.19-0.49,1.8-0.18c0.26,0.1,0.47,0.24,0.52,0.42
					c0.19,0.67,0.39,1.33,0.58,2c1.37,4.75,2.73,9.49,4.1,14.24H204.12z M200.09,106.11c0.06,0,0.13,0,0.21,0.02
					c-0.59-2.03-1.17-4.06-1.76-6.09c-0.68,2.03-1.36,4.06-2.05,6.09c1.2,0,2.4,0,3.61,0L200.09,106.11z"/>
				<path class="st0" d="M223.69,108.51c0.02,1.69,0.08,3.4,0.02,5.09c-0.03,0.58-1.74,0.28-1.71-0.39c0.06-1.63,0.02-3.27,0-4.89
					c-0.02-1.77,0.28-4.06-1.12-5.4c-0.78-0.73-2.34-1.09-3.35-0.65c-0.94,0.41-1.63,1.4-1.89,2.37c-0.36,1.32-0.19,2.84-0.18,4.19
					c0.03,1.54,0.21,3.07,0.18,4.62c0,0.31-0.47,0.37-0.91,0.28c-0.31,0.11-0.98-0.08-0.98-0.42c0.02-1.71,0.05-3.41-0.02-5.12
					c-0.05-1.36,0-3.01-0.55-4.27c-0.47-1.09-1.53-1.93-2.75-1.87c-1.12,0.06-2.02,0.67-2.57,1.53c0,3.38,0,6.76,0,10.14
					c0,0.76-2.26,0.39-2.26-0.5c0-3.92,0-7.83,0-11.75c0-0.76,2.26-0.39,2.26,0.5c0,0.07,0,0.13,0,0.2
					c1.63-1.09,4.01-1.02,5.57,0.55c0.31,0.33,0.55,0.68,0.73,1.06c0.26-0.67,0.67-1.27,1.32-1.79c1.85-1.46,5.2-0.86,6.82,0.7
					c1.59,1.54,1.38,3.85,1.41,5.9L223.69,108.51z"/>
				<path class="st0" d="M225.35,99.83c0-0.68,0.55-1.24,1.23-1.24s1.24,0.55,1.24,1.24c0,0.68-0.55,1.23-1.24,1.23
					S225.35,100.52,225.35,99.83z M227.75,102.5c0,3.74,0,7.48,0,11.21c0,0.76-2.26,0.39-2.26-0.5c0-3.74,0-7.48,0-11.21
					C225.49,101.23,227.75,101.6,227.75,102.5z"/>
				<path class="st0" d="M238.98,108.87c0.02,1.66,0.13,3.33-0.1,4.97c-0.23,1.69-0.78,3.66-2.39,4.53
					c-1.75,0.96-4.26,0.62-6.13,0.26c-0.33-0.06-1.11-0.37-1.01-0.84c0.11-0.49,0.93-0.41,1.28-0.34c1.61,0.31,3.79,0.58,4.89-0.89
					c0.94-1.25,1.14-3.09,1.2-4.6c0.02-0.44,0.03-0.88,0.03-1.32c-1.22,1.59-3.49,1.72-5.23,0.96c-1.97-0.86-2.49-2.88-2.45-4.84
					c0.05-2.05,0.5-3.98,2.55-4.84c1.9-0.8,4.11-0.33,5.79,0.78c0.11,0.08,0.2,0.16,0.24,0.23c0.6,0.08,1.25,0.41,1.25,0.89
					c0.03,1.69,0.03,3.38,0.05,5.07L238.98,108.87z M235.47,109.6c1.04-1.76,1.3-3.92,0.89-5.9c-0.03-0.15,0.02-0.24,0.11-0.31
					c-0.05-0.02-0.08-0.03-0.11-0.06c-1.61-1.07-3.8-1.1-4.94,0.67c-0.52,0.81-0.58,1.85-0.62,2.79c-0.03,0.96-0.02,1.98,0.39,2.88
					c0.42,0.94,1.19,1.46,2.23,1.41c0.98-0.05,1.61-0.71,2.08-1.51L235.47,109.6z"/>
				<path class="st0" d="M248.2,107.42c0,3.49-1.87,6.32-4.18,6.32s-4.18-2.83-4.18-6.32c0-3.49,1.87-6.32,4.18-6.32
					S248.2,103.93,248.2,107.42z M244.04,112.25c1.61,0.08,3.09-1.23,3.12-4.92c0.03-3.88-1.54-4.94-3.14-4.94
					c-1.38,0-2.5,2.21-2.5,4.94s1.12,4.88,2.5,4.94L244.04,112.25z"/>
				<path class="st0" d="M263,106.09c0.16,0.33-0.13,0.54-0.46,0.54c-1.82,0.03-3.64,0.03-5.46,0c0,2.36,0,4.71,0,7.07
					c0,0.76-2.26,0.39-2.26-0.5c0-5.2,0-10.4,0-15.6c0-0.06,0.02-0.13,0.05-0.18c-0.02-0.02-0.02-0.03-0.02-0.05
					c-0.07-0.39,0.46-0.44,0.71-0.44c2.1,0.05,4.19,0.06,6.29,0.03c0.34,0,0.94,0.08,1.12,0.44c0.16,0.33-0.13,0.54-0.46,0.54
					c-1.82,0.03-3.64,0.03-5.46,0c0.02,0.06,0.03,0.13,0.03,0.19c0,2.54,0,5.07,0,7.61c1.59,0.03,3.19,0.03,4.78,0
					c0.34,0,0.94,0.08,1.12,0.44V106.09z"/>
				<path class="st0" d="M263.82,99.83c0-0.68,0.55-1.24,1.23-1.24s1.24,0.55,1.24,1.24c0,0.68-0.55,1.23-1.24,1.23
					S263.82,100.52,263.82,99.83z M266.22,102.5c0,3.74,0,7.48,0,11.21c0,0.76-2.26,0.39-2.26-0.5c0-3.74,0-7.48,0-11.21
					C263.96,101.23,266.22,101.6,266.22,102.5z"/>
				<path class="st0" d="M272.45,101.73c3.25-0.11,6.52,1.9,6.57,5.4c0,0.28-0.49,0.39-0.67,0.39c-2.79,0.03-5.59,0.06-8.39,0.1
					c-0.1,0.94-0.16,1.92,0.05,2.8c0.49,2.08,3.02,2.92,4.88,2.11c0.5-0.21,1.14-0.15,1.59,0.13c0.28,0.16,0.73,0.68,0.23,0.91
					c-2.39,1.06-5.82,0.62-7.74-1.23c-0.86-0.83-1.3-1.85-1.35-3.06c-0.05-1.33,0.05-2.78,0.24-4.1c0.32-2.15,2.58-3.38,4.61-3.45
					H272.45z M270.03,106.33c2.23-0.03,4.45-0.06,6.68-0.1c-0.11-0.88-0.58-1.85-1.24-2.45c-1.2-1.14-2.96-0.89-4.21,0.02
					c-0.93,0.67-1.12,1.43-1.22,2.52L270.03,106.33z"/>
				<path class="st0" d="M282.35,97.93c0,5.25,0,10.5,0,15.75c0,0.76-2.26,0.39-2.26-0.5c0-5.25,0-10.5,0-15.75
					C280.09,96.66,282.35,97.04,282.35,97.93z"/>
				<path class="st0" d="M288.65,113.76c0-0.67,0.54-1.2,1.2-1.2s1.2,0.54,1.2,1.2c0,0.67-0.54,1.2-1.2,1.2
					S288.65,114.43,288.65,113.76z M288.74,111.08c0-4.71,0-9.43,0-14.14c0-0.76,2.26-0.39,2.26,0.5c0,4.71,0,9.43,0,14.14
					C290.99,112.35,288.74,111.97,288.74,111.08z"/>
			</g>
			<g>
				<path class="st0" d="M302.79,106.02c0,0.97-0.79,1.8-1.75,1.86c-0.28,0.02-0.53-0.07-0.75-0.23c-0.13-0.1-0.26-0.2-0.4-0.29
					c-0.31-0.21-0.63-0.2-0.94,0.01c-0.08,0.05-0.16,0.11-0.23,0.17c-0.45,0.4-0.94,0.42-1.48,0.21c-0.83-0.33-1.38-1.31-1.13-2.09
					c0.09-0.26,0.27-0.53,0.48-0.7c0.69-0.54,1.23-1.2,1.72-1.92c0.38-0.57,0.94-0.76,1.51-0.57c0.32,0.11,0.54,0.33,0.73,0.59
					c0.36,0.48,0.65,1.02,1.12,1.41c0.25,0.21,0.51,0.42,0.74,0.64C302.7,105.39,302.79,105.64,302.79,106.02z"/>
				<path class="st0" d="M304.14,102.31c-0.02,0.54-0.22,1.04-0.68,1.4c-0.71,0.55-1.53,0.25-1.69-0.63
					c-0.12-0.7,0.09-1.31,0.65-1.77c0.32-0.26,0.7-0.38,1.1-0.19c0.42,0.19,0.57,0.56,0.61,0.99
					C304.14,102.16,304.14,102.22,304.14,102.31z"/>
				<path class="st0" d="M294.72,102.34c-0.01-0.43,0.11-0.82,0.42-1.11c0.44-0.42,1.11-0.32,1.53,0.24c0.4,0.52,0.5,1.12,0.28,1.75
					c-0.14,0.41-0.42,0.71-0.88,0.75c-0.45,0.04-0.78-0.21-1.03-0.56C294.81,103.1,294.71,102.73,294.72,102.34z"/>
				<path class="st0" d="M296.91,100.06c0-0.46,0.13-0.87,0.46-1.19c0.43-0.42,1.05-0.39,1.44,0.07c0.52,0.59,0.54,1.61,0.06,2.24
					c-0.46,0.59-1.26,0.55-1.67-0.07C297,100.79,296.91,100.47,296.91,100.06z"/>
				<path class="st0" d="M301.95,100.1c0,0.44-0.12,0.84-0.43,1.16c-0.44,0.46-1.04,0.44-1.47-0.02c-0.56-0.6-0.54-1.77,0.04-2.35
					c0.45-0.45,1.11-0.41,1.5,0.09C301.84,99.29,301.95,99.63,301.95,100.1z"/>
			</g>
			<g>
				<path class="st0" d="M158.39,106.02c0,0.97-0.79,1.8-1.75,1.86c-0.28,0.02-0.53-0.07-0.75-0.23c-0.13-0.1-0.26-0.2-0.4-0.29
					c-0.31-0.21-0.63-0.2-0.94,0.01c-0.08,0.05-0.16,0.11-0.23,0.17c-0.45,0.4-0.94,0.42-1.48,0.21c-0.83-0.33-1.38-1.31-1.13-2.09
					c0.09-0.26,0.27-0.53,0.48-0.7c0.69-0.54,1.23-1.2,1.72-1.92c0.38-0.57,0.94-0.76,1.51-0.57c0.32,0.11,0.54,0.33,0.73,0.59
					c0.36,0.48,0.65,1.02,1.12,1.41c0.25,0.21,0.51,0.42,0.74,0.64C158.31,105.39,158.39,105.64,158.39,106.02z"/>
				<path class="st0" d="M159.74,102.31c-0.02,0.54-0.22,1.04-0.68,1.4c-0.71,0.55-1.53,0.25-1.69-0.63
					c-0.12-0.7,0.09-1.31,0.65-1.77c0.32-0.26,0.7-0.38,1.1-0.19c0.42,0.19,0.57,0.56,0.61,0.99
					C159.74,102.16,159.74,102.22,159.74,102.31z"/>
				<path class="st0" d="M150.32,102.34c-0.01-0.43,0.11-0.82,0.42-1.11c0.44-0.42,1.11-0.32,1.53,0.24c0.4,0.52,0.5,1.12,0.28,1.75
					c-0.14,0.41-0.42,0.71-0.88,0.75c-0.45,0.04-0.78-0.21-1.03-0.56C150.42,103.1,150.31,102.73,150.32,102.34z"/>
				<path class="st0" d="M152.51,100.06c0-0.46,0.13-0.87,0.46-1.19c0.43-0.42,1.05-0.39,1.44,0.07c0.52,0.59,0.54,1.61,0.06,2.24
					c-0.46,0.59-1.26,0.55-1.67-0.07C152.6,100.79,152.51,100.47,152.51,100.06z"/>
				<path class="st0" d="M157.55,100.1c0,0.44-0.12,0.84-0.43,1.16c-0.44,0.46-1.04,0.44-1.47-0.02c-0.56-0.6-0.54-1.77,0.04-2.35
					c0.45-0.45,1.11-0.41,1.5,0.09C157.44,99.29,157.55,99.63,157.55,100.1z"/>
			</g>
		</g>
	</g>
</g>
</svg>
