<?xml version="1.0" encoding="utf-8"?>
<!-- Generator: Adobe Illustrator 23.0.5, SVG Export Plug-In . SVG Version: 6.00 Build 0)  -->
<svg version="1.1" id="Capa_1" xmlns="http://www.w3.org/2000/svg" xmlns:xlink="http://www.w3.org/1999/xlink" x="0px" y="0px"
	 viewBox="0 0 340.5 147.9" style="enable-background:new 0 0 340.5 147.9;" xml:space="preserve">
<style type="text/css">
	.st0{fill:#09B1B8;}
</style>
<g>
	<g>
		<path class="st0" d="M58.1,133.3c4.1-0.7,8.3-1.1,12.4-2.1c10.3-2.8,16.3-10.5,16.4-20.3c0.1-6.8-3.5-11.6-8.8-14.7
			c-8.7-5.1-17.9-9.2-26.8-14c-8-4.2-16.4-8-23.7-13.2c-17.1-12.3-16.1-32.6,1.5-44.1c9.7-6.3,20.5-8.8,32.1-7.7
			c-2.1,0.3-4.2,0.5-6.3,1c-3.3,0.8-6.8,1.3-9.8,2.7c-12,5.4-14.7,19.7-4.7,28.1c6,5.1,13.5,8.7,20.5,12.5
			c9.9,5.4,20.1,10.2,30,15.7c3.3,1.9,6.2,4.9,8.8,7.8c7.8,9,7.8,21.6,0.4,31.8C92.1,127.6,71.8,136,58.1,133.3z"/>
		<g>
			<path class="st0" d="M28.9,87.7c-9,0-16.3,7.2-16.3,16.2c0,6.7,4.1,12.4,10,14.9c-1.2-0.8-2.2-1.8-3-3.1
				c-0.7-1.1-1.1-2.3-1.3-3.5c-0.1-0.8-0.1-1.5-0.1-2.3c0-1.1,0.1-2.2,0.1-3.3c0-1.7,0.1-3.4,0.2-5.1c0-1.1,0.1-2.2,0.1-3.3
				c0-0.5,0-1.1,0.1-1.6c0.3,0.2,0.5,0.4,0.8,0.6c1,0.8,1.9,1.6,2.9,2.4c0.7,0.6,1.4,1.2,2.1,1.8c0.3,0.3,0.6,0.3,1,0.2
				c0.8-0.3,1.6-0.5,2.4-0.5c0.7-0.1,1.4-0.1,2.1-0.1c1.1,0,2.2,0.3,3.2,0.6c0.3,0.1,0.6,0.1,0.8-0.1c0.9-0.7,1.7-1.5,2.6-2.2
				c0.8-0.7,1.6-1.3,2.4-2c0.3-0.3,0.6-0.5,0.9-0.8c0,0.2,0,0.3,0,0.5c0,1,0,2,0.1,3c0.1,2.2,0.1,4.3,0.2,6.5c0,1.3,0.1,2.7,0.1,4
				c0,1.4-0.2,2.7-0.7,4c-0.6,1.3-1.4,2.4-2.5,3.4c-0.1,0.1-0.2,0.2-0.3,0.2c5.1-2.7,8.5-8.1,8.5-14.2C45.3,94.9,38,87.7,28.9,87.7z
				"/>
			<path class="st0" d="M29.2,116.7c-0.3,0.4-0.8,0.8-1.3,1c-0.6,0.3-1.3,0.5-2,0.6c-0.4,0-0.7,0.1-1.1,0.1c-0.3,0-0.4-0.1-0.4-0.4
				c0-0.2,0.1-0.3,0.4-0.3c0.8,0,1.6-0.1,2.4-0.5c0.5-0.2,1-0.5,1.3-0.9c0.2-0.2,0.2-0.5,0.2-0.7c0-0.3,0-0.6,0-0.9
				c0-0.1,0-0.2-0.2-0.2c-0.6-0.1-1.1-0.4-1.5-0.9c-0.4-0.7-0.3-1.5,0.3-2.1c0.8-0.8,2.3-0.9,3.2-0.2c1.1,0.8,1,2.2-0.2,2.9
				c-0.3,0.2-0.6,0.2-0.8,0.3c0,0-0.1,0.1-0.1,0.1c0,0.3,0,0.7,0,1.1c0,0.6,0.4,0.9,0.9,1.2c0.7,0.4,1.4,0.7,2.2,0.8
				c0.3,0,0.6,0.1,1,0.1c0.2,0,0.3,0.2,0.3,0.3c0,0.2-0.1,0.4-0.3,0.4c-1.3,0-2.5-0.2-3.6-0.9C29.7,117.2,29.5,116.9,29.2,116.7z"/>
			<path class="st0" d="M19.4,101.7c0-0.8,0-1.6,0.1-2.4c0-0.2,0.1-0.3,0.2-0.3c0.1-0.1,0.3,0,0.4,0.1c0.5,0.4,0.9,0.8,1.4,1.2
				c0.6,0.5,1.1,0.9,1.7,1.4c0.1,0.1,0.2,0.3,0.1,0.4c0,0.2-0.2,0.2-0.3,0.3c-1.1,0.3-2.1,0.7-3,1.4c-0.1,0.1-0.3,0.2-0.4,0.1
				c-0.2-0.1-0.2-0.2-0.2-0.4C19.4,102.9,19.4,102.3,19.4,101.7C19.5,101.7,19.4,101.7,19.4,101.7z"/>
			<path class="st0" d="M39,101.4c0,0.7,0,1.4,0,2.1c0,0.2,0,0.3-0.2,0.3c-0.2,0.1-0.3,0.1-0.4-0.1c-0.6-0.6-1.3-0.9-2.1-1.2
				c-0.3-0.1-0.6-0.2-0.9-0.3c-0.2,0-0.3-0.1-0.3-0.2c0-0.2,0-0.3,0.2-0.4c0.7-0.6,1.3-1.1,2-1.7c0.3-0.3,0.7-0.6,1-0.8
				c0.1-0.1,0.3-0.2,0.5-0.1c0.2,0.1,0.2,0.2,0.2,0.4C39,100.1,39,100.8,39,101.4L39,101.4z"/>
			<path class="st0" d="M33.1,108.5c0-0.7,0.4-1.3,1-1.6c0.5-0.2,1.1,0,1.5,0.4c0.5,0.7,0.5,1.6,0,2.3c-0.5,0.7-1.5,0.7-2.1,0
				C33.2,109.3,33.1,108.9,33.1,108.5z"/>
			<path class="st0" d="M25.3,108.5c0,0.7-0.4,1.3-1,1.6c-0.5,0.2-1,0-1.4-0.3c-0.7-0.7-0.6-1.9,0.1-2.5c0.6-0.5,1.4-0.4,1.9,0.2
				C25.2,107.7,25.3,108.1,25.3,108.5z"/>
			<path class="st0" d="M35.6,113c1,0,2,0,2.9,0c0.2,0,0.3,0.1,0.4,0.3c0,0.2-0.1,0.3-0.2,0.4c0,0-0.1,0-0.2,0c-2,0-3.9,0-5.9,0
				c-0.2,0-0.4-0.2-0.4-0.4c0-0.2,0.2-0.3,0.4-0.3C33.6,113,34.6,113,35.6,113z"/>
			<path class="st0" d="M23,113c1,0,2,0,2.9,0c0.2,0,0.4,0.1,0.4,0.4c0,0.2-0.1,0.3-0.4,0.3c-1.3,0-2.5,0-3.8,0c-0.7,0-1.4,0-2.1,0
				c-0.2,0-0.3-0.1-0.3-0.2c0-0.2,0-0.3,0.2-0.4c0.1,0,0.2,0,0.2,0C21,113,22,113,23,113z"/>
			<path class="st0" d="M22.6,117.5c-0.2,0-0.3-0.1-0.4-0.3s0-0.3,0.2-0.4c0.4-0.2,0.9-0.4,1.3-0.7c0.8-0.4,1.6-0.9,2.5-1.3
				c0.2-0.1,0.4-0.1,0.5,0.1c0.1,0.2,0,0.4-0.2,0.5c-1.2,0.7-2.5,1.3-3.7,1.9C22.8,117.5,22.7,117.5,22.6,117.5z"/>
			<path class="st0" d="M32.1,114.8c0.1,0,0.2,0,0.2,0.1c1.3,0.7,2.5,1.3,3.8,2c0.2,0.1,0.3,0.2,0.2,0.4c0,0.2-0.1,0.3-0.3,0.3
				c-0.1,0-0.2,0-0.3-0.1c-0.7-0.4-1.4-0.7-2.1-1.1c-0.5-0.3-1.1-0.6-1.6-0.8c-0.3-0.1-0.3-0.4-0.1-0.6
				C31.9,114.8,32,114.8,32.1,114.8z"/>
			<path class="st0" d="M33.8,114.6c0-0.2,0.2-0.4,0.4-0.3c0.5,0.1,1,0.2,1.5,0.3c0.6,0.1,1.2,0.3,1.9,0.4c0.3,0.1,0.4,0.2,0.4,0.5
				c-0.1,0.2-0.2,0.3-0.4,0.3c-0.6-0.1-1.2-0.2-1.7-0.3c-0.5-0.1-1-0.2-1.6-0.3C34,114.9,33.8,114.8,33.8,114.6z"/>
			<path class="st0" d="M20.6,115.3c0-0.2,0.1-0.3,0.3-0.4c0.6-0.1,1.2-0.2,1.8-0.4c0.5-0.1,1-0.2,1.5-0.3c0.2,0,0.4,0.1,0.4,0.2
				c0,0.2,0,0.4-0.3,0.4c-0.9,0.2-1.7,0.3-2.6,0.5c-0.3,0.1-0.5,0.1-0.8,0.2C20.8,115.7,20.6,115.5,20.6,115.3z"/>
		</g>
		<g>
			<path class="st0" d="M105.3,47.6c0,0.2,0,0.4,0,0.6c-0.1,1.2-0.2,2.4-0.6,3.6c-0.4,1.6-1.1,3.2-2.1,4.6c-1,1.5-2.2,2.8-3.6,3.9
				c-0.4,0.3-0.9,0.6-1.3,0.9c0.1-0.2,0.2-0.4,0.3-0.6c0.5-0.9,0.8-1.9,0.9-3c0.3-1.8,0.3-3.6,0.2-5.3c-0.1-1-0.2-2-0.3-3
				c0-0.3-0.2-0.7-0.3-1c-0.1-0.3-0.1-0.5-0.1-0.8c0.1-1,0-2-0.1-3c-0.2-1.1-0.4-2.1-0.8-3.1c-0.4-1-0.8-1.9-1.4-2.7
				c-0.3-0.4-0.6-0.7-1-1c-0.5-0.4-1-0.4-1.6-0.1c-0.9,0.5-1.6,1.3-2,2.2c-0.3,0.7-0.5,1.4-0.8,2.1c0,0.1,0,0.1-0.1,0.2
				c-1.1,0-2.1-0.2-3.1,0c-0.1-0.3-0.2-0.6-0.3-0.9c-0.4-1-0.8-2-1.6-2.9c-0.4-0.4-0.8-0.7-1.4-0.9c-0.4-0.1-0.7,0-1,0.2
				c-0.6,0.3-0.9,0.8-1.3,1.3c-0.7,1-1.2,2.2-1.6,3.4c-0.4,1.4-0.6,2.8-0.6,4.2c0,0.2,0,0.4,0,0.6c0.1,0.4-0.1,0.7-0.2,1
				c-0.4,1.2-0.6,2.3-0.8,3.5c-0.2,1.3-0.3,2.7-0.2,4.1c0.1,1.4,0.3,2.7,0.7,4c0.1,0.3,0.3,0.6,0.4,1c-0.3-0.3-0.6-0.5-0.9-0.7
				c-1.4-1.2-2.7-2.7-3.6-4.3c-0.9-1.7-1.6-3.4-1.9-5.3C73.1,49.1,73,48,73,46.9c0.1-2,0.5-3.9,1.3-5.7c1-2.3,2.4-4.3,4.3-5.9
				c1.5-1.3,3.1-2.3,4.9-2.9c1.3-0.5,2.6-0.8,4-0.9c0.4,0,0.8-0.1,1.3-0.1c0.1,0,0.1,0,0.2,0c0.1,0.2,0.3,0.2,0.4,0
				c0.1,0,0.2,0,0.2,0c1.7,0,3.3,0.3,4.8,0.9c2.4,0.8,4.5,2.2,6.3,4c1.5,1.5,2.6,3.3,3.4,5.3c0.5,1.3,0.8,2.5,1,3.9
				c0,0.1,0,0.1,0,0.2c-0.3,0.3-0.5,0.5-0.8,0.8c-0.2,0.2-0.2,0.2,0,0.4C104.7,47,105,47.3,105.3,47.6z"/>
			<path class="st0" d="M87.5,49.6c-0.1,1-0.5,2-1.6,2.6c-1.3,0.7-2.8,0.2-3.6-1.1c-0.7-1.3-0.6-2.8,0.3-3.9c1-1.2,2.8-1.3,3.9-0.1
				C87.2,47.6,87.5,48.5,87.5,49.6z M83.8,49.2c0,0.5,0.4,0.9,0.9,0.9c0.5,0,0.9-0.4,0.9-0.9c0-0.5-0.4-0.9-0.9-0.9
				C84.2,48.3,83.8,48.7,83.8,49.2z"/>
			<path class="st0" d="M81.1,46.2c0-0.8,0.1-1.6,0.3-2.5c0.3-1.2,0.7-2.4,1.3-3.5c0.3-0.5,0.7-0.9,1-1.4c0.1-0.2,0.3-0.2,0.5-0.1
				c0.6,0.3,0.9,0.9,1.2,1.4c0.4,0.7,0.6,1.5,0.8,2.2c0.1,0.2,0,0.3-0.2,0.3c-1.4,0.4-2.6,1.1-3.7,2.1C82,45.2,81.6,45.7,81.1,46.2
				C81.2,46.1,81.2,46.2,81.1,46.2C81.2,46.2,81.1,46.2,81.1,46.2z"/>
			<path class="st0" d="M97.3,46.2c-0.6-0.5-1.1-1.1-1.7-1.6c-1-0.9-2.2-1.5-3.4-1.9c-0.2,0-0.2-0.1-0.1-0.3c0.2-0.9,0.5-1.7,1-2.5
				c0.3-0.5,0.6-0.9,1.1-1.2c0.3-0.2,0.3-0.2,0.6,0.1c0.5,0.5,0.9,1.1,1.2,1.7c0.7,1.2,1.1,2.5,1.3,3.8
				C97.2,44.9,97.2,45.5,97.3,46.2C97.3,46.1,97.3,46.2,97.3,46.2z"/>
			<path class="st0" d="M88.8,58.5c0-0.5,0-0.9,0-1.4c0-0.1,0-0.2-0.2-0.3c-1-0.4-1.6-1.1-1.7-2.2c-0.1-0.7,0.2-1.1,0.9-1.3
				c1-0.2,2-0.2,2.9,0.1c0.7,0.2,0.9,0.6,0.8,1.4c-0.1,1-0.7,1.6-1.6,1.9c-0.2,0.1-0.2,0.1-0.2,0.3c0,0.9,0,1.9,0,2.8
				c0,0.4-0.4,0.7-0.8,0.5c-0.1-0.1-0.2-0.2-0.2-0.4C88.8,59.5,88.8,59,88.8,58.5L88.8,58.5z"/>
			<path class="st0" d="M93.7,48.3c0.5,0,0.9,0.4,0.9,0.9c0,0.5-0.4,0.9-0.9,0.9c-0.5,0-0.9-0.4-0.9-0.9
				C92.8,48.7,93.2,48.3,93.7,48.3z"/>
			<path class="st0" d="M105.3,47.6c-0.3-0.3-0.6-0.6-0.9-0.9c-0.2-0.2-0.2-0.2,0-0.4c0.3-0.3,0.5-0.5,0.8-0.8
				c0,0.2,0.1,0.3,0.1,0.5c0,0.4,0.1,0.9,0.1,1.3C105.3,47.5,105.3,47.5,105.3,47.6z"/>
		</g>
	</g>
	<g>
		<g>
			<path class="st0" d="M139.6,43.1c2.5,0.1,4.8,0.7,6.9,2c1.3,0.8,1.8,1.8,1.6,3.3c-0.4,2-2.2,3.1-4.1,2.5c-0.8-0.3-1.6-0.7-2.4-1
				c-1.3-0.5-2.6-0.5-3.9-0.1c-2.9,0.9-4.3,3.7-3.3,6.7c0.8,2.5,2.4,4.2,4.9,5.2c1.1,0.4,2.2,0.7,3.2,1.1
				c9.3,3.5,12.9,15.9,6.7,23.7c-3.4,4.3-8.1,5.8-13.5,4.4c-4.4-1.1-7.6-3.9-9.7-8c-0.3-0.5-0.5-1-0.6-1.6c-0.1-1.4,0.6-2.6,1.8-3.2
				c1.3-0.6,2.6-0.3,3.6,0.8c0.4,0.5,0.8,1.1,1.1,1.7c1.2,2,2.8,3.4,5.1,4.1c3.1,1,6.3-0.3,7.9-3.2c2.6-5-0.4-11.6-5.8-13
				c-3.1-0.8-6-2.4-8.1-5c-2.8-3.3-3.9-7.1-3.1-11.4C129.1,46.7,133.9,43.1,139.6,43.1z"/>
			<path class="st0" d="M155.6,67.2c0-6.6-0.1-13.2,0-19.8c0-2.7,0.4-3.3,2.9-4.3c1.4-0.6,2.7-0.8,4.2-0.8c3.3,0.1,6.6,0.1,9.9,0.1
				c0.7,0,1.3,0,2,0.3c1.3,0.4,2.1,1.5,2.1,2.8c0.1,1.3-0.6,2.4-1.9,2.9c-0.7,0.3-1.4,0.3-2.2,0.3h-8.9c-1.7,0-1.8,0.1-1.8,1.8V58
				c0,1.4,0.1,1.5,1.5,1.5h3.9c0.4,0,0.8,0,1.3,0.1c1.4,0.2,2.5,1.3,2.7,2.7c0.1,1.3-0.6,2.7-1.9,3.3c-0.7,0.3-1.4,0.3-2.2,0.3H164
				c-2,0.1-2,0.1-2,2.2c0,3.1,0,6.1,0,9.2V83c0.1,1.4,0.1,1.5,1.5,1.5c2.6,0.1,5.2,0,7.9,0c0.6,0,1.2,0,1.8,0.2
				c1.3,0.5,2,1.4,2.1,2.7c0.1,1.3-0.6,2.3-1.7,3c-0.7,0.3-1.5,0.5-2.2,0.5c-4.1,0.1-8.2,0.1-12.3,0.1c-2.2,0-3.5-1.3-3.5-3.4
				C155.6,80.8,155.6,74,155.6,67.2L155.6,67.2L155.6,67.2z"/>
			<path class="st0" d="M193.8,69.7c1.3,1.5,2.5,3,3.7,4.5c2.6,3.1,5.3,6.1,7.9,9.2c0.4,0.5,0.8,1,1.1,1.5c0.8,1.4,0.6,2.9-0.6,3.8
				c-1.1,1.1-2.8,1.1-4,0.1c-0.6-0.4-1.2-1.1-1.7-1.6c-4.4-5.1-8.7-10.2-13-15.4c-0.1-0.1-0.3-0.2-0.5-0.4c-0.5,0.4-0.3,0.9-0.3,1.3
				c0,4.1,0,8.1-0.1,12.2c0,0.6,0.1,1.3-0.2,2c-0.5,1.4-1.8,2.4-3.1,2.3c-1.5-0.1-2.7-1.3-2.9-2.8c-0.1-0.4-0.1-0.9-0.1-1.4
				c0-12.2,0.1-24.4,0.1-36.6c0-0.8,0-1.5,0.2-2.3c0.8-2.5,3.7-3.2,5.3-1.3c0.8,1,1.5,0.9,2.4,0.5c7.4-3,15.5,1.8,17,9.3
				c1.3,6.5-2.9,13-9.5,14.6C194.9,69.3,194.4,69.3,193.8,69.7z M186.5,56.9c-0.2,3.7,3,6.2,5.9,6.2c3.4,0,6.2-2.7,6.2-6.1
				c0.1-3.4-2.7-6.2-6.1-6.2C189.1,50.8,186.3,53.7,186.5,56.9z"/>
			<path class="st0" d="M224.1,75.9c1.1-4.3,2.2-8.5,3.4-12.7l3.6-13.8c0.2-0.7,0.4-1.4,0.7-2c0.7-1.5,2.2-2.1,3.6-1.8
				c1.4,0.4,2.3,1.6,2.3,3.2c0,0.9-0.3,1.8-0.6,2.6c-2.9,11.1-5.8,22.3-8.7,33.4c-0.2,0.8-0.4,1.5-0.6,2.2c-0.7,2-2.2,2.6-4.3,2.2
				c-2.1-0.4-3.3-1.6-3.9-3.7c-3-11.6-6.2-23.3-9.3-34.9c-0.1-0.5-0.3-1-0.4-1.5c-0.3-1.7,0.6-3.2,2.1-3.7c1.6-0.5,3.1,0.2,3.9,1.8
				c0.3,0.6,0.4,1.2,0.6,1.8l6.9,26c0.1,0.3,0.1,0.7,0.3,1.1C224,75.9,224,75.9,224.1,75.9z"/>
			<path class="st0" d="M240.9,80.1c0.3-10.9,0.2-21.9,0.3-32.9c0-0.8,0.1-1.7,0.4-2.5c0.6-1.3,1.7-2,2.9-2s2.4,0.8,2.9,2
				c0.3,0.7,0.4,1.5,0.4,2.2c-0.1,1.4,0,2.8-0.1,4.2c-0.4,10.5-0.1,21.1-0.3,31.6c0,1.1-0.1,2.2-0.2,3.2c-0.2,1.9-1.5,3.1-3.2,3
				c-1.5-0.1-2.9-1.3-3-3C240.8,84,240.9,82,240.9,80.1z"/>
			<path class="st0" d="M250.9,66.4v-18c0-0.8,0-1.7,0.3-2.5c0.8-2.6,3.7-3.2,5.5-1.3c0.8,1,0.8,1,2.2,0.5c6.7-2.3,13.6,1,15.4,8.1
				c1.6,6.2-2.5,12.8-8.8,14c-2.2,0.4-4.5,0.3-6.7-0.5c-1.3-0.5-1.3-0.4-1.3,1c-0.3,5.7-0.2,11.3-0.2,16.9c0,0.6,0,1.3-0.1,1.9
				c-0.3,1.4-1.5,2.4-2.9,2.4s-2.6-0.8-3.1-2.1c-0.3-0.8-0.3-1.7-0.3-2.5v-9C250.9,72.3,250.9,69.3,250.9,66.4z M262.9,61.1
				c3,0,5.2-2.2,5.2-5.1c-0.1-2.9-2.4-5.3-5.2-5.2c-2.8,0-5.1,2.3-5.1,5.2C257.8,58.9,260,61.1,262.9,61.1z"/>
			<path class="st0" d="M277.8,67.2c0-6.6-0.1-13.2,0-19.8c0-2.7,0.4-3.3,2.9-4.3c1.4-0.6,2.7-0.8,4.2-0.8c3.3,0.1,6.6,0.1,9.9,0.1
				c0.7,0,1.3,0,2,0.3c1.3,0.4,2.1,1.5,2.1,2.8c0.1,1.3-0.6,2.4-1.9,2.9c-0.7,0.3-1.4,0.3-2.2,0.3h-8.9c-1.7,0-1.8,0.1-1.8,1.8V58
				c0,1.4,0.1,1.5,1.5,1.5h3.9c0.4,0,0.8,0,1.3,0.1c1.4,0.2,2.5,1.3,2.7,2.7c0.1,1.3-0.6,2.7-1.9,3.3c-0.7,0.3-1.4,0.3-2.2,0.3h-3.3
				c-2,0.1-2,0.1-2,2.2c0,3.1,0,6.1,0,9.2V83c0.1,1.4,0.1,1.5,1.5,1.5c2.6,0.1,5.2,0,7.9,0c0.6,0,1.2,0,1.8,0.2
				c1.3,0.5,2,1.4,2.1,2.7c0.1,1.3-0.6,2.3-1.7,3c-0.7,0.3-1.5,0.5-2.2,0.5c-4.1,0.1-8.2,0.1-12.3,0.1c-2.2,0-3.5-1.3-3.5-3.4
				C277.7,80.8,277.7,74,277.8,67.2L277.8,67.2L277.8,67.2z"/>
			<path class="st0" d="M306.7,69.5V52.6c0-0.3,0.1-0.7,0-1c-0.1-1.1-0.1-1.2-1.3-1.3c-0.4,0-0.7,0-1,0h-8c-0.6,0-1,0-1.5-0.1
				c-1.4-0.3-2.5-1.5-2.6-2.8c-0.1-1.4,0.8-2.7,2.1-3.2c0.7-0.3,1.5-0.3,2.2-0.3c9.1,0,18.2-0.1,27.3-0.1c0.6,0,1.2,0.1,1.8,0.3
				c1.3,0.4,2.2,1.7,2.2,2.9c0.1,1.2-0.8,2.5-2.2,2.9c-0.6,0.2-1.3,0.2-2,0.2c-2.9,0.1-5.8,0.1-8.6,0.1c-1.8,0-1.8,0-1.8,1.8v34.1
				c0,0.6,0,1.3-0.1,1.9c-0.3,1.6-1.5,2.8-3.1,2.8c-1.5,0-2.9-1.2-3.1-2.7c-0.1-0.6-0.1-1.2-0.1-1.8
				C306.7,80.8,306.7,75.2,306.7,69.5z"/>
		</g>
		<g>
			<g>
				<path class="st0" d="M179.2,107.7c0,2.2,0.1,4.3,0,6.5c0,0.6-1.7,0.3-1.7-0.4c0.1-2.2,0-4.3,0-6.5c0-2.4,0.3-5.3-0.9-7.4
					c-0.7-1.2-2.4-2.3-3.7-1.3c-1.1,0.8-1.7,2.3-1.9,3.6c-0.3,1.8-0.1,3.8-0.1,5.7c0,2,0.2,4,0.2,6.1c0,0.3-0.4,0.4-0.9,0.3
					c-0.2,0.2-1.1,0-1.1-0.4c0-2.2,0.1-4.4,0-6.6c0-2,0-4.1-0.5-6.1c-0.3-1.1-1.1-2.8-2.5-3c-1.4-0.2-2.4,0.9-2.9,2.1
					c0,4.6,0,9.3,0,13.9c0,0.8-2.3,0.4-2.3-0.5c0-5.4,0-10.7,0-16.1c0-0.8,2.3-0.4,2.3,0.5c0,0.1,0,0.2,0,0.3
					c0.4-0.3,0.8-0.6,1.4-0.8c2.4-0.7,4.1,1,4.9,3c0.2-0.6,0.4-1.1,0.7-1.6c0.9-1.4,2.2-1.9,3.9-1.7c1.5,0.2,3,0.9,3.9,2.2
					C179.6,101.9,179.2,105,179.2,107.7L179.2,107.7z"/>
				<path class="st0" d="M180.9,100.3c0-0.7,0.6-1.2,1.2-1.2c0.7,0,1.2,0.6,1.2,1.2c0,0.7-0.6,1.2-1.2,1.2
					C181.4,101.5,180.9,101,180.9,100.3z M183.3,103c0,3.7,0,7.5,0,11.2c0,0.8-2.3,0.4-2.3-0.5c0-3.7,0-7.5,0-11.2
					C181,101.7,183.3,102.1,183.3,103z"/>
				<path class="st0" d="M202.9,114c0.2,0.7-1.5,0.5-1.7-0.1c-0.2-0.7-0.4-1.3-0.6-2c-0.4-1.3-0.8-2.7-1.2-4.1c-0.1,0-0.2,0-0.2,0
					c-1.5,0-2.9,0-4.4,0c-0.7,2.1-1.4,4.1-2.1,6.2c-0.3,0.8-2.5,0.3-2.3-0.5c0.2-0.7,0.5-1.3,0.7-2c1.6-4.7,3.1-9.4,4.7-14
					c0.2-0.5,1.2-0.5,1.8-0.2c0.3,0.1,0.5,0.2,0.5,0.4c0.2,0.7,0.4,1.3,0.6,2C200.2,104.6,201.6,109.3,202.9,114
					C202.9,114,202.9,114,202.9,114z M198.9,106.6c0.1,0,0.1,0,0.2,0c-0.6-2-1.2-4.1-1.8-6.1c-0.7,2-1.4,4.1-2.1,6.1
					C196.5,106.6,197.7,106.6,198.9,106.6L198.9,106.6z"/>
				<path class="st0" d="M222.5,109c0,1.7,0.1,3.4,0,5.1c0,0.6-1.7,0.3-1.7-0.4c0.1-1.6,0-3.3,0-4.9c0-1.8,0.3-4.1-1.1-5.4
					c-0.8-0.7-2.3-1.1-3.4-0.7c-0.9,0.4-1.6,1.4-1.9,2.4c-0.4,1.3-0.2,2.8-0.2,4.2c0,1.5,0.2,3.1,0.2,4.6c0,0.3-0.5,0.4-0.9,0.3
					c-0.3,0.1-1-0.1-1-0.4c0-1.7,0.1-3.4,0-5.1c-0.1-1.4,0-3-0.6-4.3c-0.5-1.1-1.5-1.9-2.8-1.9c-1.1,0.1-2,0.7-2.6,1.5
					c0,3.4,0,6.8,0,10.1c0,0.8-2.3,0.4-2.3-0.5c0-3.9,0-7.8,0-11.8c0-0.8,2.3-0.4,2.3,0.5c0,0.1,0,0.1,0,0.2c1.6-1.1,4-1,5.6,0.6
					c0.3,0.3,0.6,0.7,0.7,1.1c0.3-0.7,0.7-1.3,1.3-1.8c1.9-1.5,5.2-0.9,6.8,0.7C222.7,104.7,222.5,107,222.5,109L222.5,109z"/>
				<path class="st0" d="M224.2,100.3c0-0.7,0.6-1.2,1.2-1.2s1.2,0.6,1.2,1.2c0,0.7-0.6,1.2-1.2,1.2S224.2,101,224.2,100.3z
					 M226.6,103c0,3.7,0,7.5,0,11.2c0,0.8-2.3,0.4-2.3-0.5c0-3.7,0-7.5,0-11.2C224.3,101.7,226.6,102.1,226.6,103z"/>
				<path class="st0" d="M237.8,109.3c0,1.7,0.1,3.3-0.1,5c-0.2,1.7-0.8,3.7-2.4,4.5c-1.8,1-4.3,0.6-6.1,0.3c-0.3-0.1-1.1-0.4-1-0.8
					c0.1-0.5,0.9-0.4,1.3-0.3c1.6,0.3,3.8,0.6,4.9-0.9c0.9-1.3,1.1-3.1,1.2-4.6c0-0.4,0-0.9,0-1.3c-1.2,1.6-3.5,1.7-5.2,1
					c-2-0.9-2.5-2.9-2.4-4.8c0.1-2.1,0.5-4,2.6-4.8c1.9-0.8,4.1-0.3,5.8,0.8c0.1,0.1,0.2,0.2,0.2,0.2c0.6,0.1,1.3,0.4,1.3,0.9
					C237.7,106,237.7,107.7,237.8,109.3L237.8,109.3z M234.3,110.1c1-1.8,1.3-3.9,0.9-5.9c0-0.2,0-0.2,0.1-0.3c-0.1,0-0.1,0-0.1-0.1
					c-1.6-1.1-3.8-1.1-4.9,0.7c-0.5,0.8-0.6,1.8-0.6,2.8c0,1,0,2,0.4,2.9c0.4,0.9,1.2,1.5,2.2,1.4
					C233.2,111.5,233.8,110.8,234.3,110.1L234.3,110.1z"/>
				<path class="st0" d="M247,107.9c0,3.5-1.9,6.3-4.2,6.3s-4.2-2.8-4.2-6.3s1.9-6.3,4.2-6.3S247,104.4,247,107.9z M242.8,112.7
					c1.6,0.1,3.1-1.2,3.1-4.9c0-3.9-1.5-4.9-3.1-4.9c-1.4,0-2.5,2.2-2.5,4.9S241.4,112.7,242.8,112.7L242.8,112.7z"/>
				<path class="st0" d="M261.8,106.6c0.2,0.3-0.1,0.5-0.5,0.5c-1.8,0-3.6,0-5.5,0c0,2.4,0,4.7,0,7.1c0,0.8-2.3,0.4-2.3-0.5
					c0-5.2,0-10.4,0-15.6c0-0.1,0-0.1,0.1-0.2c0,0,0,0,0-0.1c-0.1-0.4,0.5-0.4,0.7-0.4c2.1,0.1,4.2,0.1,6.3,0c0.3,0,0.9,0.1,1.1,0.4
					c0.2,0.3-0.1,0.5-0.5,0.5c-1.8,0-3.6,0-5.5,0c0,0.1,0,0.1,0,0.2c0,2.5,0,5.1,0,7.6c1.6,0,3.2,0,4.8,0
					C261,106.2,261.6,106.3,261.8,106.6L261.8,106.6L261.8,106.6z"/>
				<path class="st0" d="M262.6,100.3c0-0.7,0.5-1.2,1.2-1.2s1.2,0.6,1.2,1.2c0,0.7-0.5,1.2-1.2,1.2S262.6,101,262.6,100.3z
					 M265,103c0,3.7,0,7.5,0,11.2c0,0.8-2.3,0.4-2.3-0.5c0-3.7,0-7.5,0-11.2C262.8,101.7,265,102.1,265,103z"/>
				<path class="st0" d="M271.3,102.2c3.3-0.1,6.5,1.9,6.6,5.4c0,0.3-0.5,0.4-0.7,0.4c-2.8,0-5.6,0.1-8.4,0.1
					c-0.1,0.9-0.2,1.9,0,2.8c0.5,2.1,3,2.9,4.9,2.1c0.5-0.2,1.1-0.2,1.6,0.1c0.3,0.2,0.7,0.7,0.2,0.9c-2.4,1.1-5.8,0.6-7.7-1.2
					c-0.9-0.8-1.3-1.8-1.4-3.1c0-1.3,0-2.8,0.2-4.1C267,103.5,269.2,102.3,271.3,102.2C271.3,102.2,271.3,102.2,271.3,102.2z
					 M268.8,106.8c2.2,0,4.5-0.1,6.7-0.1c-0.1-0.9-0.6-1.8-1.2-2.4c-1.2-1.1-3-0.9-4.2,0C269.1,104.9,268.9,105.7,268.8,106.8
					L268.8,106.8z"/>
				<path class="st0" d="M281.1,98.4c0,5.3,0,10.5,0,15.8c0,0.8-2.3,0.4-2.3-0.5c0-5.3,0-10.5,0-15.8
					C278.9,97.1,281.1,97.5,281.1,98.4z"/>
				<path class="st0" d="M287.4,114.2c0-0.7,0.5-1.2,1.2-1.2s1.2,0.5,1.2,1.2c0,0.7-0.5,1.2-1.2,1.2S287.4,114.9,287.4,114.2z
					 M287.5,111.6c0-4.7,0-9.4,0-14.1c0-0.8,2.3-0.4,2.3,0.5c0,4.7,0,9.4,0,14.1C289.8,112.8,287.5,112.4,287.5,111.6z"/>
			</g>
			<g>
				<path class="st0" d="M301.6,106.5c0,1-0.8,1.8-1.8,1.9c-0.3,0-0.5-0.1-0.8-0.2c-0.1-0.1-0.3-0.2-0.4-0.3c-0.3-0.2-0.6-0.2-0.9,0
					c-0.1,0.1-0.2,0.1-0.2,0.2c-0.5,0.4-0.9,0.4-1.5,0.2c-0.8-0.3-1.4-1.3-1.1-2.1c0.1-0.3,0.3-0.5,0.5-0.7c0.7-0.5,1.2-1.2,1.7-1.9
					c0.4-0.6,0.9-0.8,1.5-0.6c0.3,0.1,0.5,0.3,0.7,0.6c0.4,0.5,0.6,1,1.1,1.4c0.3,0.2,0.5,0.4,0.7,0.6
					C301.5,105.9,301.6,106.1,301.6,106.5z"/>
				<path class="st0" d="M302.9,102.8c0,0.5-0.2,1-0.7,1.4c-0.7,0.6-1.5,0.3-1.7-0.6c-0.1-0.7,0.1-1.3,0.6-1.8
					c0.3-0.3,0.7-0.4,1.1-0.2c0.4,0.2,0.6,0.6,0.6,1C302.9,102.6,302.9,102.7,302.9,102.8z"/>
				<path class="st0" d="M293.5,102.8c0-0.4,0.1-0.8,0.4-1.1c0.4-0.4,1.1-0.3,1.5,0.2c0.4,0.5,0.5,1.1,0.3,1.8
					c-0.1,0.4-0.4,0.7-0.9,0.8c-0.5,0-0.8-0.2-1-0.6C293.6,103.6,293.5,103.2,293.5,102.8z"/>
				<path class="st0" d="M295.7,100.5c0-0.5,0.1-0.9,0.5-1.2c0.4-0.4,1-0.4,1.4,0.1c0.5,0.6,0.5,1.6,0.1,2.2
					c-0.5,0.6-1.3,0.6-1.7-0.1C295.8,101.3,295.7,100.9,295.7,100.5z"/>
				<path class="st0" d="M300.8,100.6c0,0.4-0.1,0.8-0.4,1.2c-0.4,0.5-1,0.4-1.5,0c-0.6-0.6-0.5-1.8,0-2.3c0.5-0.4,1.1-0.4,1.5,0.1
					C300.6,99.8,300.8,100.1,300.8,100.6z"/>
			</g>
			<g>
				<path class="st0" d="M157.2,106.5c0,1-0.8,1.8-1.8,1.9c-0.3,0-0.5-0.1-0.8-0.2c-0.1-0.1-0.3-0.2-0.4-0.3c-0.3-0.2-0.6-0.2-0.9,0
					c-0.1,0.1-0.2,0.1-0.2,0.2c-0.4,0.4-0.9,0.4-1.5,0.2c-0.8-0.3-1.4-1.3-1.1-2.1c0.1-0.3,0.3-0.5,0.5-0.7c0.7-0.5,1.2-1.2,1.7-1.9
					c0.4-0.6,0.9-0.8,1.5-0.6c0.3,0.1,0.5,0.3,0.7,0.6c0.4,0.5,0.6,1,1.1,1.4c0.3,0.2,0.5,0.4,0.7,0.6
					C157.1,105.9,157.2,106.1,157.2,106.5z"/>
				<path class="st0" d="M158.5,102.8c0,0.5-0.2,1-0.7,1.4c-0.7,0.6-1.5,0.3-1.7-0.6c-0.1-0.7,0.1-1.3,0.6-1.8
					c0.3-0.3,0.7-0.4,1.1-0.2c0.4,0.2,0.6,0.6,0.6,1C158.5,102.6,158.5,102.7,158.5,102.8z"/>
				<path class="st0" d="M149.1,102.8c0-0.4,0.1-0.8,0.4-1.1c0.4-0.4,1.1-0.3,1.5,0.2c0.4,0.5,0.5,1.1,0.3,1.8
					c-0.1,0.4-0.4,0.7-0.9,0.8c-0.4,0-0.8-0.2-1-0.6C149.2,103.6,149.1,103.2,149.1,102.8z"/>
				<path class="st0" d="M151.3,100.5c0-0.5,0.1-0.9,0.5-1.2c0.4-0.4,1.1-0.4,1.4,0.1c0.5,0.6,0.5,1.6,0.1,2.2
					c-0.5,0.6-1.3,0.6-1.7-0.1C151.4,101.3,151.3,100.9,151.3,100.5z"/>
				<path class="st0" d="M156.4,100.6c0,0.4-0.1,0.8-0.4,1.2c-0.4,0.5-1,0.4-1.5,0c-0.6-0.6-0.5-1.8,0-2.3c0.4-0.4,1.1-0.4,1.5,0.1
					C156.2,99.8,156.4,100.1,156.4,100.6z"/>
			</g>
		</g>
	</g>
</g>
</svg>
